<svg xmlns="http://www.w3.org/2000/svg" xmlns:xlink="http://www.w3.org/1999/xlink" preserveAspectRatio="xMidYMid" width="17" height="17" viewBox="0 0 17 17">
  <defs>
    <style>
      .cls-1 {
        fill: #bfc2c3;
        fill-rule: evenodd;
      }
    </style>
  </defs>
  <path d="M14.550,14.469 C12.940,16.101 10.791,17.000 8.500,17.000 C6.213,17.000 4.067,16.104 2.458,14.477 C0.873,12.875 0.000,10.752 0.000,8.500 C0.000,3.813 3.813,-0.000 8.500,-0.000 C13.187,-0.000 17.000,3.813 17.000,8.500 C17.000,10.748 16.130,12.868 14.550,14.469 ZM13.326,14.193 C12.670,13.868 11.774,13.544 10.838,13.205 C10.471,13.072 10.093,12.936 9.716,12.794 C9.521,12.721 9.391,12.535 9.391,12.326 L9.391,10.587 C9.391,10.372 9.529,10.181 9.733,10.113 C9.751,10.105 10.435,9.822 10.435,8.500 C10.435,8.257 10.607,8.055 10.836,8.010 C10.877,7.906 10.877,7.703 10.836,7.599 C10.607,7.554 10.435,7.352 10.435,7.109 C10.435,6.990 10.470,6.879 10.541,6.659 C10.672,6.248 10.946,5.391 10.798,4.795 C10.705,4.422 9.924,4.130 9.022,4.130 C8.119,4.130 7.339,4.422 7.246,4.795 C7.181,5.055 6.924,5.218 6.663,5.164 C6.456,5.123 6.346,5.145 6.322,5.171 C6.244,5.255 6.162,5.563 6.478,6.688 C6.536,6.896 6.565,7.001 6.565,7.109 C6.565,7.352 6.393,7.554 6.164,7.599 C6.124,7.703 6.124,7.906 6.164,8.010 C6.393,8.055 6.565,8.257 6.565,8.500 C6.565,9.822 7.249,10.105 7.278,10.117 C7.470,10.191 7.609,10.381 7.609,10.587 L7.609,12.326 C7.609,12.534 7.481,12.720 7.286,12.794 C6.942,12.924 6.584,13.054 6.225,13.184 C5.311,13.515 4.374,13.855 3.683,14.201 C5.034,15.346 6.708,16.000 8.500,16.000 C10.296,16.000 11.973,15.343 13.326,14.193 ZM8.500,1.000 C4.364,1.000 1.000,4.364 1.000,8.500 C1.000,10.355 1.671,12.110 2.898,13.485 C3.682,13.041 4.799,12.637 5.885,12.244 C6.128,12.155 6.371,12.067 6.609,11.979 L6.609,10.880 C6.232,10.622 5.669,10.040 5.578,8.839 C5.306,8.638 5.134,8.263 5.134,7.804 C5.134,7.401 5.267,7.062 5.485,6.849 C5.301,6.190 5.032,5.091 5.588,4.492 C5.745,4.322 6.014,4.145 6.454,4.142 C6.928,3.404 8.077,3.130 9.022,3.130 C10.125,3.130 11.505,3.503 11.768,4.552 C11.972,5.371 11.703,6.303 11.526,6.860 C11.737,7.073 11.866,7.408 11.866,7.804 C11.866,8.263 11.694,8.638 11.422,8.839 C11.332,10.040 10.768,10.622 10.391,10.880 L10.391,11.978 C10.656,12.076 10.919,12.171 11.178,12.265 C12.344,12.686 13.375,13.059 14.110,13.476 C15.332,12.102 16.000,10.351 16.000,8.500 C16.000,4.364 12.636,1.000 8.500,1.000 Z" class="cls-1"/>
</svg>
