<svg xmlns="http://www.w3.org/2000/svg" xmlns:xlink="http://www.w3.org/1999/xlink" preserveAspectRatio="xMidYMid" width="17" height="17" viewBox="0 0 17 17">
  <defs>
    <style>
      .cls-1 {
        fill: #bfc2c3;
        fill-rule: evenodd;
      }
    </style>
  </defs>
  <path d="M8.500,17.000 C3.813,17.000 0.000,13.187 0.000,8.500 C0.000,3.813 3.813,-0.000 8.500,-0.000 C13.187,-0.000 17.000,3.813 17.000,8.500 C17.000,13.187 13.187,17.000 8.500,17.000 ZM8.500,1.016 C4.374,1.016 1.016,4.373 1.016,8.500 C1.016,12.627 4.374,15.984 8.500,15.984 C12.626,15.984 15.984,12.627 15.984,8.500 C15.984,4.373 12.626,1.016 8.500,1.016 ZM11.006,10.416 C11.006,11.582 10.163,12.557 9.040,12.798 L9.040,13.482 C9.040,13.773 8.799,14.009 8.500,14.009 C8.201,14.009 7.959,13.773 7.959,13.482 L7.959,12.798 C6.837,12.556 5.994,11.582 5.994,10.416 C5.994,10.125 6.235,9.889 6.534,9.889 C6.833,9.889 7.075,10.125 7.075,10.416 C7.075,10.995 7.441,11.490 7.959,11.699 L7.959,8.966 C6.837,8.724 5.994,7.750 5.994,6.584 C5.994,5.418 6.837,4.443 7.959,4.201 L7.959,3.518 C7.959,3.227 8.201,2.991 8.500,2.991 C8.799,2.991 9.040,3.227 9.040,3.518 L9.040,4.201 C10.163,4.443 11.006,5.418 11.006,6.584 C11.006,6.875 10.765,7.110 10.466,7.110 C10.167,7.110 9.925,6.875 9.925,6.584 C9.925,6.005 9.558,5.510 9.040,5.301 L9.040,8.034 C10.163,8.276 11.006,9.250 11.006,10.416 ZM9.925,10.416 C9.925,9.837 9.558,9.342 9.040,9.134 L9.040,11.699 C9.558,11.490 9.925,10.995 9.925,10.416 ZM7.075,6.584 C7.075,7.163 7.441,7.658 7.959,7.866 L7.959,5.301 C7.441,5.510 7.075,6.005 7.075,6.584 Z" class="cls-1"/>
</svg>
