<svg xmlns="http://www.w3.org/2000/svg" width="24" height="24" viewBox="0 0 24 24">
    <g fill-rule="nonzero">
        <path d="M17.25 24a6.75 6.75 0 1 0 0-13.5 6.75 6.75 0 0 0 0 13.5zm0-1.5a5.25 5.25 0 1 1 0-10.5 5.25 5.25 0 0 1 0 10.5z"/>
        <path d="M16.5 14.25v6H18v-6z"/>
        <path d="M14.25 18h6v-1.5h-6zM1.5 17.25a6.003 6.003 0 0 1 8.356-5.518l.588-1.38A7.503 7.503 0 0 0 0 17.249l1.5.002z"/>
        <path d="M7.5 9.75A4.875 4.875 0 1 0 7.5 0a4.875 4.875 0 0 0 0 9.75zm0-1.5a3.375 3.375 0 1 1 0-6.75 3.375 3.375 0 0 1 0 6.75z"/>
    </g>
</svg>
