<svg width="24" height="24" viewBox="0 0 24 24" fill="none" xmlns="http://www.w3.org/2000/svg">
<path fill-rule="evenodd" clip-rule="evenodd" d="M10.4 3.25C9.98579 3.25 9.65 3.58579 9.65 4C9.65 4.41421 9.98579 4.75 10.4 4.75H15.3333C16.7568 4.75 18.1305 5.34567 19.1497 6.42C20.1702 7.49567 20.75 8.96264 20.75 10.5C20.75 12.0374 20.1702 13.5043 19.1497 14.58C18.1305 15.6543 16.7568 16.25 15.3333 16.25H4.56066L7.28033 13.5303C7.57322 13.2374 7.57322 12.7626 7.28033 12.4697C6.98744 12.1768 6.51256 12.1768 6.21967 12.4697L2.21967 16.4697C1.92678 16.7626 1.92678 17.2374 2.21967 17.5303L6.21967 21.5303C6.51256 21.8232 6.98744 21.8232 7.28033 21.5303C7.57322 21.2374 7.57322 20.7626 7.28033 20.4697L4.56066 17.75H15.3333C17.1809 17.75 18.9442 16.976 20.2379 15.6124C21.5304 14.2501 22.25 12.4105 22.25 10.5C22.25 8.58955 21.5304 6.74991 20.2379 5.38761C18.9442 4.02397 17.1809 3.25 15.3333 3.25H10.4Z" fill="black"/>
</svg>
