<?xml version="1.0" encoding="UTF-8"?>
<svg width="24px" height="21px" viewBox="0 0 24 21" version="1.1" xmlns="http://www.w3.org/2000/svg" xmlns:xlink="http://www.w3.org/1999/xlink">
    <!-- Generator: Sketch 43.2 (39069) - http://www.bohemiancoding.com/sketch -->
    <title>Back office</title>
    <desc>Created with Sketch.</desc>
    <defs></defs>
    <g id="Temp.-Brokerage-Deals-MVP-V1" stroke="none" stroke-width="1" fill="none" fill-rule="evenodd">
        <g id="Group-21" transform="translate(-23.000000, -232.000000)" fill="#4E5C6C">
            <g id="Back-office" transform="translate(23.000000, 232.000000)">
                <path d="M12,15.9312 C12.525,15.7272 12.9,15.2212 12.9,14.6262 C12.9,14.0312 12.525,13.5242 12,13.3222 L12,15.9312 Z" id="Fill-3741"></path>
                <path d="M10.0996,10.8252 C10.0996,11.4202 10.4746,11.9272 10.9996,12.1302 L10.9996,9.5212 C10.4746,9.7232 10.0996,10.2302 10.0996,10.8252" id="Fill-3742"></path>
                <path d="M15,4 L9,4 L9,2.5 C9,1.673 9.673,1 10.5,1 L13.5,1 C14.327,1 15,1.673 15,2.5 L15,4 Z M13.9,14.626 C13.9,15.778 13.084,16.741 12,16.972 L12,18 C12,18.276 11.776,18.5 11.5,18.5 C11.224,18.5 11,18.276 11,18 L11,16.972 C9.916,16.741 9.1,15.778 9.1,14.626 C9.1,14.35 9.323,14.126 9.6,14.126 C9.876,14.126 10.1,14.35 10.1,14.626 C10.1,15.221 10.475,15.728 11,15.931 L11,13.171 C9.916,12.94 9.1,11.978 9.1,10.825 C9.1,9.673 9.916,8.71 11,8.479 L11,7.5 C11,7.224 11.224,7 11.5,7 C11.776,7 12,7.224 12,7.5 L12,8.479 C13.084,8.71 13.9,9.673 13.9,10.825 C13.9,11.102 13.677,11.325 13.4,11.325 C13.124,11.325 12.9,11.102 12.9,10.825 C12.9,10.23 12.525,9.723 12,9.521 L12,12.281 C13.084,12.511 13.9,13.474 13.9,14.626 L13.9,14.626 Z M20.5,4 L16,4 L16,2.5 C16,1.122 14.879,0 13.5,0 L10.5,0 C9.121,0 8,1.122 8,2.5 L8,4 L3.5,4 C1.57,4 0,5.57 0,7.5 L0,17.5 C0,19.43 1.57,21 3.5,21 L20.5,21 C22.43,21 24,19.43 24,17.5 L24,7.5 C24,5.57 22.43,4 20.5,4 L20.5,4 Z" id="Fill-3743"></path>
            </g>
        </g>
    </g>
</svg>