<svg xmlns="http://www.w3.org/2000/svg" width="24" height="24" viewBox="0 0 24 24">
  <path d="M5.727,5.283 L3.727,3.283 C3.34802779,2.89062111 3.35344763,2.26691522 3.73918142,1.88118142 C4.12491522,1.49544763 4.74862111,1.49002779 5.141,1.869 L7.141,3.869 C7.53138194,4.25949985 7.53138194,4.89250015 7.141,5.283 C6.7469786,5.66478367 6.1210214,5.66478367 5.727,5.283 Z M9.5,4.5 C8.94771525,4.5 8.5,4.05228475 8.5,3.5 L8.5,1 C8.5,0.44771525 8.94771525,0 9.5,0 C10.0522847,0 10.5,0.44771525 10.5,1 L10.5,3.5 C10.5,4.05228475 10.0522847,4.5 9.5,4.5 Z M2.909,9 C2.35671525,9 1.909,8.55228475 1.909,8 C1.909,7.44771525 2.35671525,7 2.909,7 L5.409,7 C5.96128475,7 6.409,7.44771525 6.409,8 C6.409,8.55228475 5.96128475,9 5.409,9 L2.909,9 Z M10.727,17.869 C10.9780745,17.6090434 11.3498779,17.5047874 11.6995073,17.5963028 C12.0491368,17.6878183 12.3221817,17.9608632 12.4136972,18.3104927 C12.5052126,18.6601221 12.4009566,19.0319255 12.141,19.283 L8.741,22.683 C6.98170318,24.4347676 4.13729682,24.4347676 2.378,22.683 L1.317,21.623 C-0.434883189,19.8633607 -0.434883189,17.0186393 1.317,15.259 L4.717,11.859 C4.96807447,11.5990434 5.33987789,11.4947874 5.68950732,11.5863028 C6.03913676,11.6778183 6.31218172,11.9508632 6.40369716,12.3004927 C6.4952126,12.6501221 6.39095658,13.0219255 6.131,13.273 L2.731,16.673 C1.7604111,17.6518556 1.7604111,19.2301444 2.731,20.209 L3.792,21.269 C4.78323828,22.2080641 6.33576172,22.2080641 7.327,21.269 L10.727,17.869 Z M19.377,7 C21.9033513,7.02070659 23.9534796,9.04999218 24,11.576 L24,13.576 C23.9345356,16.0791636 21.8563565,18.0576151 19.353,18 L14.877,18 C14.3247153,18 13.877,17.5522847 13.877,17 C13.877,16.4477153 14.3247153,16 14.877,16 L19.353,16 C20.7456737,16.0407939 21.9183857,14.9668786 22,13.576 L22,11.576 C21.9355622,10.1627527 20.7911813,9.03887731 19.377,9 L14.877,9 C14.3247153,9 13.877,8.55228475 13.877,8 C13.877,7.44771525 14.3247153,7 14.877,7 L19.377,7 Z"/>
</svg>
