<svg xmlns="http://www.w3.org/2000/svg" xmlns:xlink="http://www.w3.org/1999/xlink" preserveAspectRatio="xMidYMid" width="23.937" height="11" viewBox="0 0 23.937 11">
  <defs>
    <style>
      .cls-1 {
        fill: #38f;
        fill-rule: evenodd;
      }
    </style>
  </defs>
  <path d="M23.785,2.186 L20.994,9.186 C20.587,10.203 19.465,11.000 18.437,11.000 L6.473,11.000 C5.931,11.000 5.468,10.774 5.202,10.380 C4.917,9.957 4.884,9.387 5.113,8.815 L7.904,1.814 C8.311,0.797 9.434,0.000 10.461,0.000 L22.425,0.000 C22.966,0.000 23.430,0.226 23.696,0.621 C23.981,1.043 24.014,1.615 23.785,2.186 ZM16.614,6.757 L18.110,9.257 C18.203,9.414 18.368,9.500 18.537,9.500 C18.625,9.500 18.714,9.478 18.793,9.429 C19.030,9.287 19.106,8.980 18.965,8.743 L17.469,6.243 C17.327,6.006 17.021,5.930 16.785,6.071 C16.550,6.214 16.472,6.520 16.614,6.757 ZM7.280,8.593 C7.056,8.754 7.004,9.066 7.164,9.291 C7.261,9.427 7.415,9.500 7.570,9.500 C7.670,9.500 7.771,9.470 7.859,9.407 L11.349,6.907 C11.573,6.747 11.625,6.434 11.465,6.209 C11.305,5.985 10.994,5.933 10.769,6.093 L7.280,8.593 ZM21.563,2.255 C21.429,2.015 21.123,1.929 20.884,2.065 L14.140,5.876 L10.518,2.151 C10.326,1.954 10.010,1.949 9.813,2.142 C9.616,2.335 9.612,2.651 9.804,2.849 L13.693,6.849 C13.790,6.948 13.919,7.000 14.051,7.000 C14.134,7.000 14.218,6.980 14.295,6.936 L21.374,2.935 C21.614,2.800 21.698,2.495 21.563,2.255 ZM5.491,1.000 L0.507,1.000 C0.231,1.000 0.008,0.776 0.008,0.500 C0.008,0.224 0.231,0.000 0.507,0.000 L5.491,0.000 C5.767,0.000 5.991,0.224 5.991,0.500 C5.991,0.776 5.767,1.000 5.491,1.000 ZM0.507,4.000 L3.498,4.000 C3.772,4.000 3.996,4.224 3.996,4.500 C3.996,4.776 3.772,5.000 3.498,5.000 L0.507,5.000 C0.231,5.000 0.008,4.776 0.008,4.500 C0.008,4.224 0.231,4.000 0.507,4.000 ZM0.507,9.000 L2.500,9.000 C2.776,9.000 2.999,9.224 2.999,9.500 C2.999,9.776 2.776,10.000 2.500,10.000 L0.507,10.000 C0.231,10.000 0.008,9.776 0.008,9.500 C0.008,9.224 0.231,9.000 0.507,9.000 Z" class="cls-1"/>
</svg>
