<svg xmlns="http://www.w3.org/2000/svg" xmlns:xlink="http://www.w3.org/1999/xlink" preserveAspectRatio="xMidYMid" width="23.9" height="14" viewBox="0 0 23.9 14">
  <defs>
    <style>
      .cls-1 {
        fill: #e2e2e2;
        fill-rule: evenodd;
      }
    </style>
  </defs>
  <path d="M23.795,7.310 C23.579,7.583 18.437,14.000 11.937,14.000 C5.436,14.000 0.293,7.583 0.077,7.310 C-0.066,7.128 -0.066,6.871 0.077,6.690 C0.293,6.416 5.436,0.000 11.937,0.000 C18.437,0.000 23.579,6.416 23.795,6.690 C23.939,6.871 23.939,7.128 23.795,7.310 ZM11.937,2.500 C9.463,2.500 7.450,4.518 7.450,7.000 C7.450,9.482 9.463,11.500 11.937,11.500 C14.411,11.500 16.424,9.482 16.424,7.000 C16.424,4.518 14.411,2.500 11.937,2.500 ZM11.937,10.500 C10.012,10.500 8.447,8.930 8.447,7.000 C8.447,5.069 10.012,3.500 11.937,3.500 C13.862,3.500 15.428,5.069 15.428,7.000 C15.428,8.930 13.862,10.500 11.937,10.500 Z" class="cls-1"/>
</svg>
