<svg xmlns="http://www.w3.org/2000/svg" xmlns:xlink="http://www.w3.org/1999/xlink" preserveAspectRatio="xMidYMid" width="18" height="24" viewBox="0 0 18 24">
  <defs>
    <style>
      .cls-1 {
        fill: #ccc;
        fill-rule: evenodd;
      }
    </style>
  </defs>
  <path d="M15.000,9.276 L15.000,6.000 C15.000,2.691 12.309,-0.000 9.000,-0.000 C5.691,-0.000 3.000,2.691 3.000,6.000 L3.000,9.276 C1.258,9.898 -0.000,11.547 -0.000,13.500 L-0.000,19.500 C-0.000,21.981 2.018,24.000 4.500,24.000 L13.500,24.000 C15.982,24.000 18.000,21.981 18.000,19.500 L18.000,13.500 C18.000,11.547 16.742,9.898 15.000,9.276 ZM9.000,18.000 C7.897,18.000 7.000,17.105 7.000,16.000 C7.000,14.894 7.897,14.000 9.000,14.000 C10.106,14.000 11.000,14.894 11.000,16.000 C11.000,17.105 10.106,18.000 9.000,18.000 ZM14.000,9.000 L13.500,9.000 L4.500,9.000 L4.000,9.000 L4.000,6.000 C4.000,3.243 6.244,1.000 9.000,1.000 C11.756,1.000 14.000,3.243 14.000,6.000 L14.000,9.000 Z" class="cls-1"/>
</svg>
