<svg width="24" height="24" viewBox="0 0 24 24" fill="none" xmlns="http://www.w3.org/2000/svg">
<path d="M12 6.5C13.7949 6.5 15.25 5.04493 15.25 3.25C15.25 1.45507 13.7949 0 12 0C10.2051 0 8.75 1.45507 8.75 3.25C8.75 5.04493 10.2051 6.5 12 6.5Z"/>
<path d="M12 15.25C13.7949 15.25 15.25 13.7949 15.25 12C15.25 10.2051 13.7949 8.75 12 8.75C10.2051 8.75 8.75 10.2051 8.75 12C8.75 13.7949 10.2051 15.25 12 15.25Z"/>
<path d="M12 24C13.7949 24 15.25 22.5449 15.25 20.75C15.25 18.9551 13.7949 17.5 12 17.5C10.2051 17.5 8.75 18.9551 8.75 20.75C8.75 22.5449 10.2051 24 12 24Z"/>
</svg>
