<svg width="24" height="24" xmlns="http://www.w3.org/2000/svg">
  <path d="M20 12c0-4.4183-3.5817-8-8-8s-8 3.5817-8 8 3.5817 8 8 8a8 8 0 0 0 8-8zM5.6 12c0-3.5346 2.8654-6.4 6.4-6.4s6.4 2.8654 6.4 6.4-2.8654 6.4-6.4 6.4A6.4 6.4 0 0 1 5.6 12zm1.3 0c0 .7113.5767 1.288 1.288 1.288S9.476 12.7113 9.476 12s-.5767-1.288-1.288-1.288S6.9 11.2887 6.9 12zm3.812 0c0 .7113.5767 1.288 1.288 1.288s1.288-.5767 1.288-1.288-.5767-1.288-1.288-1.288-1.288.5767-1.288 1.288zm3.812 0c0 .7113.5767 1.288 1.288 1.288S17.1 12.7113 17.1 12s-.5767-1.288-1.288-1.288-1.288.5767-1.288 1.288z" fill-rule="nonzero"/>
</svg>
