<svg xmlns="http://www.w3.org/2000/svg" width="24" height="24">
  <g fill="none" fill-rule="evenodd">
    <path fill="none" d="M0 0h24v24H0z"/>
    <path fill="#04C6D9" fill-rule="nonzero" d="M19.96 16.181l-.018-.053c-.302-.693-2.079-2.204-2.15-2.275a8.69 8.69 0 0 0-.87-.676c-.179-.107-.392-.231-.658-.285-.622-.107-1.031.338-1.209.534-.018.018-.035.053-.07.07-.108.107-.232.267-.374.41a6.755 6.755 0 0 1-.587.64c-.285-.09-.853-.445-1.137-.676-1.173-.959-2.274-2.043-2.719-2.683l-.018-.019c-.48-.675-.64-1.012-.692-1.173a6.85 6.85 0 0 1 .64-.587c.16-.124.302-.248.409-.373l.07-.07c.213-.197.64-.587.533-1.21-.035-.266-.16-.48-.284-.657a8.61 8.61 0 0 0-.676-.87c-.07-.071-1.581-1.849-2.275-2.152l-.107-.036c-.426-.107-.817 0-1.19.302-.48.41-.96.889-1.44 1.493-.409.498-.818 1.066-1.013 1.742-.07.213-.32 1.102.178 2.329.089.302.515 1.723 1.777 3.27.782.959 2.826 3.358 5.012 4.922 1.51 1.067 2.736 1.511 2.967 1.582.587.248 1.102.32 1.511.32.444 0 .746-.089.853-.124.676-.196 1.226-.604 1.742-1.013.604-.48 1.084-.96 1.493-1.44.302-.374.409-.764.302-1.19v-.052zm-2.683 1.582c-.39.32-.818.622-1.244.746l-.035.018c-.018 0-.551.178-1.387-.16l-.07-.018c-.018 0-1.174-.373-2.595-1.386-2.098-1.51-4.16-3.963-4.728-4.674-1.19-1.458-1.529-2.773-1.529-2.773l-.035-.107c-.338-.818-.178-1.35-.178-1.368l.018-.054c.124-.444.444-.853.746-1.244.41-.515.8-.924 1.209-1.262.374.302 1.173 1.137 1.618 1.67.213.249.408.48.568.73v.017c-.018.019-.035.019-.035.036-.036.035-.071.053-.09.089a6.82 6.82 0 0 1-.337.302c-.586.498-.995.87-1.12 1.297-.177.587.214 1.315.943 2.364l.018.018c.622.907 1.937 2.133 2.968 2.986.07.054 1.528 1.263 2.434.978.426-.124.782-.533 1.298-1.12.124-.142.23-.267.302-.337l.089-.09.035-.035h.018c.248.16.498.356.729.569.533.462 1.386 1.262 1.67 1.618-.356.39-.765.781-1.28 1.19z"/>
  </g>
</svg>