<?xml version="1.0" encoding="UTF-8"?>
<svg width="157px" height="60px" viewBox="0 0 157 60" version="1.1" xmlns="http://www.w3.org/2000/svg" xmlns:xlink="http://www.w3.org/1999/xlink">
    <!-- Generator: Sketch 48.2 (47327) - http://www.bohemiancoding.com/sketch -->
    <title>Group 5</title>
    <desc>Created with Sketch.</desc>
    <defs></defs>
    <g id="Uploaded-File-6-Copy" stroke="none" stroke-width="1" fill="none" fill-rule="evenodd" transform="translate(-643.000000, -406.000000)">
        <g id="Group-7" transform="translate(622.000000, 406.000000)" fill="#D4DFE6" fill-rule="nonzero">
            <g id="Group-5" transform="translate(19.000000, 0.000000)">
                <g id="Group-6" transform="translate(26.000000, 31.000000) rotate(-15.000000) translate(-26.000000, -31.000000) translate(6.000000, 7.000000)">
                    <g id="np_pdf_427352_000000" transform="translate(-0.000000, 0.000000)">
                        <path d="M11.0471429,17.72832 C11.2331524,17.7545698 11.4712476,17.7695698 11.7390952,17.7695698 C12.9332857,17.7695698 13.9563333,17.4751954 14.6464762,16.8189298 C15.1784762,16.3108018 15.4705238,15.5608018 15.4705238,14.6776978 C15.4705238,13.7945938 15.085481,13.0445938 14.5144286,12.5889298 C13.9173333,12.1070578 13.0263333,11.8651858 11.7800476,11.8651858 C10.5449048,11.8651858 9.66695238,11.9458114 9.04380952,12.0526834 L9.04194905,20.9552434 L11.0471395,20.9552434 L11.0471429,17.72832 Z M11.0471429,13.485216 C11.1922333,13.4439658 11.4712476,13.4045904 11.8841905,13.4045904 C12.892381,13.4045904 13.4652857,13.8995664 13.4652857,14.7302064 C13.4652857,15.6545904 12.8012381,16.2039504 11.7242381,16.2039504 C11.4322,16.2039504 11.2201429,16.1908258 11.0471429,16.1514528 L11.0471429,13.485216 Z" id="Shape"></path>
                        <path d="M23.0580952,19.88448 C23.9211905,19.147584 24.5461905,17.956992 24.5461905,16.228224 C24.5461905,14.63448 23.9620952,13.52448 23.0320476,12.828864 C22.1689524,12.172608 21.0677619,11.86512 19.367619,11.86512 C18.3445714,11.86512 17.3735714,11.9326176 16.631381,12.0526176 L16.631381,20.9158176 C17.1354762,20.9833152 17.8795238,21.0508176 18.928619,21.0508176 C20.679,21.0489422 22.115,20.6739408 23.0580952,19.8845616 L23.0580952,19.88448 Z M18.6607619,13.51152 C18.8318952,13.4721446 19.1257905,13.4308944 19.5759524,13.4308944 C21.317,13.4308944 22.4051905,14.4208944 22.3921905,16.2959184 C22.3921905,18.4521744 21.1961429,19.4684304 19.3639048,19.4552784 C19.1109286,19.4552784 18.8319048,19.4552784 18.6607619,19.4140282 L18.6607619,13.51152 Z" id="Shape"></path>
                        <polygon id="Shape" points="27.7790476 17.32704 30.9933333 17.32704 30.9933333 15.66768 27.7790476 15.66768 27.7790476 13.605168 31.2165714 13.605168 31.2165714 11.932656 25.7460952 11.932656 25.7460952 20.955216 27.7791905 20.955216"></polygon>
                        <polygon id="Shape" points="6.8247619 28.82064 33.0785714 28.82064 33.0785714 31.82064 6.8247619 31.82064"></polygon>
                        <polygon id="Shape" points="6.8247619 33.24768 33.0785714 33.24768 33.0785714 36.24768 6.8247619 36.24768"></polygon>
                        <polygon id="Shape" points="6.8247619 37.67616 33.0785714 37.67616 33.0785714 40.67616 6.8247619 40.67616"></polygon>
                        <path d="M39.7171429,42.46512 L39.7171429,0 L5.77380952,0 C2.74180952,0 0.282857143,2.478768 0.282857143,5.53488 L0.282857143,48 L34.2261905,48 C37.2581905,48 39.7171429,45.521232 39.7171429,42.46512 Z M3.25904762,5.53488 C3.25904762,4.136112 4.38628571,2.999904 5.77390476,2.999904 L36.7410476,2.999904 L36.7410476,42.465024 C36.7410476,43.86192 35.6138095,45 34.2261905,45 L3.25904762,45 L3.25904762,5.53488 Z" id="Shape"></path>
                    </g>
                </g>
                <g id="XLSX" transform="translate(133.530174, 31.000000) rotate(-345.000000) translate(-133.530174, -31.000000) translate(113.530174, 7.000000)">
                    <path d="M8.64190476,20.55744 L9.32457143,19.05744 C9.58126667,18.479952 9.78774286,18.050544 9.95885714,17.572416 L9.98303905,17.572416 C10.2136962,18.052416 10.4090057,18.481776 10.7140867,19.05744 L11.4581343,20.55744 L13.6028486,20.55744 L11.1660867,16.319952 L13.4819438,12.279312 L11.36142,12.279312 L10.6676105,13.788672 C10.4592771,14.268672 10.3030295,14.63616 10.1058486,15.164928 L10.0816671,15.164928 C9.88635286,14.6980512 9.70406238,14.293056 9.46038143,13.788672 L8.74238143,12.279312 L6.61066714,12.279312 L8.90047667,16.368672 L6.52509571,20.55744 L8.64190524,20.5555651 L8.64190476,20.55744 Z" id="Shape"></path>
                    <polygon id="Shape" points="19.6057143 18.98448 16.3411905 18.98448 16.3411905 12.27936 14.4773333 12.27936 14.4773333 20.55744 19.6059048 20.55744"></polygon>
                    <path d="M22.7009524,19.14384 C21.9085238,19.14384 21.1421905,18.8869632 20.6418095,18.628224 L20.2642048,20.176992 C20.7273762,20.4338688 21.6518714,20.679504 22.5893476,20.679504 C24.8438238,20.679504 25.9040619,19.502016 25.9040619,18.112608 C25.9040619,16.946352 25.2213952,16.18512 23.7723476,15.64512 C22.7120619,15.24012 22.248919,15.00576 22.248919,14.476992 C22.248919,14.0476176 22.6376857,13.678224 23.4431095,13.678224 C24.246681,13.678224 24.8307762,13.9107264 25.1600143,14.0719728 L25.574819,12.5607408 C25.0874857,12.3394896 24.4066762,12.1426176 23.4803429,12.1426176 C21.5439619,12.1426176 20.3739619,13.2226176 20.3739619,14.6363616 C20.3739619,15.8401056 21.2631048,16.6013856 22.6284381,17.0813856 C23.6161524,17.4376368 24.0049143,17.7320256 24.0049143,18.2476416 C24.0030543,18.7876416 23.5529048,19.1438976 22.7009619,19.1438976 L22.7009524,19.14384 Z" id="Shape"></path>
                    <path d="M28.5471429,20.55744 L29.2298095,19.05744 C29.4865048,18.479952 29.692981,18.050544 29.8640952,17.572416 L29.8882767,17.572416 C30.1189338,18.052416 30.3142433,18.481776 30.6193243,19.05744 L31.3633719,20.55744 L33.5080862,20.55744 L31.0713243,16.319952 L33.3871814,12.279312 L31.2666576,12.279312 L30.5728481,13.788672 C30.3645148,14.268672 30.2082671,14.63616 30.0110862,15.164928 L29.9850443,15.164928 C29.78973,14.6980512 29.6074395,14.293056 29.3637586,13.788672 L28.6457586,12.279312 L26.5140443,12.279312 L28.8038538,16.368672 L26.4284729,20.55744 L28.5471395,20.5555651 L28.5471429,20.55744 Z" id="Shape"></path>
                    <polygon id="Shape" points="6.8247619 28.82256 33.0785714 28.82256 33.0785714 31.82256 6.8247619 31.82256"></polygon>
                    <polygon id="Shape" points="6.8247619 33.2496 33.0785714 33.2496 33.0785714 36.2496 6.8247619 36.2496"></polygon>
                    <polygon id="Shape" points="6.8247619 37.67616 33.0785714 37.67616 33.0785714 40.67616 6.8247619 40.67616"></polygon>
                    <path d="M0.282761905,5.53488 L0.282761905,48 L34.2260952,48 C37.2580952,48 39.7170476,45.521232 39.7170476,42.46512 L39.7170476,0 L5.77371429,0 C2.74171429,0 0.282761905,2.478768 0.282761905,5.53488 Z M36.7408571,42.46512 C36.7408571,43.862016 35.613619,45.000096 34.226,45.000096 L3.25885714,45.000096 L3.25885714,5.534976 C3.25885714,4.136208 4.38609524,3 5.77371429,3 L36.7408571,3 L36.7408571,42.46512 Z" id="Shape"></path>
                </g>
                <g id="CSV" transform="translate(60.000000, 0.000000)">
                    <polygon id="Shape" points="6.74698795 28.8 33.3171084 28.8 33.3171084 31.8 6.74698795 31.8"></polygon>
                    <polygon id="Shape" points="6.74698795 33.12 33.3171084 33.12 33.3171084 36.12 6.74698795 36.12"></polygon>
                    <polygon id="Shape" points="6.74698795 37.44 33.3171084 37.44 33.3171084 40.44 6.74698795 40.44"></polygon>
                    <path d="M0,5.53488 L0,48 L34.3522892,48 C37.4208193,48 39.9093976,45.521232 39.9093976,42.46512 L39.9093976,0 L5.55710843,0 C2.48857831,0 3.42430234e-15,2.478768 0,5.53488 Z M36.8973494,42.46512 C36.8973494,43.862016 35.7565301,45.000096 34.3521928,45.000096 L3.01195181,45.000096 L3.01195181,5.534976 C3.01195181,4.136208 4.15277108,3 5.55710843,3 L36.8973494,3 L36.8973494,42.46512 Z" id="Shape"></path>
                    <path d="M14.3919518,17.3606544 C14.3222988,18.3675504 13.9665012,19.1494224 13.3226506,19.7062704 C12.6788434,20.2612464 11.8091084,20.5387824 10.7096867,20.5387824 C9.47850602,20.5387824 8.51089157,20.1806592 7.80496386,19.4606544 C7.09903614,18.7425264 6.74698795,17.7581424 6.74698795,16.5094224 C6.74698795,15.2625264 7.09713735,14.2800624 7.79556627,13.5600624 C8.4939759,12.8400624 9.44655422,12.4800624 10.653253,12.4800624 C11.7658313,12.4800624 12.6412048,12.7481856 13.277494,13.2825744 C13.9156627,13.8169584 14.2714699,14.5819344 14.3486747,15.5756784 L11.9861205,15.5756784 C11.9522352,15.1856784 11.8242217,14.8894224 11.6058506,14.6906544 C11.3874747,14.4919056 11.0787181,14.3925312 10.6833928,14.3925312 C10.1995855,14.3925312 9.83813976,14.5687824 9.59529639,14.9194272 C9.35433253,15.2700528 9.23196627,15.8006592 9.23196627,16.5112992 C9.23196627,17.2069152 9.36186024,17.7338112 9.61788434,18.0900672 C9.87579277,18.4463184 10.252294,18.6244512 10.749306,18.6244512 C11.1314602,18.6244512 11.434559,18.5157024 11.6604386,18.296328 C11.8863181,18.0769536 12.0181205,17.765688 12.0557687,17.360712 L14.3919518,17.3606544 Z M18.7443373,17.9418864 C18.8102265,18.219384 18.9307084,18.4181376 19.1038988,18.5381424 C19.277094,18.6600192 19.5368819,18.7200192 19.8813928,18.7200192 C20.1694217,18.7200192 20.3972,18.6693936 20.5610072,18.571896 C20.7266699,18.4725216 20.8094988,18.3375216 20.8094988,18.1631472 C20.8094988,17.8875216 20.4631133,17.6606352 19.7722458,17.4881712 C19.6329398,17.454421 19.5275181,17.4281712 19.4540964,17.4112944 C18.8874458,17.2650432 18.4375181,17.1337968 18.1005542,17.0137968 C17.7654651,16.8956736 17.520747,16.7831712 17.3682651,16.680048 C17.0727084,16.4681712 16.8505783,16.215048 16.7037349,15.92256 C16.5550169,15.6281856 16.4815952,15.29256 16.4815952,14.915664 C16.4815952,14.158176 16.7677398,13.56192 17.3419325,13.128768 C17.9142217,12.6956448 18.7048723,12.48 19.708294,12.48 C20.6966313,12.48 21.4722458,12.6862512 22.0388482,13.10064 C22.6054506,13.5150288 22.9254988,14.107536 22.9989446,14.88 L20.6570651,14.88 C20.619414,14.655 20.5196386,14.4862512 20.3577446,14.375616 C20.1958458,14.2649904 19.9661783,14.2087392 19.666853,14.2087392 C19.4014169,14.2087392 19.2056337,14.2518643 19.0776,14.3381136 C18.947706,14.4243648 18.8855807,14.5556112 18.8855807,14.7318624 C18.8855807,14.9849856 19.2225542,15.1968624 19.8965205,15.3656064 C19.9548771,15.3824813 20.0019422,15.3956064 20.0320627,15.4012315 C20.1299566,15.4256064 20.2767904,15.4612315 20.4763422,15.5099803 C21.370559,15.7349803 21.9541253,15.9393547 22.2289687,16.1230843 C22.569706,16.3480843 22.8182217,16.6049563 22.9744627,16.8918523 C23.1307133,17.1787291 23.2097783,17.5181083 23.2097783,17.9099803 C23.2097783,18.7555963 22.9142217,19.4043643 22.3212,19.8581083 C21.728188,20.3118571 20.8791759,20.5387483 19.7741157,20.5387483 C18.7556578,20.5387483 17.9480434,20.3118715 17.3532,19.8581083 C16.7526699,19.4043595 16.4194651,18.7668763 16.3460675,17.9418523 L18.7443373,17.9418864 Z M24.7647711,12.6748464 L27.2873735,12.6748464 L28.5806747,17.6135664 L29.9680964,12.6748464 L32.3927711,12.6748464 L29.8061687,20.3250864 L27.3494458,20.3250864 L24.7647711,12.6748464 Z" id="Shape"></path>
                </g>
            </g>
        </g>
    </g>
</svg>