<svg xmlns="http://www.w3.org/2000/svg" width="48" height="40" viewBox="0 0 48 40">
    <path fill="#65778D" fill-rule="evenodd" d="M40 38h-6v-8h5a1 1 0 0 1 1 1v7zM28 21c-2.206 0-4-1.796-4-4 0-2.206 1.794-4 4-4s4 1.794 4 4c0 2.204-1.794 4-4 4zm4 17h-8v-7a1 1 0 0 1 1-1h7v8zM17 26H9a1 1 0 0 1 0-2h8a1 1 0 0 1 0 2zm1 11c0 .552-.45 1-1 1H9a1 1 0 0 1-1-1v-8a1 1 0 0 1 1-1h8a1 1 0 0 1 1 1v8zm29 1h-3V18.314l2.471 1.536a1.002 1.002 0 0 0 1.056-1.7L42 14.7V5a1 1 0 0 0-1-1h-4a1 1 0 0 0-1 1v5.978L18.528.151a1 1 0 1 0-1.056 1.7L20 3.418v10.904L.63 22.07A1.001 1.001 0 0 0 1 24c.123 0 .25-.024.37-.072L4 22.876V38H1a1 1 0 1 0 0 2h46a1 1 0 0 0 0-2z"/>
</svg>
