<?xml version="1.0" encoding="UTF-8"?>
<svg width="84px" height="100px" viewBox="0 0 84 100" version="1.1" xmlns="http://www.w3.org/2000/svg" xmlns:xlink="http://www.w3.org/1999/xlink">
    <!-- Generator: Sketch 48.2 (47327) - http://www.bohemiancoding.com/sketch -->
    <title>np_pdf_427352_000000</title>
    <desc>Created with Sketch.</desc>
    <defs></defs>
    <g id="136---PDF-Splitter-Updates-02/01/2018" stroke="none" stroke-width="1" fill="none" fill-rule="evenodd">
        <g id="np_pdf_427352_000000" fill="#d4dfe6" fill-rule="nonzero">
            <path d="M23.199,36.934 C23.58962,36.988687 24.08962,37.019937 24.6521,37.019937 C27.1599,37.019937 29.3083,36.406657 30.7576,35.039437 C31.8748,33.980837 32.4881,32.418337 32.4881,30.578537 C32.4881,28.738737 31.67951,27.176237 30.4803,26.226937 C29.2264,25.223037 27.3553,24.719137 24.7381,24.719137 C22.1443,24.719137 20.3006,24.887107 18.992,25.109757 L18.988093,43.656757 L23.198993,43.656757 L23.199,36.934 Z M23.199,28.0942 C23.50369,28.008262 24.08962,27.92623 24.9568,27.92623 C27.074,27.92623 28.2771,28.95743 28.2771,30.68793 C28.2771,32.61373 26.8826,33.75823 24.6209,33.75823 C24.00762,33.75823 23.5623,33.730887 23.199,33.64886 L23.199,28.0942 Z" id="Shape"></path>
            <path d="M48.422,41.426 C50.2345,39.8908 51.547,37.4104 51.547,33.8088 C51.547,30.4885 50.3204,28.176 48.3673,26.7268 C46.5548,25.3596 44.2423,24.719 40.672,24.719 C38.5236,24.719 36.4845,24.85962 34.9259,25.10962 L34.9259,43.57462 C35.9845,43.71524 37.547,43.85587 39.7501,43.85587 C43.4259,43.851963 46.4415,43.07071 48.422,41.42617 L48.422,41.426 Z M39.1876,28.149 C39.54698,28.066968 40.16416,27.98103 41.1095,27.98103 C44.7657,27.98103 47.0509,30.04353 47.0236,33.94983 C47.0236,38.44203 44.5119,40.55923 40.6642,40.53183 C40.13295,40.53183 39.547,40.53183 39.1876,40.445892 L39.1876,28.149 Z" id="Shape"></path>
            <polygon id="Shape" points="58.336 36.098 65.086 36.098 65.086 32.641 58.336 32.641 58.336 28.3441 65.5548 28.3441 65.5548 24.8597 54.0668 24.8597 54.0668 43.6567 58.3363 43.6567"></polygon>
            <polygon id="Shape" points="14.332 60.043 69.465 60.043 69.465 66.293 14.332 66.293"></polygon>
            <polygon id="Shape" points="14.332 69.266 69.465 69.266 69.465 75.516 14.332 75.516"></polygon>
            <polygon id="Shape" points="14.332 78.492 69.465 78.492 69.465 84.742 14.332 84.742"></polygon>
            <path d="M83.406,88.469 L83.406,0 L12.125,0 C5.7578,0 0.594,5.1641 0.594,11.531 L0.594,100 L71.875,100 C78.2422,100 83.406,94.8359 83.406,88.469 Z M6.844,11.531 C6.844,8.6169 9.2112,6.2498 12.1252,6.2498 L77.1562,6.2498 L77.1562,88.4688 C77.1562,91.379 74.789,93.75 71.875,93.75 L6.844,93.75 L6.844,11.531 Z" id="Shape"></path>
        </g>
    </g>
</svg>