<svg width="24" height="24" viewBox="0 0 24 24" xmlns="http://www.w3.org/2000/svg"><title>7BCFF4D6-12AC-464F-BA54-FB7909577982</title><g fill="none" fill-rule="evenodd"><g stroke="#2196F3"><path d="M18.328 5.671a4.002 4.002 0 0 0-5.657 0C11.508 6.834 10.031 11.865 9.5 14l.5.5c2.135-.531 7.165-2.009 8.328-3.172a3.999 3.999 0 0 0 0-5.657z"/><circle cx="15.5" cy="8.5" r="1"/><path d="M14.796 9.204L9.75 14.25M19.5.5l4 4L21 6l-3-3zM17.5 5l1-1.5M20.5 5.5l-1.5 1M8 15.5H4.5s-2 0-2 2 2 2 2 2h12s2 0 2 2-2 2-2 2H.5"/></g><path d="M0 0h24v24H0z"/></g></svg>