<svg xmlns="http://www.w3.org/2000/svg" width="22" height="21" viewBox="0 0 22 21">
    <g fill="none" fill-rule="evenodd" stroke="#8DA2B5" stroke-linecap="round" stroke-linejoin="round" stroke-width="1.5">
        <path d="M16.69 5.142a3.335 3.335 0 0 0-4.714 0c-.97.97-2.2 5.162-2.643 6.941l.417.417c1.78-.443 5.97-1.674 6.94-2.644a3.334 3.334 0 0 0 0-4.714z"/>
        <path d="M14.333 7.5a.833.833 0 1 1-1.666 0 .833.833 0 0 1 1.666 0zM13.5 7.5l-4.167 4.167M17.364.833L21 4.47l-2.273 1.363L16 3.106zM15.167 5L16 3.333M18.5 5l-1.667.833M7.25 13.333H4.333s-1.666 0-1.666 1.667 1.666 1.667 1.666 1.667h10s1.667 0 1.667 1.666C16 20 14.333 20 14.333 20H1"/>
    </g>
</svg>
