<svg width="174" height="68" viewBox="0 0 174 68" xmlns="http://www.w3.org/2000/svg"><title>297FA968-F2C4-4634-AC97-032DDA57785E</title><g fill="none" fill-rule="evenodd"><g fill-rule="nonzero" fill="#C7C7C7"><path d="M149.835 40.214l-1.3-.75-1.5 2.598 1.3.75a1.502 1.502 0 0 0 2.049-.549 1.502 1.502 0 0 0-.55-2.049z"/><path d="M173.457 35.716l-4.393-16.392a1 1 0 0 0-.466-.609l-22.517-13a1.002 1.002 0 0 0-1.366.366l-23 39.838a1.002 1.002 0 0 0 .366 1.366l32.91 19a1 1 0 0 0 1.365-.366l17-29.445a.999.999 0 0 0 .1-.758zM140.34 41.66a4.005 4.005 0 0 1-5.464 1.464 4.005 4.005 0 0 1-1.464-5.464 1 1 0 0 1 1.732 1 2.002 2.002 0 0 0 .732 2.732 2.002 2.002 0 0 0 2.732-.732l3.5-6.062a1 1 0 0 1 1.732 1l-3.5 6.062zm6.995 2.884l-1.3-.75-1.998 3.463a1 1 0 1 1-1.732-1l4.999-8.659a1 1 0 0 1 1.366-.366l2.165 1.25a3.504 3.504 0 0 1 1.281 4.781 3.504 3.504 0 0 1-4.781 1.281zm4.861 8.58c-3.464-2-1.362-5.64-.464-7.196.898-1.555 3-5.196 6.464-3.196 1.836 1.06 2.396 2.374 1.81 4.255a1 1 0 1 1-1.91-.594c.285-.912.197-1.296-.9-1.929-.947-.547-1.882-.74-3.732 2.464-1.85 3.204-1.215 3.917-.268 4.464.4.231 1.266.731 2.614-.8l-1.614-.932a1 1 0 0 1 1-1.732l2.598 1.5c.5.288.656.945.329 1.428-2.289 3.383-4.488 3.1-5.927 2.268zm8.536-22.784l6-10.393 4.392 16.393-10.392-6z"/></g><path d="M145.215 5.215l41.57 24-24 41.57-41.57-24z"/><g fill-rule="nonzero" fill="#8696A4"><path d="M91 28h-1v8h1c1.738 0 3-1.684 3-4s-1.262-4-3-4zM81.5 28.002H80v3h1.5c.826 0 1.5-.672 1.5-1.5 0-.826-.674-1.5-1.5-1.5z"/><path d="M109.708 12.294l-12-12A1.004 1.004 0 0 0 97 0H71a1 1 0 0 0-1 1v46a1 1 0 0 0 1 1h38a1 1 0 0 0 1-1V13a.999.999 0 0 0-.292-.706zM81.5 33.002H80V37a1 1 0 0 1-2 0v-9.998a1 1 0 0 1 1-1h2.5c1.93 0 3.5 1.572 3.5 3.5 0 1.932-1.57 3.5-3.5 3.5zM91 38h-2a1 1 0 0 1-1-1V27a1 1 0 0 1 1-1h2c2.85 0 5 2.578 5 6s-2.15 6-5 6zm13-10h-4v2h2a1 1 0 0 1 0 2h-2v5a1 1 0 0 1-2 0V27a1 1 0 0 1 1-1h5a1 1 0 0 1 0 2zm-8-14V2l12 12H96z"/></g><g><g fill-rule="nonzero" fill="#D5DCE5"><path d="M21.474 45.964l-.866.5 4 6.928.866-.5c1.505-.869 1.756-2.958.598-4.964-1.158-2.006-3.093-2.833-4.598-1.964zM31 40.464c-.947.547-1.582 1.26.268 4.464 1.85 3.204 2.785 3.011 3.732 2.464.947-.547 1.582-1.26-.268-4.464-1.85-3.204-2.785-3.01-3.732-2.464z"/><path d="M40.215 17.008l-16.393-4.392a1.004 1.004 0 0 0-.76.1l-22.516 13a1 1 0 0 0-.367 1.365l23 39.838a1 1 0 0 0 1.367.366l32.908-19a1 1 0 0 0 .367-1.366l-17-29.445a.999.999 0 0 0-.606-.466zM26.474 54.624l-1.732 1a1 1 0 0 1-1.366-.366l-5-8.66a1 1 0 0 1 .366-1.366l1.732-1c2.468-1.425 5.619-.267 7.33 2.696 1.71 2.964 1.138 6.271-1.33 7.696zm9.526-5.5c-3.464 2-5.566-1.64-6.464-3.196-.898-1.555-3-5.196.464-7.196s5.566 1.64 6.464 3.196c.898 1.556 3 5.196-.464 7.196zm7.504-6.642c.525-.303 1.044-.752.554-2.273a.996.996 0 0 1 .645-1.26c.526-.167 1.09.12 1.26.647.848 2.633-.326 3.964-1.459 4.618-3.308 1.91-5.334-1.599-6.308-3.286-.975-1.689-3-5.198.307-7.108 1.133-.654 2.874-1.003 4.73 1.048.37.408.337 1.04-.071 1.413a.997.997 0 0 1-1.414-.073c-1.07-1.181-1.72-.959-2.245-.656-.892.515-1.429 1.165.425 4.376 1.853 3.21 2.684 3.07 3.576 2.554zM29.196 25.34l-6-10.393 16.392 4.393-10.392 6z"/></g><path d="M-3.785 28.215l41.57-24 24 41.57-41.57 24z"/></g></g></svg>