<svg xmlns="http://www.w3.org/2000/svg" width="16" height="16" viewBox="0 0 16 16">
    <path fill="#8DA2B5" fill-rule="evenodd" d="M6.505 11.786l-2.29-2.29 6.284-6.286 2.29 2.292-6.284 6.284zm-2.384 2.132l-2.378.338.34-2.377 1.878-.375.535.535-.375 1.879zm7.51-11.839l.004-.005c.612-.61 1.68-.612 2.291 0s.611 1.68 0 2.292l-.005.004-2.29-2.29zM15.056.943A3.2 3.2 0 0 0 12.781 0c-.86 0-1.67.334-2.277.943L2.517 8.93a.8.8 0 0 0 0 1.13l.084.085-1.387.277a.801.801 0 0 0-.635.673l-.57 3.992a.797.797 0 0 0 .905.904l3.992-.57a.798.798 0 0 0 .672-.634l.279-1.387.083.083a.8.8 0 0 0 1.131 0l7.986-7.986A3.198 3.198 0 0 0 16 3.22a3.2 3.2 0 0 0-.943-2.278v.001z"/>
</svg>
