<svg width="24" height="24" viewBox="0 0 24 24" xmlns="http://www.w3.org/2000/svg">
  <path d="M17 21.75a4.25 4.25 0 1 0 0-8.5 4.25 4.25 0 0 0 0 8.5zm0-1.5a2.75 2.75 0 1 1 0-5.5 2.75 2.75 0 0 1 0 5.5z"/>
  <path d="M17.25 17.25V16h-1.5v2.75h2.75v-1.5zm-5.25-2H4.643c-.212 0-.393-.187-.393-.429V6.18c0-.242.181-.429.393-.429h13.714c.212 0 .393.187.393.429v6.456h1.5V6.179c0-1.06-.842-1.929-1.893-1.929H4.643c-1.05 0-1.893.869-1.893 1.929v8.642c0 1.06.842 1.929 1.893 1.929H12v-1.5z"/>
  <path d="M12.005 11.036l-7.602-6.2-.948 1.162 8.54 6.966 7.974-6.378-.938-1.172z"/>
</svg>