<svg xmlns="http://www.w3.org/2000/svg" xmlns:xlink="http://www.w3.org/1999/xlink" preserveAspectRatio="xMidYMid" width="19.906" height="19.938" viewBox="0 0 19.906 19.938">
  <defs>
    <style>
      .cls-1 {
        fill: #929292;
        fill-rule: evenodd;
      }
    </style>
  </defs>
  <path d="M12.061,15.328 C11.985,15.420 11.873,15.475 11.753,15.481 C11.746,15.481 11.739,15.482 11.731,15.482 C11.618,15.482 11.511,15.438 11.433,15.360 L4.660,8.705 C4.576,8.623 4.533,8.513 4.536,8.397 C4.540,8.283 4.591,8.175 4.679,8.099 L14.110,0.079 C14.277,-0.064 14.532,-0.057 14.688,0.098 L19.768,5.089 C19.921,5.239 19.933,5.479 19.798,5.645 L12.061,15.328 ZM10.878,16.491 L10.032,17.322 C9.949,17.404 9.842,17.444 9.733,17.444 C9.626,17.444 9.516,17.404 9.434,17.322 C9.034,16.930 8.571,16.731 8.055,16.731 C7.460,16.731 6.974,17.000 6.738,17.231 C6.581,17.387 6.299,17.387 6.141,17.231 L2.755,13.904 C2.675,13.826 2.631,13.720 2.631,13.610 C2.631,13.500 2.675,13.394 2.755,13.316 C2.975,13.100 3.223,12.681 3.261,12.153 C3.287,11.770 3.204,11.201 2.662,10.668 C2.582,10.591 2.537,10.485 2.537,10.374 C2.537,10.264 2.582,10.158 2.662,10.079 L3.508,9.247 C3.673,9.086 3.942,9.086 4.106,9.247 L10.878,15.902 C11.045,16.065 11.045,16.329 10.878,16.491 ZM3.154,15.174 L4.847,16.839 C5.013,17.001 5.013,17.181 4.847,17.343 L4.106,17.988 C4.028,18.065 3.919,17.943 3.808,17.943 L0.421,17.943 C0.251,17.943 0.098,18.008 0.031,17.853 C-0.035,17.697 0.002,17.685 0.122,17.566 L2.555,15.174 C2.721,15.012 2.989,15.012 3.154,15.174 ZM5.078,18.941 L19.468,18.941 C19.701,18.941 19.892,19.211 19.892,19.441 C19.892,19.671 19.701,19.940 19.468,19.940 L5.078,19.940 C4.843,19.940 4.653,19.671 4.653,19.441 C4.653,19.211 4.843,18.941 5.078,18.941 Z" class="cls-1"/>
</svg>
