<svg xmlns="http://www.w3.org/2000/svg" xmlns:xlink="http://www.w3.org/1999/xlink" preserveAspectRatio="xMidYMid" width="22" height="22" viewBox="0 0 22 22">
  <defs>
    <style>
      .cls-1 {
        fill: #263445;
        opacity: 0.5;
        fill-rule: evenodd;
      }
    </style>
  </defs>
  <path d="M21.411,21.595 C21.262,21.745 21.068,21.820 20.872,21.820 C20.677,21.820 20.481,21.745 20.331,21.595 L15.399,16.646 C13.847,17.958 11.847,18.753 9.664,18.753 C4.747,18.753 0.748,14.740 0.748,9.808 C0.748,4.876 4.747,0.864 9.664,0.864 C14.579,0.864 18.578,4.876 18.578,9.808 C18.578,11.999 17.787,14.005 16.479,15.562 L21.411,20.511 C21.711,20.810 21.711,21.295 21.411,21.595 ZM9.664,2.397 C5.590,2.397 2.277,5.722 2.277,9.808 C2.277,13.895 5.590,17.220 9.664,17.220 C13.736,17.220 17.051,13.895 17.051,9.808 C17.051,5.722 13.736,2.397 9.664,2.397 Z" class="cls-1"/>
</svg>
