<svg width="24" height="24" viewBox="0 0 24 24" fill="black" xmlns="http://www.w3.org/2000/svg">
  <g clip-path="url(#clip0)">
    <path d="M19.618 10.6123C16.607 7.9423 12.493 7.7593 10.759 7.8193C10.7254 7.82065 10.6919 7.81518 10.6604 7.80321C10.629 7.79124 10.6003 7.77302 10.5761 7.74965C10.5519 7.72629 10.5327 7.69826 10.5196 7.66726C10.5065 7.63627 10.4999 7.60294 10.5 7.5693V4.9973C10.4995 4.80726 10.4448 4.6213 10.3425 4.46121C10.2401 4.30111 10.0942 4.17351 9.92188 4.09334C9.74958 4.01317 9.558 3.98376 9.36959 4.00854C9.18117 4.03333 9.00372 4.11129 8.85802 4.2333L1.36402 10.5993C1.25014 10.6932 1.15845 10.811 1.09552 10.9445C1.03258 11.078 0.999971 11.2237 1.00002 11.3713C0.999182 11.516 1.0302 11.6591 1.09086 11.7904C1.15152 11.9217 1.24034 12.0381 1.35102 12.1313L8.86402 18.7683C9.01042 18.889 9.18812 18.9655 9.37638 18.9889C9.56464 19.0124 9.75569 18.9818 9.92722 18.9008C10.0988 18.8197 10.2437 18.6915 10.3451 18.5312C10.4465 18.3709 10.5003 18.185 10.5 17.9953V14.9603C10.5 14.9028 10.52 14.8471 10.5564 14.8026C10.5929 14.7581 10.6436 14.7276 10.7 14.7163C12.608 14.3163 18.835 13.5583 22.06 19.6063C22.1128 19.7041 22.1966 19.7815 22.2982 19.8263C22.3999 19.8711 22.5135 19.8808 22.6213 19.8539C22.7291 19.827 22.8248 19.7649 22.8934 19.6775C22.9619 19.5901 22.9995 19.4824 23 19.3713C23 15.5503 21.862 12.6043 19.618 10.6123Z"/>
  </g>
  <defs>
    <clipPath id="clip0">
      <rect width="24" height="24" fill="transparent"/>
    </clipPath>
  </defs>
</svg>
