<svg width="24" height="24" viewBox="0 0 24 24" fill="none" xmlns="http://www.w3.org/2000/svg">
<g clip-path="url(#clip0)">
<path d="M19.035 7.569C15.569 5.53 10.805 5.812 5.853 8.323C5.80595 8.34675 5.75262 8.35508 5.70057 8.34683C5.64852 8.33857 5.60039 8.31414 5.563 8.277L2.557 5.283C2.34677 5.07421 2.07942 4.93236 1.78866 4.87534C1.49791 4.81832 1.19678 4.84869 0.923269 4.96261C0.649754 5.07653 0.416103 5.2689 0.25179 5.51546C0.0874775 5.76201 -0.000136608 6.05171 1.5988e-07 6.348V18.148C1.5988e-07 18.4132 0.105357 18.6676 0.292893 18.8551C0.48043 19.0426 0.734784 19.148 1 19.148H12.792C13.0888 19.1481 13.3789 19.0602 13.6257 18.8954C13.8725 18.7306 14.0649 18.4963 14.1785 18.2221C14.292 17.9479 14.3218 17.6462 14.2638 17.3552C14.2059 17.0641 14.0629 16.7968 13.853 16.587L11.353 14.087C11.325 14.0593 11.304 14.0254 11.2916 13.988C11.2793 13.9507 11.276 13.9109 11.282 13.872C11.2882 13.8331 11.3035 13.7961 11.3266 13.7642C11.3497 13.7322 11.38 13.7061 11.415 13.688C14.262 12.231 17.272 11.988 19.387 13.123C21.1 14.034 22 15.773 22 18.146C22 18.4112 22.1054 18.6656 22.2929 18.8531C22.4804 19.0406 22.7348 19.146 23 19.146C23.2652 19.146 23.5196 19.0406 23.7071 18.8531C23.8946 18.6656 24 18.4112 24 18.146C24 13.211 22.237 9.454 19.035 7.569Z" fill="currentColor"/>
</g>
<defs>
<clipPath id="clip0">
<rect width="24" height="24" fill="transparent"/>
</clipPath>
</defs>
</svg>
