<svg xmlns="http://www.w3.org/2000/svg" width="24" height="24" viewBox="0 0 24 24">
  <path d="M10.458,18.374 L10.461,18.371 C10.7137654,18.1184132 11.0820837,18.0198621 11.427213,18.11247 C11.7723423,18.2050779 12.0418492,18.4747754 12.134213,18.81997 C12.2265769,19.1651647 12.1277654,19.5334132 11.875,19.786 L9.139,22.521 C8.2414768,23.419582 7.02353842,23.9244893 5.7535,23.9244893 C4.48346158,23.9244893 3.2655232,23.419582 2.368,22.521 L1.476,21.63 C0.578214515,20.7322569 0.0738403212,19.5146305 0.0738403212,18.245 C0.0738403212,16.9753695 0.578214515,15.7577431 1.476,14.86 L7.276,9.06 C9.14648632,7.19199425 12.1765137,7.19199425 14.047,9.06 L14.94,9.952 C15.3315699,10.3435699 15.3315699,10.9784301 14.94,11.37 C14.5484301,11.7615699 13.9135699,11.7615699 13.522,11.37 L12.629,10.478 C11.5400846,9.39032132 9.77591535,9.39032132 8.687,10.478 L2.887,16.278 C1.79888424,17.3663439 1.79888424,19.1306561 2.887,20.219 L3.779,21.11 C4.8817502,22.1637215 6.6182498,22.1637215 7.721,21.11 L10.458,18.374 Z M22.526,2.363 L22.521,2.362 C23.4193366,3.25965354 23.9240744,4.47754307 23.9240744,5.7475 C23.9240744,7.01745693 23.4193366,8.23534646 22.521,9.133 L16.721,14.933 C15.8250994,15.8332789 14.6060866,16.3374496 13.336,16.3330292 C12.0662377,16.3372938 10.8475932,15.8331264 9.952,14.933 C9.68622566,14.6830576 9.57766289,14.3082096 9.66873013,13.9549194 C9.75979737,13.6016292 10.0360401,13.3259721 10.3895228,13.2356549 C10.7430055,13.1453377 11.1176222,13.2546958 11.367,13.521 C11.8879763,14.0451065 12.5970141,14.3389485 13.336,14.337 C14.075757,14.338884 14.7855107,14.0446837 15.307,13.52 L21.107,7.72 C21.6300887,7.19744252 21.9240015,6.48838358 21.9240015,5.749 C21.9240015,5.00961642 21.6300887,4.30055748 21.107,3.778 L20.214,2.885 C19.1249719,1.79853746 17.3620281,1.79853746 16.273,2.885 L13.373,5.785 C12.9806211,6.16397221 12.3569152,6.15855237 11.9711814,5.77281858 C11.5854476,5.38708478 11.5800278,4.76337889 11.959,4.371 L14.864,1.471 C16.7364129,-0.391399068 19.7615871,-0.391399068 21.634,1.471 L22.526,2.363 Z"/>
</svg>
