<svg width="24" height="24" viewBox="0 0 24 24" xmlns="http://www.w3.org/2000/svg"><path d="M20.878 16.826c.46-.141.816-.576.866-1.092a1.286 1.286 0 0 0-.67-1.257l-8.982-4.115a1.32 1.32 0 0 0-1.455.27c-.377.375-.49.94-.287 1.432l.01.025 4.095 8.94c.266.5.762.765 1.278.715.516-.05.952-.406 1.104-.902l1.067-2.938 2.974-1.078zm-.98-1.24l-2.835 1.028-.33.12-1.148 3.164-3.641-7.954 7.954 3.643z"/><path d="M19.727 11.626a8.75 8.75 0 1 0-8.105 8.102l-.101-1.496a7.25 7.25 0 1 1 6.71-6.715l1.496.109z"/><path d="M16.726 10.24a5.323 5.323 0 1 0-6.486 6.486l.376-1.452a3.823 3.823 0 1 1 4.658-4.658l1.452-.376z"/></svg>