<svg xmlns="http://www.w3.org/2000/svg" width="24" height="24" viewBox="0 0 100 100">
  <path d="M90 2H26a16 16 0 0 0-16 16v4H6a4 4 0 0 0 0 8h4v16H6a4 4 0 0 0 0 8h4v16H6a4 4 0 0 0 0 8h4v4a16 16 0 0 0 16 16h64a8 8 0 0 0 8-8V10a8 8 0 0 0-8-8zm0 88H26a8 8 0 0 1-8-8v-4h4a4 4 0 0 0 0-8h-4V54h4a4 4 0 0 0 0-8h-4V30h4a4 4 0 0 0 0-8h-4v-4a8 8 0 0 1 8-8h64z"/>
  <path d="M38 78a4 4 0 0 0 4-4v-4a16 16 0 0 1 32 0v4a4 4 0 0 0 8 0v-4a24 24 0 0 0-12.43-21 16 16 0 1 0-23.14 0A24 24 0 0 0 34 70v4a4 4 0 0 0 4 4zm12-40a8 8 0 1 1 8 8 8 8 0 0 1-8-8z"/>
</svg>
