<svg xmlns="http://www.w3.org/2000/svg" width="24" height="24" viewBox="0 0 24 24">
    <path fill="#000" fill-rule="nonzero" d="M22 0H6a4 4 0 0 0-4 4v1H1a1 1 0 1 0 0 2h1v4H1a1 1 0 1 0 0 2h1v4H1a1 1 0 1 0 0 2h1v1a4 4 0 0 0 4 4h16a2 2 0 0 0 2-2V2a2 2 0 0 0-2-2zm0 22H6a2 2 0 0 1-2-2v-1h1a1 1 0 1 0 0-2H4v-4h1a1 1 0 1 0 0-2H4V7h1a1 1 0 1 0 0-2H4V4a2 2 0 0 1 2-2h16v20zM9 19a1 1 0 0 0 1-1v-1a4 4 0 0 1 8 0v1a1 1 0 1 0 2 0v-1a5.996 5.996 0 0 0-3.107-5.25 4.002 4.002 0 0 0-.086-5.613A4.002 4.002 0 0 0 10 8.927a4.002 4.002 0 0 0 1.107 2.823A5.997 5.997 0 0 0 8 17v1a1 1 0 0 0 1 1zm3-10a2 2 0 1 1 4 0 2 2 0 0 1-4 0z"/>
</svg>
