<svg xmlns="http://www.w3.org/2000/svg" xmlns:xlink="http://www.w3.org/1999/xlink" preserveAspectRatio="xMidYMid" width="19" height="19" viewBox="0 0 19 19">
  <defs>
    <style>
      .cls-1 {
        fill: #929292;
        fill-rule: evenodd;
      }
    </style>
  </defs>
  <g>
    <path d="M18.603,19.014 L0.384,19.014 C0.165,19.014 -0.011,18.841 -0.011,18.627 L-0.011,2.379 C-0.011,2.165 0.165,1.992 0.384,1.992 L3.553,1.992 C3.772,1.992 3.949,2.165 3.949,2.379 C3.949,2.592 3.219,3.000 3.000,3.000 L1.000,3.000 L1.000,6.010 L18.000,6.010 L18.000,3.000 L15.000,3.000 C14.781,3.000 15.039,2.592 15.039,2.379 C15.039,2.165 15.216,1.992 15.435,1.992 L18.603,1.992 C18.822,1.992 18.999,2.165 18.999,2.379 L18.999,18.627 C18.999,18.841 18.822,19.014 18.603,19.014 ZM1.000,6.982 L1.000,18.000 L18.000,18.000 L18.000,6.982 L1.000,6.982 ZM13.823,9.909 L7.829,15.849 C7.733,15.945 7.610,15.991 7.488,15.991 C7.360,15.991 7.233,15.940 7.135,15.837 L5.137,13.715 C4.942,13.508 4.942,13.172 5.137,12.964 C5.332,12.758 5.648,12.758 5.844,12.964 L7.500,14.724 L13.141,9.133 C13.344,8.934 13.658,8.945 13.847,9.159 C14.035,9.373 14.024,9.709 13.823,9.909 ZM12.645,3.001 L6.344,3.001 C6.150,3.001 5.994,2.775 5.994,2.495 C5.994,2.216 6.150,1.989 6.344,1.989 L12.645,1.989 C12.839,1.989 12.995,2.216 12.995,2.495 C12.995,2.775 12.839,3.001 12.645,3.001 Z" class="cls-1"/>
    <path d="M5.000,5.000 L4.000,5.000 C3.448,5.000 3.000,4.552 3.000,4.000 L3.000,1.000 C3.000,0.448 3.448,0.000 4.000,0.000 L5.000,0.000 C5.552,0.000 6.000,0.448 6.000,1.000 L6.000,4.000 C6.000,4.552 5.552,5.000 5.000,5.000 ZM5.000,1.000 L4.000,1.000 L4.000,4.000 L5.000,4.000 L5.000,1.000 Z" class="cls-1"/>
    <path d="M15.000,5.000 L14.000,5.000 C13.448,5.000 13.000,4.552 13.000,4.000 L13.000,1.000 C13.000,0.448 13.448,0.000 14.000,0.000 L15.000,0.000 C15.552,0.000 16.000,0.448 16.000,1.000 L16.000,4.000 C16.000,4.552 15.552,5.000 15.000,5.000 ZM15.000,1.000 L14.000,1.000 L14.000,4.000 L15.000,4.000 L15.000,1.000 Z" class="cls-1"/>
  </g>
</svg>
