<svg xmlns="http://www.w3.org/2000/svg" xmlns:xlink="http://www.w3.org/1999/xlink" preserveAspectRatio="xMidYMid" width="19" height="19" viewBox="0 0 19 19">
  <defs>
    <style>
      .cls-1 {
        fill: #929292;
        filter: url(#color-overlay-1);
        fill-rule: evenodd;
      }
    </style>

    <filter id="color-overlay-1" filterUnits="userSpaceOnUse">
      <feFlood flood-color="#fff"/>
      <feComposite operator="in" in2="SourceGraphic"/>
      <feBlend in2="SourceGraphic" result="solidFill"/>
    </filter>
  </defs>
  <path d="M1.175,18.853 C1.043,18.853 0.913,18.799 0.816,18.699 C0.668,18.543 0.632,18.309 0.727,18.116 L2.576,14.357 C0.912,12.870 0.000,10.940 0.000,8.881 C0.000,4.475 4.262,0.891 9.500,0.891 C14.738,0.891 19.000,4.475 19.000,8.881 C19.000,13.288 14.738,16.873 9.500,16.873 C8.435,16.873 7.389,16.726 6.386,16.434 L1.386,18.805 C1.318,18.837 1.246,18.853 1.175,18.853 ZM9.500,1.909 C4.813,1.909 1.000,5.037 1.000,8.881 C1.000,10.750 1.892,12.506 3.513,13.826 C3.697,13.977 3.753,14.237 3.647,14.452 L2.264,17.265 L6.136,15.429 C6.247,15.375 6.374,15.367 6.492,15.403 C7.456,15.703 8.468,15.854 9.500,15.854 C14.187,15.854 18.000,12.726 18.000,8.881 C18.000,5.037 14.187,1.909 9.500,1.909 Z" class="cls-1"/>
</svg>
