<svg xmlns="http://www.w3.org/2000/svg" xmlns:xlink="http://www.w3.org/1999/xlink" preserveAspectRatio="xMidYMid" width="19" height="17.969" viewBox="0 0 19 17.969">
  <defs>
    <style>
      .cls-1 {
        fill: #929292;
        fill-rule: evenodd;
      }
    </style>
  </defs>
  <path d="M1.175,17.978 C1.043,17.978 0.913,17.924 0.816,17.824 C0.668,17.668 0.632,17.434 0.727,17.241 L2.576,13.482 C0.912,11.995 0.000,10.065 0.000,8.006 C0.000,3.600 4.262,0.016 9.500,0.016 C14.738,0.016 19.000,3.600 19.000,8.006 C19.000,12.413 14.738,15.998 9.500,15.998 C8.435,15.998 7.389,15.851 6.386,15.559 L1.386,17.930 C1.318,17.962 1.246,17.978 1.175,17.978 ZM9.500,1.034 C4.813,1.034 1.000,4.162 1.000,8.006 C1.000,9.875 1.892,11.631 3.513,12.951 C3.697,13.102 3.753,13.362 3.647,13.577 L2.264,16.390 L6.136,14.554 C6.247,14.500 6.374,14.492 6.492,14.528 C7.456,14.828 8.468,14.979 9.500,14.979 C14.187,14.979 18.000,11.851 18.000,8.006 C18.000,4.162 14.187,1.034 9.500,1.034 Z" class="cls-1"/>
</svg>
