<svg width="24" height="24" viewBox="0 0 24 24" fill="none" xmlns="http://www.w3.org/2000/svg">
<path d="M10.6356 2.9023C11.1404 1.69923 12.8596 1.69923 13.3644 2.9023L15.0408 6.89783C15.2536 7.40501 15.7347 7.75155 16.287 7.79545L20.6383 8.14126C21.9485 8.24538 22.4798 9.86625 21.4815 10.7139L18.1663 13.5291C17.7455 13.8864 17.5617 14.4472 17.6903 14.9815L18.7031 19.1907C19.0081 20.4581 17.6173 21.4599 16.4956 20.7807L12.7702 18.5251C12.2974 18.2387 11.7026 18.2387 11.2298 18.5251L7.50445 20.7807C6.38275 21.4599 4.99188 20.4581 5.29686 19.1907L6.30971 14.9815C6.43828 14.4472 6.2545 13.8864 5.83368 13.5291L2.51845 10.7139C1.52023 9.86625 2.05149 8.24538 3.36168 8.14126L7.71297 7.79544C8.26531 7.75155 8.74645 7.40501 8.95925 6.89783L10.6356 2.9023Z" />
</svg>
