<?xml version="1.0" encoding="UTF-8" standalone="no"?>
<svg width="18px" height="36px" viewBox="0 0 18 36" version="1.1" xmlns="http://www.w3.org/2000/svg" xmlns:xlink="http://www.w3.org/1999/xlink">
    <!-- Generator: Sketch 39.1 (31720) - http://www.bohemiancoding.com/sketch -->
    <title>location pin medium.2.3.1</title>
    <desc>Created with Sketch.</desc>
    <defs></defs>
    <g id="Page-1" stroke="none" stroke-width="1" fill="none" fill-rule="evenodd">
        <g id="Search:-Map" transform="translate(-902.000000, -574.000000)">
            <g id="location-pin-medium.2.3.1" transform="translate(888.000000, 568.000000)">
                <ellipse id="Oval" fill="#2196F3" cx="23" cy="41.5" rx="5" ry="0.5"></ellipse>
                <g id="Group">
                    <g id="Filled_Icons" transform="translate(14.000000, 6.000000)" fill="#2196F3">
                        <path d="M9,0.012 C4.038,0.012 0,4.048 0,9.012 C0,13.636 3.506,17.454 8,17.952 L8,35.012 C8,35.562 8.448,36.012 9,36.012 C9.55,36.012 10,35.562 10,35.012 L10,17.952 C14.492,17.454 18,13.636 18,9.012 C18,4.048 13.962,0.012 9,0.012 L9,0.012 Z M13,10.012 C12.448,10.012 12,9.562 12,9.012 C12,7.356 10.652,6.012 9,6.012 C8.448,6.012 8,5.562 8,5.012 C8,4.458 8.448,4.012 9,4.012 C11.756,4.012 14,6.254 14,9.012 C14,9.564 13.55,10.012 13,10.012 L13,10.012 Z" id="Shape"></path>
                    </g>
                    <g id="invisible_shape">
                        <rect id="Rectangle-path" x="0" y="0" width="48" height="48"></rect>
                    </g>
                </g>
            </g>
        </g>
    </g>
</svg>