<svg width="24" height="24" viewBox="0 0 24 24" fill="black" xmlns="http://www.w3.org/2000/svg">
<g clip-path="url(#clip0)">
<path fill-rule="evenodd" clip-rule="evenodd" d="M12.2792 12.0168C12.2227 12.0168 12.1674 12.0005 12.1199 11.9699L0.30023 4.52644C0.201797 4.46447 0.124058 4.37457 0.0769334 4.26823C0.0298086 4.16189 0.0154344 4.04391 0.0356448 3.92937C0.132404 3.38818 0.416509 2.8983 0.838185 2.54554C1.25986 2.19279 1.79222 1.99967 2.34199 2H21.6591C22.1941 2.00097 22.7127 2.18517 23.1285 2.52194C23.5443 2.85871 23.8322 3.32773 23.9443 3.85093C23.9684 3.96541 23.9576 4.08449 23.9134 4.19279C23.8692 4.30109 23.7935 4.39366 23.6961 4.45854L12.4384 11.9699C12.3909 12.0005 12.3356 12.0168 12.2792 12.0168ZM12.3039 13.7698C12.6985 13.7648 13.0832 13.6459 13.4119 13.4275L23.0903 6.97562C23.1785 6.91696 23.2809 6.88331 23.3867 6.87825C23.4924 6.87319 23.5976 6.89691 23.6909 6.94689C23.7843 6.99686 23.8623 7.07122 23.9167 7.16205C23.9712 7.25287 23.9999 7.35676 24 7.46264V20.1464C24 20.7673 23.7533 21.3629 23.3142 21.802C22.8751 22.2411 22.2795 22.4878 21.6585 22.4878H2.34146C1.72047 22.4878 1.12491 22.2411 0.685799 21.802C0.246689 21.3629 7.76102e-08 20.7673 7.76102e-08 20.1464V7.45562C-5.38549e-05 7.35087 0.028002 7.24802 0.0812409 7.15781C0.13448 7.06759 0.210951 6.99332 0.302677 6.94273C0.394404 6.89215 0.498024 6.8671 0.602729 6.87021C0.707433 6.87331 0.809386 6.90446 0.897952 6.9604L11.1875 13.4556C11.5216 13.6657 11.9093 13.7747 12.3039 13.7698Z"/>
</g>
<defs>
<clipPath id="clip0">
<path d="M0 0H24V24H0V0Z" fill="white"/>
</clipPath>
</defs>
</svg>
