<svg width="24" height="24" viewBox="0 0 24 24" fill="black" xmlns="http://www.w3.org/2000/svg">
<path fill-rule="evenodd" clip-rule="evenodd" d="M12.488 11.556C12.4398 11.556 12.3926 11.5421 12.352 11.516L2.25601 5.158C2.17193 5.10507 2.10553 5.02828 2.06527 4.93745C2.02502 4.84661 2.01274 4.74584 2.03001 4.648C2.11265 4.18574 2.35533 3.7673 2.71551 3.46599C3.07569 3.16468 3.53041 2.99971 4.00001 3H20.5C20.957 3.00083 21.4 3.15817 21.7552 3.44582C22.1103 3.73348 22.3563 4.1341 22.452 4.581C22.4726 4.67879 22.4634 4.7805 22.4256 4.87301C22.3878 4.96552 22.3232 5.04458 22.24 5.1L12.624 11.516C12.5835 11.5421 12.5362 11.556 12.488 11.556ZM12.5095 13.0533C12.8466 13.0491 13.1753 12.9475 13.456 12.761L21.723 7.24999C21.7983 7.19988 21.8858 7.17114 21.9761 7.16682C22.0664 7.16249 22.1563 7.18276 22.236 7.22545C22.3157 7.26813 22.3824 7.33165 22.4289 7.40923C22.4754 7.48681 22.5 7.57554 22.5 7.66599V18.5C22.5 19.0304 22.2893 19.5391 21.9142 19.9142C21.5391 20.2893 21.0304 20.5 20.5 20.5H4C3.46957 20.5 2.96086 20.2893 2.58579 19.9142C2.21071 19.5391 2 19.0304 2 18.5V7.65999C1.99995 7.57051 2.02392 7.48266 2.06939 7.40561C2.11487 7.32855 2.18019 7.26511 2.25854 7.2219C2.33689 7.17869 2.4254 7.1573 2.51483 7.15995C2.60427 7.1626 2.69135 7.18921 2.767 7.23699L11.556 12.785C11.8414 12.9644 12.1725 13.0576 12.5095 13.0533Z"/>
</svg>
