<svg width="16" height="16" viewBox="0 0 16 16" fill="none" xmlns="http://www.w3.org/2000/svg">
<g clip-path="url(#clip0)">
<path d="M0 3.66667L0 12.3333C0 12.7754 0.175595 13.1993 0.488155 13.5118C0.800716 13.8244 1.22464 14 1.66667 14H14.3333C14.5522 14 14.7689 13.9569 14.9711 13.8731C15.1733 13.7894 15.3571 13.6666 15.5118 13.5118C15.6666 13.3571 15.7894 13.1733 15.8731 12.9711C15.9569 12.7689 16 12.5522 16 12.3333V3.66667C16 3.4478 15.9569 3.23107 15.8731 3.02886C15.7894 2.82665 15.6666 2.64292 15.5118 2.48816C15.3571 2.33339 15.1733 2.21063 14.9711 2.12687C14.7689 2.04311 14.5522 2 14.3333 2H1.66667C1.22464 2 0.800716 2.17559 0.488155 2.48816C0.175595 2.80072 0 3.22464 0 3.66667H0ZM12.3333 3.33333C12.5985 3.33333 12.8529 3.43869 13.0404 3.62623C13.228 3.81376 13.3333 4.06812 13.3333 4.33333V11.6667C13.3333 11.9319 13.228 12.1862 13.0404 12.3738C12.8529 12.5613 12.5985 12.6667 12.3333 12.6667H3.66667C3.40145 12.6667 3.1471 12.5613 2.95956 12.3738C2.77202 12.1862 2.66667 11.9319 2.66667 11.6667L2.66667 4.33333C2.66667 4.06812 2.77202 3.81376 2.95956 3.62623C3.1471 3.43869 3.40145 3.33333 3.66667 3.33333H12.3333Z" fill="black"/>
</g>
<defs>
<clipPath id="clip0">
<rect width="16" height="16" fill="white"/>
</clipPath>
</defs>
</svg>
