<svg xmlns="http://www.w3.org/2000/svg" xmlns:xlink="http://www.w3.org/1999/xlink" preserveAspectRatio="xMidYMid" width="24" height="24" viewBox="0 0 24 24">
  <defs>
    <style>
      .cls-1 {
        fill: #38f;
        fill-rule: evenodd;
      }
    </style>
  </defs>
  <path d="M22.000,10.000 L16.915,10.000 L16.707,10.000 L13.854,12.854 C13.758,12.949 13.631,13.000 13.500,13.000 C13.436,13.000 13.371,12.987 13.309,12.962 C13.122,12.885 13.000,12.702 13.000,12.500 L13.000,10.500 L13.000,10.000 L12.500,10.000 L10.000,10.000 C8.897,10.000 8.000,9.103 8.000,8.000 L8.000,2.000 C8.000,0.897 8.897,0.000 10.000,0.000 L22.000,0.000 C23.102,0.000 24.000,0.897 24.000,2.000 L24.000,8.000 C24.000,9.103 23.102,10.000 22.000,10.000 ZM13.500,4.500 C13.224,4.500 13.000,4.725 13.000,5.000 C13.000,5.276 13.224,5.500 13.500,5.500 C13.776,5.500 14.000,5.276 14.000,5.000 C14.000,4.725 13.776,4.500 13.500,4.500 ZM16.000,4.500 C15.724,4.500 15.500,4.725 15.500,5.000 C15.500,5.276 15.724,5.500 16.000,5.500 C16.276,5.500 16.500,5.276 16.500,5.000 C16.500,4.725 16.276,4.500 16.000,4.500 ZM18.500,4.500 C18.224,4.500 18.000,4.725 18.000,5.000 C18.000,5.276 18.224,5.500 18.500,5.500 C18.777,5.500 19.000,5.276 19.000,5.000 C19.000,4.725 18.777,4.500 18.500,4.500 ZM12.000,11.000 L12.000,14.914 L12.000,19.000 L-0.000,19.000 L-0.000,9.000 L7.175,9.000 C7.589,10.163 8.697,11.000 10.000,11.000 L12.000,11.000 ZM-0.000,6.500 C-0.000,5.122 1.122,4.000 2.500,4.000 L7.000,4.000 L7.000,8.000 L-0.000,8.000 L-0.000,6.500 ZM4.500,7.000 L5.500,7.000 C5.776,7.000 6.000,6.776 6.000,6.500 C6.000,6.224 5.776,6.000 5.500,6.000 L4.500,6.000 C4.224,6.000 4.000,6.224 4.000,6.500 C4.000,6.776 4.224,7.000 4.500,7.000 ZM12.000,21.500 C12.000,22.878 10.878,24.000 9.500,24.000 L2.500,24.000 C1.122,24.000 -0.000,22.878 -0.000,21.500 L-0.000,20.000 L12.000,20.000 L12.000,21.500 ZM6.000,20.500 C5.448,20.500 5.000,20.948 5.000,21.500 C5.000,22.053 5.448,22.500 6.000,22.500 C6.553,22.500 7.000,22.053 7.000,21.500 C7.000,20.948 6.553,20.500 6.000,20.500 Z" class="cls-1"/>
</svg>
