<?xml version="1.0" encoding="utf-8"?>
<!-- Generator: Adobe Illustrator 17.0.0, SVG Export Plug-In . SVG Version: 6.00 Build 0)  -->
<!DOCTYPE svg PUBLIC "-//W3C//DTD SVG 1.1//EN" "http://www.w3.org/Graphics/SVG/1.1/DTD/svg11.dtd">
<svg version="1.1" id="Layer_1" xmlns="http://www.w3.org/2000/svg" xmlns:xlink="http://www.w3.org/1999/xlink" x="0px" y="0px"
	 width="24px" height="24px" viewBox="-4 -4 24 24" enable-background="new -4 -4 24 24" xml:space="preserve">
<path d="M7.953,2.132c-1.6,0-2.897,1.31-2.897,2.925c0,1.615,1.297,2.925,2.897,2.925c1.6,0,2.897-1.31,2.897-2.925
	C10.849,3.442,9.552,2.132,7.953,2.132z M7.071,5.057c0-0.492,0.395-0.89,0.882-0.89c0.487,0,0.882,0.399,0.882,0.89
	c0,0.492-0.395,0.89-0.882,0.89C7.466,5.947,7.071,5.549,7.071,5.057z"/>
<path d="M19.243,7.771l-9.51-9.596L9.731-1.827C9.498-2.063,9.222-2.251,8.918-2.38C8.612-2.509,8.285-2.576,7.954-2.577
	c-0.331-0.001-0.659,0.063-0.965,0.19C6.683-2.26,6.404-2.074,6.17-1.838L6.167-1.836l-9.506,9.607
	C-3.732,8.169-3.732,8.813-3.338,9.21c0.394,0.397,1.031,0.397,1.425-0.001l1.302-1.316v9.753c0,0.562,0.451,1.017,1.007,1.017
	h4.528H4.93h0.006h6.034h0.006h0.006h4.528c0.556,0,1.007-0.455,1.007-1.017V7.896l1.303,1.315c0.394,0.397,1.031,0.397,1.425-0.001
	C19.637,8.812,19.637,8.168,19.243,7.771z M9.968,16.629h-4.03v-3.561c0-0.54,0.212-1.057,0.59-1.439
	c0.378-0.382,0.89-0.596,1.425-0.596S9,11.248,9.377,11.63c0.378,0.382,0.59,0.899,0.59,1.439V16.629z M14.501,16.629h-2.519v-3.561
	c0-1.079-0.425-2.114-1.18-2.877c-0.756-0.763-1.781-1.192-2.85-1.192s-2.094,0.429-2.85,1.192c-0.756,0.763-1.18,1.798-1.18,2.877
	v3.561H1.404V5.857L7.59-0.395l0.001-0.001c0.047-0.047,0.102-0.084,0.163-0.109C7.815-0.53,7.88-0.543,7.946-0.542
	c0.066,0,0.132,0.014,0.193,0.039C8.2-0.477,8.256-0.439,8.302-0.392l0.003,0.003l6.196,6.251V16.629z"/>
</svg>
