<svg width="24" height="24" viewBox="0 0 24 24" xmlns="http://www.w3.org/2000/svg">
<path d="M23.6 11.22L15.609 1.233C15.4516 1.02694 15.2332 0.875796 14.9849 0.801103C14.7366 0.72641 14.471 0.731973 14.226 0.817001C13.9775 0.899442 13.7613 1.05814 13.6082 1.27052C13.455 1.48291 13.3728 1.73816 13.373 2V3.5C13.373 3.56631 13.3467 3.62989 13.2998 3.67678C13.2529 3.72366 13.1894 3.75 13.123 3.75H1.37305C1.04161 3.75027 0.723819 3.88205 0.489456 4.11641C0.255093 4.35077 0.123312 4.66856 0.123047 5V13.752C0.123047 13.8183 0.149386 13.8819 0.19627 13.9288C0.243154 13.9757 0.306743 14.002 0.373047 14.002H4.37305C5.03609 14.002 5.67197 14.2654 6.14081 14.7342C6.60965 15.2031 6.87305 15.839 6.87305 16.502V20C6.87305 20.0663 6.89939 20.1299 6.94627 20.1768C6.99315 20.2237 7.05674 20.25 7.12305 20.25H13.123C13.1894 20.25 13.2529 20.2763 13.2998 20.3232C13.3467 20.3701 13.373 20.4337 13.373 20.5V22C13.3759 22.3317 13.5096 22.6488 13.745 22.8824C13.9803 23.1161 14.2984 23.2475 14.63 23.248C14.8176 23.2484 15.0027 23.2058 15.1712 23.1234C15.3397 23.0411 15.4871 22.9212 15.602 22.773L23.588 12.791C23.7731 12.5717 23.8757 12.2946 23.8778 12.0077C23.88 11.7207 23.7818 11.4421 23.6 11.22Z" fill="currentColor"/>
<path d="M5.876 16.5C5.876 16.1022 5.71796 15.7206 5.43666 15.4393C5.15535 15.158 4.77382 15 4.376 15H0.972999C0.922532 14.9997 0.873173 15.0148 0.831464 15.0432C0.789756 15.0716 0.757665 15.112 0.739447 15.1591C0.721228 15.2062 0.717741 15.2577 0.729448 15.3068C0.741154 15.3559 0.767502 15.4002 0.804999 15.434C1.872 16.408 4.443 18.751 5.454 19.672C5.48984 19.7045 5.53436 19.726 5.58214 19.7337C5.62992 19.7414 5.67892 19.7351 5.72318 19.7155C5.76744 19.6959 5.80506 19.6639 5.83148 19.6233C5.8579 19.5828 5.87197 19.5354 5.872 19.487L5.876 16.5Z" fill="currentColor"/>
</svg>
