<svg width="24" height="24" viewBox="0 0 24 24"  fill="black" xmlns="http://www.w3.org/2000/svg">
<path d="M22.491 11.0698L15.707 4.29279C15.5671 4.15298 15.389 4.05777 15.195 4.0192C15.0011 3.98064 14.8 4.00044 14.6173 4.07611C14.4346 4.15178 14.2785 4.27992 14.1686 4.44433C14.0587 4.60874 14 4.80204 14 4.99979V8.04279C14 8.10909 13.9737 8.17268 13.9268 8.21956C13.8799 8.26645 13.8163 8.29279 13.75 8.29279H2C1.73478 8.29279 1.48043 8.39814 1.29289 8.58568C1.10536 8.77322 1 9.02757 1 9.29279V13.7928C1 14.058 1.10536 14.3124 1.29289 14.4999C1.48043 14.6874 1.73478 14.7928 2 14.7928H13.75C13.8163 14.7928 13.8799 14.8191 13.9268 14.866C13.9737 14.9129 14 14.9765 14 15.0428V18.1428C14 18.2745 14.026 18.405 14.0766 18.5266C14.1272 18.6483 14.2013 18.7587 14.2947 18.8517C14.388 18.9446 14.4989 19.0181 14.6208 19.0681C14.7427 19.1181 14.8733 19.1434 15.005 19.1428C15.2579 19.1419 15.5008 19.0442 15.684 18.8698L22.465 12.5128C22.5639 12.4212 22.6434 12.3106 22.6985 12.1876C22.7536 12.0645 22.7832 11.9316 22.7857 11.7968C22.7881 11.662 22.7632 11.5282 22.7126 11.4032C22.662 11.2783 22.5866 11.1649 22.491 11.0698Z"/>
</svg>
