<svg width="24" height="24" viewBox="0 0 24 24" xmlns="http://www.w3.org/2000/svg">
  <path d="M1.155 7.4L10.804 11.6C11.1815 11.7636 11.5886 11.848 12 11.848C12.4114 11.848 12.8185 11.7636 13.196 11.6L22.845 7.4C23.1129 7.28346 23.341 7.0912 23.5012 6.84685C23.6613 6.60249 23.7467 6.31668 23.7467 6.0245C23.7467 5.73233 23.6613 5.44651 23.5012 5.20216C23.341 4.9578 23.1129 4.76555 22.845 4.649L13.2 0.452003C12.8225 0.288473 12.4154 0.204102 12.004 0.204102C11.5926 0.204102 11.1855 0.288473 10.808 0.452003L1.157 4.646C0.888782 4.76241 0.660433 4.95467 0.500034 5.19913C0.339635 5.4436 0.254181 5.72961 0.254181 6.022C0.254181 6.31439 0.339635 6.60041 0.500034 6.84487C0.660433 7.08934 0.888782 7.2816 1.157 7.398L1.155 7.4Z"/>
  <path d="M22.844 10.648L21.6 10.106C21.3568 9.99991 21.0814 9.99478 20.8344 10.0917C20.5874 10.1887 20.3891 10.3798 20.283 10.623C20.1769 10.8662 20.1718 11.1416 20.2687 11.3886C20.3657 11.6356 20.5568 11.8339 20.8 11.94L20.991 12.023L12.4 15.759C12.274 15.8147 12.1378 15.8435 12 15.8435C11.8622 15.8435 11.726 15.8147 11.6 15.759L3.00799 12.023L3.19999 11.94C3.32042 11.8875 3.42931 11.8117 3.52047 11.7171C3.61162 11.6225 3.68325 11.5109 3.73125 11.3886C3.77926 11.2663 3.80271 11.1357 3.80027 11.0044C3.79782 10.873 3.76952 10.7434 3.71699 10.623C3.66447 10.5026 3.58873 10.3937 3.49412 10.3025C3.3995 10.2114 3.28786 10.1397 3.16557 10.0917C3.04327 10.0437 2.91272 10.0203 2.78136 10.0227C2.65001 10.0252 2.52042 10.0535 2.39999 10.106L1.15599 10.647C0.887776 10.7634 0.659426 10.9557 0.499027 11.2001C0.338628 11.4446 0.253174 11.7306 0.253174 12.023C0.253174 12.3154 0.338628 12.6014 0.499027 12.8459C0.659426 13.0903 0.887776 13.2826 1.15599 13.399L10.8 17.593C11.1775 17.7566 11.5846 17.841 11.996 17.841C12.4074 17.841 12.8145 17.7566 13.192 17.593L22.841 13.4C23.1092 13.2836 23.3376 13.0913 23.498 12.8469C23.6584 12.6024 23.7438 12.3164 23.7438 12.024C23.7438 11.7316 23.6584 11.4456 23.498 11.2011C23.3376 10.9567 23.1092 10.7644 22.841 10.648H22.844Z"/>
  <path d="M22.844 16.6L21.6 16.061C21.3568 15.9549 21.0814 15.9498 20.8344 16.0467C20.5874 16.1437 20.3891 16.3348 20.283 16.578C20.1769 16.8212 20.1718 17.0966 20.2687 17.3436C20.3657 17.5906 20.5568 17.7889 20.8 17.895L20.991 17.978L12.4 21.714C12.2738 21.7691 12.1377 21.7975 12 21.7975C11.8623 21.7975 11.7262 21.7691 11.6 21.714L3.00799 17.978L3.19999 17.9C3.32042 17.8475 3.42931 17.7717 3.52047 17.6771C3.61162 17.5825 3.68325 17.4709 3.73125 17.3486C3.77926 17.2263 3.80271 17.0957 3.80027 16.9644C3.79782 16.833 3.76952 16.7034 3.71699 16.583C3.66447 16.4626 3.58873 16.3537 3.49412 16.2625C3.3995 16.1714 3.28786 16.0997 3.16557 16.0517C3.04327 16.0037 2.91272 15.9803 2.78136 15.9827C2.65001 15.9852 2.52042 16.0135 2.39999 16.066L1.15599 16.606C0.887776 16.7224 0.659426 16.9147 0.499027 17.1591C0.338628 17.4036 0.253174 17.6896 0.253174 17.982C0.253174 18.2744 0.338628 18.5604 0.499027 18.8049C0.659426 19.0493 0.887776 19.2416 1.15599 19.358L10.8 23.548C11.1775 23.7116 11.5846 23.796 11.996 23.796C12.4074 23.796 12.8145 23.7116 13.192 23.548L22.837 19.355C23.1055 19.2387 23.3342 19.0465 23.4948 18.8019C23.6554 18.5573 23.741 18.2711 23.741 17.9785C23.741 17.6859 23.6554 17.3997 23.4948 17.1551C23.3342 16.9105 23.1055 16.7183 22.837 16.602L22.844 16.6Z"/>
</svg>
