<svg width="24" height="24" viewBox="0 0 24 24" fill="none" xmlns="http://www.w3.org/2000/svg">
<g clip-path="url(#clip0)">
<path d="M8.79999 17.769C8.78557 17.7372 8.77795 17.7028 8.77763 17.6679C8.77732 17.633 8.78431 17.5984 8.79815 17.5664C8.812 17.5344 8.83239 17.5056 8.85803 17.4819C8.88366 17.4583 8.91397 17.4402 8.94699 17.429C9.16546 17.3484 9.34897 17.1941 9.46587 16.9927C9.58276 16.7914 9.62572 16.5555 9.58732 16.3258C9.54893 16.0962 9.43159 15.8871 9.25554 15.7347C9.0795 15.5823 8.85579 15.4961 8.62299 15.491H8.22299C8.16553 15.4907 8.1099 15.4707 8.06546 15.4343C8.02102 15.3979 7.99048 15.3473 7.97899 15.291C7.74099 14.2072 7.62295 13.1005 7.62699 11.991C7.62554 11.0518 7.71057 10.1145 7.88099 9.19097C7.89255 9.13433 7.92338 9.08345 7.96823 9.04698C8.01309 9.01052 8.06919 8.99072 8.12699 8.99097H16.127C16.1847 8.99077 16.2406 9.0106 16.2853 9.04707C16.33 9.08355 16.3606 9.13441 16.372 9.19097C16.447 9.58597 16.51 9.99097 16.552 10.433C16.5603 10.5667 16.5955 10.6975 16.6554 10.8174C16.7153 10.9373 16.7987 11.044 16.9006 11.131C17.0025 11.2181 17.1209 11.2838 17.2487 11.3242C17.3765 11.3646 17.5112 11.3788 17.6446 11.3662C17.778 11.3535 17.9076 11.3141 18.0255 11.2504C18.1434 11.1867 18.2473 11.0999 18.331 10.9952C18.4148 10.8905 18.4766 10.7701 18.5128 10.641C18.549 10.5119 18.559 10.3769 18.542 10.244C18.51 9.91097 18.469 9.58897 18.419 9.27597C18.4135 9.24022 18.4158 9.20371 18.4258 9.16894C18.4357 9.13417 18.4531 9.10196 18.4766 9.07451C18.5002 9.04706 18.5294 9.02503 18.5622 9.00992C18.5951 8.99481 18.6308 8.98698 18.667 8.98697H21.472C21.5257 8.98689 21.578 9.00419 21.6211 9.03627C21.6641 9.06835 21.6957 9.11349 21.711 9.16497C21.8419 9.595 21.9421 10.0338 22.011 10.478C22.0552 10.7361 22.199 10.9666 22.4113 11.1198C22.6237 11.2731 22.8877 11.337 23.1466 11.2977C23.4056 11.2584 23.6388 11.1191 23.7961 10.9097C23.9534 10.7003 24.0223 10.4376 23.988 10.178C23.6411 7.90855 22.6506 5.78626 21.1338 4.06288C19.6171 2.33951 17.6378 1.08739 15.4308 0.455087C13.2238 -0.177219 10.8818 -0.163175 8.68256 0.495555C6.48332 1.15428 4.5192 2.43005 3.02322 4.17149C1.52725 5.91293 0.562207 8.04695 0.242597 10.3204C-0.0770134 12.5938 0.262223 14.9112 1.22006 16.9976C2.17789 19.084 3.71412 20.8518 5.64648 22.0914C7.57884 23.331 9.82622 23.9902 12.122 23.991C12.3518 23.9897 12.574 23.908 12.7499 23.76C12.9258 23.6121 13.0444 23.4072 13.085 23.181C13.384 21.659 10.809 22.177 8.79999 17.769ZM5.91999 15.2C5.92705 15.2363 5.926 15.2738 5.91692 15.3097C5.90784 15.3456 5.89096 15.3791 5.86747 15.4078C5.84398 15.4364 5.81446 15.4595 5.78102 15.4755C5.74758 15.4914 5.71104 15.4998 5.67399 15.5H2.94399C2.89239 15.4998 2.84209 15.4838 2.79988 15.4541C2.75768 15.4244 2.7256 15.3825 2.70799 15.334C1.9933 13.3507 1.93128 11.191 2.53099 9.16997C2.54632 9.11822 2.57798 9.07283 2.62123 9.04057C2.66449 9.0083 2.71703 8.9909 2.77099 8.99097H5.57699C5.61306 8.991 5.6487 8.99881 5.68147 9.01386C5.71425 9.02891 5.7434 9.05085 5.76693 9.07818C5.79047 9.10551 5.80784 9.1376 5.81786 9.17224C5.82787 9.20689 5.83031 9.24329 5.82499 9.27897C5.68956 10.1766 5.6227 11.0832 5.62499 11.991C5.62268 13.0675 5.72145 14.1419 5.91999 15.2ZM8.84699 6.99997C8.80583 6.99999 8.76531 6.98986 8.72901 6.97046C8.69271 6.95107 8.66176 6.92301 8.6389 6.88878C8.61605 6.85455 8.602 6.81521 8.59801 6.77425C8.59401 6.73328 8.60019 6.69197 8.61599 6.65397C9.30427 4.90349 10.4697 3.38116 11.98 2.25997C12.0223 2.22968 12.073 2.21339 12.125 2.21339C12.177 2.21339 12.2277 2.22968 12.27 2.25997C13.7757 3.38098 14.9393 4.89945 15.63 6.64497C15.6458 6.68289 15.6519 6.72411 15.648 6.765C15.6441 6.80588 15.6301 6.84516 15.6074 6.87936C15.5846 6.91357 15.5538 6.94165 15.5176 6.96111C15.4815 6.98058 15.4411 6.99083 15.4 6.99097L8.84699 6.99997ZM20.534 6.61397C20.5585 6.65172 20.5723 6.69539 20.574 6.74035C20.5758 6.78532 20.5653 6.82991 20.5438 6.86944C20.5223 6.90897 20.4905 6.94196 20.4519 6.96493C20.4132 6.9879 20.369 7.00001 20.324 6.99997H18.061C18.0085 6.99993 17.9574 6.98339 17.9149 6.9527C17.8724 6.92202 17.8406 6.87873 17.824 6.82897C17.419 5.58792 16.8316 4.41407 16.081 3.34597C16.0494 3.30067 16.0337 3.24624 16.0362 3.19109C16.0387 3.13594 16.0593 3.08315 16.0948 3.0409C16.1303 2.99865 16.1788 2.96929 16.2327 2.95737C16.2866 2.94545 16.343 2.95163 16.393 2.97497C18.0812 3.78069 19.5141 5.03683 20.534 6.60497V6.61397ZM7.85699 2.96097C7.90689 2.93746 7.96317 2.93113 8.01705 2.94294C8.07093 2.95475 8.11939 2.98406 8.15488 3.02628C8.19037 3.06851 8.21091 3.12128 8.21328 3.17639C8.21565 3.2315 8.19973 3.28585 8.16799 3.33097C7.41623 4.40061 6.82779 5.57614 6.42199 6.81897C6.40572 6.869 6.37403 6.91259 6.33145 6.94349C6.28887 6.97439 6.2376 6.99101 6.18499 6.99097H3.92299C3.87815 6.99089 3.83415 6.97876 3.79561 6.95583C3.75707 6.93291 3.72541 6.90005 3.70393 6.86068C3.68246 6.82131 3.67197 6.7769 3.67357 6.73208C3.67516 6.68727 3.68878 6.64371 3.71299 6.60597C4.72679 5.02778 6.16234 3.76509 7.85699 2.96097ZM4.05699 17.889C4.02914 17.8518 4.01217 17.8077 4.008 17.7614C4.00383 17.7152 4.01262 17.6687 4.03339 17.6272C4.05415 17.5856 4.08607 17.5507 4.12556 17.5263C4.16505 17.5019 4.21056 17.489 4.25699 17.489H6.34799C6.39896 17.489 6.44869 17.5047 6.49051 17.5338C6.53234 17.563 6.56425 17.6042 6.58199 17.652C6.97488 18.7175 7.50718 19.7262 8.16499 20.652C8.19721 20.6971 8.21353 20.7516 8.21139 20.807C8.20925 20.8623 8.18877 20.9154 8.15316 20.9579C8.11756 21.0004 8.06886 21.0298 8.0147 21.0416C7.96055 21.0534 7.90402 21.0468 7.85399 21.023C6.34874 20.3091 5.04462 19.2321 4.05899 17.889H4.05699Z" fill="black"/>
<path d="M23.485 16.789L13.978 12.65C13.7925 12.581 13.591 12.5667 13.3976 12.609C13.2043 12.6513 13.0271 12.7484 12.8873 12.8886C12.7476 13.0288 12.6511 13.2062 12.6094 13.3997C12.5676 13.5932 12.5825 13.7947 12.652 13.98L16.788 23.48C16.857 23.6377 16.9709 23.7716 17.1155 23.8649C17.2601 23.9583 17.4289 24.007 17.601 24.005C17.8254 23.9992 18.0423 23.9235 18.2215 23.7885C18.4008 23.6535 18.5335 23.466 18.601 23.252L19.673 19.8C19.6853 19.761 19.707 19.7255 19.7361 19.6968C19.7652 19.668 19.8009 19.6468 19.84 19.635L23.254 18.6C23.4366 18.544 23.601 18.4404 23.7302 18.2998C23.8593 18.1592 23.9487 17.9866 23.989 17.8C24.036 17.5991 24.0114 17.3882 23.9193 17.2036C23.8273 17.019 23.6737 16.8724 23.485 16.789Z" fill="black"/>
</g>
<defs>
<clipPath id="clip0">
<rect width="24" height="24" fill="white"/>
</clipPath>
</defs>
</svg>
