<svg width="24" height="24" viewBox="0 0 24 24" fill="black" xmlns="http://www.w3.org/2000/svg">
<g clip-path="url(#clip0)">
<path d="M20.821 10.737C19.0067 9.09622 16.6802 8.13438 14.237 8.01499C14.1731 8.01167 14.113 7.98401 14.0689 7.93769C14.0248 7.89138 14.0001 7.82993 14 7.76599V5.56599C13.9998 5.37724 13.9455 5.19248 13.8436 5.03359C13.7417 4.87471 13.5964 4.74833 13.4249 4.66943C13.2535 4.59053 13.063 4.5624 12.876 4.58838C12.6891 4.61435 12.5134 4.69334 12.37 4.81599L5.43797 10.742C5.32819 10.8359 5.24005 10.9524 5.17962 11.0836C5.11918 11.2148 5.08789 11.3575 5.08789 11.502C5.08789 11.6464 5.11918 11.7892 5.17962 11.9204C5.24005 12.0516 5.32819 12.1681 5.43797 12.262L12.39 18.208C12.5318 18.3292 12.7053 18.4071 12.8901 18.4327C13.0749 18.4583 13.2631 18.4304 13.4325 18.3524C13.6019 18.2743 13.7454 18.1493 13.8459 17.9922C13.9465 17.8351 14 17.6525 14 17.466V15.047C13.9999 14.9919 14.0182 14.9384 14.0518 14.8948C14.0855 14.8511 14.1327 14.8199 14.186 14.806C15.659 14.414 20.033 13.852 23.052 19.731C23.1024 19.8328 23.1859 19.9144 23.2889 19.9624C23.3918 20.0103 23.5081 20.0218 23.6184 19.9949C23.7288 19.968 23.8267 19.9044 23.896 19.8144C23.9654 19.7245 24.002 19.6136 24 19.5C24 15.691 22.93 12.743 20.821 10.737Z"/>
<path d="M2.28901 11.5L9.24901 5.77001C9.45 5.6003 9.57603 5.35823 9.59979 5.09625C9.62354 4.83427 9.54312 4.57348 9.37593 4.37039C9.20875 4.1673 8.96827 4.03826 8.70661 4.01123C8.44495 3.9842 8.18317 4.06137 7.97801 4.22601L0.549008 10.344C0.378092 10.4847 0.240446 10.6615 0.145948 10.8618C0.0514491 11.062 0.00244141 11.2806 0.00244141 11.502C0.00244141 11.7234 0.0514491 11.942 0.145948 12.1423C0.240446 12.3425 0.378092 12.5193 0.549008 12.66L7.80001 18.633C8.00517 18.7976 8.26695 18.8748 8.52861 18.8478C8.79027 18.8208 9.03075 18.6917 9.19793 18.4886C9.36512 18.2855 9.44554 18.0247 9.42179 17.7628C9.39803 17.5008 9.272 17.2587 9.07101 17.089L2.28901 11.5Z"/>
</g>
<defs>
<clipPath id="clip0">
<rect width="24" height="24" fill="transparent"/>
</clipPath>
</defs>
</svg>
