<svg xmlns="http://www.w3.org/2000/svg" width="36" height="36" viewBox="0 0 36 36">
  <defs>
    <style>
      .cls-1 {
        fill: #f9f9f9;
        stroke: #e2e2e2;
        stroke-width: 1px;
      }

      .cls-2 {
        fill: #929292;
        fill-rule: evenodd;
      }
    </style>
  </defs>
  <circle class="cls-1" cx="18" cy="18" r="18"/>
  <path class="cls-2" d="M26,27H10a1,1,0,0,1-1-1,8.058,8.058,0,0,1,.8-3.264c0.626-1.251,2.472-1.929,5.028-2.867l0.432-.16V18.778a3.662,3.662,0,0,1-1.009-2.042,2.042,2.042,0,0,1-.363-0.8,2.276,2.276,0,0,1,.215-1.709c-0.273-.918-0.65-2.409.092-3.408A1.9,1.9,0,0,1,15.29,10.1a4.369,4.369,0,0,1,3.366-1.073c1.638,0.039,3.5.624,3.8,2.15a5.929,5.929,0,0,1-.532,3.1,2.3,2.3,0,0,1,.185,1.658,2.042,2.042,0,0,1-.363.8,3.662,3.662,0,0,1-1.009,2.042v0.933l0.43,0.159c2.556,0.939,4.4,1.617,5.029,2.868A8.06,8.06,0,0,1,27,26,1,1,0,0,1,26,27ZM11,25H25a6.475,6.475,0,0,0-.59-1.368c-0.272-.544-2.216-1.257-3.931-1.887l-1.091-.4a1,1,0,0,1-.649-0.935V18.324a1,1,0,0,1,.445-0.831,1.613,1.613,0,0,0,.6-1.253,1,1,0,0,1,.389-0.79,0.781,0.781,0,0,0,.013-0.146,1,1,0,0,1-.4-0.8A2.051,2.051,0,0,1,20,13.715a5.047,5.047,0,0,0,.5-2.141,1.63,1.63,0,0,0-1.041-.457,4.106,4.106,0,0,0-2.6.239,1,1,0,0,1-.945.673,0.439,0.439,0,0,0-.155.018,4.131,4.131,0,0,0,.32,1.806,2.172,2.172,0,0,1,.138.65,1,1,0,0,1-.4.8,0.765,0.765,0,0,0,.013.146,1,1,0,0,1,.389.79,1.613,1.613,0,0,0,.611,1.262,1.031,1.031,0,0,1,.432.821v2.084a1,1,0,0,1-.649.935l-1.092.4c-1.714.629-3.658,1.343-3.929,1.886A6.484,6.484,0,0,0,11,25Zm5.883-13.727h0Z"/>
</svg>
