<svg xmlns="http://www.w3.org/2000/svg" xmlns:xlink="http://www.w3.org/1999/xlink" preserveAspectRatio="xMidYMid" width="20" height="20" viewBox="0 0 20 20">
  <defs>
    <style>
      .cls-1 {
        fill: #a3a9ac;
        filter: url(#color-overlay-1);
        fill-rule: evenodd;
      }
    </style>

    <filter id="color-overlay-1" filterUnits="userSpaceOnUse">
      <feFlood flood-color="#38f"/>
      <feComposite operator="in" in2="SourceGraphic"/>
      <feBlend in2="SourceGraphic" result="solidFill"/>
    </filter>
  </defs>
  <path d="M17.118,17.022 C17.117,17.023 17.116,17.023 17.116,17.024 C15.222,18.943 12.694,20.000 10.000,20.000 C7.309,20.000 4.785,18.946 2.892,17.032 C1.027,15.148 -0.000,12.650 -0.000,10.000 C-0.000,4.486 4.486,0.000 10.000,0.000 C15.514,0.000 20.000,4.486 20.000,10.000 C20.000,12.645 18.977,15.139 17.118,17.022 ZM14.607,16.373 C14.008,16.128 13.321,15.879 12.614,15.623 C12.190,15.470 11.755,15.312 11.319,15.149 C11.007,15.032 10.800,14.734 10.800,14.400 L10.800,12.400 C10.800,12.056 11.020,11.750 11.347,11.641 C11.348,11.639 12.000,11.347 12.000,10.000 C12.000,9.667 12.204,9.381 12.493,9.261 C12.497,9.222 12.497,9.178 12.493,9.139 C12.397,9.099 12.309,9.041 12.234,8.966 C12.084,8.816 12.000,8.612 12.000,8.400 C12.000,8.228 12.047,8.081 12.132,7.814 C12.277,7.361 12.580,6.417 12.424,5.794 C12.362,5.546 11.638,5.200 10.600,5.200 C9.562,5.200 8.838,5.546 8.776,5.794 C8.672,6.208 8.263,6.469 7.843,6.384 C7.755,6.367 7.695,6.349 7.655,6.362 C7.617,6.517 7.623,6.901 7.891,7.856 C7.961,8.107 8.000,8.245 8.000,8.400 C8.000,8.733 7.796,9.019 7.507,9.139 C7.503,9.179 7.503,9.222 7.507,9.261 C7.796,9.381 8.000,9.667 8.000,10.000 C8.000,11.347 8.652,11.639 8.680,11.651 C8.975,11.776 9.200,12.079 9.200,12.400 L9.200,14.400 C9.200,14.733 8.994,15.031 8.683,15.148 C8.287,15.298 7.875,15.448 7.462,15.597 C6.753,15.854 6.035,16.116 5.401,16.379 C6.795,17.661 7.935,18.000 10.000,18.000 C12.072,18.000 13.210,17.664 14.607,16.373 ZM10.000,2.000 C5.368,2.000 2.000,5.368 2.000,10.000 C2.000,12.017 2.702,13.481 4.000,15.000 C4.891,14.521 5.680,14.541 6.916,14.093 C7.145,14.010 7.374,13.927 7.600,13.844 L7.600,12.860 C7.085,12.469 6.543,11.727 6.424,10.508 C6.102,10.225 5.904,9.759 5.904,9.200 C5.904,8.729 6.045,8.324 6.281,8.039 C6.062,7.229 5.800,5.979 6.486,5.238 C6.684,5.024 7.012,4.800 7.526,4.767 C8.156,3.918 9.494,3.600 10.600,3.600 C11.949,3.600 13.643,4.073 13.976,5.406 C14.211,6.347 13.941,7.387 13.734,8.058 C13.961,8.341 14.096,8.739 14.096,9.200 C14.096,9.759 13.898,10.225 13.576,10.508 C13.457,11.727 12.915,12.469 12.400,12.860 L12.400,13.843 C12.655,13.937 12.909,14.028 13.159,14.119 C14.425,14.577 15.152,14.547 16.000,15.000 C17.293,13.482 18.000,12.012 18.000,10.000 C18.000,5.368 14.632,2.000 10.000,2.000 Z" class="cls-1"/>
</svg>
