<svg xmlns="http://www.w3.org/2000/svg" width="36" height="36" viewBox="0 0 36 36">
  <defs>
    <style>
      .cls-1 {
        fill: #f9f9f9;
        stroke: #e2e2e2;
        stroke-width: 1px;
      }

      .cls-2 {
        fill: #929292;
        fill-rule: evenodd;
      }
    </style>
  </defs>
  <circle class="cls-1" cx="18" cy="18" r="18"/>
  <path id="docs" class="cls-2" d="M25,28H11a1.162,1.162,0,0,1-1-1V9a1.162,1.162,0,0,1,1-1h9a0.955,0.955,0,0,1,.643.186l5.048,4.784A2.313,2.313,0,0,1,26,14V27A1.162,1.162,0,0,1,25,28ZM12,26H24L23.94,13.932,20,10H12V26ZM25,16H19a1,1,0,0,1-1-1V9a1.009,1.009,0,0,1,.958-1.047,1,1,0,0,1,1,1L20,14h5a0.887,0.887,0,0,1,.938.922A1.022,1.022,0,0,1,25,16Z"/>
</svg>
