<svg width="24" height="24" viewBox="0 0 24 24" fill="none" xmlns="http://www.w3.org/2000/svg">
<path fill-rule="evenodd" clip-rule="evenodd" d="M4 3.75C3.21244 3.75 2.75 4.28866 2.75 4.75V15.25C2.75 15.7113 3.21244 16.25 4 16.25H12H20C20.7876 16.25 21.25 15.7113 21.25 15.25V4.75C21.25 4.28866 20.7876 3.75 20 3.75H4ZM20 17.75H12.75V20.25H15C15.4142 20.25 15.75 20.5858 15.75 21C15.75 21.4142 15.4142 21.75 15 21.75H12H9C8.58579 21.75 8.25 21.4142 8.25 21C8.25 20.5858 8.58579 20.25 9 20.25H11.25V17.75H4C2.57842 17.75 1.25 16.7217 1.25 15.25V4.75C1.25 3.27835 2.57842 2.25 4 2.25H20C21.4216 2.25 22.75 3.27835 22.75 4.75V15.25C22.75 16.7217 21.4216 17.75 20 17.75Z" fill="#000"/>
</svg>
