<svg viewBox="0 0 24 24" fill="none" xmlns="http://www.w3.org/2000/svg">
<path d="M21.6585 2H2.34146C1.72047 2 1.12491 2.24082 0.685799 2.66947C0.246689 3.09812 0 3.67951 0 4.28571V19.7143C0 20.3205 0.246689 20.9019 0.685799 21.3305C1.12491 21.7592 1.72047 22 2.34146 22H21.6585C22.2795 22 22.8751 21.7592 23.3142 21.3305C23.7533 20.9019 24 20.3205 24 19.7143V4.28571C24 3.67951 23.7533 3.09812 23.3142 2.66947C22.8751 2.24082 22.2795 2 21.6585 2ZM21.3999 3.99888C21.5552 3.99888 21.7041 4.05909 21.8138 4.16625C21.9236 4.27342 21.9853 4.41876 21.9853 4.57031V4.79888C21.9852 4.89299 21.9614 4.98562 21.9158 5.06856C21.8703 5.1515 21.8045 5.22218 21.7242 5.27431L12.5912 11.2857C12.4972 11.3469 12.387 11.3803 12.274 11.3817C12.161 11.3831 12.05 11.3525 11.9543 11.2937L2.26887 5.24917C2.18529 5.19763 2.11643 5.12627 2.06873 5.04174C2.02103 4.9572 1.99604 4.86225 1.99609 4.76574V4.57031C1.99609 4.41876 2.05777 4.27342 2.16754 4.16625C2.27732 4.05909 2.42621 3.99888 2.58146 3.99888H21.3999ZM2.58537 19.9961C2.43012 19.9961 2.28123 19.9359 2.17145 19.8287C2.06167 19.7216 2 19.5762 2 19.4247V8.5C2.00078 8.39813 2.02944 8.29832 2.08302 8.2109C2.13659 8.12348 2.21314 8.05163 2.30472 8.00279C2.3963 7.95395 2.49959 7.9299 2.60389 7.93313C2.7082 7.93635 2.80972 7.96674 2.89795 8.02114L11.6687 13.824C11.8555 13.9389 12.0718 14 12.2927 14C12.5238 13.9994 12.7498 13.9327 12.9424 13.808L21.0903 8.52686C21.1783 8.4697 21.2805 8.43686 21.3861 8.43183C21.4916 8.4268 21.5966 8.44975 21.6899 8.49827C21.7832 8.54678 21.8612 8.61904 21.9158 8.70738C21.9704 8.79571 21.9995 8.89683 22 9V19.42C22 19.5716 22.0237 19.7255 21.9139 19.8326C21.8041 19.9398 21.6552 20 21.5 20L2.58537 19.9961Z" fill="black"/>
</svg>
