<?xml version="1.0" encoding="UTF-8" standalone="no"?>
<svg width="22px" height="21px" viewBox="0 0 22 21" version="1.1" xmlns="http://www.w3.org/2000/svg" xmlns:xlink="http://www.w3.org/1999/xlink">
    <!-- Generator: sketchtool 39.1 (31720) - http://www.bohemiancoding.com/sketch -->
    <title>AADFAAA4-34DA-48F5-8FEE-F0F663CB8F48</title>
    <desc>Created with sketchtool.</desc>
    <defs>
        <path d="M11.4545455,10 C13.7575,10 16,7.7575 16,5.45454545 C16,2.2425 13.7575,0 11.4545455,0 C8.2425,0 6,2.2425 6,5.45454545 C6,7.7575 8.2425,10 11.4545455,10 L11.4545455,10 Z" id="path-1"></path>
        <mask id="mask-2" maskContentUnits="userSpaceOnUse" maskUnits="objectBoundingBox" x="0" y="0" width="10" height="10" fill="white">
            <use xlink:href="#path-1"></use>
        </mask>
        <path d="M11,11 C4.52375,11 0,14.5242857 0,19 L0,21 L22,21 L22,19 C22,14.5242857 17.47625,11 11,11 L11,11 Z" id="path-3"></path>
        <mask id="mask-4" maskContentUnits="userSpaceOnUse" maskUnits="objectBoundingBox" x="0" y="0" width="22" height="10" fill="white">
            <use xlink:href="#path-3"></use>
        </mask>
    </defs>
    <g id="#496:-Chatroom-Web" stroke="none" stroke-width="1" fill="none" fillRule="evenodd">
        <g id="Chatroom-1" transform="translate(-1526.000000, -23.000000)" stroke-width="2" stroke="#003bdf" fill="#FFFFFF">
            <g id="Group-13" transform="translate(1526.000000, 21.000000)">
                <g id="Group-2" transform="translate(0.000000, 2.000000)">
                    <g id="members">
                        <use id="Shape" mask="url(#mask-2)" xlink:href="#path-1"></use>
                        <use id="Shape" mask="url(#mask-4)" xlink:href="#path-3"></use>
                    </g>
                </g>
            </g>
        </g>
    </g>
</svg>
