<svg xmlns="http://www.w3.org/2000/svg" xmlns:xlink="http://www.w3.org/1999/xlink" preserveAspectRatio="xMidYMid" width="11.937" height="12" viewBox="0 0 11.937 12">
  <defs>
    <style>
      .cls-1 {
        fill: #c3c3c3;
        fill-rule: evenodd;
      }
    </style>
  </defs>
  <path d="M11.630,11.707 C11.436,11.902 11.182,12.000 10.928,12.000 C10.674,12.000 10.420,11.902 10.226,11.707 L8.066,9.532 C7.240,10.093 6.247,10.421 5.178,10.421 C2.325,10.421 0.004,8.084 0.004,5.210 C0.004,2.337 2.325,0.000 5.178,0.000 C8.031,0.000 10.353,2.337 10.353,5.210 C10.353,6.286 10.027,7.287 9.470,8.118 L11.630,10.293 C12.018,10.684 12.018,11.316 11.630,11.707 ZM5.178,2.000 C3.421,2.000 1.990,3.440 1.990,5.210 C1.990,6.980 3.421,8.421 5.178,8.421 C6.936,8.421 8.367,6.980 8.367,5.210 C8.367,3.440 6.936,2.000 5.178,2.000 Z" class="cls-1"/>
</svg>
