<?xml version="1.0" encoding="UTF-8"?>
<svg width="24px" height="24px" viewBox="0 0 24 24" version="1.1" xmlns="http://www.w3.org/2000/svg" xmlns:xlink="http://www.w3.org/1999/xlink">
    <!-- Generator: Sketch 52.4 (67378) - http://www.bohemiancoding.com/sketch -->
    <title>Slice</title>
    <desc>Created with Sketch.</desc>
    <g id="Nov-22,-2018" stroke="none" stroke-width="1" fill="none" fill-rule="evenodd">
        <g id="list-bullets" transform="translate(4.000000, 5.000000)" fill="#FFFFFF">
            <ellipse id="Oval" cx="1.66666667" cy="1.90781818" rx="1.66666667" ry="1.59090909"></ellipse>
            <path d="M5.66666667,2.54545455 L15.3333333,2.54545455 C15.7015232,2.54545455 16,2.26054484 16,1.90909091 C16,1.55763698 15.7015232,1.27272727 15.3333333,1.27272727 L5.66666667,1.27272727 C5.29847683,1.27272727 5,1.55763698 5,1.90909091 C5,2.26054484 5.29847683,2.54545455 5.66666667,2.54545455 Z" id="Path"></path>
            <ellipse id="Oval" cx="1.66666667" cy="6.99872727" rx="1.66666667" ry="1.59090909"></ellipse>
            <path d="M15.3333333,6.36363636 L5.66666667,6.36363636 C5.29847683,6.36363636 5,6.64854607 5,7 C5,7.35145393 5.29847683,7.63636364 5.66666667,7.63636364 L15.3333333,7.63636364 C15.7015232,7.63636364 16,7.35145393 16,7 C16,6.64854607 15.7015232,6.36363636 15.3333333,6.36363636 Z" id="Path"></path>
            <ellipse id="Oval" cx="1.66666667" cy="12.0896364" rx="1.66666667" ry="1.59090909"></ellipse>
            <path d="M15.3333333,11.4545455 L5.66666667,11.4545455 C5.29847683,11.4545455 5,11.7394552 5,12.0909091 C5,12.442363 5.29847683,12.7272727 5.66666667,12.7272727 L15.3333333,12.7272727 C15.7015232,12.7272727 16,12.442363 16,12.0909091 C16,11.7394552 15.7015232,11.4545455 15.3333333,11.4545455 Z" id="Path"></path>
        </g>
    </g>
</svg>