<svg width="24" height="24" viewBox="0 0 24 24" fill="none" xmlns="http://www.w3.org/2000/svg">
  <g clip-path="url(#clip0)">
    <path d="M12.0001 24C13.8457 23.9979 15.6151 23.2638 16.9203 21.9589C18.2254 20.6539 18.9597 18.8846 18.9621 17.039L18.9621 5.129C18.9716 4.44962 18.846 3.77513 18.5925 3.14472C18.3391 2.5143 17.9629 1.94053 17.4859 1.45675C17.0088 0.972969 16.4403 0.588818 15.8135 0.326616C15.1867 0.0644131 14.514 -0.070612 13.8346 -0.070612C13.1551 -0.070612 12.4825 0.0644131 11.8557 0.326616C11.2288 0.588818 10.6604 0.972969 10.1833 1.45675C9.70624 1.94053 9.33006 2.5143 9.07664 3.14472C8.82321 3.77513 8.6976 4.44962 8.70709 5.129L8.70709 14.287C8.70709 15.1604 9.05403 15.9979 9.67158 16.6155C10.2891 17.2331 11.1267 17.58 12.0001 17.58C12.8734 17.58 13.711 17.2331 14.3286 16.6155C14.9461 15.9979 15.2931 15.1604 15.2931 14.287L15.2931 6.5C15.2931 6.23478 15.1877 5.98043 15.0002 5.79289C14.8127 5.60535 14.5583 5.5 14.2931 5.5C14.0279 5.5 13.7735 5.60535 13.586 5.79289C13.3984 5.98043 13.2931 6.23478 13.2931 6.5V14.287C13.2931 14.6299 13.1569 14.9588 12.9144 15.2013C12.6719 15.4438 12.343 15.58 12.0001 15.58C11.6572 15.58 11.3283 15.4438 11.0858 15.2013C10.8433 14.9588 10.7071 14.6299 10.7071 14.287L10.7071 5.129C10.6997 4.71358 10.7751 4.30085 10.9289 3.9149C11.0827 3.52895 11.3119 3.17751 11.6031 2.8811C11.8942 2.5847 12.2415 2.34927 12.6246 2.18856C13.0078 2.02784 13.4191 1.94507 13.8346 1.94507C14.2501 1.94507 14.6614 2.02784 15.0445 2.18856C15.4277 2.34927 15.7749 2.5847 16.0661 2.8811C16.3573 3.17751 16.5864 3.52895 16.7403 3.9149C16.8941 4.30085 16.9695 4.71358 16.9621 5.129L16.9621 17.039C16.9621 18.355 16.4393 19.6171 15.5087 20.5477C14.5782 21.4782 13.3161 22.001 12.0001 22.001C10.6841 22.001 9.42198 21.4782 8.49142 20.5477C7.56087 19.6171 7.03809 18.355 7.03809 17.039L7.03809 9.5C7.03809 9.23478 6.93273 8.98043 6.74519 8.79289C6.55766 8.60536 6.3033 8.5 6.03809 8.5C5.77287 8.5 5.51851 8.60536 5.33098 8.79289C5.14344 8.98043 5.03809 9.23478 5.03809 9.5L5.03809 17.039C5.04047 18.8846 5.77476 20.6539 7.0799 21.9589C8.38504 23.2638 10.1545 23.9979 12.0001 24V24Z" fill="black"/>
  </g>
  <defs>
    <clipPath id="clip0">
      <rect width="24" height="24" fill="white" transform="translate(24 24) rotate(-180)"/>
    </clipPath>
  </defs>
</svg>
