<svg width="24" height="24" viewBox="0 0 18 18" xmlns="http://www.w3.org/2000/svg">
    <path d="M4.181 18a1.1219 1.1219 0 0 1-.8085-.3425L1.875 16.1119C.6895 14.9229.0201 13.3289.0005 11.633c-.019-1.7484.651-3.3937 1.8878-4.631l5.1053-5.1112C8.2119.671 9.8305 0 11.5539 0c1.7212 0 3.3425.6717 4.5596 1.8908C17.3208 3.1016 17.991 4.711 18 6.4223c.0091 1.7337-.6623 3.365-1.8878 4.5898l-3.6689 3.6736c-1.4301 1.432-3.926 1.432-5.3563 0-1.4738-1.4754-1.4738-3.878 0-5.3534l3.24-3.2435c.44-.4393 1.151-.44 1.5904-.002.4408.438.4408 1.149.002 1.5876l-3.2399 3.242c-.6004.6023-.6004 1.58 0 2.1824.5794.5798 1.5898.5798 2.1699 0l3.6689-3.6737c.7987-.7995 1.236-1.862 1.2304-2.9943-.0056-1.1174-.443-2.1674-1.2304-2.9556-1.5877-1.5877-4.348-1.587-5.933 0L3.48 8.587c-.8065.8072-1.243 1.8797-1.2304 3.021.0112 1.1047.4486 2.1463 1.2304 2.929l1.5089 1.5575c.4317.4457.4205 1.1567-.026 1.5877-.21.2033-.491.3169-.7833.3165L4.1811 18H4.181z" />
</svg>
