<?xml version="1.0" encoding="UTF-8" standalone="no"?>
<svg width="48px" height="48px" viewBox="0 0 48 48" version="1.1" xmlns="http://www.w3.org/2000/svg" xmlns:xlink="http://www.w3.org/1999/xlink">
    <!-- Generator: sketchtool 3.8.3 (29802) - http://www.bohemiancoding.com/sketch -->
    <title>ED31B7D7-379D-4499-B4B4-0E62282F05BB</title>
    <desc>Created with sketchtool.</desc>
    <defs></defs>
    <g id="Symbols" stroke="none" stroke-width="1" fill="none" fillRule="evenodd">
        <g id="Listing-Shared-confirmation" transform="translate(-186.000000, -36.000000)" fill="#FFFFFF">
            <g id="Alert-Bell" transform="translate(186.000000, 36.000000)">
                <g id="Group">
                    <path d="M47,36 C44.244,36 42,33.758 42,31 L42,22 C42,14.718 37.52,8.098 30.794,5.35 C30.044,2.216 27.274,0 24,0 C20.776,0 17.952,2.262 17.2,5.35 C10.478,8.098 6,14.716 6,22 L6,31 C6,33.758 3.756,36 1,36 C0.448,36 0,36.448 0,37 C0,37.552 0.448,38 1,38 L47,38 C47.552,38 48,37.552 48,37 C48,36.448 47.552,36 47,36 L47,36 Z" id="Shape"></path>
                    <path d="M30,40 L18,40 C17.448,40 17,40.448 17,41 C17,44.86 20.14,48 24,48 C27.86,48 31,44.86 31,41 C31,40.448 30.552,40 30,40 L30,40 Z" id="Shape"></path>
                </g>
            </g>
        </g>
    </g>
</svg>
