<?xml version="1.0" encoding="UTF-8" standalone="no"?>
<svg width="16px" height="16px" viewBox="0 0 16 16" version="1.1" xmlns="http://www.w3.org/2000/svg" xmlns:xlink="http://www.w3.org/1999/xlink">
    <!-- Generator: sketchtool 39.1 (31720) - http://www.bohemiancoding.com/sketch -->
    <title>27514C20-6004-4BAF-A482-17C7E0DBABFE</title>
    <desc>Created with sketchtool.</desc>
    <defs></defs>
    <g id="#490:-Share-Web" stroke="none" stroke-width="1" fill="none" fillRule="evenodd">
        <g id="Share-Alert-2-2.9.0" transform="translate(-525.000000, -679.000000)" fill="#8696A4">
            <g id="Group-9" transform="translate(488.000000, 165.000000)">
                <g id="Group-2" transform="translate(0.000000, 477.000000)">
                    <g id="TextInputBar">
                        <g id="Group-2" transform="translate(20.000000, 20.000000)">
                            <g id="Group-3">
                                <g id="Alert-Bell" transform="translate(17.000000, 17.000000)">
                                    <g id="Group">
                                        <path d="M15.6666667,12 C14.748,12 14,11.2526667 14,10.3333333 L14,7.33333333 C14,4.906 12.5066667,2.69933333 10.2646667,1.78333333 C10.0146667,0.738666667 9.09133333,0 8,0 C6.92533333,0 5.984,0.754 5.73333333,1.78333333 C3.49266667,2.69933333 2,4.90533333 2,7.33333333 L2,10.3333333 C2,11.2526667 1.252,12 0.333333333,12 C0.149333333,12 0,12.1493333 0,12.3333333 C0,12.5173333 0.149333333,12.6666667 0.333333333,12.6666667 L15.6666667,12.6666667 C15.8506667,12.6666667 16,12.5173333 16,12.3333333 C16,12.1493333 15.8506667,12 15.6666667,12 L15.6666667,12 Z" id="Shape"></path>
                                        <path d="M10,13.3333333 L6,13.3333333 C5.816,13.3333333 5.66666667,13.4826667 5.66666667,13.6666667 C5.66666667,14.9533333 6.71333333,16 8,16 C9.28666667,16 10.3333333,14.9533333 10.3333333,13.6666667 C10.3333333,13.4826667 10.184,13.3333333 10,13.3333333 L10,13.3333333 Z" id="Shape"></path>
                                    </g>
                                </g>
                            </g>
                        </g>
                    </g>
                </g>
            </g>
        </g>
    </g>
</svg>
