<?xml version="1.0" encoding="UTF-8" standalone="no"?>
<svg width="16px" height="15px" viewBox="0 0 16 15" version="1.1" xmlns="http://www.w3.org/2000/svg" xmlns:xlink="http://www.w3.org/1999/xlink">
    <!-- Generator: sketchtool 3.8.3 (29802) - http://www.bohemiancoding.com/sketch -->
    <title>59107496-6368-420D-B17F-8F668AB9C995</title>
    <desc>Created with sketchtool.</desc>
    <defs></defs>
    <g id="Symbols" stroke="none" stroke-width="1" fill="none" fillRule="evenodd">
        <g id="Alert-Stats" transform="translate(-78.000000, -2.000000)" stroke-width="1" stroke="#fff" fill="#000" fill-opacity=".4">
            <g id="Group-3">
                <g id="Group-2" transform="translate(79.000000, 0.000000)">
                    <g id="Heart" transform="translate(0.000000, 3.000000)">
                        <path d="M10.1808,0 C9.1014,0 7.8372,0.532 7,1.9152 C6.1614,0.532 4.8986,0 3.8192,0 C1.9418,0 0,1.5638 0,4.1776 C0,7.8232 5.915,12.2304 6.5884,12.7204 C6.7116,12.8114 6.8544,12.8548 7,12.8548 C7.1456,12.8548 7.2884,12.8114 7.4116,12.7204 C8.085,12.2318 14,7.8246 14,4.179 C14,1.5652 12.0582,0 10.1808,0 L10.1808,0 Z" id="Shape"></path>
                    </g>
                </g>
            </g>
        </g>
    </g>
</svg>
