<?xml version="1.0" encoding="UTF-8" standalone="no"?>
<svg width="32px" height="48px" viewBox="0 0 32 48" version="1.1" xmlns="http://www.w3.org/2000/svg" xmlns:xlink="http://www.w3.org/1999/xlink">
    <!-- Generator: sketchtool 39.1 (31720) - http://www.bohemiancoding.com/sketch -->
    <title>348C9EF5-9BA4-4078-BA07-F35551B97DFE</title>
    <desc>Created with sketchtool.</desc>
    <defs></defs>
    <g id="Pin-Proposal" stroke="none" stroke-width="1" fill="none" fillRule="evenodd">
        <g id="Global-Pins" transform="translate(-107.000000, -1689.000000)">
            <g id="Search-Location-Pin" transform="translate(99.000000, 1689.000000)">
                <g id="Group">
                    <g id="Filled_Icons_1_" transform="translate(8.000000, 0.000000)" fill="#2196F3">
                        <path d="M16,0.012 C7.178,0.012 0,7.188 0,16.012 C0,24.5 14.546,46.626 15.166,47.562 C15.35,47.84 15.664,48.012 16,48.012 C16.336,48.012 16.648,47.842 16.834,47.562 C17.454,46.626 32,24.5 32,16.012 C32,7.19 24.822,0.012 16,0.012 L16,0.012 Z M16,23.012 C12.14,23.012 9,19.87 9,16.012 C9,12.154 12.14,9.012 16,9.012 C19.86,9.012 23,12.154 23,16.012 C23,19.87 19.86,23.012 16,23.012 L16,23.012 Z" id="Shape"></path>
                    </g>
                    <g id="invisible_shape">
                        <rect id="Rectangle-path" x="0" y="0" width="48" height="48"></rect>
                    </g>
                </g>
            </g>
        </g>
    </g>
</svg>
