<svg xmlns="http://www.w3.org/2000/svg" xmlns:xlink="http://www.w3.org/1999/xlink" preserveAspectRatio="xMidYMid" width="19" height="19" viewBox="0 0 19 19">
  <defs>
    <style>
      .cls-1 {
        fill: #38f;
        fill-rule: evenodd;
      }
    </style>
  </defs>
  <path d="M17.000,19.000 L12.000,19.000 C10.896,19.000 10.001,18.105 10.001,17.000 L10.001,12.000 C10.001,10.895 10.896,10.000 12.000,10.000 L17.000,10.000 C18.105,10.000 19.001,10.895 19.001,12.000 L19.001,17.000 C19.001,18.105 18.105,19.000 17.000,19.000 ZM17.000,9.000 L12.000,9.000 C10.896,9.000 10.001,8.105 10.001,7.000 L10.001,2.000 C10.001,0.895 10.896,0.000 12.000,0.000 L17.000,0.000 C18.105,0.000 19.001,0.895 19.001,2.000 L19.001,7.000 C19.001,8.105 18.105,9.000 17.000,9.000 ZM7.000,19.000 L1.999,19.000 C0.896,19.000 -0.000,18.105 -0.000,17.000 L-0.000,12.000 C-0.000,10.895 0.896,10.000 1.999,10.000 L7.000,10.000 C8.104,10.000 9.000,10.895 9.000,12.000 L9.000,17.000 C9.000,18.105 8.104,19.000 7.000,19.000 ZM7.000,9.000 L1.999,9.000 C0.896,9.000 -0.000,8.105 -0.000,7.000 L-0.000,2.000 C-0.000,0.895 0.896,0.000 1.999,0.000 L7.000,0.000 C8.104,0.000 9.000,0.895 9.000,2.000 L9.000,7.000 C9.000,8.105 8.104,9.000 7.000,9.000 Z" class="cls-1"/>
</svg>
