<svg xmlns="http://www.w3.org/2000/svg" xmlns:xlink="http://www.w3.org/1999/xlink" version="1.1" x="0px" y="0px" viewBox="0 0 1024 1024" style="enable-background:new 0 0 1024 1024;" xml:space="preserve"><g><g><g><path d="M780.8,512c0,13.9-1,27.9-2.8,41.7c0.5-3.5,1-7.1,1.4-10.6c-3.7,26.8-10.8,53-21.2,77.9     c1.3-3.2,2.7-6.4,4-9.6c-10.5,24.7-24.1,48-40.5,69.3c2.1-2.7,4.2-5.4,6.3-8.1c-16.1,20.7-34.7,39.3-55.5,55.5     c2.7-2.1,5.4-4.2,8.1-6.3c-21.3,16.4-44.5,30-69.3,40.5c3.2-1.3,6.4-2.7,9.6-4c-25,10.4-51.1,17.5-77.9,21.2     c3.5-0.5,7.1-1,10.6-1.4c-27.7,3.7-55.7,3.7-83.4,0c3.5,0.5,7.1,1,10.6,1.4c-26.8-3.7-53-10.8-77.9-21.2c3.2,1.3,6.4,2.7,9.6,4     c-24.7-10.5-48-24.1-69.3-40.5c2.7,2.1,5.4,4.2,8.1,6.3c-20.7-16.1-39.3-34.7-55.5-55.5c2.1,2.7,4.2,5.4,6.3,8.1     c-16.4-21.3-30-44.5-40.5-69.3c1.3,3.2,2.7,6.4,4,9.6c-10.4-25-17.5-51.1-21.2-77.9c0.5,3.5,1,7.1,1.4,10.6     c-3.7-27.7-3.7-55.7,0-83.4c-0.5,3.5-1,7.1-1.4,10.6c3.7-26.8,10.8-53,21.2-77.9c-1.3,3.2-2.7,6.4-4,9.6     c10.5-24.7,24.1-48,40.5-69.3c-2.1,2.7-4.2,5.4-6.3,8.1c16.1-20.7,34.7-39.3,55.5-55.5c-2.7,2.1-5.4,4.2-8.1,6.3     c21.3-16.4,44.5-30,69.3-40.5c-3.2,1.3-6.4,2.7-9.6,4c25-10.4,51.1-17.5,77.9-21.2c-3.5,0.5-7.1,1-10.6,1.4     c27.7-3.7,55.7-3.7,83.4,0c-3.5-0.5-7.1-1-10.6-1.4c26.8,3.7,53,10.8,77.9,21.2c-3.2-1.3-6.4-2.7-9.6-4     c24.7,10.5,48,24.1,69.3,40.5c-2.7-2.1-5.4-4.2-8.1-6.3c20.7,16.1,39.3,34.7,55.5,55.5c-2.1-2.7-4.2-5.4-6.3-8.1     c16.4,21.3,30,44.5,40.5,69.3c-1.3-3.2-2.7-6.4-4-9.6c10.4,25,17.5,51.1,21.2,77.9c-0.5-3.5-1-7.1-1.4-10.6     C779.9,484.1,780.8,498.1,780.8,512c0,20.9,18.4,41,40,40c21.6-1,40.1-17.6,40-40c-0.2-70.6-21.7-142-62.9-199.6     c-10.9-15.2-22.6-29.9-35.6-43.3c-13.1-13.5-27.4-25.4-42.3-36.8c-27.6-21-58.3-36.9-90.8-48.8c-67.1-24.7-143.4-26.7-212.1-7.2     c-66.4,18.8-128.1,58-172,111.4c-11.9,14.5-23.1,29.6-32.7,45.6c-9.8,16.3-17.6,33.4-24.8,50.9c-13.5,32.9-20.7,67.9-23.5,103.3     c-5.5,70.7,12.2,143.7,48.9,204.3c35.6,58.8,89.1,108,151.9,136.3c17.4,7.8,35.1,14.8,53.5,20c18.8,5.2,38,8.3,57.4,10.6     c36.2,4.2,73.1,1.7,108.8-5.5c67.5-13.7,131.1-49.6,178.7-99.2c48.1-50.2,82-115.3,92.6-184.2c2.9-19.2,5-38.4,5-57.8     c0-20.9-18.4-41-40-40C799.1,473,780.9,489.6,780.8,512z"></path></g></g><g><g><path d="M552,203.2c0-35.5,0-70.9,0-106.4c0-5.1,0-10.2,0-15.2c0-20.9-18.4-41-40-40c-21.7,1-40,17.6-40,40     c0,35.5,0,70.9,0,106.4c0,5.1,0,10.2,0,15.2c0,20.9,18.4,41,40,40C533.7,242.2,552,225.6,552,203.2L552,203.2z"></path></g></g><g><g><path d="M552,942.5c0-35.5,0-70.9,0-106.4c0-5.1,0-10.2,0-15.2c0-20.9-18.4-41-40-40c-21.7,1-40,17.6-40,40     c0,35.5,0,70.9,0,106.4c0,5.1,0,10.2,0,15.2c0,20.9,18.4,41,40,40C533.7,981.5,552,964.9,552,942.5L552,942.5z"></path></g></g><g><g><path d="M203.2,472c-35.5,0-70.9,0-106.4,0c-5.1,0-10.2,0-15.2,0c-20.9,0-41,18.4-40,40c1,21.7,17.6,40,40,40     c35.5,0,70.9,0,106.4,0c5.1,0,10.2,0,15.2,0c20.9,0,41-18.4,40-40C242.2,490.3,225.6,472,203.2,472L203.2,472z"></path></g></g><g><g><path d="M942.5,472c-35.5,0-70.9,0-106.4,0c-5.1,0-10.2,0-15.2,0c-20.9,0-41,18.4-40,40c1,21.7,17.6,40,40,40     c35.5,0,70.9,0,106.4,0c5.1,0,10.2,0,15.2,0c20.9,0,41-18.4,40-40C981.5,490.3,964.9,472,942.5,472L942.5,472z"></path></g></g><g><g><path d="M564.8,512c0,4.2-0.3,8.3-0.8,12.5c0.5-3.5,1-7.1,1.4-10.6c-1.1,8-3.2,15.8-6.3,23.3     c1.3-3.2,2.7-6.4,4-9.6c-3.1,7.3-7.1,14.1-11.8,20.5c2.1-2.7,4.2-5.4,6.3-8.1c-5.1,6.6-10.9,12.4-17.5,17.5     c2.7-2.1,5.4-4.2,8.1-6.3c-6.3,4.8-13.2,8.7-20.5,11.8c3.2-1.3,6.4-2.7,9.6-4c-7.5,3.1-15.3,5.2-23.3,6.3c3.5-0.5,7.1-1,10.6-1.4     c-8.3,1.1-16.6,1.1-25,0c3.5,0.5,7.1,1,10.6,1.4c-8-1.1-15.8-3.2-23.3-6.3c3.2,1.3,6.4,2.7,9.6,4c-7.3-3.1-14.1-7.1-20.5-11.8     c2.7,2.1,5.4,4.2,8.1,6.3c-6.6-5.1-12.4-10.9-17.5-17.5c2.1,2.7,4.2,5.4,6.3,8.1c-4.8-6.3-8.7-13.2-11.8-20.5     c1.3,3.2,2.7,6.4,4,9.6c-3.1-7.5-5.2-15.3-6.3-23.3c0.5,3.5,1,7.1,1.4,10.6c-1.1-8.3-1.1-16.6,0-25c-0.5,3.5-1,7.1-1.4,10.6     c1.1-8,3.2-15.8,6.3-23.3c-1.3,3.2-2.7,6.4-4,9.6c3.1-7.3,7.1-14.1,11.8-20.5c-2.1,2.7-4.2,5.4-6.3,8.1     c5.1-6.6,10.9-12.4,17.5-17.5c-2.7,2.1-5.4,4.2-8.1,6.3c6.3-4.8,13.2-8.7,20.5-11.8c-3.2,1.3-6.4,2.7-9.6,4     c7.5-3.1,15.3-5.2,23.3-6.3c-3.5,0.5-7.1,1-10.6,1.4c8.3-1.1,16.6-1.1,25,0c-3.5-0.5-7.1-1-10.6-1.4c8,1.1,15.8,3.2,23.3,6.3     c-3.2-1.3-6.4-2.7-9.6-4c7.3,3.1,14.1,7.1,20.5,11.8c-2.7-2.1-5.4-4.2-8.1-6.3c6.6,5.1,12.4,10.9,17.5,17.5     c-2.1-2.7-4.2-5.4-6.3-8.1c4.8,6.3,8.7,13.2,11.8,20.5c-1.3-3.2-2.7-6.4-4-9.6c3.1,7.5,5.2,15.3,6.3,23.3     c-0.5-3.5-1-7.1-1.4-10.6C564.5,503.7,564.8,507.8,564.8,512c0.1,10.3,4.4,21,11.7,28.3c6.9,6.9,18.3,12.2,28.3,11.7     c21.5-1,40.2-17.6,40-40c-0.2-25.9-7.6-53.2-22.9-74.4c-9.8-13.6-20-24-33.4-34c-10.2-7.7-21.8-12.9-33.7-17.3     c-48.9-18-110.4-1.5-143.2,39.1c-10.4,12.8-17.6,24.9-23.7,40.2c-5.1,12.6-7.3,25.9-8.3,39.5c-1.9,25.6,5.2,52.8,18.3,74.8     c12.9,21.6,32.8,40.9,55.8,51.3c15.9,7.2,30,11.1,47.3,13c13.2,1.5,26.6,0.1,39.6-2.5c26.8-5.2,53.7-21.1,71.1-42     c11.4-13.7,19.2-27,25.6-43.7c5.3-13.8,7.5-29.3,7.6-44c0.2-20.9-18.5-41-40-40C583,473,565,489.6,564.8,512z"></path></g></g></g></svg>