<svg width="24" height="24" viewBox="0 0 24 24" fill="black" xmlns="http://www.w3.org/2000/svg">
<path d="M2.5 6.49801C3.88071 6.49801 5 5.37872 5 3.99801C5 2.6173 3.88071 1.49801 2.5 1.49801C1.11929 1.49801 0 2.6173 0 3.99801C0 5.37872 1.11929 6.49801 2.5 6.49801Z"/>
<path d="M8.5 5H23C23.2652 5 23.5196 4.89464 23.7071 4.70711C23.8946 4.51957 24 4.26522 24 4C24 3.73478 23.8946 3.48043 23.7071 3.29289C23.5196 3.10536 23.2652 3 23 3H8.5C8.23478 3 7.98043 3.10536 7.79289 3.29289C7.60536 3.48043 7.5 3.73478 7.5 4C7.5 4.26522 7.60536 4.51957 7.79289 4.70711C7.98043 4.89464 8.23478 5 8.5 5Z"/>
<path d="M2.5 14.498C3.88071 14.498 5 13.3787 5 11.998C5 10.6173 3.88071 9.49801 2.5 9.49801C1.11929 9.49801 0 10.6173 0 11.998C0 13.3787 1.11929 14.498 2.5 14.498Z"/>
<path d="M23 11H8.5C8.23478 11 7.98043 11.1054 7.79289 11.2929C7.60536 11.4804 7.5 11.7348 7.5 12C7.5 12.2652 7.60536 12.5196 7.79289 12.7071C7.98043 12.8946 8.23478 13 8.5 13H23C23.2652 13 23.5196 12.8946 23.7071 12.7071C23.8946 12.5196 24 12.2652 24 12C24 11.7348 23.8946 11.4804 23.7071 11.2929C23.5196 11.1054 23.2652 11 23 11Z"/>
<path d="M2.5 22.498C3.88071 22.498 5 21.3787 5 19.998C5 18.6173 3.88071 17.498 2.5 17.498C1.11929 17.498 0 18.6173 0 19.998C0 21.3787 1.11929 22.498 2.5 22.498Z"/>
<path d="M23 19H8.5C8.23478 19 7.98043 19.1054 7.79289 19.2929C7.60536 19.4804 7.5 19.7348 7.5 20C7.5 20.2652 7.60536 20.5196 7.79289 20.7071C7.98043 20.8946 8.23478 21 8.5 21H23C23.2652 21 23.5196 20.8946 23.7071 20.7071C23.8946 20.5196 24 20.2652 24 20C24 19.7348 23.8946 19.4804 23.7071 19.2929C23.5196 19.1054 23.2652 19 23 19Z"/>
</svg>
