<svg xmlns="http://www.w3.org/2000/svg" width="24" height="24" viewBox="0 0 24 24">
    <path fill="#0945eb" fill-rule="nonzero" d="M3.129 23a1.49 1.49 0 0 1-1.348-.803c-.315-.582-.246-1.243.184-1.771.193-.236.418-.506.669-.764a6.065 6.065 0 0 0 1.342-2.115 14.294 14.294 0 0 1-.68-.491c-1.265-.984-2.146-2.074-2.69-3.332-.482-1.113-.677-2.24-.583-3.349.094-1.082.463-2.155 1.103-3.188C2.303 5.282 4.05 3.92 6.469 3.025c3.527-1.308 7.112-1.364 10.656-.168 2.334.788 4.1 2.017 5.4 3.755 1.025 1.374 1.533 2.963 1.47 4.595-.064 1.631-.694 3.175-1.819 4.476-1.604 1.852-3.75 3.078-6.556 3.746-1.582.377-3.248.49-5.087.345-1.835 1.534-4.005 2.574-6.45 3.094-.203.042-.393.07-.578.094l-.11.016v.001c-.089.013-.178.02-.266.02z"/>
</svg>
