<svg xmlns="http://www.w3.org/2000/svg" width="24" height="24" viewBox="0 0 24 24">
    <g fill="none" fill-rule="evenodd">
        <path fill="none" d="M0 0h24v24H0z"/>
        <path fill="#000" fill-rule="nonzero" d="M3.098 22.866a1.477 1.477 0 0 1-1.334-.792c-.312-.575-.244-1.227.182-1.75.19-.232.414-.499.662-.753a5.985 5.985 0 0 0 1.33-2.088 14.151 14.151 0 0 1-.673-.485C2.01 16.027 1.139 14.95.6 13.709.123 12.61-.071 11.5.023 10.403c.093-1.068.459-2.127 1.092-3.147C2.28 5.375 4.01 4.03 6.405 3.146c3.493-1.29 7.042-1.345 10.552-.165 2.31.778 4.06 1.99 5.346 3.707 1.016 1.356 1.519 2.925 1.456 4.536-.063 1.61-.687 3.135-1.801 4.419-1.588 1.829-3.713 3.038-6.492 3.697-1.566.373-3.215.485-5.036.342-1.818 1.514-3.966 2.54-6.387 3.053-.201.042-.39.07-.572.094l-.11.016c-.087.014-.175.02-.262.021zm8.813-18.802c-1.62 0-3.239.296-4.844.89-1.977.731-3.39 1.818-4.323 3.32-.954 1.538-1.08 3.062-.384 4.663.406.937 1.086 1.765 2.075 2.532.245.19.506.367.783.556l.394.27.544.382-.163.647h.001a7.91 7.91 0 0 1-1.832 3.402c1.93-.484 3.646-1.351 5.105-2.587.126-.107.577-.446 1.138-.396 1.688.148 3.197.055 4.615-.28 2.377-.564 4.172-1.575 5.488-3.09 1.68-1.934 1.78-4.495.26-6.528-1.043-1.393-2.491-2.386-4.422-3.035a13.862 13.862 0 0 0-4.435-.746z"/>
    </g>
</svg>
