<svg width="24" height="24" viewBox ="0 0 24 24" xmlns="http://www.w3.org/2000/svg">
  <path d="M16 4H8c-1.1046 0-2 .796-2 1.7778v12.4444C6 19.2041 6.8954 20 8 20h8c1.1046 0 2-.796 2-1.7778V5.7778C18 4.7959 17.1046 4 16 4zm1 14.2222c-.0006.4907-.448.8883-1 .889H8c-.552-.0007-.9994-.3983-1-.889V5.7778c.0006-.4907.448-.8883 1-.889h1c0 .491.4477.889 1 .889h4c.5523 0 1-.398 1-.889h1c.552.0007.9994.3983 1 .889v12.4444zm-4-.8889c0 .491-.4477.889-1 .889s-1-.398-1-.889c0-.4909.4477-.8889 1-.8889.2652 0 .5196.0937.7071.2604.1876.1667.293.3928.2929.6285z" fill-rule="nonzero"/>
</svg>
