<svg viewBox="0 0 24 24" xmlns="http://www.w3.org/2000/svg">
  <g stroke-linecap="round" stroke-width="1.5" stroke="#000" fill="none" stroke-linejoin="round">
    <path d="M5.25 23.25a3 3 0 0 1-3-3V7.458c0-.466.108-.925.317-1.341l2.012-4.025a.75.75 0 0 1 1.342 0l2.012 4.025c.209.416.317.875.317 1.341V20.25a3 3 0 0 1-3 3zM2.34 6.75h5.82M2.25 19.5h6M14.25 23.25a1.5 1.5 0 0 1-1.5-1.5V2.25a1.5 1.5 0 0 1 1.5-1.5h6a1.5 1.5 0 0 1 1.5 1.5v19.5a1.5 1.5 0 0 1-1.5 1.5zM12.75 5.25h3M12.75 9.75h3M12.75 14.25h3M12.75 18.75h3"/>
  </g>
</svg>