<svg width="16" height="16" xmlns="http://www.w3.org/2000/svg">
  <path d="M12.5 5.3333h-.75V3.8095C11.75 1.7067 10.07 0 8 0 5.93 0 4.25 1.7067 4.25 3.8095v1.5238H3.5c-.825 0-1.5.6857-1.5 1.5238v7.619C2 15.3144 2.675 16 3.5 16h9c.825 0 1.5-.6857 1.5-1.5238v-7.619c0-.8382-.675-1.5239-1.5-1.5239zM5.75 3.8095c0-1.2647 1.005-2.2857 2.25-2.2857s2.25 1.021 2.25 2.2857v1.5238h-4.5V3.8095zm6.75 10.6667h-9v-7.619h9v7.619zM8 12.1905c.825 0 1.5-.6857 1.5-1.5238 0-.8381-.675-1.5238-1.5-1.5238s-1.5.6857-1.5 1.5238c0 .838.675 1.5238 1.5 1.5238z" fill="gray" fill-rule="nonzero"/>
</svg>
