<svg viewBox="0 0 49 49" xmlns="http://www.w3.org/2000/svg" fill-rule="evenodd" clip-rule="evenodd" stroke-linejoin="round" stroke-miterlimit="1.414" width="24" height="24" >
  <path d="M40.151 27.721a2.02 2.02 0 1 0 0-4.04H8.171a2 2 0 0 0 0 4h17.24c.36.14.8.28 1.1.4.74.34 1.32.68 1.74 1.02.42.34.7.72.86 1.14.14.4.22.86.22 1.38 0 .46-.1.9-.28 1.32-.18.4-.46.76-.84 1.06-.38.3-.84.52-1.42.7-.58.16-1.26.26-2.02.26-.86 0-1.66-.08-2.36-.26s-1.32-.46-1.82-.84c-.5-.38-.9-.88-1.18-1.5a5.227 5.227 0 0 1-.262-.73 2.356 2.356 0 0 0-2.254-1.671c-.391-.019-.806-.019-1.215-.019a2.368 2.368 0 0 0-2.231 3.158l.002.002c.32.9.74 1.7 1.3 2.42.56.7 1.2 1.32 1.96 1.84.74.52 1.56.96 2.44 1.3.88.34 1.8.6 2.76.78.96.16 1.92.26 2.88.26 1.6 0 3.06-.18 4.36-.56 1.3-.38 2.42-.9 3.34-1.58.92-.68 1.64-1.54 2.14-2.54.5-1 .76-2.14.76-3.42 0-1.2-.2-2.28-.62-3.22-.1-.22-.22-.46-.34-.66h5.72zm-15.98-6.04h-9.22c-.1-.16-.22-.34-.3-.5-.52-.96-.78-2.06-.78-3.34 0-1.22.26-2.32.8-3.34.52-1 1.26-1.86 2.22-2.58.96-.7 2.1-1.26 3.4-1.66 1.32-.38 2.78-.58 4.36-.58 1.62 0 3.08.22 4.42.68 1.32.44 2.46 1.08 3.38 1.88.94.8 1.66 1.76 2.16 2.86v.001a2.56 2.56 0 0 1-2.33 3.619h-.819a2.56 2.56 0 0 1-2.396-1.659l-.015-.041a3.27 3.27 0 0 0-.88-1.36c-.4-.38-.9-.66-1.5-.88-.6-.2-1.32-.32-2.12-.32-.78 0-1.48.08-2.06.26-.58.18-1.06.42-1.44.72-.38.32-.68.68-.88 1.1-.2.42-.3.86-.3 1.32 0 .96.5 1.76 1.48 2.42.76.5 1.54.96 2.82 1.4z" fill="#000"/>
</svg>

<svg width="16" height="16" xmlns="http://www.w3.org/2000/svg"><g fill="#000" fill-rule="nonzero"><path d="M12.373 2.621a3.295 3.295 0 1 0 0 6.589c.25 0 .5-.032.743-.094a.167.167 0 0 1 .184.245 4.553 4.553 0 0 1-3.919 2.349.833.833 0 1 0 0 1.667 6.473 6.473 0 0 0 6.286-6.634v-.828a3.298 3.298 0 0 0-3.294-3.294zM4.157 2.621a3.295 3.295 0 0 0 0 6.589c.251 0 .5-.032.744-.094a.167.167 0 0 1 .184.245 4.553 4.553 0 0 1-3.918 2.349.833.833 0 1 0 0 1.667 6.474 6.474 0 0 0 6.285-6.634v-.828a3.298 3.298 0 0 0-3.295-3.294z"/></g></svg>