<svg xmlns="http://www.w3.org/2000/svg" xmlns:xlink="http://www.w3.org/1999/xlink" preserveAspectRatio="xMidYMid" width="17" height="17" viewBox="0 0 17 17">
  <defs>
    <style>
      .cls-1 {
        fill: #e0523e;
        filter: url(#color-overlay-1);
        fill-rule: evenodd;
      }
    </style>

    <filter id="color-overlay-1" filterUnits="userSpaceOnUse">
      <feFlood flood-color="#929292"/>
      <feComposite operator="in" in2="SourceGraphic"/>
      <feBlend in2="SourceGraphic" result="solidFill"/>
    </filter>
  </defs>
  <path d="M16.500,17.000 L0.500,17.000 C0.224,17.000 0.000,16.771 0.000,16.487 L0.000,1.497 C0.000,1.214 0.224,0.985 0.500,0.985 L3.001,0.985 L3.001,0.529 C3.001,0.237 3.218,-0.000 3.486,-0.000 L5.510,-0.000 C5.778,-0.000 5.995,0.237 5.995,0.529 L5.995,0.985 L11.005,0.985 L11.005,0.529 C11.005,0.237 11.222,-0.000 11.490,-0.000 L13.514,-0.000 C13.782,-0.000 13.999,0.237 13.999,0.529 L13.999,0.985 L16.500,0.985 C16.776,0.985 17.000,1.214 17.000,1.497 L17.000,16.487 C17.000,16.771 16.776,17.000 16.500,17.000 ZM16.000,15.974 L16.000,5.995 L1.000,5.995 L1.000,15.974 L16.000,15.974 ZM5.025,1.641 C5.009,1.591 4.995,1.540 4.995,1.485 C4.995,1.430 5.009,1.379 5.025,1.329 L5.025,1.058 L3.971,1.058 L3.971,2.944 L5.025,2.944 L5.025,1.641 ZM13.029,1.058 L11.975,1.058 L11.975,1.330 C11.991,1.379 12.005,1.430 12.005,1.485 C12.005,1.540 11.991,1.590 11.975,1.640 L11.975,2.944 L13.029,2.944 L13.029,1.058 ZM13.999,2.011 L13.999,3.473 C13.999,3.765 13.782,4.001 13.514,4.001 L11.490,4.001 C11.222,4.001 11.005,3.765 11.005,3.473 L11.005,1.985 L5.995,1.985 L5.995,3.473 C5.995,3.765 5.778,4.001 5.510,4.001 L3.486,4.001 C3.218,4.001 3.001,3.765 3.001,3.473 L3.001,2.011 L1.000,2.011 L1.000,4.995 L16.000,4.995 L16.000,2.011 L13.999,2.011 Z" class="cls-1"/>
</svg>
