<svg xmlns="http://www.w3.org/2000/svg" xmlns:xlink="http://www.w3.org/1999/xlink" preserveAspectRatio="xMidYMid" width="17" height="17" viewBox="0 0 17 17">
  <defs>
    <style>
      .cls-1 {
        fill: #38f;
        fill-rule: evenodd;
      }
    </style>
  </defs>
  <path d="M16.448,17.000 L0.499,17.000 C0.223,17.000 0.000,16.771 0.000,16.487 L0.000,1.497 C0.000,1.214 0.223,0.985 0.499,0.985 L2.992,0.985 L2.992,0.529 C2.992,0.237 3.208,-0.000 3.475,-0.000 L5.493,-0.000 C5.760,-0.000 5.976,0.237 5.976,0.529 L5.976,0.985 L10.971,0.985 L10.971,0.529 C10.971,0.237 11.187,-0.000 11.454,-0.000 L13.472,-0.000 C13.739,-0.000 13.955,0.237 13.955,0.529 L13.955,0.985 L16.448,0.985 C16.724,0.985 16.947,1.214 16.947,1.497 L16.947,16.487 C16.947,16.771 16.724,17.000 16.448,17.000 ZM15.950,15.974 L15.950,5.995 L0.997,5.995 L0.997,15.974 L15.950,15.974 ZM5.009,1.640 C4.994,1.591 4.979,1.540 4.979,1.485 C4.979,1.430 4.994,1.379 5.009,1.329 L5.009,1.058 L3.959,1.058 L3.959,2.944 L5.009,2.944 L5.009,1.640 ZM12.988,1.058 L11.938,1.058 L11.938,1.330 C11.953,1.379 11.968,1.430 11.968,1.485 C11.968,1.540 11.953,1.590 11.938,1.640 L11.938,2.944 L12.988,2.944 L12.988,1.058 ZM13.955,2.011 L13.955,3.473 C13.955,3.765 13.739,4.001 13.472,4.001 L11.454,4.001 C11.187,4.001 10.971,3.765 10.971,3.473 L10.971,1.985 L5.976,1.985 L5.976,3.473 C5.976,3.765 5.760,4.001 5.493,4.001 L3.475,4.001 C3.208,4.001 2.992,3.765 2.992,3.473 L2.992,2.011 L0.997,2.011 L0.997,4.995 L15.950,4.995 L15.950,2.011 L13.955,2.011 Z" class="cls-1"/>
</svg>
