<svg xmlns="http://www.w3.org/2000/svg" xmlns:xlink="http://www.w3.org/1999/xlink" preserveAspectRatio="xMidYMid" width="18" height="18" viewBox="0 0 18 18">
  <defs>
    <style>
      .cls-1 {
        fill: #929292;
        filter: url(#color-overlay-1);
        fill-rule: evenodd;
      }
    </style>

    <filter id="color-overlay-1" filterUnits="userSpaceOnUse">
      <feFlood flood-color="#fff"/>
      <feComposite operator="in" in2="SourceGraphic"/>
      <feBlend in2="SourceGraphic" result="solidFill"/>
    </filter>
  </defs>
  <path d="M15.406,15.320 C15.406,15.321 15.405,15.321 15.404,15.322 C13.699,17.049 11.425,18.000 9.000,18.000 C6.579,18.000 4.306,17.051 2.602,15.329 C0.924,13.632 0.000,11.385 0.000,9.000 C0.000,4.038 4.038,0.000 9.000,0.000 C13.962,0.000 18.000,4.038 18.000,9.000 C18.000,11.380 17.079,13.625 15.406,15.320 ZM12.886,14.821 C12.373,14.611 11.779,14.396 11.169,14.175 C10.799,14.042 10.420,13.905 10.040,13.763 C9.650,13.616 9.391,13.243 9.391,12.826 L9.391,11.087 C9.391,10.656 9.666,10.274 10.075,10.138 C10.049,10.161 10.435,9.950 10.435,9.000 C10.435,8.729 10.542,8.484 10.716,8.305 C10.542,8.124 10.435,7.879 10.435,7.609 C10.435,7.412 10.483,7.259 10.565,7.007 C10.673,6.668 10.927,5.874 10.812,5.416 C10.748,5.348 10.264,5.130 9.522,5.130 C8.779,5.130 8.296,5.348 8.213,5.460 C8.102,5.905 7.719,6.176 7.281,6.176 C7.275,6.176 7.269,6.176 7.264,6.176 C7.285,6.358 7.341,6.634 7.459,7.053 C7.525,7.290 7.565,7.432 7.565,7.609 C7.565,7.879 7.458,8.124 7.284,8.305 C7.458,8.484 7.565,8.729 7.565,9.000 C7.565,9.943 7.962,10.150 7.979,10.159 C8.387,10.295 8.609,10.656 8.609,11.087 L8.609,12.826 C8.609,13.242 8.352,13.614 7.963,13.762 C7.617,13.893 7.256,14.023 6.895,14.154 C6.284,14.375 5.665,14.601 5.122,14.826 C6.261,15.588 7.598,16.000 9.000,16.000 C10.406,16.000 11.746,15.587 12.886,14.821 ZM9.000,2.000 C5.140,2.000 2.000,5.140 2.000,9.000 C2.000,10.600 2.535,12.120 3.519,13.354 C4.280,12.974 5.227,12.631 6.214,12.273 C6.346,12.226 6.478,12.178 6.609,12.130 L6.609,11.629 C6.162,11.241 5.727,10.587 5.601,9.590 C5.310,9.287 5.134,8.835 5.134,8.304 C5.134,8.058 5.174,7.691 5.366,7.343 C5.388,7.305 5.411,7.267 5.435,7.231 C5.239,6.466 5.058,5.368 5.721,4.652 C5.917,4.440 6.230,4.218 6.700,4.157 C7.257,3.516 8.275,3.130 9.522,3.130 C11.211,3.130 12.479,3.837 12.753,4.931 C12.959,5.759 12.763,6.640 12.582,7.253 C12.762,7.536 12.866,7.897 12.866,8.304 C12.866,8.551 12.826,8.917 12.634,9.266 C12.568,9.385 12.489,9.492 12.399,9.585 C12.275,10.585 11.839,11.240 11.391,11.629 L11.391,12.129 C11.545,12.185 11.697,12.240 11.848,12.295 C12.854,12.658 13.762,12.987 14.487,13.346 C15.468,12.113 16.000,10.596 16.000,9.000 C16.000,5.140 12.860,2.000 9.000,2.000 Z" class="cls-1"/>
</svg>
