<svg xmlns="http://www.w3.org/2000/svg" width="24" height="24" viewBox="0 0 24 24">
    <path fill="#000" fill-rule="nonzero" d="M21 17.5a1 1 0 0 1 0 2H3a1 1 0 1 1 0-2A1.5 1.5 0 0 0 4.5 16v-4.862A7.957 7.957 0 0 1 11 3.073V1a1 1 0 1 1 2 0v2.073a7.957 7.957 0 0 1 6.5 8.065V16a1.5 1.5 0 0 0 1.5 1.5zm-14.837 0h11.674A3.486 3.486 0 0 1 17.5 16v-4.923a5.957 5.957 0 0 0-4.865-6.038L12 4.921l-.635.118c-2.89.537-4.955 3.1-4.865 6.099V16c0 .537-.12 1.045-.337 1.5zm8.073 3.5c.127 0 .235.095.248.222a2.5 2.5 0 1 1-4.968 0A.25.25 0 0 1 9.764 21h4.472z"/>
</svg>
