<svg width="104" height="104" viewBox="0 0 104 104" fill="none" xmlns="http://www.w3.org/2000/svg">
<path d="M74.75 55.25C89.1094 55.25 100.75 43.6094 100.75 29.25C100.75 14.8906 89.1094 3.25 74.75 3.25C60.3906 3.25 48.75 14.8906 48.75 29.25C48.75 43.6094 60.3906 55.25 74.75 55.25Z" stroke="#33CCAA" stroke-width="5" stroke-linecap="round" stroke-linejoin="round"/>
<path d="M65.5586 32.5L72.0586 39L88.3086 22.75" stroke="#008060" stroke-width="5" stroke-linecap="round" stroke-linejoin="round"/>
<path d="M75.855 68.7353C76.7318 73.2465 78.5721 77.5153 81.25 81.25H3.25C3.25 81.25 9.75 71.1577 9.75 45.5C9.75 36.8805 13.1741 28.614 19.269 22.519C25.364 16.4241 33.6305 13 42.25 13V3.25" stroke="#FFB74D" stroke-width="5" stroke-linecap="round" stroke-linejoin="round"/>
<path d="M33.5752 94.25C34.1256 96.125 35.2685 97.7712 36.8328 98.9423C38.3971 100.113 40.2986 100.746 42.2527 100.746C44.2068 100.746 46.1083 100.113 47.6726 98.9423C49.2369 97.7712 50.3798 96.125 50.9302 94.25" stroke="#F57C00" stroke-width="5" stroke-linecap="round" stroke-linejoin="round"/>
</svg>
