<svg width="224" height="64" viewBox="0 0 224 64" fill="none" xmlns="http://www.w3.org/2000/svg">
<path d="M31.9998 31.9333C29.0665 31.9333 26.6665 31 24.7998 29.1333C22.9332 27.2667 21.9998 24.8667 21.9998 21.9333C21.9998 19 22.9332 16.6 24.7998 14.7333C26.6665 12.8667 29.0665 11.9333 31.9998 11.9333C34.9332 11.9333 37.3332 12.8667 39.1998 14.7333C41.0665 16.6 41.9998 19 41.9998 21.9333C41.9998 24.8667 41.0665 27.2667 39.1998 29.1333C37.3332 31 34.9332 31.9333 31.9998 31.9333ZM49.3332 53.3333H14.6665C13.5554 53.3333 12.6109 52.9444 11.8332 52.1667C11.0554 51.3889 10.6665 50.4444 10.6665 49.3333V47.0667C10.6665 45.3778 11.0887 43.9333 11.9332 42.7333C12.7776 41.5333 13.8665 40.6222 15.1998 40C18.1776 38.6667 21.0332 37.6667 23.7665 37C26.4998 36.3333 29.2443 36 31.9998 36C34.7554 36 37.4887 36.3444 40.1998 37.0333C42.9109 37.7222 45.7554 38.7111 48.7332 40C50.1109 40.6222 51.2221 41.5333 52.0665 42.7333C52.9109 43.9333 53.3332 45.3778 53.3332 47.0667V49.3333C53.3332 50.4444 52.9443 51.3889 52.1665 52.1667C51.3887 52.9444 50.4443 53.3333 49.3332 53.3333ZM14.6665 49.3333H49.3332V47.0667C49.3332 46.3556 49.1221 45.6778 48.6998 45.0333C48.2776 44.3889 47.7554 43.9111 47.1332 43.6C44.2887 42.2222 41.6887 41.2778 39.3332 40.7667C36.9776 40.2556 34.5332 40 31.9998 40C29.4665 40 26.9998 40.2556 24.5998 40.7667C22.1998 41.2778 19.5998 42.2222 16.7998 43.6C16.1776 43.9111 15.6665 44.3889 15.2665 45.0333C14.8665 45.6778 14.6665 46.3556 14.6665 47.0667V49.3333ZM31.9998 27.9333C33.7332 27.9333 35.1665 27.3667 36.2998 26.2333C37.4332 25.1 37.9998 23.6667 37.9998 21.9333C37.9998 20.2 37.4332 18.7667 36.2998 17.6333C35.1665 16.5 33.7332 15.9333 31.9998 15.9333C30.2665 15.9333 28.8332 16.5 27.6998 17.6333C26.5665 18.7667 25.9998 20.2 25.9998 21.9333C25.9998 23.6667 26.5665 25.1 27.6998 26.2333C28.8332 27.3667 30.2665 27.9333 31.9998 27.9333Z" fill="#2E3033"/>
<path d="M71 40C70.2 40 69.5 39.7 68.9 39.1C68.3 38.5 68 37.8 68 37C68 36.2 68.3 35.5 68.9 34.9C69.5 34.3 70.2 34 71 34C71.8 34 72.5 34.3 73.1 34.9C73.7 35.5 74 36.2 74 37C74 37.8 73.7 38.5 73.1 39.1C72.5 39.7 71.8 40 71 40Z" fill="#33CCAA"/>
<path d="M85 40C84.2 40 83.5 39.7 82.9 39.1C82.3 38.5 82 37.8 82 37C82 36.2 82.3 35.5 82.9 34.9C83.5 34.3 84.2 34 85 34C85.8 34 86.5 34.3 87.1 34.9C87.7 35.5 88 36.2 88 37C88 37.8 87.7 38.5 87.1 39.1C86.5 39.7 85.8 40 85 40Z" fill="#33CCAA"/>
<path d="M110.1 39.1333L107.433 36.4333C107.144 36.1444 106.794 36.0053 106.383 36.016C105.972 36.0276 105.633 36.1778 105.367 36.4667C105.078 36.7333 104.933 37.0778 104.933 37.5C104.933 37.9222 105.078 38.2667 105.367 38.5333L109.033 42.2333C109.322 42.5222 109.678 42.6667 110.1 42.6667C110.522 42.6667 110.878 42.5222 111.167 42.2333L118.633 34.7667C118.9 34.5 119.028 34.1609 119.017 33.7493C119.006 33.3387 118.867 33 118.6 32.7333C118.311 32.4444 117.955 32.3 117.533 32.3C117.111 32.3 116.767 32.4444 116.5 32.7333L110.1 39.1333ZM112 50.6C110.111 50.6 108.339 50.2444 106.683 49.5333C105.027 48.8222 103.589 47.8556 102.367 46.6333C101.144 45.4111 100.178 43.9724 99.4666 42.3173C98.7555 40.6613 98.3999 38.8889 98.3999 37C98.3999 35.1111 98.7555 33.3387 99.4666 31.6827C100.178 30.0276 101.144 28.5889 102.367 27.3667C103.589 26.1444 105.027 25.1778 106.683 24.4667C108.339 23.7556 110.111 23.4 112 23.4C113.889 23.4 115.661 23.7556 117.317 24.4667C118.972 25.1778 120.411 26.1444 121.633 27.3667C122.855 28.5889 123.822 30.0276 124.533 31.6827C125.244 33.3387 125.6 35.1111 125.6 37C125.6 38.8889 125.244 40.6613 124.533 42.3173C123.822 43.9724 122.855 45.4111 121.633 46.6333C120.411 47.8556 118.972 48.8222 117.317 49.5333C115.661 50.2444 113.889 50.6 112 50.6ZM112 47.5667C114.933 47.5667 117.428 46.5391 119.484 44.484C121.539 42.428 122.567 39.9333 122.567 37C122.567 34.0667 121.539 31.572 119.484 29.516C117.428 27.4609 114.933 26.4333 112 26.4333C109.067 26.4333 106.572 27.4609 104.517 29.516C102.461 31.572 101.433 34.0667 101.433 37C101.433 39.9333 102.461 42.428 104.517 44.484C106.572 46.5391 109.067 47.5667 112 47.5667Z" fill="#00B286"/>
<path d="M139 40C138.2 40 137.5 39.7 136.9 39.1C136.3 38.5 136 37.8 136 37C136 36.2 136.3 35.5 136.9 34.9C137.5 34.3 138.2 34 139 34C139.8 34 140.5 34.3 141.1 34.9C141.7 35.5 142 36.2 142 37C142 37.8 141.7 38.5 141.1 39.1C140.5 39.7 139.8 40 139 40Z" fill="#33CCAA"/>
<path d="M153 40C152.2 40 151.5 39.7 150.9 39.1C150.3 38.5 150 37.8 150 37C150 36.2 150.3 35.5 150.9 34.9C151.5 34.3 152.2 34 153 34C153.8 34 154.5 34.3 155.1 34.9C155.7 35.5 156 36.2 156 37C156 37.8 155.7 38.5 155.1 39.1C154.5 39.7 153.8 40 153 40Z" fill="#33CCAA"/>
<path d="M192 31.9333C189.067 31.9333 186.667 31 184.8 29.1333C182.933 27.2667 182 24.8667 182 21.9333C182 19 182.933 16.6 184.8 14.7333C186.667 12.8667 189.067 11.9333 192 11.9333C194.933 11.9333 197.333 12.8667 199.2 14.7333C201.067 16.6 202 19 202 21.9333C202 24.8667 201.067 27.2667 199.2 29.1333C197.333 31 194.933 31.9333 192 31.9333ZM209.333 53.3333H174.667C173.555 53.3333 172.611 52.9444 171.833 52.1667C171.055 51.3889 170.667 50.4444 170.667 49.3333V47.0667C170.667 45.3778 171.089 43.9333 171.933 42.7333C172.778 41.5333 173.867 40.6222 175.2 40C178.178 38.6667 181.033 37.6667 183.767 37C186.5 36.3333 189.244 36 192 36C194.755 36 197.489 36.3444 200.2 37.0333C202.911 37.7222 205.755 38.7111 208.733 40C210.111 40.6222 211.222 41.5333 212.067 42.7333C212.911 43.9333 213.333 45.3778 213.333 47.0667V49.3333C213.333 50.4444 212.944 51.3889 212.167 52.1667C211.389 52.9444 210.444 53.3333 209.333 53.3333ZM174.667 49.3333H209.333V47.0667C209.333 46.3556 209.122 45.6778 208.7 45.0333C208.278 44.3889 207.755 43.9111 207.133 43.6C204.289 42.2222 201.689 41.2778 199.333 40.7667C196.978 40.2556 194.533 40 192 40C189.467 40 187 40.2556 184.6 40.7667C182.2 41.2778 179.6 42.2222 176.8 43.6C176.178 43.9111 175.667 44.3889 175.267 45.0333C174.867 45.6778 174.667 46.3556 174.667 47.0667V49.3333ZM192 27.9333C193.733 27.9333 195.167 27.3667 196.3 26.2333C197.433 25.1 198 23.6667 198 21.9333C198 20.2 197.433 18.7667 196.3 17.6333C195.167 16.5 193.733 15.9333 192 15.9333C190.267 15.9333 188.833 16.5 187.7 17.6333C186.567 18.7667 186 20.2 186 21.9333C186 23.6667 186.567 25.1 187.7 26.2333C188.833 27.3667 190.267 27.9333 192 27.9333Z" fill="#2E3033"/>
</svg>
