<svg xmlns="http://www.w3.org/2000/svg" width="32" height="32">
  <g fill="none">
    <circle cx="16" cy="16" r="16"/>
    <path fill="#FFF" d="M17.004 14.706c-1.526-.628-2.153-1.04-2.153-1.686 0-.55.377-1.1 1.542-1.1 1.292 0 2.118.452 2.585.669l.52-2.216c-.592-.315-1.4-.588-2.602-.647V8H15.14v1.864c-1.919.412-3.032 1.764-3.032 3.49 0 1.902 1.31 2.882 3.23 3.588 1.327.49 1.9.96 1.9 1.707 0 .784-.698 1.215-1.72 1.215-1.168 0-2.225-.412-2.978-.863L12 21.295c.682.431 1.847.784 3.05.844V24h1.757v-1.999C18.87 21.608 20 20.118 20 18.374c-.001-1.768-.863-2.845-2.996-3.668z"/>
  </g>
</svg>