<svg xmlns="http://www.w3.org/2000/svg" width="33" height="32">
  <g fill="none">
    <circle cx="16.516" cy="16" r="16"/>
    <path fill="#FFF" d="M21.778 17.97c-.755-.5-1.639-.87-2.566-1.132a4.815 4.815 0 0 0 2.092-4.005c0-2.678-2.157-4.833-4.788-4.833-2.63 0-4.787 2.177-4.787 4.833 0 1.654.841 3.113 2.092 4.005-2.868.806-5.305 2.83-5.305 5.53V24h16v-1.633c0-1.654-.991-3.265-2.738-4.397zm-5.262-8.316c1.747 0 3.17 1.437 3.17 3.2 0 1.764-1.423 3.2-3.17 3.2-1.746 0-3.17-1.436-3.17-3.2 0-1.763 1.424-3.2 3.17-3.2zm-6.382 12.713c0-2.35 3.17-4.266 6.382-4.266 3.213 0 6.383 1.915 6.383 4.266H10.134z"/>
  </g>
</svg>