<svg width="152" height="54" xmlns="http://www.w3.org/2000/svg"><g fill="#999" fill-rule="evenodd"><path d="M143.053 17.2l7.681 1.355a.5.5 0 0 0 .497-.78l-8.356-11.924a.5.5 0 0 0-.901.193l-1.355 7.681a3 3 0 0 0 2.434 3.476zM129.746 29.324l-1.231-.217a.5.5 0 0 0-.58.406l-.434 2.462a.5.5 0 0 0 .406.579l1.23.217a1.75 1.75 0 0 0 .609-3.447z"/><path d="M151.077 20.646l-8.371-1.476a5 5 0 0 1-4.056-5.792l1.476-8.37a.5.5 0 0 0-.406-.58L118.547.695a4 4 0 0 0-4.634 3.244l-6.946 39.393a4 4 0 0 0 3.245 4.633l31.514 5.557a4 4 0 0 0 4.633-3.245l5.123-29.051a.5.5 0 0 0-.405-.58zm-28.34 15.312a4.25 4.25 0 1 1-8.37-1.476 1.25 1.25 0 0 1 2.461.434 1.75 1.75 0 0 0 3.447.608l1.563-8.863a1.25 1.25 0 0 1 2.462.434l-1.563 8.863zm5.72-.768l-.984-.174a.5.5 0 0 0-.58.406l-.738 4.185a1.25 1.25 0 0 1-2.462-.434l2.084-11.818a1.25 1.25 0 0 1 1.448-1.014l2.955.521a4.256 4.256 0 0 1 3.348 5.357 4.426 4.426 0 0 1-5.07 2.97zm14.845-.683a1.25 1.25 0 0 1-2.462-.434l.173-.985a1.75 1.75 0 0 0-3.447-.608l-1.042 5.909a1.75 1.75 0 0 0 3.083 1.407c.132-.164.358-.546-.06-.62l-.358-.063a1.25 1.25 0 0 1 .434-2.462l1.97.347a1.25 1.25 0 0 1 1.014 1.448l-.174.985a4.25 4.25 0 1 1-8.37-1.476l1.041-5.909a4.25 4.25 0 1 1 8.371 1.476l-.173.985z" fill-rule="nonzero"/><g><path d="M88 12h7.8a.5.5 0 0 0 .354-.854L85.854.854A.5.5 0 0 0 85 1.2V9a3 3 0 0 0 3 3zM67 27.25h-1.25a.5.5 0 0 0-.5.5v2.5a.5.5 0 0 0 .5.5H67a1.75 1.75 0 0 0 0-3.5z"/><path d="M96.5 14H88a5 5 0 0 1-5-5V.5a.5.5 0 0 0-.5-.5H61a4 4 0 0 0-4 4v40a4 4 0 0 0 4 4h32a4 4 0 0 0 4-4V14.5a.5.5 0 0 0-.5-.5zM66.75 33.25h-1a.5.5 0 0 0-.5.5V38a1.25 1.25 0 0 1-2.5 0V26c0-.69.56-1.25 1.25-1.25h3a4.256 4.256 0 0 1 4.228 4.694 4.426 4.426 0 0 1-4.478 3.806zM81.25 38A1.248 1.248 0 0 1 80 39.25a1.254 1.254 0 0 1-1.118-.692s-2.97-5.93-3.104-6.2c-.134-.27-.528-.376-.528 0V38a1.25 1.25 0 0 1-2.5 0V26a1.25 1.25 0 0 1 2.368-.558s2.978 5.976 3.108 6.216c.13.24.524.32.524-.042V26a1.25 1.25 0 0 1 2.5 0v12zm10-8a1.25 1.25 0 0 1-2.5 0v-1a1.75 1.75 0 0 0-3.5 0v6a1.752 1.752 0 0 0 3.36.69c.058-.14.12-.44-.2-.44H88a1.25 1.25 0 0 1 0-2.5h2c.69 0 1.25.56 1.25 1.25v1a4.25 4.25 0 1 1-8.5 0v-6a4.25 4.25 0 1 1 8.5 0v1z" fill-rule="nonzero"/></g><g><path d="M32.613 13.38l7.681-1.354a.5.5 0 0 0 .2-.902l-11.93-8.347a.5.5 0 0 0-.781.489l1.354 7.681a3 3 0 0 0 3.476 2.434z"/><path d="M41.331 13.874l-8.37 1.476a5 5 0 0 1-5.793-4.056l-1.476-8.37a.5.5 0 0 0-.58-.406L3.94 6.25a4 4 0 0 0-3.244 4.634L7.64 50.277a4 4 0 0 0 4.633 3.245l31.514-5.557a4 4 0 0 0 3.245-4.633L41.91 14.28a.5.5 0 0 0-.579-.406zm-20.292 18.81a1.25 1.25 0 0 1-2.462.434l-.174-.985a1.75 1.75 0 0 0-3.447.608l1.042 5.908a1.75 1.75 0 0 0 3.41.17c.047-.17.094-.534-.311-.462l-.347.061a1.25 1.25 0 0 1-.434-2.462l1.97-.347a1.25 1.25 0 0 1 1.448 1.014l.173.985a4.25 4.25 0 1 1-8.37 1.476l-1.043-5.91a4.25 4.25 0 1 1 8.371-1.475l.174.985zm7.573 5.518l.247-.043a1.25 1.25 0 0 1 .434 2.462l-3.94.695a1.25 1.25 0 0 1-.434-2.463l.246-.043a.5.5 0 0 0 .406-.58l-1.476-8.37a.5.5 0 0 0-.58-.406l-.245.044a1.25 1.25 0 0 1-.435-2.462l3.94-.695a1.25 1.25 0 0 1 .434 2.462l-.246.044a.5.5 0 0 0-.406.579l1.476 8.37a.5.5 0 0 0 .58.406zm8.445-11.135l-3.94.694a.75.75 0 0 0-.608.87l.391 2.215a.5.5 0 0 0 .58.406l2.215-.391a1.25 1.25 0 0 1 .434 2.462l-2.216.39a.5.5 0 0 0-.405.58l.738 4.185a1.25 1.25 0 0 1-2.462.434l-1.737-9.848a3.252 3.252 0 0 1 2.637-3.765l3.939-.694a1.25 1.25 0 0 1 .434 2.462z" fill-rule="nonzero"/></g></g></svg>