<svg xmlns="http://www.w3.org/2000/svg" width="24" height="24" viewBox="0 0 24 24">
    <path fill="#000" fill-rule="nonzero" d="M3.556 0h16.888A3.556 3.556 0 0 1 24 3.556v16.888A3.556 3.556 0 0 1 20.444 24H3.556A3.556 3.556 0 0 1 0 20.444V3.556A3.556 3.556 0 0 1 3.556 0zm15.6 11.355l.48.714a.444.444 0 0 0 .814-.247V4a.444.444 0 0 0-.445-.444h-16A.444.444 0 0 0 3.561 4v16.078a.366.366 0 0 0 .67.203l3.556-5.342a2.22 2.22 0 0 1 3.237-.502l1.088.87a.452.452 0 0 0 .642-.084l2.732-3.911a2.222 2.222 0 0 1 3.67.043zM8.889 11.11a3.111 3.111 0 1 1 0-6.222 3.111 3.111 0 0 1 0 6.222z"/>
</svg>
