<?xml version="1.0" encoding="UTF-8"?>
<svg width="74px" height="74px" viewBox="0 0 74 74" version="1.1" xmlns="http://www.w3.org/2000/svg" xmlns:xlink="http://www.w3.org/1999/xlink">
    <!-- Generator: Sketch 48.2 (47327) - http://www.bohemiancoding.com/sketch -->
    <title>New Note</title>
    <desc>Created with Sketch.</desc>
    <defs></defs>
    <g id="Assets" stroke="none" stroke-width="1" fill="none" fill-rule="evenodd">
        <g id="New-Note" fill="#000000" fill-rule="nonzero">
            <path d="M73.621,11.316 C73.621,8.3863 72.4687,5.6129 70.3983,3.5426 C66.2577,-0.598 59.0113,-0.6176 54.8513,3.5426 L43.2893,15.1046 L43.2893,14.98741 L0.3793,14.98741 L0.3793,73.58141 L58.9733,73.58141 L58.9733,30.51541 L70.3993,19.08941 C72.4696,16.99961 73.622,14.24561 73.622,11.31601 L73.621,11.316 Z M65.2226,8.7183 C65.90619,9.40189 66.2968,10.3199 66.2968,11.2964 C66.2968,12.2729 65.90618,13.1909 65.2226,13.8941 L64.40229,14.71441 L59.22649,9.53861 L60.0468,8.7183 C61.4335,7.3316 63.8359,7.3316 65.2226,8.7183 Z M36.9996,31.7653 L54.0506,14.7343 L59.2264,19.9101 L42.1954,36.9611 L37.0001,36.9611 L36.9996,31.7653 Z M51.6476,66.2383 L7.7026,66.2383 L7.7026,22.2933 L36.1206,22.2933 L29.6753,28.7386 L29.6753,44.2656 L45.2023,44.2656 L51.6476,37.8203 L51.6476,66.2383 Z" id="Shape"></path>
        </g>
    </g>
</svg>