<svg xmlns="http://www.w3.org/2000/svg" width="20" height="24" viewBox="0 0 20 24">
    <path fill="#000" fill-rule="evenodd" d="M10.08 22.001c.556 0 1.007.448 1.007 1s-.45.999-1.008.999C4.513 24 0 19.526 0 14.006s4.513-9.994 10.08-9.994c.1 0 .19-.059.227-.15a.241.241 0 0 0-.054-.266L8.359 1.718a.994.994 0 0 1-.275-.972 1.014 1.014 0 0 1 1.7-.441l4.032 3.998a.995.995 0 0 1 0 1.415L9.784 9.716c-.253.26-.628.364-.98.272a1.004 1.004 0 0 1-.72-.714.994.994 0 0 1 .275-.972l1.894-1.878c.07-.07.09-.173.052-.264a.245.245 0 0 0-.226-.15c-4.453 0-8.063 3.58-8.063 7.996s3.61 7.995 8.063 7.995zm4.857-1.609v-.004a1.015 1.015 0 0 1 1.414.197.996.996 0 0 1-.199 1.402c-.67.501-1.4.917-2.173 1.24a1.011 1.011 0 0 1-1.32-.536.997.997 0 0 1 .541-1.308 8.09 8.09 0 0 0 1.737-.99zm4.243-5.654c.264.05.496.2.646.42.15.22.207.49.156.752a10.014 10.014 0 0 1-.851 2.505 1.013 1.013 0 0 1-1.746.117.995.995 0 0 1-.068-1 7.91 7.91 0 0 0 .68-2.004.999.999 0 0 1 .427-.638c.222-.148.494-.203.756-.152zm-.021-1.663a1.015 1.015 0 0 1-.76-.138 1 1 0 0 1-.438-.63 7.93 7.93 0 0 0-.76-2.056.995.995 0 0 1 .427-1.335 1.012 1.012 0 0 1 1.354.398 9.94 9.94 0 0 1 .948 2.572 1 1 0 0 1-.771 1.189z"/>
</svg>
