<?xml version="1.0" encoding="UTF-8"?>
<svg width="76px" height="84px" viewBox="0 0 76 84" version="1.1" xmlns="http://www.w3.org/2000/svg" xmlns:xlink="http://www.w3.org/1999/xlink">
    <!-- Generator: Sketch 48.2 (47327) - http://www.bohemiancoding.com/sketch -->
    <title>np_delete_1234808_000000</title>
    <desc>Created with Sketch.</desc>
    <defs></defs>
    <g id="190---Ability-to-Delete-a-Contact-Web-02/22/2018" stroke="none" stroke-width="1" fill="none" fill-rule="evenodd">
        <g id="np_delete_1234808_000000" fill="#000000" fill-rule="nonzero">
            <polygon id="Shape" points="26.77 31.949 32.77 31.949 32.77 64.988 26.77 64.988"></polygon>
            <polygon id="Shape" points="43.23 31.949 49.23 31.949 49.23 64.988 43.23 64.988"></polygon>
            <path d="M44.762,0.1992 L31.239,0.1992 C26.821,0.1992 23.239,3.7812 23.239,8.1992 L23.239,13.1289 L3.911,13.1289 C2.2548,13.1289 0.911,14.4727 0.911,16.1289 C0.911,17.7851 2.2548,19.1289 3.911,19.1289 L9.2391,19.1289 L12.1493,71.5079 L12.1493,71.511807 C12.53211,78.406307 18.2431,83.800807 25.1493,83.788807 L50.8793,83.788807 C57.7895,83.800526 63.4963,78.406007 63.8793,71.511807 L66.7895,19.132807 L72.1176,19.132807 L72.121506,19.128901 C73.777706,19.128901 75.121506,17.785101 75.121506,16.128901 C75.121506,14.472701 73.777706,13.128901 72.121506,13.128901 L52.762506,13.128901 L52.762506,8.199201 C52.762506,6.078101 51.918756,4.043001 50.418706,2.543001 C48.918656,1.043001 46.883506,0.199201 44.762506,0.199201 L44.762,0.1992 Z M29.25,8.1992 C29.25,7.0937 30.14453,6.1992 31.25,6.1992 L44.762,6.1992 C45.28934,6.1992 45.8011,6.41014 46.1761,6.78514 C46.5511,7.16014 46.76204,7.66795 46.76204,8.19924 L46.76204,13.12894 L29.23904,13.12894 L29.25,8.1992 Z M60.762,19.1292 L57.8714,71.1912 C57.66437,74.9021 54.5902,77.8045 50.8714,77.8006 L25.1214,77.8006 C21.4026,77.804507 18.3284,74.9022 18.1214,71.1912 L15.2386,19.1292 L60.762,19.1292 Z" id="Shape"></path>
        </g>
    </g>
</svg>