<svg width="78" height="78" fill="none" xmlns="http://www.w3.org/2000/svg"><path d="m39.94 36.28 10.1 6.03a1.98 1.98 0 0 1 0 3.38l-10.1 6.03a1.95 1.95 0 0 1-2.94-1.7V37.98a1.95 1.95 0 0 1 2.94-1.7Z" fill="#D7D9DC"/><path fill-rule="evenodd" clip-rule="evenodd" d="M19.11 24.5c-1.5 0-2.92.59-3.97 1.62A5.44 5.44 0 0 0 13.5 30v3.5a1.5 1.5 0 0 1-3 0V30c0-2.26.91-4.43 2.53-6.02a8.67 8.67 0 0 1 6.08-2.48H68.9c2.28 0 4.46.89 6.08 2.48A8.45 8.45 0 0 1 77.5 30v28c0 2.26-.91 4.43-2.53 6.02a8.67 8.67 0 0 1-6.08 2.48H51.1a1.5 1.5 0 0 1 0-3H68.9c1.5 0 2.92-.59 3.97-1.62A5.44 5.44 0 0 0 74.5 58V30c0-1.45-.59-2.85-1.64-3.88a5.67 5.67 0 0 0-3.97-1.62H19.1Z" fill="#B4B5B8"/><path fill-rule="evenodd" clip-rule="evenodd" d="M19.39 12.67c0-.83.67-1.5 1.5-1.5H67.1a1.5 1.5 0 1 1 0 3H20.9a1.5 1.5 0 0 1-1.5-1.5ZM26.5 2c0-.83.67-1.5 1.5-1.5h35.56a1.5 1.5 0 0 1 0 3H28A1.5 1.5 0 0 1 26.5 2Z" fill="#D7D9DC"/><path d="M16 78a16 16 0 1 1 0-32 16 16 0 0 1 0 32Z" fill="#B4B5B8"/><path fill-rule="evenodd" clip-rule="evenodd" d="M16.88 55.12c.5.48.5 1.28 0 1.76l-6 6a1.25 1.25 0 0 1-1.76-1.76l6-6a1.25 1.25 0 0 1 1.76 0Z" fill="#fff"/><path fill-rule="evenodd" clip-rule="evenodd" d="M15.12 55.12a1.25 1.25 0 0 1 1.76 0l6 6a1.25 1.25 0 0 1-1.76 1.76l-6-6a1.25 1.25 0 0 1 0-1.76Z" fill="#fff"/><path fill-rule="evenodd" clip-rule="evenodd" d="M16 54.75c.69 0 1.25.56 1.25 1.25v12a1.25 1.25 0 1 1-2.5 0V56c0-.69.56-1.25 1.25-1.25Z" fill="#fff"/></svg>