<?xml version="1.0" encoding="UTF-8"?>
<svg width="16px" height="16px" viewBox="0 0 16 16" version="1.1" xmlns="http://www.w3.org/2000/svg" xmlns:xlink="http://www.w3.org/1999/xlink">
    <!-- Generator: Sketch 51.1 (57501) - http://www.bohemiancoding.com/sketch -->
    <title>Warning/caution/alert</title>
    <desc>Created with Sketch.</desc>
    <defs></defs>
    <g id="Page-1" stroke="none" stroke-width="1" fill="none" fill-rule="evenodd">
        <g id="Artboard" transform="translate(-471.000000, -88.000000)" fill-rule="nonzero">
            <g id="Group" transform="translate(451.000000, 72.000000)">
                <g id="Group-2" transform="translate(16.000000, 12.000000)">
                    <g id="Warning/caution/alert">
                        <g id="noun_Warning_855733_000000" transform="translate(4.000000, 4.000000)" fill="#FFFFFF">
                            <path d="M7.99999982,0.173913043 C3.58803893,0.173913043 -1.77777777e-07,3.68397739 -1.77777777e-07,8.00000348 C-1.77777777e-07,12.3160383 3.58803893,15.8260904 7.99999982,15.8260904 C12.4119607,15.8260904 16.0000002,12.3160383 16.0000002,8.00000348 C16.0000002,3.68397739 12.4119607,0.173913043 7.99999982,0.173913043 Z M7.99999982,1.2173913 C11.8354878,1.2173913 14.9333335,4.24791826 14.9333335,8.00000348 C14.9333335,11.7521078 11.8354878,14.7826122 7.99999982,14.7826122 C4.16451182,14.7826122 1.06666649,11.7521078 1.06666649,8.00000348 C1.06666649,4.24791826 4.16451182,1.2173913 7.99999982,1.2173913 Z M7.99999982,2.26086957 C7.41089582,2.26086957 6.93333316,2.72805217 6.93333316,3.30434783 L7.11111093,10.08696 C7.11111093,10.5672035 7.50907893,10.9565252 7.99999982,10.9565252 C8.49092071,10.9565252 8.88888871,10.5672035 8.88888871,10.08696 L9.06666649,3.30434783 C9.06666649,2.72805217 8.58910382,2.26086957 7.99999982,2.26086957 Z M7.99999982,11.6521774 C7.4108976,11.6521774 6.93333316,12.11936 6.93333316,12.6956557 C6.93333316,13.2719339 7.4108976,13.7391339 7.99999982,13.7391339 C8.58910204,13.7391339 9.06666649,13.2719339 9.06666649,12.6956557 C9.06666649,12.11936 8.58910204,11.6521774 7.99999982,11.6521774 Z" id="Shape"></path>
                        </g>
                        <rect id="Rectangle-15" fill-opacity="0" fill="#D8D8D8" x="0" y="0" width="24" height="24"></rect>
                    </g>
                </g>
            </g>
        </g>
    </g>
</svg>