<svg width="24" height="24" viewBox="0 0 24 24" fill="none" xmlns="http://www.w3.org/2000/svg">
<g clip-path="url(#clip0)">
<path d="M12 0C9.62663 0 7.30655 0.703788 5.33316 2.02236C3.35977 3.34094 1.8217 5.21509 0.913451 7.4078C0.00519943 9.60051 -0.232441 12.0133 0.230582 14.3411C0.693605 16.6689 1.83649 18.8071 3.51472 20.4853C5.19295 22.1635 7.33115 23.3064 9.65892 23.7694C11.9867 24.2324 14.3995 23.9948 16.5922 23.0866C18.7849 22.1783 20.6591 20.6402 21.9776 18.6668C23.2962 16.6935 24 14.3734 24 12C23.9966 8.81846 22.7312 5.76821 20.4815 3.51852C18.2318 1.26883 15.1815 0.00344108 12 0V0ZM16.912 10.409C16.8331 10.5849 16.7051 10.7343 16.5433 10.8392C16.3815 10.9441 16.1928 10.9999 16 11H13.75C13.6837 11 13.6201 11.0263 13.5732 11.0732C13.5263 11.1201 13.5 11.1837 13.5 11.25V18.5C13.5 18.8978 13.342 19.2794 13.0607 19.5607C12.7794 19.842 12.3978 20 12 20C11.6022 20 11.2206 19.842 10.9393 19.5607C10.658 19.2794 10.5 18.8978 10.5 18.5V11.25C10.5 11.1837 10.4737 11.1201 10.4268 11.0732C10.3799 11.0263 10.3163 11 10.25 11H8.00001C7.80724 11.0001 7.61858 10.9444 7.45671 10.8397C7.29485 10.735 7.16668 10.5858 7.08765 10.41C7.00862 10.2342 6.98209 10.0393 7.01124 9.84873C7.0404 9.65819 7.12401 9.48013 7.25201 9.336L11.252 4.836C11.3485 4.73395 11.4647 4.65266 11.5937 4.5971C11.7226 4.54155 11.8616 4.51289 12.002 4.51289C12.1424 4.51289 12.2814 4.54155 12.4103 4.5971C12.5393 4.65266 12.6556 4.73395 12.752 4.836L16.752 9.336C16.8791 9.4805 16.9618 9.65859 16.9902 9.84892C17.0185 10.0392 16.9914 10.2337 16.912 10.409Z" fill="black"/>
</g>
<defs>
<clipPath id="clip0">
<rect width="24" height="24" fill="white"/>
</clipPath>
</defs>
</svg>
