<svg xmlns="http://www.w3.org/2000/svg" xmlns:xlink="http://www.w3.org/1999/xlink" preserveAspectRatio="xMidYMid" width="15" height="18" viewBox="0 0 15 18">
  <defs>
    <style>
      .cls-1 {
        fill: #38f;
        filter: url(#color-overlay-1);
        fill-rule: evenodd;
      }
    </style>

    <filter id="color-overlay-1" filterUnits="userSpaceOnUse">
      <feFlood flood-color="#929292"/>
      <feComposite operator="in" in2="SourceGraphic"/>
      <feBlend in2="SourceGraphic" result="solidFill"/>
    </filter>
  </defs>
  <path d="M14.203,17.901 L1.582,17.901 C1.172,17.901 0.840,17.595 0.840,17.218 L0.840,1.500 C0.840,1.123 1.172,0.817 1.582,0.817 L9.749,0.817 C9.945,0.817 10.134,0.889 10.274,1.017 L14.728,5.117 C14.867,5.245 14.945,5.419 14.945,5.600 L14.945,17.218 C14.945,17.595 14.613,17.901 14.203,17.901 ZM2.603,16.193 L13.182,16.193 L13.182,7.644 L8.786,7.644 C8.300,7.644 7.906,7.262 7.906,6.790 L7.906,2.525 L2.603,2.525 L2.603,16.193 ZM9.666,2.535 L9.666,5.937 L13.177,5.937 L9.666,2.535 Z" class="cls-1"/>
</svg>
