<svg xmlns="http://www.w3.org/2000/svg" xmlns:xlink="http://www.w3.org/1999/xlink" preserveAspectRatio="xMidYMid" width="18" height="18" viewBox="0 0 18 18">
  <defs>
    <style>
      .cls-1 {
        fill: #989898;
        fill-rule: evenodd;
      }
    </style>
  </defs>
  <path d="M17.457,17.889 C17.314,17.963 17.156,17.999 17.000,17.999 C16.795,17.999 16.592,17.936 16.419,17.813 L11.667,14.416 L6.915,17.813 C6.683,17.979 6.400,18.023 6.133,17.969 C6.084,17.976 6.041,17.999 5.990,17.999 C5.564,17.999 5.206,17.716 5.062,17.320 L0.419,14.001 C0.156,13.813 0.000,13.509 0.000,13.186 L0.000,0.987 C0.000,0.612 0.210,0.268 0.543,0.097 C0.876,-0.074 1.276,-0.045 1.581,0.172 L5.631,3.067 C5.743,3.021 5.862,2.990 5.990,2.990 C6.269,2.990 6.520,3.112 6.701,3.307 L11.085,0.173 C11.335,-0.006 11.644,-0.051 11.928,0.026 C11.956,0.024 11.981,0.010 12.010,0.010 C12.445,0.010 12.805,0.287 12.943,0.670 L17.581,3.985 C17.844,4.173 18.000,4.476 18.000,4.799 L18.000,16.999 C18.000,17.373 17.791,17.717 17.457,17.889 ZM4.990,5.069 L2.000,2.932 L2.000,12.671 L4.990,14.808 L4.990,5.069 ZM6.990,15.300 L11.010,12.426 L11.010,2.686 L6.990,5.560 L6.990,15.300 ZM16.000,5.314 L13.010,3.177 L13.010,12.917 L16.000,15.054 L16.000,5.314 Z" class="cls-1"/>
</svg>
