<svg xmlns="http://www.w3.org/2000/svg" xmlns:xlink="http://www.w3.org/1999/xlink" preserveAspectRatio="xMidYMid" width="16" height="20" viewBox="0 0 16 20">
  <defs>
    <style>
      .cls-1 {
        fill: #38f;
        fill-rule: evenodd;
      }
    </style>
  </defs>
  <path d="M15.158,20.000 L0.842,20.000 C0.377,20.000 0.000,19.642 0.000,19.200 L0.000,0.800 C0.000,0.358 0.377,0.000 0.842,0.000 L10.105,0.000 C10.329,0.000 10.543,0.084 10.701,0.234 L15.753,5.034 C15.911,5.184 16.000,5.388 16.000,5.600 L16.000,19.200 C16.000,19.642 15.623,20.000 15.158,20.000 ZM2.000,18.000 L14.000,18.000 L14.000,7.992 L9.014,7.992 C8.463,7.992 8.016,7.545 8.016,6.993 L8.016,2.000 L2.000,2.000 L2.000,18.000 ZM10.012,2.012 L10.012,5.994 L13.994,5.994 L10.012,2.012 Z" class="cls-1"/>
</svg>
