<svg width="24" height="24" viewBox="0 0 24 24" fill="none" xmlns="http://www.w3.org/2000/svg">
<path d="M7.60306 11.5282C7.78495 11.0985 8.19548 10.8014 8.66924 10.7444C8.72254 10.7356 8.77735 10.7309 8.83328 10.7308C9.18691 10.7299 9.52632 10.8636 9.77638 11.1022C10.0264 11.3409 10.1665 11.6649 10.1655 11.9902C10.1712 12.5038 9.85205 12.9701 9.35698 13.1714C8.86191 13.3727 8.28854 13.2693 7.9045 12.9095C7.52046 12.5497 7.40146 12.0044 7.60306 11.5282ZM15.2637 3.61539C14.7297 3.61539 14.2967 3.20211 14.2967 2.69231C14.2967 2.18251 14.7297 1.76923 15.2637 1.76923H19.6154C20.9506 1.76923 22.033 2.80242 22.033 4.07693V19.9231C22.033 21.1976 20.9506 22.2308 19.6154 22.2308H15.2637C14.7297 22.2308 14.2967 21.8175 14.2967 21.3077C14.2967 20.7979 14.7297 20.3846 15.2637 20.3846H19.6154C19.8824 20.3846 20.0989 20.178 20.0989 19.9231V4.07693C20.0989 3.82203 19.8824 3.61539 19.6154 3.61539H15.2637ZM11.3982 23.2947L2.696 22.1078C1.86148 21.995 1.24132 21.313 1.24176 20.5089V4.3623C1.24111 3.59997 1.79887 2.94096 2.55055 2.78781L11.2831 0.731224C11.783 0.629067 12.3045 0.748113 12.702 1.05511C13.0994 1.3621 13.3301 1.82414 13.3297 2.31139V21.6966C13.3294 22.1647 13.1164 22.6096 12.7458 22.9162C12.3753 23.2228 11.8836 23.3609 11.3982 23.2947ZM11.3956 21.4295V2.60579L3.17583 4.54161V20.3084L11.3956 21.4295Z" />
</svg>
