<?xml version="1.0" encoding="UTF-8"?>
<svg width="44px" height="52px" viewBox="0 0 44 52" version="1.1" xmlns="http://www.w3.org/2000/svg" xmlns:xlink="http://www.w3.org/1999/xlink">
    <!-- Generator: Sketch 51.3 (57544) - http://www.bohemiancoding.com/sketch -->
    <title>initial</title>
    <desc>Created with Sketch.</desc>
    <defs></defs>
    <g id="Page-1" stroke="none" stroke-width="1" fill="none" fill-rule="evenodd">
        <g id="initial">
            <rect id="Rectangle-4" fill="#FEC008" fill-rule="nonzero" x="0" y="0" width="44" height="52"></rect>
            <path d="M9.97,14 C9.9233331,14 9.8866668,13.9866668 9.86,13.96 C9.8333332,13.9333332 9.82,13.8966669 9.82,13.85 L9.82,7.15 C9.82,7.1033331 9.8333332,7.0666668 9.86,7.04 C9.8866668,7.0133332 9.9233331,7 9.97,7 L10.63,7 C10.6766669,7 10.7133332,7.0133332 10.74,7.04 C10.7666668,7.0666668 10.78,7.1033331 10.78,7.15 L10.78,13.85 C10.78,13.8966669 10.7666668,13.9333332 10.74,13.96 C10.7133332,13.9866668 10.6766669,14 10.63,14 L9.97,14 Z M14.77,8.84 C15.3166694,8.84 15.7499984,8.99833175 16.07,9.315 C16.3900016,9.63166825 16.55,10.0599973 16.55,10.6 L16.55,13.85 C16.55,13.8966669 16.5366668,13.9333332 16.51,13.96 C16.4833332,13.9866668 16.4466669,14 16.4,14 L15.74,14 C15.6933331,14 15.6566668,13.9866668 15.63,13.96 C15.6033332,13.9333332 15.59,13.8966669 15.59,13.85 L15.59,10.79 C15.59,10.456665 15.4933343,10.1866677 15.3,9.98 C15.1066657,9.7733323 14.8500016,9.67 14.53,9.67 C14.2433319,9.67 14.0016677,9.75499915 13.805,9.925 C13.6083324,10.0950009 13.4933335,10.3233319 13.46,10.61 L13.46,13.85 C13.46,13.8966669 13.4466668,13.9333332 13.42,13.96 C13.3933332,13.9866668 13.3566669,14 13.31,14 L12.65,14 C12.6033331,14 12.5666668,13.9866668 12.54,13.96 C12.5133332,13.9333332 12.5,13.8966669 12.5,13.85 L12.5,9.06 C12.5,9.0133331 12.5133332,8.9766668 12.54,8.95 C12.5666668,8.9233332 12.6033331,8.91 12.65,8.91 L13.31,8.91 C13.3566669,8.91 13.3933332,8.9233332 13.42,8.95 C13.4466668,8.9766668 13.46,9.0133331 13.46,9.06 L13.46,9.34 C13.46,9.3600001 13.4666666,9.3733333 13.48,9.38 C13.4933334,9.3866667 13.5033333,9.3833334 13.51,9.37 C13.7900014,9.0166649 14.2099972,8.84 14.77,8.84 Z M18.68,8.15 C18.4866657,8.15 18.328334,8.09166725 18.205,7.975 C18.0816661,7.85833275 18.02,7.7066676 18.02,7.52 C18.02,7.3333324 18.0816661,7.18166725 18.205,7.065 C18.328334,6.94833275 18.4866657,6.89 18.68,6.89 C18.8733343,6.89 19.0299994,6.94833275 19.15,7.065 C19.2700006,7.18166725 19.33,7.3333324 19.33,7.52 C19.33,7.7066676 19.2700006,7.85833275 19.15,7.975 C19.0299994,8.09166725 18.8733343,8.15 18.68,8.15 Z M18.35,14 C18.3033331,14 18.2666668,13.9866668 18.24,13.96 C18.2133332,13.9333332 18.2,13.8966669 18.2,13.85 L18.2,9.06 C18.2,9.0133331 18.2133332,8.9766668 18.24,8.95 C18.2666668,8.9233332 18.3033331,8.91 18.35,8.91 L19.01,8.91 C19.0566669,8.91 19.0933332,8.9233332 19.12,8.95 C19.1466668,8.9766668 19.16,9.0133331 19.16,9.06 L19.16,13.85 C19.16,13.8966669 19.1466668,13.9333332 19.12,13.96 C19.0933332,13.9866668 19.0566669,14 19.01,14 L18.35,14 Z M23.34,9.55 C23.34,9.5966669 23.3266668,9.6333332 23.3,9.66 C23.2733332,9.6866668 23.2366669,9.7 23.19,9.7 L22.17,9.7 C22.1366665,9.7 22.12,9.7166665 22.12,9.75 L22.12,12.36 C22.12,12.6466681 22.1816661,12.8499994 22.305,12.97 C22.428334,13.0900006 22.6266653,13.15 22.9,13.15 L23.14,13.15 C23.1866669,13.15 23.2233332,13.1633332 23.25,13.19 C23.2766668,13.2166668 23.29,13.2533331 23.29,13.3 L23.29,13.82 C23.29,13.9133338 23.2400005,13.9666666 23.14,13.98 L22.73,13.99 C22.2166641,13.99 21.8333346,13.9000009 21.58,13.72 C21.3266654,13.5399991 21.2,13.2033358 21.2,12.71 L21.2,9.75 C21.2,9.7166665 21.1833335,9.7 21.15,9.7 L20.6,9.7 C20.5533331,9.7 20.5166668,9.6866668 20.49,9.66 C20.4633332,9.6333332 20.45,9.5966669 20.45,9.55 L20.45,9.06 C20.45,9.0133331 20.4633332,8.9766668 20.49,8.95 C20.5166668,8.9233332 20.5533331,8.91 20.6,8.91 L21.15,8.91 C21.1833335,8.91 21.2,8.8933335 21.2,8.86 L21.2,7.74 C21.2,7.6933331 21.2133332,7.6566668 21.24,7.63 C21.2666668,7.6033332 21.3033331,7.59 21.35,7.59 L21.97,7.59 C22.0166669,7.59 22.0533332,7.6033332 22.08,7.63 C22.1066668,7.6566668 22.12,7.6933331 22.12,7.74 L22.12,8.86 C22.12,8.8933335 22.1366665,8.91 22.17,8.91 L23.19,8.91 C23.2366669,8.91 23.2733332,8.9233332 23.3,8.95 C23.3266668,8.9766668 23.34,9.0133331 23.34,9.06 L23.34,9.55 Z M25.28,8.15 C25.0866657,8.15 24.928334,8.09166725 24.805,7.975 C24.6816661,7.85833275 24.62,7.7066676 24.62,7.52 C24.62,7.3333324 24.6816661,7.18166725 24.805,7.065 C24.928334,6.94833275 25.0866657,6.89 25.28,6.89 C25.4733343,6.89 25.6299994,6.94833275 25.75,7.065 C25.8700006,7.18166725 25.93,7.3333324 25.93,7.52 C25.93,7.7066676 25.8700006,7.85833275 25.75,7.975 C25.6299994,8.09166725 25.4733343,8.15 25.28,8.15 Z M24.95,14 C24.9033331,14 24.8666668,13.9866668 24.84,13.96 C24.8133332,13.9333332 24.8,13.8966669 24.8,13.85 L24.8,9.06 C24.8,9.0133331 24.8133332,8.9766668 24.84,8.95 C24.8666668,8.9233332 24.9033331,8.91 24.95,8.91 L25.61,8.91 C25.6566669,8.91 25.6933332,8.9233332 25.72,8.95 C25.7466668,8.9766668 25.76,9.0133331 25.76,9.06 L25.76,13.85 C25.76,13.8966669 25.7466668,13.9333332 25.72,13.96 C25.6933332,13.9866668 25.6566669,14 25.61,14 L24.95,14 Z M29.3,8.83 C29.7066687,8.83 30.0616652,8.90166595 30.365,9.045 C30.6683349,9.18833405 30.9016659,9.38833205 31.065,9.645 C31.2283342,9.90166795 31.31,10.1933317 31.31,10.52 L31.31,13.85 C31.31,13.8966669 31.2966668,13.9333332 31.27,13.96 C31.2433332,13.9866668 31.2066669,14 31.16,14 L30.5,14 C30.4533331,14 30.4166668,13.9866668 30.39,13.96 C30.3633332,13.9333332 30.35,13.8966669 30.35,13.85 L30.35,13.57 C30.35,13.5499999 30.3433334,13.5366667 30.33,13.53 C30.3166666,13.5233333 30.3033334,13.5266666 30.29,13.54 C30.1033324,13.7133342 29.881668,13.8466662 29.625,13.94 C29.3683321,14.0333338 29.0900015,14.08 28.79,14.08 C28.3033309,14.08 27.9033349,13.9550013 27.59,13.705 C27.2766651,13.4549988 27.12,13.0766692 27.12,12.57 C27.12,12.0499974 27.3016649,11.6416681 27.665,11.345 C28.0283352,11.0483319 28.5366634,10.9 29.19,10.9 L30.3,10.9 C30.3333335,10.9 30.35,10.8833335 30.35,10.85 L30.35,10.59 C30.35,10.2966652 30.2650009,10.0683341 30.095,9.905 C29.9249992,9.74166585 29.6666684,9.66 29.32,9.66 C29.0466653,9.66 28.8250009,9.7099995 28.655,9.81 C28.4849992,9.9100005 28.3733336,10.0499991 28.32,10.23 C28.2933332,10.3166671 28.2366671,10.3566667 28.15,10.35 L27.43,10.26 C27.3833331,10.2533333 27.3466668,10.2383335 27.32,10.215 C27.2933332,10.1916665 27.2833333,10.1633335 27.29,10.13 C27.3500003,9.7499981 27.5649982,9.43833455 27.935,9.195 C28.3050019,8.95166545 28.7599973,8.83 29.3,8.83 Z M29.03,13.27 C29.3833351,13.27 29.6916654,13.1766676 29.955,12.99 C30.2183347,12.8033324 30.35,12.5666681 30.35,12.28 L30.35,11.7 C30.35,11.6666665 30.3333335,11.65 30.3,11.65 L29.37,11.65 C28.9766647,11.65 28.6633345,11.7266659 28.43,11.88 C28.1966655,12.0333341 28.08,12.2466653 28.08,12.52 C28.08,12.7666679 28.1683325,12.9533327 28.345,13.08 C28.5216676,13.2066673 28.7499986,13.27 29.03,13.27 Z M32.96,14 C32.9133331,14 32.8766668,13.9866668 32.85,13.96 C32.8233332,13.9333332 32.81,13.8966669 32.81,13.85 L32.81,7.15 C32.81,7.1033331 32.8233332,7.0666668 32.85,7.04 C32.8766668,7.0133332 32.9133331,7 32.96,7 L33.62,7 C33.6666669,7 33.7033332,7.0133332 33.73,7.04 C33.7566668,7.0666668 33.77,7.1033331 33.77,7.15 L33.77,13.85 C33.77,13.8966669 33.7566668,13.9333332 33.73,13.96 C33.7033332,13.9866668 33.6666669,14 33.62,14 L32.96,14 Z" id="Initial" fill="#000000"></path>
            <polygon id="Path-3" fill="#000000" fill-rule="nonzero" points="19 19 25 19 25 30 28 30 22 38 16 30 19 30"></polygon>
            <rect id="Rectangle-5" fill="#000000" fill-rule="nonzero" x="8" y="40" width="28" height="1"></rect>
        </g>
    </g>
</svg>