<svg width="24" height="24" xmlns="http://www.w3.org/2000/svg">
  <path d="M14.9676 19.1814c-1.3294.614-2.4817.8186-4.0548.8186C7.2348 20 4 17.2942 4 12.8382 4 8.2 7.3014 4.1756 12.2865 4.1756 16.2083 4.1756 19 6.9268 19 10.7464c0 3.3422-1.8169 5.4338-4.2097 5.4338-1.0413 0-1.7946-.5684-1.9055-1.7507h-.0443c-.7091 1.137-1.684 1.7507-2.8804 1.7507-1.418 0-2.4815-1.114-2.4815-2.9783 0-2.7964 2.0163-5.2975 5.2067-5.2975.9749 0 2.0827.2501 2.6145.5457l-.6646 4.229c-.1995 1.3415-.0443 1.9553.5761 1.978.9527.0455 2.1491-1.2051 2.1491-3.8425 0-2.9781-1.8612-5.2519-5.2953-5.2519-3.4122 0-6.359 2.7056-6.359 7.0708 0 3.8198 2.3485 5.957 5.6499 5.957 1.13 0 2.3487-.2501 3.2349-.705l.3767 1.2959zm-1.9499-9.39c-.1772-.0455-.421-.091-.6869-.091-1.4623 0-2.6146 1.4778-2.6146 3.2283 0 .8642.3767 1.4098 1.0858 1.4098.8419 0 1.706-1.0685 1.8833-2.3872l.3324-2.1598z" fill-rule="nonzero"/>
</svg>
