<?xml version="1.0" encoding="UTF-8"?>
<svg width="13px" height="16px" viewBox="0 0 13 16" version="1.1" xmlns="http://www.w3.org/2000/svg" xmlns:xlink="http://www.w3.org/1999/xlink">
    <!-- Generator: Sketch 52.2 (67145) - http://www.bohemiancoding.com/sketch -->
    <title>Image File Landscape Alternate</title>
    <desc>Created with Sketch.</desc>
    <g id="Dec-3,-2018" stroke="none" stroke-width="1" fill="none" fill-rule="evenodd">
        <g id="Social-Flow-2" transform="translate(-876.000000, -556.000000)" fill="#000000">
            <g id="Group-15" transform="translate(860.000000, 510.000000)">
                <g id="Group-12" transform="translate(0.000000, 34.000000)">
                    <g id="Image-File-Landscape-Alternate" transform="translate(16.000000, 12.000000)">
                        <path d="M12.80955,3.80466667 L9.29045,0.195333333 C9.16857957,0.0703006873 9.00327677,3.80205889e-05 8.83090002,2.05888663e-08 L1.30000002,2.05888663e-08 C0.582029462,5.27770687e-08 -3.7699202e-08,0.596954021 -3.7699202e-08,1.33333335 L-3.7699202e-08,14.6666667 L-3.76991858e-08,14.6666669 C7.07110642e-08,15.4030469 0.582030112,16.0000002 1.29999996,16.0000002 L11.7,16.0000002 C12.4179704,16.0000003 12.9999999,15.4030469 12.9999999,14.6666669 L12.9999999,4.27600022 L12.9999999,4.2761426 C12.9999999,4.09934593 12.9315289,3.92978927 12.8096481,3.80476727 L12.80955,3.80466667 Z M11.7,14.3333333 C11.7,14.517428 11.5544923,14.6666667 11.375,14.6666667 L1.625,14.6666667 C1.44550768,14.6666667 1.29999998,14.517428 1.29999998,14.3333333 C1.29999998,14.3333333 1.29999998,14.3333333 1.29999998,14.3333333 L1.29999998,1.66666667 C1.29999996,1.48257205 1.44550768,1.33333338 1.62499998,1.33333338 L8.42724998,1.33333338 C8.5132788,1.33335213 8.5957911,1.36835412 8.6567,1.43066672 L11.6051,4.45466672 C11.6658548,4.51713705 11.6999818,4.60176538 11.7,4.69000005 L11.7,14.3333333 Z" id="Shape" fill-rule="nonzero"></path>
                        <path d="M5.33858,4.39052667 C5.84626185,4.911226 5.84626185,5.75544667 5.33858,6.27614667 C4.83089815,6.796846 4.007783,6.796846 3.5001005,6.27614667 C2.99241865,5.75544733 2.99241865,4.91122667 3.5001005,4.39052667 C4.00778235,3.86982733 4.8308975,3.86982733 5.33858,4.39052667" id="Path"></path>
                        <path d="M7.94495,7.11866667 C7.8498199,6.96255399 7.64931115,6.91509599 7.4971013,7.01266533 C7.45525066,7.03949246 7.41990665,7.07574286 7.39375,7.11866666 L5.81685,9.70666666 C5.7686109,9.78472266 5.6678102,9.80789199 5.5917056,9.75841579 C5.57137029,9.74519572 5.55413976,9.72752339 5.5412502,9.70666666 L4.9796502,8.78533332 C4.88452009,8.62922065 4.68401134,8.58176265 4.53180149,8.67933198 C4.48995085,8.70615912 4.45460684,8.74240952 4.42845019,8.78533332 L2.62470019,11.7446667 C2.57695508,11.8226073 2.59985387,11.925488 2.67584595,11.9744573 C2.70180338,11.9911843 2.73184462,12.0000394 2.76250005,11.9999999 L10.6275001,11.9999999 C10.7172462,12.0001155 10.7900911,11.9255899 10.7902042,11.8335425 C10.7902427,11.8021009 10.7816089,11.7712894 10.7653002,11.7446665 L7.94495,7.11866667 Z" id="Path"></path>
                    </g>
                </g>
            </g>
        </g>
    </g>
</svg>