<svg xmlns="http://www.w3.org/2000/svg" width="24" height="24" viewBox="0 0 24 24">
    <path fill="#000" fill-rule="nonzero" d="M12 0c6.627 0 12 5.373 12 12s-5.373 12-12 12S0 18.627 0 12 5.373 0 12 0zm0 22.125c5.583 0 10.125-4.542 10.125-10.125S17.583 1.875 12 1.875 1.875 6.417 1.875 12 6.417 22.125 12 22.125zm.974-11.264c2.069.724 2.904 1.673 2.905 3.23 0 1.535-1.096 2.847-3.095 3.193v1.76H11.08v-1.64c-1.166-.052-2.295-.362-2.956-.742l.522-2.02c.73.397 1.755.76 2.886.76.991 0 1.67-.38 1.67-1.07 0-.657-.557-1.071-1.844-1.502-1.86-.622-3.13-1.484-3.13-3.159 0-1.52 1.079-2.71 2.939-3.073v-1.64h1.703v1.52c1.166.05 1.948.292 2.522.568l-.504 1.951c-.452-.19-1.253-.588-2.505-.588-1.13 0-1.496.484-1.496.968 0 .569.609.932 2.087 1.484z"/>
</svg>
