<svg xmlns="http://www.w3.org/2000/svg" width="24" height="24" viewBox="0 0 24 24">
    <path fill="#000" fill-rule="nonzero" d="M10.977 10.37V.98c0-.541.458-.98 1.023-.98s1.023.439 1.023.98v9.39l1.323-1.267a1.056 1.056 0 0 1 1.447 0 .95.95 0 0 1 0 1.386l-3.07 2.938c-.4.383-1.047.383-1.447 0l-3.07-2.938a.95.95 0 0 1 0-1.386 1.056 1.056 0 0 1 1.448 0l1.323 1.267zm-7.93 5.059h17.906V8.327c0-.271-.229-.49-.511-.49h-3.07c-.565 0-1.023-.439-1.023-.98 0-.54.458-.98 1.023-.98h3.07c1.413 0 2.558 1.097 2.558 2.45v9.55c0 1.353-1.145 2.45-2.558 2.45h-7.419v1.714h2.814c.565 0 1.023.438 1.023.98 0 .54-.458.979-1.023.979H8.163c-.565 0-1.023-.439-1.023-.98 0-.54.458-.98 1.023-.98h2.814v-1.713H3.558C2.145 20.327 1 19.23 1 17.877v-9.55c0-1.353 1.145-2.45 2.558-2.45h3.07c.565 0 1.023.44 1.023.98 0 .541-.458.98-1.023.98h-3.07a.501.501 0 0 0-.511.49v7.102zm0 1.959v.49c0 .27.229.49.511.49h16.884c.282 0 .511-.22.511-.49v-.49H3.047z"/>
</svg>
