<svg xmlns="http://www.w3.org/2000/svg" width="24" height="24" viewBox="0 0 24 24">
    <path fill="#000" fill-rule="nonzero" d="M19.592 12v1.102a2.816 2.816 0 0 1-4.973 1.812A3.918 3.918 0 1 1 15.918 12v1.102a.857.857 0 0 0 1.715 0V12a5.634 5.634 0 1 0-3.13 5.047.98.98 0 0 1 .871 1.755A7.593 7.593 0 1 1 19.592 12zM12 24C5.373 24 0 18.627 0 12S5.373 0 12 0s12 5.373 12 12-5.373 12-12 12zm0-1.96c5.545 0 10.04-4.495 10.04-10.04 0-5.545-4.495-10.04-10.04-10.04C6.455 1.96 1.96 6.454 1.96 12c0 5.545 4.495 10.04 10.04 10.04zm0-8.08a1.96 1.96 0 1 0 0-3.92 1.96 1.96 0 0 0 0 3.92z"/>
</svg>
