<svg width="24" height="24" viewBox="0 0 24 24" fill="none" xmlns="http://www.w3.org/2000/svg">
<path d="M5.25 0.247009H1.75C0.921573 0.247009 0.25 0.918582 0.25 1.74701V5.24701C0.25 6.07544 0.921573 6.74701 1.75 6.74701H5.25C6.07843 6.74701 6.75 6.07544 6.75 5.24701V1.74701C6.75 0.918582 6.07843 0.247009 5.25 0.247009Z" fill="black"/>
<path d="M5.25 8.74701H1.75C0.921573 8.74701 0.25 9.41858 0.25 10.247V13.747C0.25 14.5754 0.921573 15.247 1.75 15.247H5.25C6.07843 15.247 6.75 14.5754 6.75 13.747V10.247C6.75 9.41858 6.07843 8.74701 5.25 8.74701Z" fill="black"/>
<path d="M5.25 17.247H1.75C0.921573 17.247 0.25 17.9186 0.25 18.747V22.247C0.25 23.0754 0.921573 23.747 1.75 23.747H5.25C6.07843 23.747 6.75 23.0754 6.75 22.247V18.747C6.75 17.9186 6.07843 17.247 5.25 17.247Z" fill="black"/>
<path d="M13.75 0.247009H10.25C9.42157 0.247009 8.75 0.918582 8.75 1.74701V5.24701C8.75 6.07544 9.42157 6.74701 10.25 6.74701H13.75C14.5784 6.74701 15.25 6.07544 15.25 5.24701V1.74701C15.25 0.918582 14.5784 0.247009 13.75 0.247009Z" fill="black"/>
<path d="M13.75 8.74701H10.25C9.42157 8.74701 8.75 9.41858 8.75 10.247V13.747C8.75 14.5754 9.42157 15.247 10.25 15.247H13.75C14.5784 15.247 15.25 14.5754 15.25 13.747V10.247C15.25 9.41858 14.5784 8.74701 13.75 8.74701Z" fill="black"/>
<path d="M13.75 17.247H10.25C9.42157 17.247 8.75 17.9186 8.75 18.747V22.247C8.75 23.0754 9.42157 23.747 10.25 23.747H13.75C14.5784 23.747 15.25 23.0754 15.25 22.247V18.747C15.25 17.9186 14.5784 17.247 13.75 17.247Z" fill="black"/>
<path d="M22.25 0.247009H18.75C17.9216 0.247009 17.25 0.918582 17.25 1.74701V5.24701C17.25 6.07544 17.9216 6.74701 18.75 6.74701H22.25C23.0784 6.74701 23.75 6.07544 23.75 5.24701V1.74701C23.75 0.918582 23.0784 0.247009 22.25 0.247009Z" fill="black"/>
<path d="M22.25 8.74701H18.75C17.9216 8.74701 17.25 9.41858 17.25 10.247V13.747C17.25 14.5754 17.9216 15.247 18.75 15.247H22.25C23.0784 15.247 23.75 14.5754 23.75 13.747V10.247C23.75 9.41858 23.0784 8.74701 22.25 8.74701Z" fill="black"/>
<path d="M22.25 17.247H18.75C17.9216 17.247 17.25 17.9186 17.25 18.747V22.247C17.25 23.0754 17.9216 23.747 18.75 23.747H22.25C23.0784 23.747 23.75 23.0754 23.75 22.247V18.747C23.75 17.9186 23.0784 17.247 22.25 17.247Z" fill="black"/>
</svg>
