<svg width="24" height="24" viewBox="0 0 24 24" xmlns="http://www.w3.org/2000/svg">
<path fill="#0945eb" fill-rule="nonzero" d="M19.9474 9.49973C19.8665 9.3477 19.7054 9.25228 19.5296 9.25229H12.5885L14.3426 1.55902C14.3918 1.34614 14.2801 1.12896 14.0755 1.03992C13.871 0.950882 13.6303 1.01469 13.5003 1.19242L4.08994 14.0237C3.98563 14.1634 3.97089 14.3484 4.05181 14.5022C4.13273 14.6559 4.29555 14.7523 4.47295 14.7514H11.4141L9.65996 22.441C9.61072 22.6539 9.72243 22.871 9.92699 22.9601C10.1315 23.0491 10.3722 22.9853 10.5022 22.8076L19.9126 9.97632C20.015 9.83639 20.0285 9.65238 19.9474 9.49973Z"/>
</svg>
