<svg width="24" height="24" viewBox="0 0 24 24" fill="none" xmlns="http://www.w3.org/2000/svg">
<path d="M14.9487 2.63289C15.0891 2.00678 14.7712 1.36942 14.1994 1.11278C13.6381 0.860793 12.9782 1.04118 12.616 1.55183L4.252 13.3129C3.95903 13.7177 3.91661 14.2666 4.14829 14.7206C4.37569 15.1662 4.82651 15.4413 5.31367 15.4388L10.3645 15.4388L9.05318 21.3671C8.91273 21.9932 9.23066 22.6306 9.80239 22.8873C10.3637 23.1392 11.0236 22.9588 11.3858 22.4482L19.7498 10.6871C20.0425 10.2749 20.0811 9.72886 19.849 9.27815C19.6215 8.83708 19.1753 8.56455 18.6925 8.56459H13.6372L14.9487 2.63289ZM11.2949 19.4761L12.3456 14.726C12.4725 14.1522 12.0497 13.6055 11.479 13.6055H6.24853L12.7073 4.52339L11.6562 9.27748C11.5294 9.85126 11.9522 10.3979 12.5229 10.3979H17.7509L11.2949 19.4761Z" fill="black"/>
</svg>
