<svg xmlns="http://www.w3.org/2000/svg" width="120" height="120" fill="none"><defs/><path fill="#0F3057" d="M48.45.61c-.014-.617.826-.795 1.159-.332.553.611 1.793 1.269 1.093 2.212-.804.21-1.25-.557-1.76-1.009-.203-.258-.605-.488-.492-.871zM55.094.059c.53-.23.948.257.959.75-.455.612-1.008 1.146-1.578 1.648-.537.263-1.077-.214-.937-.776.408-.63.992-1.132 1.556-1.622zM49.708 5.375c.405-.526 1.234-.263 1.253.395-.29.68-.934 1.132-1.46 1.625-.5.598-1.354-.197-.985-.8.363-.439.779-.828 1.192-1.22zM53.696 5.216c.944-.457 1.503.727 2.106 1.242.733.534-.377 1.625-.911.907-.532-.597-1.733-1.209-1.195-2.149zM17.19 8.387c.596-.923 2.427-1 2.879.12-.11 1.204-1.407 1.089-2.291.971-.482-.156-.537-.669-.587-1.09zM21.735 7.724c.559-.008 1.118-.014 1.677-.025.686.387.776 1.45-.041 1.749-.725.055-1.89.299-2.127-.641-.198-.464.23-.779.49-1.083zM25.367 8.034c.35-.535 1.082-.33 1.625-.378.58-.096.823.474 1.068.874-.264.967-1.3 1.022-2.128.899-.628-.077-.973-.913-.565-1.395zM29.465 7.702c.578.011 1.156.008 1.735-.008.65.373.724 1.477-.08 1.707-.719.135-1.804.266-2.132-.578-.173-.466.22-.798.477-1.12zM33.383 7.74c.76-.246 2.338-.383 2.308.776.05 1.003-1.129.899-1.815.863-.906.137-1.27-1.206-.493-1.639zM37.277 7.784c.507-.372 1.218-.189 1.81-.186.908.247.735 1.76-.21 1.748-.59-.035-1.424.236-1.773-.4-.306-.37-.168-.874.173-1.162zM41.628 10.725c10.817-.628 21.65-1.044 32.473-1.63 1.542-.012 3.085-.272 4.63-.119a4.024 4.024 0 012.82 2.097c.366.83.445 1.743.473 2.642.06 2.055.198 4.108.308 6.163.157-.005.474-.013.631-.019 2.28-.107 4.563-.21 6.843-.334 1.898-.008 3.605 1.49 3.927 3.335.17 2.812.143 5.635.444 8.438.035.721.008 1.447.04 2.168-.426-.186-.85-.375-1.274-.559l-.044-.386c-.138-1.689-.091-3.388-.281-5.073-.201-1.817.231-3.747-.584-5.454-.52-.693-1.341-1.203-2.233-1.143-2.316.039-4.627.225-6.94.313-.523.005-1.05.022-1.567-.041-.534-.919-.21-2.08-.407-3.095-.014-1.704-.149-3.4-.185-5.105.028-.825-.416-1.557-.964-2.138-.454-.29-.958-.531-1.503-.584-4.026.149-8.052.425-12.081.551-8.174.033-16.35.02-24.526-.027zM10.053 15.302c.201-1.757 1.908-3.344 3.718-3.168a6.01 6.01 0 00-.298 1.184c-.25.095-.749.287-.997.38.113-.24.223-.485.336-.726-.316.258-.58.595-.592 1.02-.294.307-.65.493-1.063.556.055.137.116.274.177.411-.133 2.793.212 5.58.267 8.372.658 12.426 1.198 24.854 1.872 37.28.573 12.59 1.245 25.189 1.848 37.768.245 1.175 1.341 2.203 2.589 2.135 2.283-.02 4.557-.206 6.837-.321.697-.038 1.43-.09 2.058.279-.02 2.234.085 4.465.198 6.696-.003.712-.041 1.441.14 2.14.421 1.055 1.435 1.888 2.614 1.864 11.786-.601 23.578-1.146 35.367-1.746.24.12.468.348.754.378l.078-.414c1.71.047 3.403-.227 5.108-.277 2.398.053 4.778-.339 7.176-.296 3.018-.232 6.04-.263 9.055-.504 2.22.074 4.414-.279 6.628-.288 1.443-.008 2.655-1.329 2.591-2.748-.495-8.603-.837-17.216-1.31-25.822-.342.477-.672.962-1.038 1.423-.436.545-.86 1.101-1.295 1.65-.283.347-.567.695-.831 1.054.024-.718-.284-1.564.223-2.181.98-1.406 1.927-2.834 2.935-4.218.29-.603 1.333-.312 1.198.392.454 8.773.89 17.545 1.314 26.32.217 1.5.069 3.223-1.127 4.306-1.035 1.08-2.618 1.195-4.028 1.184-18.726.893-37.455 1.833-56.181 2.74-2.305.063-4.602.291-6.907.283-1.969-.039-3.607-1.774-3.706-3.697-.174-2.423-.102-4.854-.347-7.271l-.697.055c-2.184.107-4.37.183-6.551.348-1.454.035-2.977-.716-3.66-2.026-.526-.91-.51-1.99-.598-3-.096-2.497-.088-5.002-.371-7.488-.537-12.866-1.259-25.722-1.854-38.584-.608-11.611-1.118-23.229-1.746-34.84.328-.143.642-.455.116-.603zm2.377 41.801c-.07.378.088.526.468.444.069-.38-.088-.531-.468-.444zm.589 7.337c-.388.208-.413.397-.08.567.386-.208.41-.397.08-.567z"/><path fill="#0F3057" d="M68.999 12.654c3.16.047 6.303-.433 9.467-.293.028.14.08.422.108.562.143 2.368.24 4.741.358 7.114-.047.453.17 1.138-.41 1.319-3.773.21-7.555.353-11.325.594-3.712.006-7.427.041-11.139-.016l-.151-.055c.162-.255.341-.499.518-.743 7.088-.304 14.174-.655 21.259-1.025-.198-2.173-.223-4.357-.364-6.533-2.505.145-5.014.271-7.523.38-.286-.386-.622-.75-.798-1.205v-.099z"/><path fill="#0F3057" d="M63.901 12.953c.22-.02.656-.057.876-.074l.124.003c1.242.225 2.605-.4 3.759.082.325.362.658.713 1.005 1.055-7.98.239-15.95.795-23.928 1.107-10.046.537-20.1.951-30.146 1.51.006-.444.006-.882-.003-1.323 16.107-.757 32.212-1.554 48.313-2.36zM40.744 21.94c4.415-.261 8.835-.425 13.252-.675.595.003 1.517-.173 1.754.56l-.245.079c-4.916.123-9.842.044-14.76.035zM21.76 26.891c-.243-2.173 1.586-4.121 3.728-4.275-.28.463-.545.937-.763 1.43-.947.527-1.76 1.434-1.707 2.582.584 11.242 1.096 22.487 1.674 33.728.067 8.77.044 17.543.009 26.312-.312-6.023-.598-12.05-.895-18.076l.79.419a14.914 14.914 0 00-.727-.471c-.339-3.45-.358-6.926-.581-10.384-.501-10.423-1.041-20.842-1.529-31.265z"/><path fill="#0F3057" d="M76.043 23.595c4.58-.247 9.162-.513 13.747-.666.617.019.487.718.586 1.132.138 3.02.317 6.04.433 9.063a37.28 37.28 0 00-1.215 1.25c-.132-3.383-.33-6.762-.5-10.144-20.748.99-41.495 2.01-62.24 3.04l-.41.065c-.055 1.7.223 3.382.333 5.073.237 8.082.771 16.148 1.11 24.224.873 16.854 1.644 33.711 2.522 50.566-.443-.003-.884 0-1.324.003-.733-15.44-1.487-30.881-2.291-46.318-.124-1.64.002-3.29-.218-4.925-.44-9.055-.92-18.107-1.33-27.162-.058-.893-.165-1.8.025-2.688.512-.047 1.027-.102 1.542-.137 12.2-.611 24.404-1.132 36.598-1.828 1.911.07 3.811-.253 5.725-.25 2.308.041 4.596-.356 6.907-.298zm-23.65 1.466c.146.148.146.148 0 0zM27.903 72.4c-.088.378.058.534.441.469.088-.379-.058-.535-.44-.469zM103.567 30.81c1.382-1.915 3.955-2.915 6.271-2.395 1.952.36 3.376 1.85 5.017 2.84 1.407 1.055 3.137 1.83 4.059 3.398.727 1.15 1.115 2.551.95 3.913a18.028 18.028 0 01-.933-1.556c-.314-1.088-.777-2.176-1.664-2.927-1.162-.973-2.481-1.732-3.704-2.618-1.266-.808-2.428-1.915-3.965-2.162-2.002-.411-4.18.441-5.359 2.105-.793 1.115-1.534 2.266-2.357 3.362a14.67 14.67 0 001.66 1.215 33.75 33.75 0 00-.528.734c-.727-.55-1.548-.978-2.226-1.59-.055-.386.254-.67.433-.975.807-1.096 1.539-2.245 2.346-3.344zM89.65 36.174c.404.383.856.71 1.357.956.193 2.44.234 4.884.374 7.326.287-.33.554-.675.76-1.058.045-.074.13-.225.171-.299.347-.48.716-.945 1.107-1.39.375-.334.78-.633 1.184-.934.146.866-.077 1.694-.586 2.404-.92 1.315-1.933 2.565-2.828 3.897-.364.032-.893.008-.95-.442-.26-3.483-.314-6.98-.59-10.46zM15.588 39.216c-.008-.663.039-1.324.094-1.985.212 3.865.39 7.729.58 11.593.106 4.114.58 8.222.5 12.333l-.565-.581c-.143-.05-.432-.146-.576-.195-.06-7.054.003-14.111-.033-21.165z"/><path fill="#0F3057" d="M77.398 39.917c2.58-.085 5.163-.345 7.746-.329 1.801.209 2.671 2.467 1.702 3.925.055-.73-.22-1.37-.812-1.806-.4-.595-1.02-.99-1.763-.85-5.334.28-10.68.472-16.008.833-2.374-.09-4.73.307-7.102.283-1.567-.022-3.114.28-4.681.26-1.942-.041-3.864.296-5.805.282-1.565-.022-3.115.203-4.674.255-2.756-.03-5.49.384-8.25.318-.727.022-1.454.06-2.176.145-1.156.165-2.335.014-3.486.209-.336.257-.74.518-.743.992-.19.81.638 1.515 1.423 1.378 10.84-.51 21.684-1.022 32.523-1.603 4.77-.101 9.544-.017 14.317-.05 2.145.034 4.293-.065 6.436.07-.383.144-.763.339-1.182.328-17.363.871-34.723 1.691-52.085 2.557-1.702.225-3.233-1.642-2.63-3.25.314-1.107 1.429-1.765 2.536-1.823 2.429.03 4.847-.203 7.27-.31 12.483-.58 24.96-1.222 37.444-1.814zM.159 40.682c.36-.556 1.074-.085 1.374.299.418.485 1.324.992.848 1.74-.644.575-1.212-.269-1.655-.663-.328-.362-1.033-.847-.567-1.376zM5.005 42.228c.719-.683 1.317-2.07 2.503-1.705.405.992-.71 1.54-1.269 2.162-.424.57-1.06.03-1.234-.457zM1.48 45.64c.496-.422 1.27.134 1.008.742a13.502 13.502 0 01-1.481 1.486c-.45.468-1.35-.412-.87-.87.42-.479.878-.925 1.343-1.358zm-.05.512c-.084.376.064.523.453.45.085-.376-.064-.527-.452-.45zM5.32 45.612c.836-.42 1.316.543 1.855.99.372.268.67.934.182 1.238-.526.466-1.035-.246-1.39-.567-.408-.444-1.237-1.022-.648-1.66zM64.997 50.468c6.709-.32 13.409-.666 20.117-.973 1.385-.117 2.781 1.187 2.583 2.588-.501.753-.967 1.545-1.573 2.222-.743.31-1.602.214-2.395.263-9.09.466-18.184.864-27.271 1.349-1.766-.047-2.969-2.133-2.113-3.667.634-1.357 2.283-1.524 3.602-1.351.08.26.177.515.292.767 0-.236.006-.702.006-.934 2.253.032 4.502-.16 6.752-.264zm5.513 1.02l-.484.134c-2.228-.2-4.442.23-6.667.211-1.65-.038-3.277.272-4.924.258-.917.09-1.966-.233-2.732.438l-.003-.066c-.534.67-.421 1.815.488 2.08 1.776.14 3.547-.202 5.326-.109l.03.406c0-.124.003-.368.005-.491 7.471-.277 14.956-.203 22.436-.159.54-.036 1.112.132 1.633-.082.104-.03.31-.09.413-.123.135-.505.523-.875.774-1.321-.05-.321-.276-.557-.46-.8.118-.96-1.085-1.259-1.815-1.072-4.673.23-9.347.471-14.02.696zM43.727 51.603c1.002-.296 2.07-.142 3.103-.217 1.4-.098 2.628 1.278 2.487 2.642-.033 1.176-1.038 2.237-2.225 2.31-4.577.3-9.162.434-13.739.708-1.032.093-2.134-.43-2.57-1.395-.666-1.313.045-3.029 1.441-3.503-.005.48-.005.962-.06 1.442-.582.734-.386 1.987.65 2.154 4.69-.14 9.376-.463 14.066-.655.708-.005 1.06-.658 1.283-1.23l-.462.147c.718-.353.941-1.474.253-1.965-.452-.427-1.107-.34-1.677-.35-.851.016-1.705.005-2.55-.088zM110.823 56.369c.554-.29 1.278.318 1.107.901-.25.464-.512.962-.955 1.275-.589.18-1.294-.337-1.063-.973.231-.444.496-.913.911-1.203zM108.808 59.208c.465-.008 1.054.033 1.151.606.008.666-.543 1.123-.89 1.633-.369-.06-.84.055-1.055-.334-.327-.757.381-1.365.794-1.905zM73.683 59.997c2.426-.131 4.855-.219 7.278-.361.46-.085 1.063.161.975.72-.713 1.225-1.6 2.343-2.374 3.533-.28.386-.534.92-1.093.91-1.74.063-3.478.178-5.219.227-1.244.085-2.79.39-3.698-.707-1.253-1.195-.653-3.48.945-4.045 1.032-.304 2.126-.164 3.186-.277zm2.057 1.184c-1.688.2-3.437-.019-5.084.417l-.102-.006c-.319.496-.413 1.07-.43 1.65.268.22.51.526.89.546 1.584.178 3.159-.198 4.742-.17.851.016 1.702-.006 2.545-.124.385-.603.848-1.167 1.077-1.855.344.035.388-.422.52-.644-1.39-.017-2.77.164-4.158.186zm-4.348 3.333c.148.14.148.14 0 0zM15.621 60.397c.75.143.57.94.587 1.475l.451-.814c.416.795.248 1.707.325 2.565.565 10.79 1.038 21.582 1.63 32.371a72.206 72.206 0 00-1.324 0c-.526-10.855-1.05-21.71-1.605-32.566.008-1.01-.08-2.02-.064-3.03zM41.072 61.614c7.052-.375 14.108-.729 21.166-1.033 1.746-.285 3.307 1.718 2.586 3.322-.334 1.101-1.501 1.729-2.614 1.671-9.448.444-18.89.96-28.34 1.373-1.145.156-2.367-.542-2.709-1.658-.463-1.066.1-2.288.983-2.946.03.493.108.99.259 1.464-.033.471-.182 1 .143 1.411.446.6 1.259.452 1.911.45 9.396-.51 18.8-.908 28.197-1.406.908-.13 1.319-1.225.831-1.963-.399-.783-1.33-.633-2.06-.657-6.785.002-13.568-.011-20.353-.028zM106.627 62.3c.509-.568 1.619.021 1.321.778-.338.586-.773 1.556-1.616 1.164-.898-.498-.132-1.406.295-1.943zM105.032 64.829c.565-.25 1.272.441.953 1.008-.281.573-.832 1.546-1.597 1.086-.923-.532-.003-1.776.644-2.094zM102.802 67.791c.531-.416 1.341.069 1.264.716a2.893 2.893 0 01-.871 1.285c-.393.329-1.008.02-1.142-.42-.141-.638.402-1.117.749-1.58zM38.9 71.6c11.83-.446 23.657-1.164 35.488-1.657.922.562-.083 1.441-.44 2.03-.808 1-1.336 2.259-2.311 3.103-12.577.606-25.16 1.222-37.739 1.836-1.305-.058-2.492-1.258-2.37-2.584-.037-.664.338-1.247.696-1.77.664-.412 1.407-.744 2.206-.71a40.582 40.582 0 004.47-.247zm29.135-.057c-1.383.008-2.765.039-4.142.165-2.01.233-4.043.03-6.047.356-2.203.03-4.404.112-6.601.318-2.396-.104-4.767.312-7.16.282-1.76 0-3.5.326-5.257.271-1.559-.052-3.101.239-4.657.228-.636-.077-1.046.427-1.426.841-.064.8.479 1.746 1.396 1.612 10.459-.483 20.918-1.064 31.374-1.505l-.039-.005c1.688-.099 3.382-.146 5.07-.244.13-.022.388-.06.518-.08.691-.759 1.173-1.677 1.787-2.496-1.608.038-3.22.106-4.816.257zM100.929 70.617c.3-.244.688-.006.978.134.443.69-.191 1.373-.604 1.894-.581.474-1.382-.107-1.277-.79.223-.457.473-.94.903-1.238zM100.888 77.18c.369-.304.919-.128 1.217.195.63.609 1.291 1.2 1.839 1.891.32.724-.504 1.617-1.222 1.209-.747-.562-1.386-1.264-2.027-1.94-.38-.376-.267-1.097.193-1.354zM109.937 77.087c.757-.359 1.635.642 1.131 1.313-.583.745-1.297 1.39-2.002 2.017-.688.54-1.729-.367-1.327-1.137.639-.811 1.399-1.54 2.198-2.193zM42.391 81.45c1.24.014 2.561-.455 3.732.137 1.393.63 1.806 2.648.806 3.793-.677.864-1.855 1.06-2.894.984l.05-1.258c.738-.06 1.87-.016 2.043-.95.281-.763-.374-1.292-.95-1.637-.041-.057-.124-.17-.168-.227-.48-.984-1.713-.77-2.619-.842zM69.709 83.215c.716-.567 1.63-.096 2.25.387-.782-.055-2.032.07-2.063 1.088-.259 3.13-.553 6.262-.796 9.394.86.595 1.724 1.181 2.583 1.77 2.873-1.296 5.687-2.713 8.567-3.987-.173 1.31-1.553 1.573-2.577 1.99-2.192.899-4.381 1.8-6.579 2.683-.97-.663-1.941-1.327-2.919-1.979.193-3.535.65-7.054.832-10.59.234-.254.465-.506.702-.756zM34.176 86.8c-1.608-.134-2.649-2.012-1.977-3.45.309.276.65.523 1.063.608-.014.713.328 1.56 1.157 1.581 1.856-.04 3.71-.186 5.565-.238-.3.107-.6.224-.898.345.133.25.262.502.392.757l.104.21c-1.804-.024-3.602.222-5.406.187zM102.768 84.265c.816-.43 1.675.836.992 1.469-.625.652-1.245 1.32-1.944 1.89-.824.557-1.807-.695-1.143-1.386.677-.677 1.294-1.442 2.095-1.973zM107.678 84.714c.369-.274.81-.792 1.298-.419.724.534 1.327 1.225 1.957 1.87.543.465.229 1.449-.462 1.558-.402.13-.727-.153-.981-.41-.608-.59-1.2-1.193-1.784-1.807a69.91 69.91 0 00-.028-.792zM62.326 106.178c9.938-.446 19.871-.959 29.81-1.455-.011.436-.008.877-.008 1.316-7.67.361-15.34.704-23.003 1.131-8.702.039-17.404.028-26.103.006 5.119-.362 10.258-.493 15.382-.795 1.284.028 2.57-.288 3.847-.082.056.082.169.247.224.332l-.15-.453zM14.07 105.551c.893-.102 1.35.896 1.945 1.403.543.441-.196 1.395-.788 1.006a13.25 13.25 0 01-1.385-1.384c-.366-.318-.093-.814.229-1.025zM18.904 110.865c.804-.773 1.487.523 2.054.978.636.389.19 1.521-.559 1.225-.598-.537-1.308-1.039-1.666-1.77.041-.11.127-.326.17-.433zM71.345 112.616c.256-.104.52-.167.796-.189.597.496 1.184 1.027 1.646 1.655.223.65-.749 1.165-1.165.6-.534-.605-1.522-1.118-1.277-2.066zM77.574 112.827c.261-.34.848-.622 1.145-.167.427.364.053.83-.258 1.096-.573.499-1.022 1.365-1.92 1.118-.484-.918.499-1.461 1.033-2.047zM72.777 117.637c.424-.486 1.261.227.986.748-.482.57-1.036 1.08-1.598 1.57-.559.222-1.085-.425-.785-.924.433-.496.901-.964 1.397-1.394zM76.563 117.656l.546-.206a6.264 6.264 0 011.79 1.779c.165.784-.99 1.008-1.322.386-.468-.559-1.576-1.118-1.014-1.959z"/><path fill="#008891" d="M13.77 12.134c.576-.655 1.279-1.294 2.204-1.335 8.55-.055 17.104.055 25.654-.074 8.176.046 16.352.06 24.526.027.173.08.344.165.515.255.964-.361 2.01-.167 3.013-.203 3.354-.027 6.705-.005 10.056-.019.548.581.992 1.313.964 2.138-.71-.014-1.42-.017-2.129 0l-.107-.562c-3.164-.14-6.306.34-9.467.293v.099c-.086.052-.254.159-.34.211-1.153-.482-2.516.143-3.758-.082l.033-.102-.157.099c-.22.016-.656.055-.876.074-12.846-.099-25.696-.02-38.545-.047-1.377.006-2.754-.019-4.13.033-1.824 0-3.652-.071-5.472.028l-.108.244c-.085.696-.074 1.4-.058 2.102.009.44.009.88.003 1.323-.038 5.884 0 11.768-.02 17.652-.01.981.097 1.962.11 2.944-.054.66-.101 1.32-.093 1.984.036 7.054-.027 14.11.033 21.165v.016c-.016 1.012.072 2.02.064 3.032-.144.876-.122 1.764-.11 2.647.005 9.236-.003 18.468 0 27.701-.006.727.024 1.456.107 2.182.534.016 1.071.035 1.608.035.44-.002.881-.005 1.325 0 1.988.017 3.979.03 5.97-.016a8.166 8.166 0 00.143-1.677c-.027-2.544.022-5.09-.027-7.633.035-8.77.058-17.542-.009-26.312.061-12.102.011-24.204.034-36.31.217-.493.481-.967.762-1.43.653-.293 1.306-.682 2.05-.641 4.402-.033 8.806.046 13.206-.036 4.919.009 9.845.088 14.76-.035l.246-.08.157.055.151.055c3.712.057 7.427.022 11.14.016 4.513.041 9.027.047 13.537.008.245-1.296.124-2.62.152-3.93.198 1.015-.127 2.177.407 3.095.518.063 1.044.046 1.567.04.182.376.287.921.84.806 2.776.039 5.555-.019 8.333.025.815 1.707.383 3.637.584 5.454.19 1.685.143 3.384.28 5.072l-.547.27c-.223 1.559.06 3.14-.003 4.707.196.025.59.072.785.093.017.409.047.817.09 1.226-.834 1-.076 2.439-.936 3.433.006.212.02.636.025.85-.041.074-.126.225-.17.299.019-5.958.005-11.919-.006-17.88-.033-.43.044-.907-.184-1.299-.496-.208-1.052-.117-1.576-.159-.099-.413.03-1.112-.586-1.131-4.585.153-9.168.419-13.747.666-2.31-.058-4.6.34-6.907.298-1.914-.003-3.814.32-5.725.25-11.676-.132-23.355-.006-35.029-.063-.492.052-1.11-.126-1.487.28-.096.53-.066 1.073-.082 1.61-.515.036-1.03.091-1.542.138-.19.888-.083 1.795-.025 2.688.41 9.055.89 18.107 1.33 27.162.22 1.636.094 3.286.218 4.925a33.16 33.16 0 01.05 3.548c-.048 12.012.038 24.027-.04 36.041-.627-.369-1.36-.317-2.056-.279-.006-.68-.028-1.362-.171-2.028a55.164 55.164 0 00-1.165.003c-2.024-.022-4.051-.05-6.075.016-.63-.041-1.303-.194-1.903.077l-.113.118c-.603-12.58-1.275-25.178-1.848-37.768.058-13.977.033-27.956.017-41.933-.25-1.787.096-3.57-.017-5.36a6.01 6.01 0 01.298-1.184zM107.769 31.682c1.826-.811 4.026-.375 5.538.882 1.854 1.505 3.894 2.793 5.624 4.446.283.534.597 1.052.933 1.556.063.981.262 1.976.017 2.952-.284 1.414-1.328 2.466-2.157 3.582-.448.561-.809 1.208-1.399 1.641-2.09-1.754-4.348-3.302-6.485-4.998-2.241-1.722-4.472-3.46-6.826-5.024.173-.247.349-.493.528-.734 1.3-1.519 2.236-3.56 4.227-4.303zM101.212 38.944c4.018 2.96 7.942 6.049 11.944 9.033l.223-.219c-7.356 10.581-14.672 21.187-22.017 31.771-3.382 4.199-6.59 8.537-9.897 12.793-.598.702-1.027 1.644-1.936 1.995-4.299 1.749-8.581 3.538-12.869 5.311-.333.14-.663.277-.994.414-.322.132-.652.244-.983.348.43-4.697 1.209-9.364 1.751-14.053.119-.82.152-1.661.38-2.461.615-.9 1.201-1.826 1.873-2.683 1.096-1.176 2.019-2.494 3.005-3.758 2.541-3.373 5.218-6.645 7.666-10.088a7.04 7.04 0 00.113-.15l.113-.154c.991-1.077 1.815-2.288 2.729-3.425 6.287-8.236 12.662-16.405 18.899-24.674zm-.757 8.671c-2.178 2.947-4.458 5.819-6.543 8.825-.823.422-1.404 1.37-1.572 2.247-.802.455-1.303 1.332-1.785 2.094-.118.282-.721.608-.465.932a.505.505 0 00-.254.37c-.55.107-.732.617-1.024.997-2.376 3.201-4.852 6.331-7.13 9.603-1.46 1.625-2.66 3.467-4.01 5.183-.707 1.02-1.59 1.934-2.17 3.03.254.458.755.722 1.188.99.413.055.564-.386.801-.63.355.299.716-.028.914-.337 2.165-3.218 4.349-6.421 6.519-9.633 2.759-3.39 5.276-6.978 7.953-10.434 3.191-4.286 6.444-8.528 9.627-12.823.49-.622-.592-.95-.939-1.285l.041-.06c-.606-.09-.812.573-1.151.931zm3.729.19c-6.188 9.131-12.398 18.252-18.586 27.383-2.054 2.508-3.921 5.16-5.91 7.72-.16.29-.572.614-.335.976.32.332.705.603 1.118.814.449-.066.636-.537.933-.822l-.06-.039c1.126-1.397 2.172-2.853 3.255-4.28 1.327-1.922 2.9-3.667 4.155-5.638.017-.022.044-.066.06-.087l.23-.326c.407-.313.682-.749.983-1.157 5.364-7.093 10.698-14.213 16.06-21.308.17-.25.267-.529.292-.836a34.665 34.665 0 01-1.072-.65c.226-.33.43-.676.637-1.019-.488-.367-1.086-1.19-1.76-.731zM67.968 83.884c-.112.452-.09.926-.145 1.39-.188.323-.22.698-.265 1.063-.322 2.573-.694 5.141-1.038 7.714-.118.412.11.76.523.883l-.005.082c.906.685 1.814 1.37 2.71 2.07a9.234 9.234 0 001.346-.546c2.198-.883 4.387-1.784 6.579-2.683 1.024-.417 2.404-.68 2.577-1.99.224-1.126-.319-2.29-1.242-2.943-.73-.398-1.544-.395-2.346-.302-.14-.912-.432-1.841-1.209-2.411-.674-.28-1.633-.803-2.247-.222-.52-.732-.457-1.8-1.247-2.387-.62-.483-1.534-.954-2.25-.387l.284-.37c-.747.162-1.529.42-2.025 1.039z"/><path fill="#008891" d="M61.161 41.973c2.371.024 4.728-.373 7.102-.283 5.92.08 11.847.033 17.77.017.593.436.868 1.077.813 1.806-.273.233-.54.474-.802.715-2.142-.134-4.29-.035-6.435-.068-4.772.033-9.548-.052-14.317.049-9.845-.096-19.693-.014-29.538-.052.537-.57 1.174-1.06 1.997-1.069 2.76.066 5.494-.348 8.25-.318 1.559-.052 3.11-.277 4.674-.255 1.941.014 3.863-.323 5.805-.282 1.567.02 3.114-.282 4.681-.26zM39.4 51.696c1.444.014 2.881-.235 4.327-.093.845.093 1.699.104 2.55.088.57.01 1.225-.077 1.677.35.688.491.465 1.612-.254 1.965-.451.168-.941.138-1.412.151-4.222-.016-8.443.003-12.662-.008-.56.052-1.008-.304-1.462-.56.054-.479.054-.961.06-1.44.443-.22.879-.521 1.399-.464 1.925.011 3.85.006 5.778.011zM63.358 51.833c2.226.02 4.44-.41 6.667-.21 5.194.183 10.404-.004 15.6.09l.72.15c.184.244.41.48.46.8-.251.447-.64.817-.774 1.322-.102.032-.309.093-.413.123-3.93.036-7.863.041-11.792.033-3.038.05-6.078-.151-9.113.068-2.652-.142-5.309.022-7.96-.101-.786-.066-1.114-.89-1.05-1.579.765-.671 1.815-.348 2.732-.438 1.646.014 3.274-.296 4.923-.258zM70.554 61.592l.102.006c2.905.087 5.813-.006 8.721.04-.228.689-.69 1.253-1.076 1.856-.843.118-1.694.14-2.545.124-1.583-.028-3.158.348-4.742.17-.38-.02-.622-.327-.89-.546.017-.58.11-1.154.43-1.65zM32.144 62.343c.3-.362.697-.734 1.209-.699 2.572-.046 5.147.011 7.719-.03 6.785.017 13.568.03 20.353.028.73.024 1.66-.126 2.06.657.29.82-.322 1.815-1.233 1.762-9.27.044-18.54.003-27.809.02-.69.01-1.393-.011-2.04-.274a6.025 6.025 0 01-.259-1.464zM57.846 72.064c2.004-.326 4.037-.123 6.047-.356 1.377-.126 2.76-.157 4.142-.165 1.407.022 2.817.008 4.224.025-.543.784-1.13 1.535-1.713 2.294-1.688.098-3.382.145-5.07.244-10.905-.192-21.82.01-32.731-.102.38-.414.79-.918 1.426-.841 1.556.01 3.098-.28 4.657-.228 1.757.055 3.497-.27 5.257-.27 2.393.03 4.764-.387 7.16-.283 2.197-.206 4.398-.288 6.6-.318zM92.235 85.082c-.226-.727-.033-1.42.612-1.837.911.614.068 1.494-.612 1.837z"/><path fill="#008891" d="M92.874 85.375c.4-.406.843-.768 1.338-1.053 0 .716-.008 1.434-.016 2.149-.226.03-.452.063-.678.096l.339.63c.11-.164.223-.329.341-.488.04 5.183-.024 10.365.036 15.545.16 1.924.196 3.891-.31 5.771-2.215.009-4.41.362-6.63.288-3.015.241-6.036.272-9.054.504-2.398-.043-4.778.349-7.176.296-1.705.05-3.398.324-5.109.277l-.077.414a1.676 1.676 0 00-1.14-.474c-12.532-.003-25.065.038-37.595-.022-.182-.699-.143-1.428-.14-2.14.694.024 1.388.038 2.082.033.44-.003.88-.006 1.324-.003 4.203-.006 8.408.027 12.613-.022 8.699.022 17.401.033 26.103-.006 7.35.069 14.705.014 22.058.028.746.159 1.077-.526.945-1.159 0-.439-.003-.88.008-1.316.121-5.023-.008-10.052.066-15.078.253-1.44-.088-2.875.017-4.317.217.017.435.03.655.047zM24.717 101.495l.697-.055c.245 2.417.173 4.848.347 7.271-.766-.502-1.072-1.458-1.044-2.33 0-1.631.014-3.258 0-4.886zM81.55 11.073c.725.49 1.405 1.217 1.397 2.146.063 2.212.043 4.429.016 6.64-.157.006-.474.014-.63.02-.11-2.056-.248-4.109-.31-6.164-.027-.899-.106-1.812-.473-2.642zM13.537 89.33c.283 2.485.275 4.99.371 7.487-.192-.346-.426-.705-.393-1.119-.011-2.123-.011-4.247.022-6.369zM64.777 12.879l.157-.099-.033.102-.124-.003z"/><path fill="#0F3057" d="M15.753 12.967c1.82-.099 3.65-.028 5.472-.028-1.859.132-3.717.25-5.579.272l.107-.244zM104.184 47.805c.675-.458 1.272.364 1.76.731-.207.343-.411.688-.636 1.02-5.437 7.972-10.84 15.969-16.265 23.95l-.228.326c-.017.022-.044.065-.06.087-1.256 1.97-2.829 3.716-4.156 5.638-1.082 1.427-2.129 2.883-3.255 4.28-.336-.235-.705-.435-.953-.764.16-.59.584-1.055.909-1.56a3227.66 3227.66 0 004.299-6.325c6.187-9.131 12.397-18.252 18.585-27.383zm-.036 1.345c-.432.839.895.036 0 0zm-11.06 16.652c-.682.975-1.351 1.962-2.031 2.94-.251.3-.35.828-.805.87-.068.265-.17.517-.3.761-2.765 4.18-5.667 8.307-8.437 12.456.525-.496.928-1.102 1.28-1.724 4.97-7.383 10.035-14.706 14.959-22.119-1.63 2.214-3.123 4.536-4.665 6.816zM67.558 86.337c.044-.365.077-.74.264-1.064-.25 3.223-.54 6.44-.779 9.66-.413-.123-.642-.47-.523-.882.344-2.573.716-5.14 1.038-7.714zM73.206 85.989c.614-.581 1.573-.058 2.247.222-.895-.088-1.498.556-2.178.995-.124-.116-.372-.346-.498-.458.107-.192.322-.57.43-.76zM76.662 88.622c.802-.093 1.617-.096 2.346.302-.974-.335-1.605 1.523-2.387.52.088-.161.259-.482.347-.644a28.577 28.577 0 01-.306-.178zM17.337 98.184c2.024-.066 4.05-.038 6.075-.016-1.363.134-2.735.112-4.098.235-.672.063-1.35.041-1.977-.219z"/><path fill="#008891" d="M93.733 22.86v-.02c.185.51.427 1.015.463 1.563.058 2.3-.02 4.596-.02 6.895-.3-2.803-.272-5.626-.443-8.438zM26.444 27.335l.41-.065c-.058 1.713.017 3.428-.077 5.138-.11-1.69-.388-3.373-.333-5.073zM106.943 58.674a889.802 889.802 0 016.981-10.11c.168.235.711.342.598.704-2.751 3.58-5.494 7.167-8.237 10.751-.184.22-.385.425-.603.614.347-.699.779-1.348 1.261-1.96zM32.224 72.557c-.033-.715.79-1.055 1.393-.992 1.76.008 3.523-.013 5.282.036a40.58 40.58 0 01-4.47.246c-.798-.032-1.541.3-2.205.71zM32.2 83.35c-.141-.716.002-1.661.87-1.785 3.103-.161 6.218.064 9.321-.115.906.072 2.14-.142 2.62.842.283.846-.472 1.836-1.389 1.617-.443-.488-.95-.976-1.658-.973-.922-.203-1.693.408-2.33.984-2.125.013-4.246-.03-6.372.038-.413-.085-.754-.332-1.063-.608z"/><path fill="#0F3057" d="M52.393 25.06c.146.149.146.149 0 0z"/><path fill="#008891" d="M92.35 32.79l.549-.27.044.387c.124 1.56.162 3.121.19 4.684a80.64 80.64 0 01-.785-.094c.063-1.567-.22-3.148.003-4.708zM32.684 42.041c.303-.34.78-.337 1.198-.334 2.021.085 4.048-.003 6.072.024-2.423.107-4.841.34-7.27.31zM35.575 43.233a25.035 25.035 0 012.176-.145c-.823.008-1.46.499-1.997 1.069l-.145.005-.034-.929zM92.871 82.527c.446.318.892.636 1.344.951 0 .28 0 .562-.003.844a6.287 6.287 0 00-1.338 1.053c-.22-.017-.438-.03-.655-.047-.105 1.442.236 2.878-.017 4.317-.074 5.026.055 10.055-.066 15.078-.074-7.046.096-14.103-.096-21.14.264-.36.548-.708.831-1.056zm-.636 2.555c.68-.343 1.523-1.223.611-1.837-.644.417-.837 1.11-.61 1.837z"/><path fill="#0F3057" d="M92.943 32.907c.424.184.848.373 1.275.559.193 2.436.2 4.876.385 7.31-.404.3-.81.6-1.184.934-.03-.968-.066-1.935-.195-2.894a18.283 18.283 0 01-.091-1.225c-.028-1.563-.066-3.125-.19-4.684zM89.594 34.373a37.19 37.19 0 011.215-1.25c.074 1.335.11 2.672.198 4.007a5.518 5.518 0 01-1.358-.956 17.06 17.06 0 00-.055-1.8zM39.984 85.3c1.369-.049 2.732-.128 4.1-.194l-.049 1.258c-1.487.058-2.977.123-4.461.217l-.096-.178c-.13-.255-.26-.508-.392-.757.298-.12.598-.238.898-.345zM99.951 36.19c.46.014.78.398 1.154.617 4.486 3.091 8.978 6.174 13.477 9.244.251.186.755.402.496.8-.347.595-.777 1.137-1.154 1.713a889.802 889.802 0 00-6.981 10.11c-.482.61-.914 1.26-1.261 1.96-2.875 3.893-5.596 7.906-8.355 11.885-4.9 7.087-9.823 14.158-14.716 21.247-.174.296-.507.42-.796.568-4.784 2.25-9.553 4.524-14.334 6.774-.782.565-1.8-.197-1.815-1.066l.995-.414c-.003.198-.006.595-.006.792 4.894-2.118 9.658-4.54 14.504-6.772.785-.263 1.143-1.05 1.59-1.674 2.866-4.152 5.755-8.287 8.613-12.445 7.345-10.584 14.662-21.19 22.017-31.771.229-.329.449-.666.666-1.003-4.645-3.127-9.252-6.306-13.854-9.49-6.876 9.92-13.766 19.833-20.607 29.778l-.113.154a7.04 7.04 0 01-.113.15c-2.448 3.443-5.124 6.715-7.666 10.088-.986 1.264-1.909 2.582-3.005 3.758 10.049-14.616 20.194-29.168 30.276-43.764.308-.425.548-.927.988-1.239z"/><path fill="#0F3057" d="M100.455 47.615c.339-.358.546-1.022 1.151-.931l-.041.06c-5.53 8.191-11.095 16.358-16.641 24.542-2.17 3.212-4.354 6.415-6.519 9.633-.198.31-.559.636-.914.337-.314-.305-1.19-.546-.848-1.11 1.627-2.522 3.357-4.977 5.04-7.463 2.277-3.272 4.753-6.402 7.13-9.603.291-.38.473-.89 1.023-.997-1.252 2.29-2.897 4.346-4.317 6.536-2.603 3.914-5.343 7.742-7.854 11.71 4.216-6.12 8.33-12.316 12.557-18.427-.033-.05-.1-.142-.132-.19-.256-.323.347-.649.465-.93l-.005.572c.707-.809 1.374-1.672 1.79-2.667.622-.677 1.104-1.46 1.572-2.247 2.085-3.006 4.365-5.878 6.543-8.825z"/><path fill="#008891" d="M93.224 38.816c.13.959.165 1.926.195 2.894-.39.444-.76.91-1.107 1.39-.005-.215-.019-.64-.025-.85.86-.995.102-2.434.937-3.434zM32.09 43.442c1.15-.195 2.329-.044 3.485-.209l.033.93c-1.192-.07-2.687.405-3.519-.721z"/><path fill="#0F3057" d="M1.43 46.152c.39-.077.538.074.453.45-.389.074-.537-.074-.452-.45zM104.148 49.15c.895.036-.432.839 0 0z"/><path fill="#008891" d="M92.34 58.687c.168-.877.749-1.825 1.572-2.247-.468.787-.95 1.57-1.572 2.247z"/><path fill="#0F3057" d="M12.43 57.103c.38-.087.537.063.468.444-.38.083-.537-.066-.468-.444zM90.555 60.781c.482-.762.983-1.639 1.785-2.094-.416.995-1.083 1.858-1.79 2.667l.005-.573zM13.019 64.44c.33.17.306.359-.08.567-.333-.17-.309-.359.08-.567zM71.392 64.514c.148.14.148.14 0 0z"/><path fill="#008891" d="M79.358 67.347z"/><path fill="#0F3057" d="M27.903 72.401c.383-.066.529.09.44.469-.382.065-.528-.09-.44-.469z"/><path fill="#008891" d="M88.754 73.92c.017-.023.044-.067.06-.088-.016.022-.043.065-.06.087z"/><path fill="#FFFFFE" d="M79.689 82.908c1.988-2.56 3.855-5.212 5.91-7.72-1.43 2.11-2.865 4.218-4.3 6.325-.324.505-.748.97-.908 1.56.248.329.617.529.953.764l.06.039c-.297.285-.484.756-.933.822a4.207 4.207 0 01-1.118-.814c-.237-.362.176-.685.336-.976z"/><path fill="#FEFFFE" d="M81.465 92.322c3.307-4.256 6.516-8.594 9.897-12.793-2.858 4.158-5.747 8.293-8.614 12.445-.446.625-.804 1.411-1.589 1.674-4.846 2.231-9.61 4.654-14.504 6.772 0-.197.003-.594.005-.792 4.288-1.773 8.57-3.562 12.87-5.31.908-.352 1.338-1.294 1.935-1.996z"/><path fill="#008891" d="M92.871 82.527c.435-.548.86-1.104 1.294-1.65-.024.867.025 1.735.05 2.601-.452-.315-.898-.633-1.344-.95zM39.635 83.92c.636-.576 1.407-1.187 2.33-.984.707-.003 1.214.485 1.657.973-1.33-.066-2.66-.041-3.987.01z"/><path fill="#0F3057" d="M18.675 107.212c.548-.571 1.055-1.19 1.694-1.659.537-.216.977.294.906.806-.468.644-1.041 1.25-1.716 1.683-.55.079-.787-.392-.884-.83zM15.285 110.61c.543-.176 1.107.397.854.934-.465.521-.945 1.044-1.504 1.472-.479.392-1.211-.359-.892-.858.424-.592.978-1.088 1.542-1.548z"/></svg>