<svg width="24" height="24" viewBox="0 0 24 24" xmlns="http://www.w3.org/2000/svg"><title>C0A1747D-E745-4B52-9B01-102AC9FBAD3A</title><g fill="none" fill-rule="evenodd"><path d="M13.498 19.292l3.207 3.208 4.795-4.794-3.208-3.208-4.794 4.794zM12.254 19.122L20 11.377V.5a.5.5 0 0 0-.5-.5H17v4h-2V0h-2v4h-2V0H9v4H7V0H5v4H3V0H.5a.5.5 0 0 0-.5.5v20a.5.5 0 0 0 .5.5h11.152l.475-1.661a.503.503 0 0 1 .127-.217zM12.017 23.362a.498.498 0 0 0 .616.618l3.219-.92-2.916-2.916-.919 3.218zM23.854 14.644l-2.5-2.5a.5.5 0 0 0-.707 0L19 13.791l3.207 3.207 1.646-1.646a.5.5 0 0 0 .001-.708z" fill="#4A4A4A" fill-rule="nonzero"/><path d="M0 0h24v24H0z"/></g></svg>