<svg xmlns="http://www.w3.org/2000/svg" width="48" height="48" viewBox="0 0 48 48">
    <g fill="none" fill-rule="evenodd">
        <path fill="#C6C6C6" fill-rule="nonzero" d="M26.996 38.584L33.41 45 43 35.412l-6.416-6.416-9.588 9.588zM24.508 38.244L40 22.754V1a1 1 0 0 0-1-1h-5v8h-4V0h-4v8h-4V0h-4v8h-4V0h-4v8H6V0H1a1 1 0 0 0-1 1v40a1 1 0 0 0 1 1h22.304l.95-3.322c.046-.164.134-.312.254-.434zM24.034 46.724a.996.996 0 0 0 1.232 1.236l6.438-1.84-5.832-5.832-1.838 6.436zM47.708 29.288l-5-5a1 1 0 0 0-1.414 0L38 27.582l6.414 6.414 3.292-3.292a1.001 1.001 0 0 0 .002-1.416z"/>
        <path d="M0 0h48v48H0z"/>
    </g>
</svg>
