<svg xmlns="http://www.w3.org/2000/svg" width="68" height="42" viewBox="0 0 68 42">
    <path fill="#8DA2B5" fill-rule="nonzero" d="M54.325 15.976c-.972 0-1.869.15-2.765.299C50.44 7.35 42.818.375 33.626.375s-16.813 6.9-17.934 15.9c-.896-.226-1.792-.3-2.764-.3C5.753 15.976 0 21.827 0 28.952 0 36.078 5.753 42 12.928 42h15.467v-8.774c0-.976-2.317-.976-3.286-.976H19.58c-1.494 0-2.318-2.174-1.27-3.299l13.9-15.899c.672-.75 1.869-.826 2.616-.076l13.9 15.976c.973 1.125.225 3.225-1.27 3.225h-5.528c-.972 0-3.065 0-3.065.976L38.858 42h15.467c7.175 0 12.928-5.851 12.928-13.049 0-7.201-5.753-12.976-12.928-12.976z"/>
</svg>
