<svg xmlns="http://www.w3.org/2000/svg" width="96" height="96" viewBox="0 0 96 96">
    <g fill="none" fill-rule="evenodd" stroke="#000" stroke-linecap="round" stroke-linejoin="round" stroke-width="4">
        <path d="M14 42c0 19.884 14.116 32 34 32s34-12.116 34-32v-4C82 18.116 67.884 2 48 2S14 18.116 14 38v4z"/>
        <path fill="#B2B2B2" d="M74 40c0 14.36-11.64 18-26 18s-26-3.64-26-18 11.64-26 26-26 26 11.64 26 26z"/>
        <path d="M32.72 35.248a16.064 16.064 0 0 1 10.4-10.492M94 94v-4a16 16 0 0 0-10.4-14.98l-16.66-5.6M29.044 69.428L12.4 75.02A16 16 0 0 0 2 90v4M90 70V30c0-8.837-7.163-16-16-16h-.28M22.28 14H22c-8.837 0-16 7.163-16 16v40"/>
        <path fill="#BD10E0" d="M32 94a2 2 0 0 1-2-2v-6a4 4 0 0 1 4-4h28a4 4 0 0 1 4 4v6a2 2 0 0 1-2 2H32z"/>
        <path d="M50 82v12M74 90h8M14 94h8M18 86h4"/>
    </g>
</svg>
