<svg xmlns="http://www.w3.org/2000/svg" width="24" height="24" viewBox="0 0 24 24">
    <g fill="none" fill-rule="evenodd">
        <path fill="#000" fill-rule="nonzero" d="M24 14.298c-.003 1.742-.972 3.333-2.5 4.107v.488c0 2.406-1.852 4.086-4.5 4.086h-1.78a1.983 1.983 0 0 1-2.25.951 2.036 2.036 0 0 1-1.482-1.973c0-.924.608-1.733 1.483-1.973a1.983 1.983 0 0 1 2.25.952h1.778c1.21 0 2.5-.537 2.5-2.043v-.582a1.54 1.54 0 0 1-.5-1.123V9.191c0-3.948-3.134-7.148-7-7.148-3.867 0-7.002 3.2-7.002 7.148v7.997c0 .497-.236.964-.634 1.25-.397.288-.907.36-1.366.194C1.201 17.982 0 16.247 0 14.3c0-1.946 1.2-3.681 2.997-4.331V9.19C2.997 4.115 7.027 0 11.998 0 16.97 0 21 4.115 21 9.191v.778c1.798.647 3 2.382 3 4.329zm-12.002 4.086c-.69 0-1.25-.572-1.25-1.277s.56-1.276 1.25-1.276 1.25.571 1.25 1.276c0 .705-.56 1.277-1.25 1.277zm-2.5-7.66c-.69 0-1.25-.572-1.25-1.276.001-1.913 1.384-3.53 3.239-3.792 1.855-.26 3.614.916 4.122 2.757.507 1.84-.393 3.781-2.11 4.547a.426.426 0 0 0-.25.391v.567c0 .705-.56 1.276-1.25 1.276s-1.25-.571-1.25-1.276v-.567c0-1.184.687-2.255 1.75-2.73.571-.255.871-.9.703-1.514a1.25 1.25 0 0 0-1.372-.92 1.268 1.268 0 0 0-1.082 1.26c0 .705-.56 1.276-1.25 1.276z"/>
    </g>
</svg>
