<svg xmlns="http://www.w3.org/2000/svg" width="24" height="24" viewBox="0 0 1024 1024">
  <path d="M221.7 634.5h-40c-13.5 0-27.3 1-40.7-.2 2.7.4 5.3.7 8 1.1-2.3-.3-4.3-.9-6.5-1.7l7.2 3c-1.2-.5-2.3-1.2-3.5-1.8-4.5-2.2 5.8 5.4 1.5 1.1-4.1-4.1 2.5 4.6 1.4 2-.6-1.4-1.5-2.7-2.1-4.1l3 7.2c-.8-2.1-1.3-4.2-1.7-6.5.4 2.7.7 5.3 1.1 8-.6-7.5-.2-15.3-.2-22.8v-50.3-113c0-9.3-.6-18.8.2-28-.4 2.7-.7 5.3-1.1 8 .3-2.3.9-4.3 1.7-6.5l-3 7.2c.5-1.2 1.2-2.3 1.8-3.5 2.2-4.5-5.4 5.8-1.1 1.5 4.1-4.1-4.6 2.5-2 1.4 1.4-.6 2.7-1.5 4.1-2.1l-7.2 3c2.1-.8 4.2-1.3 6.5-1.7-2.7.4-5.3.7-8 1.1 13.8-1.2 28-.2 41.7-.2 13.8 0 28-1 41.7.2-2.7-.4-5.3-.7-8-1.1 2.3.3 4.3.9 6.5 1.7l-7.2-3c1.2.5 2.3 1.2 3.5 1.8 4.5 2.2-5.8-5.4-1.5-1.1 4.1 4.1-2.5-4.6-1.4-2 .6 1.4 1.5 2.7 2.1 4.1l-3-7.2c.8 2.1 1.3 4.2 1.7 6.5-.4-2.7-.7-5.3-1.1-8 .6 7.5.2 15.3.2 22.8v163.3c0 9.3.6 18.8-.2 28 .4-2.7.7-5.3 1.1-8-.3 2.3-.9 4.3-1.7 6.5l3-7.2c-.5 1.2-1.2 2.3-1.8 3.5-2.2 4.5 5.4-5.8 1.1-1.5-4.1 4.1 4.6-2.5 2-1.4-1.4.6-2.7 1.5-4.1 2.1l7.2-3c-2.1.8-4.2 1.3-6.5 1.7 2.7-.4 5.3-.7 8-1.1-.9.1-1.8.2-2.7.2-15.7.4-30.7 13.5-30 30 .7 15.9 13.2 30.5 30 30 30.7-.9 54.3-25.1 54.5-55.8V618v-86.9-82.8c0-5.6.1-11.2 0-16.8-.7-30.6-24.9-54.5-55.6-54.8-24.9-.2-49.8 0-74.6 0-31.1 0-56 23.2-56.8 54.6-.1 4.9 0 9.9 0 14.8V637.9c.1 25.4 16.5 50 42.5 55.1 12 2.4 24.7 1.4 36.9 1.4h53.2c15.7 0 30.7-13.8 30-30-.8-16.2-13.3-29.9-30.1-29.9zM880.3 634.5h-39.5c-13.3 0-27 1-40.3-.2 2.7.4 5.3.7 8 1.1-2.3-.3-4.3-.9-6.5-1.7l7.2 3c-1.2-.5-2.3-1.2-3.5-1.8-4.5-2.2 5.8 5.4 1.5 1.1-4.1-4.1 2.5 4.6 1.4 2-.6-1.4-1.5-2.7-2.1-4.1l3 7.2c-.8-2.1-1.3-4.2-1.7-6.5.4 2.7.7 5.3 1.1 8-.6-7.5-.2-15.3-.2-22.8v-50.3-113c0-9.3-.6-18.8.2-28-.4 2.7-.7 5.3-1.1 8 .3-2.3.9-4.3 1.7-6.5l-3 7.2c.5-1.2 1.2-2.3 1.8-3.5 2.2-4.5-5.4 5.8-1.1 1.5 4.1-4.1-4.6 2.5-2 1.4 1.4-.6 2.7-1.5 4.1-2.1l-7.2 3c2.1-.8 4.2-1.3 6.5-1.7-2.7.4-5.3.7-8 1.1 13.6-1.2 27.6-.2 41.3-.2 13.6 0 27.7-1 41.3.2-2.7-.4-5.3-.7-8-1.1 2.3.3 4.3.9 6.5 1.7l-7.2-3c1.2.5 2.3 1.2 3.5 1.8 4.5 2.2-5.8-5.4-1.5-1.1 4.1 4.1-2.5-4.6-1.4-2 .6 1.4 1.5 2.7 2.1 4.1l-3-7.2c.8 2.1 1.3 4.2 1.7 6.5-.4-2.7-.7-5.3-1.1-8 .6 7.5.2 15.3.2 22.8v163.3c0 9.3.6 18.8-.2 28 .4-2.7.7-5.3 1.1-8-.3 2.3-.9 4.3-1.7 6.5l3-7.2c-.5 1.2-1.2 2.3-1.8 3.5-2.2 4.5 5.4-5.8 1.1-1.5-4.1 4.1 4.6-2.5 2-1.4-1.4.6-2.7 1.5-4.1 2.1l7.2-3c-2.1.8-4.2 1.3-6.5 1.7 2.7-.4 5.3-.7 8-1.1-1 .1-1.9.2-2.8.2-15.7.4-30.7 13.5-30 30 .7 15.9 13.2 30.5 30 30 30.7-.9 54.3-25.1 54.5-55.8V618v-85.9-83.8c0-5.6.1-11.2 0-16.8-.6-30.6-24.7-54.6-55.3-54.8-24.6-.2-49.3 0-73.9 0-31.1 0-56.1 23.1-56.8 54.6-.1 4.9 0 9.9 0 14.8v191.6c0 25 15.8 49.3 41.1 55.1 12 2.7 25.1 1.7 37.3 1.7h53.1c15.7 0 30.7-13.8 30-30-.8-16.3-13.2-30-30-30zM534.1 844.1h-24.6c-8.8 0-17.8.6-26.6-.5 2.7.4 5.3.7 8 1.1-4.5-.7-8.8-1.8-12.9-3.5l7.2 3c-2.8-1.2-5.6-2.6-8.2-4.3-6.1-4 4.4 4.1.8.8-1.1-1-2.3-2-3.4-3.1s-2.1-2.2-3.1-3.4c-3.4-3.8 4.3 6.8 1.2 1.3-1.7-2.9-3.3-5.6-4.7-8.7l3 7.2c-1.7-4.2-2.8-8.5-3.5-12.9.4 2.7.7 5.3 1.1 8-.6-4.6-.6-9.2 0-13.8-.4 2.7-.7 5.3-1.1 8 .7-4.5 1.8-8.8 3.5-12.9l-3 7.2c1.2-2.8 2.6-5.6 4.3-8.2 4-6.1-4.1 4.4-.8.8 1-1.1 2-2.3 3.1-3.4s2.2-2.1 3.4-3.1c3.8-3.4-6.8 4.3-1.3 1.2 2.9-1.7 5.6-3.3 8.7-4.7l-7.2 3c4.2-1.7 8.5-2.8 12.9-3.5-2.7.4-5.3.7-8 1.1 9.5-1.2 19.4-.5 29-.5 9.6 0 19.5-.7 29 .5-2.7-.4-5.3-.7-8-1.1 4.5.7 8.8 1.8 12.9 3.5l-7.2-3c2.8 1.2 5.6 2.6 8.2 4.3 6.1 4-4.4-4.1-.8-.8 1.1 1 2.3 2 3.4 3.1s2.1 2.2 3.1 3.4c3.4 3.8-4.3-6.8-1.2-1.3 1.7 2.9 3.3 5.6 4.7 8.7l-3-7.2c1.7 4.2 2.8 8.5 3.5 12.9-.4-2.7-.7-5.3-1.1-8 .6 4.6.6 9.2 0 13.8.4-2.7.7-5.3 1.1-8-.7 4.5-1.8 8.8-3.5 12.9l3-7.2c-1.2 2.8-2.6 5.6-4.3 8.2-4 6.1 4.1-4.4.8-.8-1 1.1-2 2.3-3.1 3.4s-2.2 2.1-3.4 3.1c-3.8 3.4 6.8-4.3 1.3-1.2-2.9 1.7-5.6 3.3-8.7 4.7l7.2-3c-4.2 1.7-8.5 2.8-12.9 3.5 2.7-.4 5.3-.7 8-1.1-2.2.3-4.5.5-6.8.5-15.7.2-30.7 13.6-30 30 .7 16.1 13.2 30.2 30 30 27.4-.4 51.3-13.6 67.3-35.5 14-19.1 17.9-45.2 11.7-67.9-6.6-24.3-24.6-44.1-47.6-53.9-14.1-5.9-28.5-6.6-43.5-6.6-10.5 0-21-.1-31.5 0-22.1.1-44.1 8.8-59.5 25-18.6 19.6-25.7 45.4-21.6 71.8 3.6 23.2 19.3 44.4 39.5 56.1 25.6 14.7 56.8 11 85.2 11 15.7 0 30.7-13.8 30-30-.7-16.2-13.2-30-30-30z"/>
  <path d="M586 852.1h121c11.6 0 23.3-.6 34.4-4.3 23.2-7.7 43.8-23.7 55.3-45.5 7.5-14.4 11.4-29.9 11.5-46.1V745 619.4v-153c0-38.1 1.1-75.7-6.8-113.3-16.5-78-66.8-147-134.1-189-69.1-43.1-155.6-55.3-234-33.5-76.7 21.3-143.7 74.5-181.5 144.6-19.9 36.8-31.5 76.9-35 118.6-1.4 16.6-.9 33.3-.9 49.9V597c0 15.7 13.8 30.7 30 30 16.3-.7 30-13.2 30-30v-70.6-99.3c0-15.3.3-30.4 2.3-45.6-.4 2.7-.7 5.3-1.1 8 3.1-23.3 9.3-46 18.3-67.7l-3 7.2c5.2-12.2 11.2-24.1 18.1-35.4 3.6-5.8 7.3-11.5 11.3-17.1.9-1.2 1.8-2.5 2.7-3.7.4-.5 1.1-1.8 1.6-2.1.5-.3-4.5 5.8-2.7 3.5 2.2-2.7 4.4-5.5 6.7-8.2 8.5-10.1 17.7-19.5 27.6-28.2 2.5-2.2 5-4.3 7.5-6.4 1.2-1 2.4-1.9 3.6-2.9 4.6-3.7-5.6 4.2-.8.7 5.5-4.1 11.1-8 16.8-11.6 12.7-8.1 26.1-15.1 39.9-20.9l-7.2 3c21.7-9.1 44.4-15.2 67.7-18.3-2.7.4-5.3.7-8 1.1 23.1-3 46.4-3 69.5 0-2.7-.4-5.3-.7-8-1.1 23.3 3.1 46 9.3 67.7 18.3l-7.2-3c12.2 5.2 24.1 11.2 35.4 18.1 5.8 3.6 11.5 7.3 17.1 11.3 1.2.9 2.5 1.8 3.7 2.7.5.4 1.8 1.1 2.1 1.6.3.5-5.8-4.5-3.5-2.7 2.7 2.2 5.5 4.4 8.2 6.7 10.1 8.5 19.5 17.7 28.2 27.6 2.2 2.5 4.3 5 6.4 7.5 1 1.2 1.9 2.4 2.9 3.6 3.7 4.6-4.2-5.6-.7-.8 4.1 5.5 8 11.1 11.6 16.8 8.1 12.7 15.1 26.1 20.9 39.9l-3-7.2c9.1 21.7 15.2 44.4 18.3 67.7-.4-2.7-.7-5.3-1.1-8 2.5 19.2 2.3 38.4 2.3 57.7v275.6c0 14.1.1 28.2 0 42.3 0 2.9-.2 5.7-.5 8.5.4-2.7.7-5.3 1.1-8-.8 5.8-2.3 11.4-4.6 16.9l3-7.2c-1.6 3.6-3.4 7.2-5.6 10.5-.5.7-1 1.4-1.5 2.2-2.6 3.9 4.2-5 1.9-2.4-1.4 1.4-2.6 3-4 4.4-1.2 1.2-2.6 2.4-3.9 3.6-3.7 3.5 5-3.5 2.5-1.8-.7.5-1.4 1-2.2 1.5-3.5 2.4-7.2 4.3-11 6l7.2-3c-5.4 2.2-11.1 3.8-16.9 4.6 2.7-.4 5.3-.7 8-1.1-15.7 1.9-32.2.5-48 .5h-87.6c-15.7 0-30.7 13.8-30 30 .9 16.1 13.3 29.8 30.1 29.8z"/>
</svg>
