<svg xmlns="http://www.w3.org/2000/svg" xmlns:xlink="http://www.w3.org/1999/xlink" preserveAspectRatio="xMidYMid" width="550" height="726" viewBox="0 0 550 726">
  <defs>
    <style>
      .cls-1, .cls-3 {
        fill: #f0f3f6;
      }

      .cls-1 {
        opacity: 0.5;
      }

      .cls-2 {
        fill: #eee;
      }

      .cls-3, .cls-4 {
        fill-rule: evenodd;
      }

      .cls-4 {
        fill: #eaeff4;
      }

      .cls-5 {
        fill: #f7f8fa;
      }
    </style>
  </defs>
  <rect x="49" y="128" width="500" height="200" rx="3" ry="3" class="cls-1"/>
  <circle cx="20.063" cy="20" r="20.063" class="cls-2"/>
  <path d="M55.000,53.000 L545.000,53.000 C547.761,53.000 550.000,55.239 550.000,58.000 C550.000,60.761 547.761,63.000 545.000,63.000 L55.000,63.000 C52.239,63.000 50.000,60.761 50.000,58.000 C50.000,55.239 52.239,53.000 55.000,53.000 Z" class="cls-3"/>
  <path d="M55.000,29.000 L545.000,29.000 C547.761,29.000 550.000,31.239 550.000,34.000 C550.000,36.761 547.761,39.000 545.000,39.000 L55.000,39.000 C52.239,39.000 50.000,36.761 50.000,34.000 C50.000,31.239 52.239,29.000 55.000,29.000 Z" class="cls-3"/>
  <path d="M55.000,8.000 L121.000,8.000 C123.761,8.000 126.000,10.239 126.000,13.000 C126.000,15.761 123.761,18.000 121.000,18.000 L55.000,18.000 C52.239,18.000 50.000,15.761 50.000,13.000 C50.000,10.239 52.239,8.000 55.000,8.000 Z" class="cls-4"/>
  <circle cx="20.063" cy="477" r="20.063" class="cls-2"/>
  <path d="M55.000,510.000 L545.000,510.000 C547.761,510.000 550.000,512.239 550.000,515.000 C550.000,517.761 547.761,520.000 545.000,520.000 L55.000,520.000 C52.239,520.000 50.000,517.761 50.000,515.000 C50.000,512.239 52.239,510.000 55.000,510.000 Z" class="cls-3"/>
  <path d="M55.000,486.000 L545.000,486.000 C547.761,486.000 550.000,488.239 550.000,491.000 C550.000,493.761 547.761,496.000 545.000,496.000 L55.000,496.000 C52.239,496.000 50.000,493.761 50.000,491.000 C50.000,488.239 52.239,486.000 55.000,486.000 Z" class="cls-3"/>
  <path d="M55.000,465.000 L121.000,465.000 C123.761,465.000 126.000,467.239 126.000,470.000 C126.000,472.761 123.761,475.000 121.000,475.000 L55.000,475.000 C52.239,475.000 50.000,472.761 50.000,470.000 C50.000,467.239 52.239,465.000 55.000,465.000 Z" class="cls-4"/>
  <circle cx="20.063" cy="100" r="20.063" class="cls-2"/>
  <path d="M55.000,109.000 L305.000,109.000 C307.761,109.000 310.000,111.239 310.000,114.000 C310.000,116.761 307.761,119.000 305.000,119.000 L55.000,119.000 C52.239,119.000 50.000,116.761 50.000,114.000 C50.000,111.239 52.239,109.000 55.000,109.000 Z" class="cls-3"/>
  <path d="M55.000,88.000 L121.000,88.000 C123.761,88.000 126.000,90.239 126.000,93.000 C126.000,95.761 123.761,98.000 121.000,98.000 L55.000,98.000 C52.239,98.000 50.000,95.761 50.000,93.000 C50.000,90.239 52.239,88.000 55.000,88.000 Z" class="cls-4"/>
  <circle cx="20.063" cy="686" r="20.063" class="cls-2"/>
  <path d="M55.000,695.000 L305.000,695.000 C307.761,695.000 310.000,697.239 310.000,700.000 C310.000,702.761 307.761,705.000 305.000,705.000 L55.000,705.000 C52.239,705.000 50.000,702.761 50.000,700.000 C50.000,697.239 52.239,695.000 55.000,695.000 Z" class="cls-3"/>
  <path d="M55.000,674.000 L121.000,674.000 C123.761,674.000 126.000,676.239 126.000,679.000 C126.000,681.761 123.761,684.000 121.000,684.000 L55.000,684.000 C52.239,684.000 50.000,681.761 50.000,679.000 C50.000,676.239 52.239,674.000 55.000,674.000 Z" class="cls-4"/>
  <circle cx="20.063" cy="560" r="20.063" class="cls-2"/>
  <path d="M55.000,569.000 L305.000,569.000 C307.761,569.000 310.000,571.239 310.000,574.000 C310.000,576.761 307.761,579.000 305.000,579.000 L55.000,579.000 C52.239,579.000 50.000,576.761 50.000,574.000 C50.000,571.239 52.239,569.000 55.000,569.000 Z" class="cls-3"/>
  <path d="M125.000,640.000 L345.000,640.000 C347.761,640.000 350.000,642.239 350.000,645.000 C350.000,647.761 347.761,650.000 345.000,650.000 L125.000,650.000 C122.239,650.000 120.000,647.761 120.000,645.000 C120.000,642.239 122.239,640.000 125.000,640.000 Z" class="cls-3"/>
  <path d="M55.000,548.000 L121.000,548.000 C123.761,548.000 126.000,550.239 126.000,553.000 C126.000,555.761 123.761,558.000 121.000,558.000 L55.000,558.000 C52.239,558.000 50.000,555.761 50.000,553.000 C50.000,550.239 52.239,548.000 55.000,548.000 Z" class="cls-4"/>
  <rect x="50" y="592" width="60" height="60" rx="6" ry="6" class="cls-5"/>
  <path d="M125.000,621.000 L193.000,621.000 C195.761,621.000 198.000,623.239 198.000,626.000 C198.000,628.761 195.761,631.000 193.000,631.000 L125.000,631.000 C122.239,631.000 120.000,628.761 120.000,626.000 C120.000,623.239 122.239,621.000 125.000,621.000 Z" class="cls-4"/>
  <path d="M127.000,596.000 L191.000,596.000 C194.866,596.000 198.000,599.134 198.000,603.000 C198.000,606.866 194.866,610.000 191.000,610.000 L127.000,610.000 C123.134,610.000 120.000,606.866 120.000,603.000 C120.000,599.134 123.134,596.000 127.000,596.000 Z" class="cls-4"/>
  <path d="M55.000,364.000 L325.000,364.000 C327.761,364.000 330.000,366.239 330.000,369.000 C330.000,371.761 327.761,374.000 325.000,374.000 L55.000,374.000 C52.239,374.000 50.000,371.761 50.000,369.000 C50.000,366.239 52.239,364.000 55.000,364.000 Z" class="cls-3"/>
  <path d="M55.000,394.000 L485.000,394.000 C487.761,394.000 490.000,396.239 490.000,399.000 C490.000,401.761 487.761,404.000 485.000,404.000 L55.000,404.000 C52.239,404.000 50.000,401.761 50.000,399.000 C50.000,396.239 52.239,394.000 55.000,394.000 Z" class="cls-3"/>
  <path d="M55.000,425.000 L385.000,425.000 C387.761,425.000 390.000,427.239 390.000,430.000 C390.000,432.761 387.761,435.000 385.000,435.000 L55.000,435.000 C52.239,435.000 50.000,432.761 50.000,430.000 C50.000,427.239 52.239,425.000 55.000,425.000 Z" class="cls-3"/>
  <path d="M55.000,340.000 L95.000,340.000 C97.761,340.000 100.000,342.239 100.000,345.000 C100.000,347.761 97.761,350.000 95.000,350.000 L55.000,350.000 C52.239,350.000 50.000,347.761 50.000,345.000 C50.000,342.239 52.239,340.000 55.000,340.000 Z" class="cls-4"/>
</svg>
