<svg xmlns="http://www.w3.org/2000/svg" xmlns:xlink="http://www.w3.org/1999/xlink" preserveAspectRatio="xMidYMid" width="320" height="798" viewBox="0 0 320 798">
  <defs>
    <style>
      .cls-1 {
        fill: #eee;
      }

      .cls-2 {
        fill: #f0f3f6;
      }

      .cls-2, .cls-3 {
        fill-rule: evenodd;
      }

      .cls-3 {
        fill: #eaeff4;
      }

      .cls-4 {
        fill: #e7e4e3;
      }
    </style>
  </defs>
  <g>
    <circle cx="38.063" cy="506" r="20.063" class="cls-1"/>
    <path d="M73.000,530.000 L283.000,530.000 C285.761,530.000 288.000,532.239 288.000,535.000 C288.000,537.761 285.761,540.000 283.000,540.000 L73.000,540.000 C70.239,540.000 68.000,537.761 68.000,535.000 C68.000,532.239 70.239,530.000 73.000,530.000 Z" class="cls-2"/>
    <path d="M73.000,510.000 L163.000,510.000 C165.761,510.000 168.000,512.239 168.000,515.000 C168.000,517.761 165.761,520.000 163.000,520.000 L73.000,520.000 C70.239,520.000 68.000,517.761 68.000,515.000 C68.000,512.239 70.239,510.000 73.000,510.000 Z" class="cls-2"/>
    <path d="M73.000,494.000 L213.000,494.000 C215.761,494.000 218.000,496.239 218.000,499.000 C218.000,501.761 215.761,504.000 213.000,504.000 L73.000,504.000 C70.239,504.000 68.000,501.761 68.000,499.000 C68.000,496.239 70.239,494.000 73.000,494.000 Z" class="cls-3"/>
    <circle cx="38.063" cy="587" r="20.063" class="cls-1"/>
    <path d="M73.000,611.000 L283.000,611.000 C285.761,611.000 288.000,613.239 288.000,616.000 C288.000,618.761 285.761,621.000 283.000,621.000 L73.000,621.000 C70.239,621.000 68.000,618.761 68.000,616.000 C68.000,613.239 70.239,611.000 73.000,611.000 Z" class="cls-2"/>
    <path d="M73.000,591.000 L163.000,591.000 C165.761,591.000 168.000,593.239 168.000,596.000 C168.000,598.761 165.761,601.000 163.000,601.000 L73.000,601.000 C70.239,601.000 68.000,598.761 68.000,596.000 C68.000,593.239 70.239,591.000 73.000,591.000 Z" class="cls-2"/>
    <path d="M73.000,575.000 L193.000,575.000 C195.761,575.000 198.000,577.239 198.000,580.000 C198.000,582.761 195.761,585.000 193.000,585.000 L73.000,585.000 C70.239,585.000 68.000,582.761 68.000,580.000 C68.000,577.239 70.239,575.000 73.000,575.000 Z" class="cls-3"/>
    <circle cx="38.063" cy="668" r="20.063" class="cls-1"/>
    <path d="M73.000,692.000 L283.000,692.000 C285.761,692.000 288.000,694.239 288.000,697.000 C288.000,699.761 285.761,702.000 283.000,702.000 L73.000,702.000 C70.239,702.000 68.000,699.761 68.000,697.000 C68.000,694.239 70.239,692.000 73.000,692.000 Z" class="cls-2"/>
    <path d="M73.000,672.000 L163.000,672.000 C165.761,672.000 168.000,674.239 168.000,677.000 C168.000,679.761 165.761,682.000 163.000,682.000 L73.000,682.000 C70.239,682.000 68.000,679.761 68.000,677.000 C68.000,674.239 70.239,672.000 73.000,672.000 Z" class="cls-2"/>
    <path d="M73.000,656.000 L193.000,656.000 C195.761,656.000 198.000,658.239 198.000,661.000 C198.000,663.761 195.761,666.000 193.000,666.000 L73.000,666.000 C70.239,666.000 68.000,663.761 68.000,661.000 C68.000,658.239 70.239,656.000 73.000,656.000 Z" class="cls-3"/>
    <rect y="554" width="320" height="1" class="cls-4"/>
    <rect y="716" width="320" height="1" class="cls-4"/>
    <circle cx="38.063" cy="749" r="20.063" class="cls-1"/>
    <path d="M73.000,773.000 L283.000,773.000 C285.761,773.000 288.000,775.239 288.000,778.000 C288.000,780.761 285.761,783.000 283.000,783.000 L73.000,783.000 C70.239,783.000 68.000,780.761 68.000,778.000 C68.000,775.239 70.239,773.000 73.000,773.000 Z" class="cls-2"/>
    <path d="M73.000,753.000 L163.000,753.000 C165.761,753.000 168.000,755.239 168.000,758.000 C168.000,760.761 165.761,763.000 163.000,763.000 L73.000,763.000 C70.239,763.000 68.000,760.761 68.000,758.000 C68.000,755.239 70.239,753.000 73.000,753.000 Z" class="cls-2"/>
    <path d="M73.000,737.000 L193.000,737.000 C195.761,737.000 198.000,739.239 198.000,742.000 C198.000,744.761 195.761,747.000 193.000,747.000 L73.000,747.000 C70.239,747.000 68.000,744.761 68.000,742.000 C68.000,739.239 70.239,737.000 73.000,737.000 Z" class="cls-3"/>
    <rect y="797" width="320" height="1" class="cls-4"/>
    <rect y="635" width="320" height="1" class="cls-4"/>
    <circle cx="38.063" cy="425" r="20.063" class="cls-1"/>
    <path d="M73.000,449.000 L283.000,449.000 C285.761,449.000 288.000,451.239 288.000,454.000 C288.000,456.761 285.761,459.000 283.000,459.000 L73.000,459.000 C70.239,459.000 68.000,456.761 68.000,454.000 C68.000,451.239 70.239,449.000 73.000,449.000 Z" class="cls-2"/>
    <path d="M73.000,429.000 L163.000,429.000 C165.761,429.000 168.000,431.239 168.000,434.000 C168.000,436.761 165.761,439.000 163.000,439.000 L73.000,439.000 C70.239,439.000 68.000,436.761 68.000,434.000 C68.000,431.239 70.239,429.000 73.000,429.000 Z" class="cls-2"/>
    <path d="M73.000,413.000 L139.000,413.000 C141.761,413.000 144.000,415.239 144.000,418.000 C144.000,420.761 141.761,423.000 139.000,423.000 L73.000,423.000 C70.239,423.000 68.000,420.761 68.000,418.000 C68.000,415.239 70.239,413.000 73.000,413.000 Z" class="cls-3"/>
    <rect y="473" width="320" height="1" class="cls-4"/>
    <circle cx="38.063" cy="101" r="20.063" class="cls-1"/>
    <path d="M73.000,125.000 L283.000,125.000 C285.761,125.000 288.000,127.239 288.000,130.000 C288.000,132.761 285.761,135.000 283.000,135.000 L73.000,135.000 C70.239,135.000 68.000,132.761 68.000,130.000 C68.000,127.239 70.239,125.000 73.000,125.000 Z" class="cls-2"/>
    <path d="M73.000,105.000 L163.000,105.000 C165.761,105.000 168.000,107.239 168.000,110.000 C168.000,112.761 165.761,115.000 163.000,115.000 L73.000,115.000 C70.239,115.000 68.000,112.761 68.000,110.000 C68.000,107.239 70.239,105.000 73.000,105.000 Z" class="cls-2"/>
    <path d="M73.000,89.000 L213.000,89.000 C215.761,89.000 218.000,91.239 218.000,94.000 C218.000,96.761 215.761,99.000 213.000,99.000 L73.000,99.000 C70.239,99.000 68.000,96.761 68.000,94.000 C68.000,91.239 70.239,89.000 73.000,89.000 Z" class="cls-3"/>
    <circle cx="38.063" cy="182" r="20.063" class="cls-1"/>
    <path d="M73.000,206.000 L283.000,206.000 C285.761,206.000 288.000,208.239 288.000,211.000 C288.000,213.761 285.761,216.000 283.000,216.000 L73.000,216.000 C70.239,216.000 68.000,213.761 68.000,211.000 C68.000,208.239 70.239,206.000 73.000,206.000 Z" class="cls-2"/>
    <path d="M73.000,186.000 L163.000,186.000 C165.761,186.000 168.000,188.239 168.000,191.000 C168.000,193.761 165.761,196.000 163.000,196.000 L73.000,196.000 C70.239,196.000 68.000,193.761 68.000,191.000 C68.000,188.239 70.239,186.000 73.000,186.000 Z" class="cls-2"/>
    <path d="M73.000,170.000 L193.000,170.000 C195.761,170.000 198.000,172.239 198.000,175.000 C198.000,177.761 195.761,180.000 193.000,180.000 L73.000,180.000 C70.239,180.000 68.000,177.761 68.000,175.000 C68.000,172.239 70.239,170.000 73.000,170.000 Z" class="cls-3"/>
    <circle cx="38.063" cy="263" r="20.063" class="cls-1"/>
    <path d="M73.000,287.000 L283.000,287.000 C285.761,287.000 288.000,289.239 288.000,292.000 C288.000,294.761 285.761,297.000 283.000,297.000 L73.000,297.000 C70.239,297.000 68.000,294.761 68.000,292.000 C68.000,289.239 70.239,287.000 73.000,287.000 Z" class="cls-2"/>
    <path d="M73.000,267.000 L163.000,267.000 C165.761,267.000 168.000,269.239 168.000,272.000 C168.000,274.761 165.761,277.000 163.000,277.000 L73.000,277.000 C70.239,277.000 68.000,274.761 68.000,272.000 C68.000,269.239 70.239,267.000 73.000,267.000 Z" class="cls-2"/>
    <path d="M73.000,251.000 L193.000,251.000 C195.761,251.000 198.000,253.239 198.000,256.000 C198.000,258.761 195.761,261.000 193.000,261.000 L73.000,261.000 C70.239,261.000 68.000,258.761 68.000,256.000 C68.000,253.239 70.239,251.000 73.000,251.000 Z" class="cls-3"/>
    <rect y="149" width="320" height="1" class="cls-4"/>
    <rect y="311" width="320" height="1" class="cls-4"/>
    <circle cx="38.063" cy="344" r="20.063" class="cls-1"/>
    <path d="M73.000,368.000 L283.000,368.000 C285.761,368.000 288.000,370.239 288.000,373.000 C288.000,375.761 285.761,378.000 283.000,378.000 L73.000,378.000 C70.239,378.000 68.000,375.761 68.000,373.000 C68.000,370.239 70.239,368.000 73.000,368.000 Z" class="cls-2"/>
    <path d="M73.000,348.000 L163.000,348.000 C165.761,348.000 168.000,350.239 168.000,353.000 C168.000,355.761 165.761,358.000 163.000,358.000 L73.000,358.000 C70.239,358.000 68.000,355.761 68.000,353.000 C68.000,350.239 70.239,348.000 73.000,348.000 Z" class="cls-2"/>
    <path d="M73.000,332.000 L193.000,332.000 C195.761,332.000 198.000,334.239 198.000,337.000 C198.000,339.761 195.761,342.000 193.000,342.000 L73.000,342.000 C70.239,342.000 68.000,339.761 68.000,337.000 C68.000,334.239 70.239,332.000 73.000,332.000 Z" class="cls-3"/>
    <rect y="392" width="320" height="1" class="cls-4"/>
    <rect y="230" width="320" height="1" class="cls-4"/>
    <circle cx="38.063" cy="20" r="20.063" class="cls-1"/>
    <path d="M73.000,44.000 L283.000,44.000 C285.761,44.000 288.000,46.239 288.000,49.000 C288.000,51.761 285.761,54.000 283.000,54.000 L73.000,54.000 C70.239,54.000 68.000,51.761 68.000,49.000 C68.000,46.239 70.239,44.000 73.000,44.000 Z" class="cls-2"/>
    <path d="M73.000,24.000 L163.000,24.000 C165.761,24.000 168.000,26.239 168.000,29.000 C168.000,31.761 165.761,34.000 163.000,34.000 L73.000,34.000 C70.239,34.000 68.000,31.761 68.000,29.000 C68.000,26.239 70.239,24.000 73.000,24.000 Z" class="cls-2"/>
    <path d="M73.000,8.000 L139.000,8.000 C141.761,8.000 144.000,10.239 144.000,13.000 C144.000,15.761 141.761,18.000 139.000,18.000 L73.000,18.000 C70.239,18.000 68.000,15.761 68.000,13.000 C68.000,10.239 70.239,8.000 73.000,8.000 Z" class="cls-3"/>
    <rect y="68" width="320" height="1" class="cls-4"/>
  </g>
</svg>
