<?xml version="1.0" encoding="UTF-8"?>
<svg width="56px" height="21px" viewBox="0 0 56 21" version="1.1" xmlns="http://www.w3.org/2000/svg" xmlns:xlink="http://www.w3.org/1999/xlink">
    <!-- Generator: Sketch 51.3 (57544) - http://www.bohemiancoding.com/sketch -->
    <defs></defs>
    <g id="Oct-04,-2018" stroke="none" stroke-width="1" fill="none" fill-rule="evenodd">
        <g id="Deals---Files---Folder-Dropdown" transform="translate(-151.000000, -345.000000)">
            <g id="Group" transform="translate(99.000000, 193.000000)">
                <g id="Email" transform="translate(52.000000, 152.000000)">
                    <rect id="Rectangle-8" fill="#D8D8D8" x="14" y="1" width="28" height="18" rx="2"></rect>
                    <path d="M16.6956522,0 C14.6562783,0 12.9855072,1.64465573 12.9855072,3.65217312 L12.9855072,17.3478269 C12.9855072,19.3553351 14.6562783,21 16.6956522,21 L38.9565217,21 C40.9958957,21 42.6666667,19.3553351 42.6666667,17.3478269 L42.6666667,3.65217312 C42.6666667,1.64465573 40.9958957,0 38.9565217,0 L16.6956522,0 Z M16.6956522,1.82608656 L38.9565217,1.82608656 C40.0002783,1.82608656 40.8115942,2.62472552 40.8115942,3.65217312 L40.8115942,17.3478269 C40.8115942,18.3752745 40.0002783,19.1739134 38.9565217,19.1739134 L16.6956522,19.1739134 C15.6518957,19.1739134 14.8405797,18.3752745 14.8405797,17.3478269 L14.8405797,3.65217312 C14.8405797,2.62472552 15.6518957,1.82608656 16.6956522,1.82608656 Z M0.888889067,3.96469599 C0.397955733,3.96469599 0,4.37346547 0,4.87773927 C0,5.38201307 0.397955733,5.79078255 0.888889067,5.79078255 L9.77777778,5.79078255 C10.2687111,5.79078255 10.6666667,5.38201307 10.6666667,4.87773927 C10.6666667,4.37346547 10.2687111,3.96469599 9.77777778,3.96469599 L0.888889067,3.96469599 Z M46.2222224,3.96469599 C45.7312891,3.96469599 45.3333333,4.37346547 45.3333333,4.87773927 C45.3333333,5.38201307 45.7312891,5.79078255 46.2222224,5.79078255 L55.1111111,5.79078255 C55.6020444,5.79078255 56,5.38201307 56,4.87773927 C56,4.37346547 55.6020444,3.96469599 55.1111111,3.96469599 L46.2222224,3.96469599 Z M18.1261223,5.16165227 C18.007687,5.49916263 18.0999728,5.8736626 18.362342,6.12024323 L23.0289623,10.685487 L18.3912812,14.8369579 C18.0110787,15.1757701 17.9818851,15.7538307 18.3260754,16.1280924 C18.6702656,16.502354 19.2575019,16.5310915 19.6377043,16.1922793 L24.3478261,11.9694541 L25.7536,13.3390191 C26.8905739,14.4494166 28.7466667,14.4468145 29.884058,13.3390191 L31.2898783,11.9694541 L36.0144696,16.1922793 C36.394672,16.5310915 36.9819083,16.502354 37.3260986,16.1280924 C37.6702888,15.7538307 37.6410952,15.1757701 37.2608928,14.8369579 L32.6086957,10.6711979 L37.2898319,6.12024323 C37.5334656,5.89257105 37.6330172,5.55302763 37.5500886,5.23257849 C37.4671599,4.91212936 37.2147113,4.66085521 36.8901148,4.57567516 C36.5655184,4.49049512 36.219503,4.58472136 35.9855304,4.82200982 L28.5652406,12.0407628 C28.2231652,12.3739323 27.3982145,12.3731562 27.0579942,12.0407628 L19.6666435,4.82200982 C19.4701773,4.62385478 19.1929843,4.52415527 18.9130203,4.5509501 C18.5519809,4.58555428 18.2445575,4.82414191 18.1261223,5.16165227 Z M2.2666665,9.25095731 C1.75118668,9.25095731 1.33333333,9.65972679 1.33333333,10.1640006 C1.33333333,10.6682744 1.75118668,11.0770439 2.2666665,11.0770439 L9.73333331,11.0770439 C10.2488133,11.0770439 10.6666667,10.6682744 10.6666667,10.1640006 C10.6666667,9.65972679 10.2488133,9.25095731 9.73333331,9.25095731 L2.2666665,9.25095731 Z M46.2666665,9.25095731 C45.7511867,9.25095731 45.3333333,9.65972679 45.3333333,10.1640006 C45.3333333,10.6682744 45.7511867,11.0770439 46.2666665,11.0770439 L53.7333333,11.0770439 C54.2488133,11.0770439 54.6666667,10.6682744 54.6666667,10.1640006 C54.6666667,9.65972679 54.2488133,9.25095731 53.7333333,9.25095731 L46.2666665,9.25095731 Z M3.66666667,14.5372186 C3.11436667,14.5372186 2.66666667,14.9459881 2.66666667,15.4502619 C2.66666667,15.9545357 3.11436667,16.3633052 3.66666667,16.3633052 L9.66666667,16.3633052 C10.2189667,16.3633052 10.6666667,15.9545357 10.6666667,15.4502619 C10.6666667,14.9459881 10.2189667,14.5372186 9.66666667,14.5372186 L3.66666667,14.5372186 Z M46.3333333,14.5372186 C45.7810333,14.5372186 45.3333333,14.9459881 45.3333333,15.4502619 C45.3333333,15.9545357 45.7810333,16.3633052 46.3333333,16.3633052 L52.3333333,16.3633052 C52.8856333,16.3633052 53.3333333,15.9545357 53.3333333,15.4502619 C53.3333333,14.9459881 52.8856333,14.5372186 52.3333333,14.5372186 L46.3333333,14.5372186 Z" id="Shape" fill="#000000" fill-rule="nonzero"></path>
                </g>
            </g>
        </g>
    </g>
</svg>