<?xml version="1.0" encoding="UTF-8"?>
<svg xmlns="http://www.w3.org/2000/svg" xmlns:xlink="http://www.w3.org/1999/xlink" width="24" height="24" viewBox="0 0 24 24" version="1.1">
<g id="surface1">
<path style=" stroke:none;fill-rule:nonzero;fill:rgb(9.803922%,46.27451%,82.352941%);fill-opacity:1;" d="M 23.25 5.25 L 12.75 5.25 C 12.335938 5.25 12 5.585938 12 6 C 12 6.414062 12.335938 6.75 12.75 6.75 L 21.066406 6.75 L 16.457031 10.335938 L 13.152344 8.234375 L 12.347656 9.5 L 16.097656 11.882812 C 16.21875 11.960938 16.359375 12 16.5 12 C 16.660156 12 16.824219 11.949219 16.960938 11.84375 L 22.5 7.535156 L 22.5 17.25 L 12.75 17.25 C 12.335938 17.25 12 17.585938 12 18 C 12 18.414062 12.335938 18.75 12.75 18.75 L 23.25 18.75 C 23.664062 18.75 24 18.414062 24 18 L 24 6 C 24 5.585938 23.664062 5.25 23.25 5.25 Z M 23.25 5.25 "/>
<path style=" stroke:none;fill-rule:nonzero;fill:rgb(12.941176%,58.823529%,95.294118%);fill-opacity:1;" d="M 13.226562 0.921875 C 13.058594 0.78125 12.828125 0.71875 12.613281 0.765625 L 0.613281 3.015625 C 0.257812 3.078125 0 3.390625 0 3.75 L 0 20.25 C 0 20.609375 0.257812 20.921875 0.613281 20.988281 L 12.613281 23.238281 C 12.65625 23.246094 12.703125 23.25 12.75 23.25 C 12.925781 23.25 13.09375 23.191406 13.226562 23.078125 C 13.402344 22.933594 13.5 22.722656 13.5 22.5 L 13.5 1.5 C 13.5 1.277344 13.402344 1.066406 13.226562 0.921875 Z M 13.226562 0.921875 "/>
<path style=" stroke:none;fill-rule:nonzero;fill:rgb(98.039216%,98.039216%,98.039216%);fill-opacity:1;" d="M 6.75 17.25 C 4.683594 17.25 3 15.230469 3 12.75 C 3 10.269531 4.683594 8.25 6.75 8.25 C 8.816406 8.25 10.5 10.269531 10.5 12.75 C 10.5 15.230469 8.816406 17.25 6.75 17.25 Z M 6.75 9.75 C 5.507812 9.75 4.5 11.097656 4.5 12.75 C 4.5 14.40625 5.507812 15.75 6.75 15.75 C 7.992188 15.75 9 14.40625 9 12.75 C 9 11.097656 7.992188 9.75 6.75 9.75 Z M 6.75 9.75 "/>
</g>
</svg>
