<svg width="24" height="24" xmlns="http://www.w3.org/2000/svg">
  <path d="M4.7273 7.1833C4.3338 7.1833 4 7.52 4 7.9167v9.1666c0 .3968.3338.7334.7273.7334h14.5454c.3935 0 .7273-.3366.7273-.7334V7.9167c0-.3968-.3338-.7334-.7273-.7334H4.7273zm.3636 1.1h13.8182v.2693L12 13.6458 5.091 8.5526v-.2693zm0 1.6328l3.6023 2.6584-3.6023 3.4031V9.9161zm13.8182 0v6.0615l-3.6023-3.4031 3.6023-2.6584zm-9.3182 3.3172l2.0852 1.5412a.5419.5419 0 0 0 .6478 0l2.0852-1.5412 3.6875 3.4834H5.9034l3.6875-3.4834z" fill-rule="nonzero"/>
</svg>
