<svg xmlns="http://www.w3.org/2000/svg" width="24" height="24">
  <g fill="none">
    <path d="M0 0h24v24H0z"/>
    <path fill="#8F6CF0" d="M4.727 7.183A.741.741 0 0 0 4 7.917v9.166c0 .397.334.734.727.734h14.546a.741.741 0 0 0 .727-.734V7.917a.741.741 0 0 0-.727-.734H4.727zm.364 1.1h13.818v.27L12 13.646 5.09 8.553v-.27zm0 1.633l3.602 2.658-3.602 3.404V9.916zm13.818 0v6.062l-3.602-3.404 3.602-2.658zm-9.318 3.317l2.085 1.541a.542.542 0 0 0 .648 0l2.085-1.54 3.688 3.483H5.903l3.688-3.484z"/>
  </g>
</svg>