<svg width="48" height="48" viewBox="0 0 48 48" fill="none" xmlns="http://www.w3.org/2000/svg">
<path d="M46 0H2C0.9 0 0 0.9 0 2V22C0 23.1 0.9 24 2 24H46C47.1 24 48 23.1 48 22V2C48 0.9 47.1 0 46 0Z" fill="black"/>
<path d="M46 36H2C0.9 36 0 36.9 0 38V46C0 47.1 0.9 48 2 48H46C47.1 48 48 47.1 48 46V38C48 36.9 47.1 36 46 36Z" fill="black"/>
<path d="M47 27H1C0.4 27 0 27.4 0 28C0 28.6 0.4 29 1 29H47C47.6 29 48 28.6 48 28C48 27.4 47.6 27 47 27Z" fill="black"/>
<path d="M36 33C36.6 33 37 32.6 37 32C37 31.4 36.6 31 36 31H1C0.4 31 0 31.4 0 32C0 32.6 0.4 33 1 33H36Z" fill="black"/>
<path d="M20.8 10.4999C22.0703 10.4999 23.1 9.47016 23.1 8.1999C23.1 6.92965 22.0703 5.8999 20.8 5.8999C19.5297 5.8999 18.5 6.92965 18.5 8.1999C18.5 9.47016 19.5297 10.4999 20.8 10.4999Z" fill="white"/>
<path d="M17.7 18.4002C17.8 18.4002 17.9 18.5002 18 18.5002H30C30.1 18.5002 30.2 18.5002 30.2 18.4002C30.2 18.3002 30.3 18.3002 30.4 18.2002C30.5 18.1002 30.5 18.0002 30.5 18.0002C30.5 17.9002 30.5 17.8002 30.4 17.8002L26.9 10.7002C26.8 10.5002 26.7 10.4002 26.5 10.3002C26.3 10.2002 26.2 10.2002 26 10.2002C25.8 10.2002 25.6 10.3002 25.5 10.4002C25.3 10.5002 25.2 10.6002 25.1 10.8002L23.5 14.2002C23.5 14.2002 23.5 14.3002 23.4 14.3002H23.3H23.2C23.2 14.3002 23.1 14.3002 23.1 14.2002L22.3 13.2002C22.2 13.1002 22.1 13.0002 21.9 12.9002C21.8 12.8002 21.6 12.8002 21.4 12.8002C21.2 12.8002 21.1 12.8002 21 12.9002C20.9 13.0002 20.7 13.1002 20.7 13.2002L17.6 17.7002C17.5 17.8002 17.5 17.9002 17.5 18.0002C17.5 18.1002 17.5 18.2002 17.6 18.3002C17.6 18.3002 17.7 18.4002 17.7 18.4002Z" fill="white"/>
<path d="M12 43H36C36.6 43 37 42.6 37 42C37 41.4 36.6 41 36 41H12C11.4 41 11 41.4 11 42C11 42.6 11.4 43 12 43Z" fill="white"/>
</svg>
