<svg width="48" height="48" viewBox="0 0 48 48" fill="none" xmlns="http://www.w3.org/2000/svg">
<path d="M46 36H26C24.9 36 24 35.1 24 34V14C24 12.9 24.9 12 26 12H46C47.1 12 48 12.9 48 14V34C48 35.1 47.1 36 46 36Z" fill="black"/>
<path d="M32.8 22.4999C34 22.4999 35.1 21.4999 35.1 20.1999C35.1 18.9999 34.1 17.8999 32.8 17.8999C31.5 17.8999 30.5 18.8999 30.5 20.1999C30.5 21.4999 31.5 22.4999 32.8 22.4999Z" fill="white"/>
<path d="M38.9 22.7002C38.8 22.5002 38.7 22.4002 38.5 22.3002C38.3 22.2002 38.2 22.2002 38 22.2002C37.8 22.2002 37.6 22.3002 37.5 22.4002C37.3 22.5002 37.2 22.6002 37.1 22.8002L35.5 26.2002C35.5 26.2002 35.5 26.3002 35.4 26.3002H35.3H35.2C35.2 26.3002 35.1 26.3002 35.1 26.2002L34.3 25.2002C34.2 25.1002 34.1 25.0002 33.9 24.9002C33.8 24.8002 33.6 24.8002 33.4 24.8002C33.2 24.8002 33.1 24.8002 33 24.9002C32.9 25.0002 32.7 25.1002 32.7 25.2002L29.6 29.7002C29.5 29.8002 29.5 29.9002 29.5 30.0002C29.5 30.1002 29.5 30.2002 29.6 30.3002C29.6 30.4002 29.7 30.5002 29.8 30.5002C29.9 30.5002 30 30.6002 30.1 30.6002H42.1C42.2 30.6002 42.3 30.6002 42.3 30.5002C42.4 30.5002 42.4 30.4002 42.5 30.3002C42.5 30.2002 42.6 30.1002 42.6 30.1002C42.6 30.0002 42.6 29.9002 42.5 29.9002L38.9 22.7002Z" fill="white"/>
<path d="M21 19H1C0.4 19 0 18.6 0 18C0 17.4 0.4 17 1 17H21C21.6 17 22 17.4 22 18C22 18.6 21.6 19 21 19Z" fill="black"/>
<path d="M21 15H1C0.4 15 0 14.6 0 14C0 13.4 0.4 13 1 13H21C21.6 13 22 13.4 22 14C22 14.6 21.6 15 21 15Z" fill="black"/>
<path d="M21 23H1C0.4 23 0 22.6 0 22C0 21.4 0.4 21 1 21H21C21.6 21 22 21.4 22 22C22 22.6 21.6 23 21 23Z" fill="black"/>
<path d="M21 27H1C0.4 27 0 26.6 0 26C0 25.4 0.4 25 1 25H21C21.6 25 22 25.4 22 26C22 26.6 21.6 27 21 27Z" fill="black"/>
<path d="M21 31H1C0.4 31 0 30.6 0 30C0 29.4 0.4 29 1 29H21C21.6 29 22 29.4 22 30C22 30.6 21.6 31 21 31Z" fill="black"/>
<path d="M21 35H10C9.4 35 9 34.6 9 34C9 33.4 9.4 33 10 33H21C21.6 33 22 33.4 22 34C22 34.6 21.6 35 21 35Z" fill="black"/>
</svg>
