<svg width="48" height="48" viewBox="0 0 48 48" fill="none" xmlns="http://www.w3.org/2000/svg">
<path d="M33.3 28.6C31.5 28.6 29.8 29.5 28.8 30.8L20.1 25.9C20.3 25.3 20.4 24.7 20.4 24C20.4 23.3 20.3 22.7 20.1 22.1L28.8 17.2C29.8 18.6 31.5 19.4 33.3 19.4C36.4 19.4 39 16.8 39 13.7C39 10.5 36.4 8 33.3 8C30.2 8 27.6 10.6 27.6 13.7C27.6 14.4 27.7 15 27.9 15.6L19.2 20.5C18.2 19.1 16.5 18.3 14.7 18.3C11.6 18.3 9 20.8 9 24C9 27.2 11.6 29.7 14.7 29.7C16.5 29.7 18.2 28.8 19.2 27.4L27.9 32.3C27.7 32.9 27.6 33.5 27.6 34.2C27.6 37.3 30.2 39.9 33.3 39.9C36.4 39.9 39 37.3 39 34.2C39 31.1 36.4 28.6 33.3 28.6Z" fill="black"/>
</svg>
