<svg width="48" height="48" viewBox="0 0 48 48" fill="none" xmlns="http://www.w3.org/2000/svg">
<g clip-path="url(#clip0)">
<path d="M4.95158 14.8549H1.21263C0.606316 14.8549 0 14.3497 0 13.6423C0 13.036 0.505263 12.4297 1.21263 12.4297H4.95158C5.55789 12.4297 6.16421 12.935 6.16421 13.6423C6.06316 14.3497 5.55789 14.8549 4.95158 14.8549Z" fill="black"/>
<path d="M2.32419 23.141C2.32419 23.7473 1.81893 24.3537 1.11156 24.3537C0.505242 24.3537 -0.101074 23.8484 -0.101074 23.141V19.4021C-0.101074 18.7958 0.404189 18.1895 1.11156 18.1895C1.71787 18.1895 2.32419 18.6947 2.32419 19.4021V23.141Z" fill="black"/>
<path d="M2.32419 32.539C2.32419 33.1453 1.81893 33.7516 1.11156 33.7516C0.505242 33.7516 -0.101074 33.2464 -0.101074 32.539V28.8C-0.101074 28.1937 0.404189 27.5874 1.11156 27.5874C1.71787 27.5874 2.32419 28.0927 2.32419 28.8V32.539Z" fill="black"/>
<path d="M2.32419 38.2991V42.038C2.32419 42.6443 1.81893 43.2506 1.11156 43.2506C0.505242 43.2506 -0.101074 42.7454 -0.101074 42.038V38.2991C-0.101074 37.6927 0.404189 37.0864 1.11156 37.0864C1.81893 37.1875 2.32419 37.6927 2.32419 38.2991Z" fill="black"/>
<path d="M2.12208 45.6758H5.86102C6.46734 45.6758 7.07366 46.181 7.07366 46.8884C7.07366 47.4947 6.56839 48.101 5.86102 48.101H2.12208C1.51576 48 1.0105 47.4947 1.0105 46.7874C1.0105 46.181 1.51576 45.6758 2.12208 45.6758Z" fill="black"/>
<path d="M11.6211 45.6758H15.36C15.9663 45.6758 16.5727 46.181 16.5727 46.8884C16.5727 47.4947 16.0674 48.101 15.36 48.101H11.6211C11.0148 48.101 10.4084 47.5958 10.4084 46.8884C10.5095 46.181 11.0148 45.6758 11.6211 45.6758Z" fill="black"/>
<path d="M21.2211 45.6758H24.96C25.5663 45.6758 26.1726 46.181 26.1726 46.8884C26.1726 47.4947 25.6674 48.101 24.96 48.101H21.2211C20.6147 48.101 20.0084 47.5958 20.0084 46.8884C20.0084 46.181 20.5137 45.6758 21.2211 45.6758Z" fill="black"/>
<path d="M30.72 45.6758H34.459C35.0653 45.6758 35.6716 46.181 35.6716 46.8884C35.6716 47.4947 35.1663 48.101 34.459 48.101H30.72C30.1137 48.101 29.5074 47.5958 29.5074 46.8884C29.5074 46.181 30.0126 45.6758 30.72 45.6758Z" fill="black"/>
<path d="M39.7137 2.82947H40.0168V2.62737V1.21263C39.9158 0.505263 40.4211 0 41.1284 0H46.7874C47.3937 0 48 0.505263 48 1.21263V6.87158C48 7.47789 47.4947 8.08421 46.7874 8.08421H45.3726H45.0695V8.38737V33.0442V33.3474H45.3726H46.7874C47.3937 33.3474 48 33.8526 48 34.56V40.2189C48 40.8253 47.4947 41.4316 46.7874 41.4316H41.1284C40.5221 41.4316 39.9158 40.9263 39.9158 40.2189V38.8042V38.5011H39.6126H35.7726H35.4695V38.8042V41.3305C35.4695 41.9368 34.9642 42.5432 34.2568 42.5432C33.6505 42.5432 33.0442 42.0379 33.0442 41.3305V38.8042V38.5011H32.7411H14.9558H14.6526V38.8042V40.2189C14.6526 40.8253 14.1474 41.4316 13.44 41.4316H7.78105C7.17474 41.4316 6.56842 40.9263 6.56842 40.2189V34.3579C6.56842 33.7516 7.07368 33.1453 7.78105 33.1453H9.19579H9.49895V32.8421V8.28632V7.98316H9.29684H7.78105C7.17474 7.98316 6.56842 7.47789 6.56842 6.77053V1.21263C6.66947 0.505263 7.17474 0 7.78105 0H13.44C14.0463 0 14.6526 0.505263 14.6526 1.21263V2.62737V2.93053H14.9558H39.7137V2.82947ZM42.5432 2.32421H42.24V2.62737V5.45684V5.76H42.5432H45.3726H45.6758V5.45684V2.62737V2.32421H45.3726H42.5432ZM9.29684 2.32421H8.99368V2.62737V5.45684V5.76H9.29684H12.1263H12.4295V5.45684V2.62737V2.32421H12.1263H9.29684ZM12.1263 38.8042H12.4295V38.5011V35.6716V35.3684H12.1263H9.29684H8.99368V35.6716V38.5011V38.8042H9.29684H12.1263ZM45.3726 38.8042H45.6758V38.5011V35.6716V35.3684H45.3726H42.5432H42.24V35.6716V38.5011V38.8042H42.5432H45.3726ZM42.5432 33.1453H42.8463V32.8421V8.28632V7.98316H42.5432H41.1284C40.5221 7.98316 39.9158 7.47789 39.9158 6.77053V5.45684V5.15368H39.6126H14.9558H14.6526V5.45684V6.87158C14.6526 7.47789 14.1474 8.08421 13.44 8.08421H12.1263H11.8232V8.38737V33.0442V33.3474H12.1263H13.5411C14.1474 33.3474 14.7537 33.8526 14.7537 34.56V35.9747V36.2779H15.0568H39.8147H40.1179V35.9747V34.3579C40.1179 33.7516 40.6232 33.1453 41.3305 33.1453H42.5432Z" fill="black"/>
<path d="M20.4126 12.4297H20.1095V12.7328V14.7539C20.1095 15.3602 19.6042 15.9665 18.8968 15.9665C18.2905 15.9665 17.6842 15.4613 17.6842 14.7539V11.3181C17.6842 10.7118 18.1895 10.1055 18.8968 10.1055H35.4695C36.0758 10.1055 36.6821 10.6107 36.6821 11.3181V14.7539C36.6821 15.3602 36.1768 15.9665 35.4695 15.9665C34.8632 15.9665 34.2568 15.4613 34.2568 14.7539V12.7328V12.4297H33.9537H28.4968H28.1937V12.7328V28.6992V29.0023H28.4968H29.4063C30.0126 29.0023 30.6189 29.5076 30.6189 30.2149C30.6189 30.8213 30.1137 31.4276 29.4063 31.4276H24.6568C24.0505 31.4276 23.4442 30.9223 23.4442 30.2149C23.4442 29.6086 23.9495 29.0023 24.6568 29.0023H25.5663H25.8695V28.6992V12.6318V12.3286H25.5663H20.4126V12.4297Z" fill="black"/>
</g>
<defs>
<clipPath id="clip0">
<rect width="48" height="48" fill="white"/>
</clipPath>
</defs>
</svg>
