<svg width="48" height="48" viewBox="0 0 48 48" fill="none" xmlns="http://www.w3.org/2000/svg">
<path d="M46 0H27C25.9 0 25 0.9 25 2V21C25 22.1 25.9 23 27 23H46C47.1 23 48 22.1 48 21V2C48 0.9 47.1 0 46 0ZM46 21H27V2H46V21Z" fill="black"/>
<path d="M33.8 9.4999C35.0703 9.4999 36.1 8.47016 36.1 7.1999C36.1 5.92965 35.0703 4.8999 33.8 4.8999C32.5297 4.8999 31.5 5.92965 31.5 7.1999C31.5 8.47016 32.5297 9.4999 33.8 9.4999Z" fill="black"/>
<path d="M30.7 17.4002C30.8 17.4002 30.9 17.5002 31 17.5002H43C43.1 17.5002 43.2 17.5002 43.2 17.4002C43.2 17.3002 43.3 17.3002 43.4 17.2002C43.5 17.1002 43.5 17.0002 43.5 17.0002C43.5 16.9002 43.5 16.8002 43.4 16.8002L39.9 9.7002C39.8 9.5002 39.7 9.4002 39.5 9.3002C39.3 9.2002 39.2 9.2002 39 9.2002C38.8 9.2002 38.6 9.3002 38.5 9.4002C38.3 9.5002 38.2 9.6002 38.1 9.8002L36.5 13.2002C36.5 13.2002 36.5 13.3002 36.4 13.3002H36.3H36.2C36.2 13.3002 36.1 13.3002 36.1 13.2002L35.3 12.2002C35.2 12.1002 35.1 12.0002 34.9 11.9002C34.8 11.8002 34.6 11.8002 34.4 11.8002C34.2 11.8002 34.1 11.8002 34 11.9002C33.9 12.0002 33.7 12.1002 33.7 12.2002L30.6 16.7002C30.5 16.8002 30.5 16.9002 30.5 17.0002C30.5 17.1002 30.5 17.2002 30.6 17.3002C30.6 17.3002 30.7 17.4002 30.7 17.4002Z" fill="black"/>
<path d="M47 34H26C25.4 34 25 34.4 25 35C25 35.6 25.4 36 26 36H47C47.6 36 48 35.6 48 35C48 34.4 47.6 34 47 34Z" fill="black"/>
<path d="M47 38H26C25.4 38 25 38.4 25 39C25 39.6 25.4 40 26 40H47C47.6 40 48 39.6 48 39C48 38.4 47.6 38 47 38Z" fill="black"/>
<path d="M47 42H26C25.4 42 25 42.4 25 43C25 43.6 25.4 44 26 44H47C47.6 44 48 43.6 48 43C48 42.4 47.6 42 47 42Z" fill="black"/>
<path d="M47 30H26C25.4 30 25 30.4 25 31C25 31.6 25.4 32 26 32H47C47.6 32 48 31.6 48 31C48 30.4 47.6 30 47 30Z" fill="black"/>
<path d="M47 26H26C25.4 26 25 26.4 25 27C25 27.6 25.4 28 26 28H47C47.6 28 48 27.6 48 27C48 26.4 47.6 26 47 26Z" fill="black"/>
<path d="M47 46H36C35.4 46 35 46.4 35 47C35 47.6 35.4 48 36 48H47C47.6 48 48 47.6 48 47C48 46.4 47.6 46 47 46Z" fill="black"/>
<path d="M21 0H2C0.9 0 0 0.9 0 2V21C0 22.1 0.9 23 2 23H21C22.1 23 23 22.1 23 21V2C23 0.9 22.1 0 21 0ZM21 21H2V2H21V21Z" fill="black"/>
<path d="M7.8 9.4999C9.07026 9.4999 10.1 8.47016 10.1 7.1999C10.1 5.92965 9.07026 4.8999 7.8 4.8999C6.52975 4.8999 5.5 5.92965 5.5 7.1999C5.5 8.47016 6.52975 9.4999 7.8 9.4999Z" fill="black"/>
<path d="M4.7 17.4002C4.8 17.4002 4.9 17.5002 5 17.5002H17C17.1 17.5002 17.2 17.5002 17.2 17.4002C17.2 17.3002 17.3 17.3002 17.4 17.2002C17.5 17.1002 17.5 17.0002 17.5 17.0002C17.5 16.9002 17.5 16.8002 17.4 16.8002L13.9 9.7002C13.8 9.5002 13.7 9.4002 13.5 9.3002C13.3 9.2002 13.2 9.2002 13 9.2002C12.8 9.2002 12.6 9.3002 12.5 9.4002C12.3 9.5002 12.2 9.6002 12.1 9.8002L10.5 13.2002C10.5 13.2002 10.5 13.3002 10.4 13.3002H10.3H10.2C10.2 13.3002 10.1 13.3002 10.1 13.2002L9.3 12.2002C9.2 12.1002 9.1 12.0002 8.9 11.9002C8.7 11.8002 8.6 11.8002 8.4 11.8002C8.2 11.8002 8.1 11.8002 8 11.9002C7.9 12.0002 7.7 12.1002 7.7 12.2002L4.6 16.7002C4.5 16.8002 4.5 16.9002 4.5 17.0002C4.5 17.1002 4.5 17.2002 4.6 17.3002C4.6 17.3002 4.7 17.4002 4.7 17.4002Z" fill="black"/>
<path d="M22 34H1C0.4 34 0 34.4 0 35C0 35.6 0.4 36 1 36H22C22.6 36 23 35.6 23 35C23 34.4 22.6 34 22 34Z" fill="black"/>
<path d="M22 38H1C0.4 38 0 38.4 0 39C0 39.6 0.4 40 1 40H22C22.6 40 23 39.6 23 39C23 38.4 22.6 38 22 38Z" fill="black"/>
<path d="M22 42H1C0.4 42 0 42.4 0 43C0 43.6 0.4 44 1 44H22C22.6 44 23 43.6 23 43C23 42.4 22.6 42 22 42Z" fill="black"/>
<path d="M22 30H1C0.4 30 0 30.4 0 31C0 31.6 0.4 32 1 32H22C22.6 32 23 31.6 23 31C23 30.4 22.6 30 22 30Z" fill="black"/>
<path d="M22 26H1C0.4 26 0 26.4 0 27C0 27.6 0.4 28 1 28H22C22.6 28 23 27.6 23 27C23 26.4 22.6 26 22 26Z" fill="black"/>
<path d="M22 46H11C10.4 46 10 46.4 10 47C10 47.6 10.4 48 11 48H22C22.6 48 23 47.6 23 47C23 46.4 22.6 46 22 46Z" fill="black"/>
</svg>
