<svg width="48" height="48" viewBox="0 0 48 48" fill="none" xmlns="http://www.w3.org/2000/svg">
<path d="M15.1538 20.5957H18.1538C18.7538 20.5957 19.1538 20.1957 19.1538 19.5957C19.1538 18.9957 18.7538 18.5957 18.1538 18.5957H15.1538C13.4538 18.5957 12.1538 19.8957 12.1538 21.5957V26.5957C12.1538 28.2957 13.4538 29.5957 15.1538 29.5957H18.1538C18.7538 29.5957 19.1538 29.1957 19.1538 28.5957V25.0957C19.1538 24.4957 18.7538 24.0957 18.1538 24.0957H17.1538C16.5538 24.0957 16.1538 24.4957 16.1538 25.0957C16.1538 25.4957 16.4538 25.8957 16.8538 25.9957L17.1538 26.0957V26.4957V27.0957V27.5957H16.6538H15.1538C14.5538 27.5957 14.1538 27.1957 14.1538 26.5957V21.5957C14.1538 20.9957 14.5538 20.5957 15.1538 20.5957Z" fill="black"/>
<path d="M24.6538 18.5957C24.0538 18.5957 23.6538 18.9957 23.6538 19.5957V28.5957C23.6538 29.1957 24.0538 29.5957 24.6538 29.5957C25.2538 29.5957 25.6538 29.1957 25.6538 28.5957V19.5957C25.6538 18.9957 25.2538 18.5957 24.6538 18.5957Z" fill="black"/>
<path d="M31.6538 21.5957C31.6538 20.9957 32.0538 20.5957 32.6538 20.5957H36.1538C36.7538 20.5957 37.1538 20.1957 37.1538 19.5957C37.1538 18.9957 36.7538 18.5957 36.1538 18.5957H32.6538C30.9538 18.5957 29.6538 19.8957 29.6538 21.5957V28.5957C29.6538 29.1957 30.0538 29.5957 30.6538 29.5957C31.2538 29.5957 31.6538 29.1957 31.6538 28.5957V26.0957V25.5957H32.1538H36.1538C36.7538 25.5957 37.1538 25.1957 37.1538 24.5957C37.1538 23.9957 36.7538 23.5957 36.1538 23.5957H32.1538H31.6538V23.0957V21.5957Z" fill="black"/>
</svg>
