<svg width="32" height="32" viewBox="0 0 32 32" fill="none" xmlns="http://www.w3.org/2000/svg">
<path d="M6.59384 12.7191H9.64924C10.2603 12.7191 10.6677 12.3117 10.6677 11.7006C10.6677 11.0895 10.2603 10.6821 9.64924 10.6821H6.59384C4.86246 10.6821 3.53845 12.0061 3.53845 13.7375V18.8298C3.53845 20.5612 4.86246 21.8852 6.59384 21.8852H9.64924C10.2603 21.8852 10.6677 21.4778 10.6677 20.8668V17.3021C10.6677 16.6911 10.2603 16.2837 9.64924 16.2837H8.63077C8.01969 16.2837 7.61231 16.6911 7.61231 17.3021C7.61231 17.7095 7.91785 18.1169 8.32523 18.2188L8.63077 18.3206V18.728V19.3391V19.8483H8.12154H6.59384C5.98277 19.8483 5.57538 19.4409 5.57538 18.8298V13.7375C5.57538 13.1264 5.98277 12.7191 6.59384 12.7191Z" fill="#0F121A"/>
<path d="M16.2692 10.6821C15.6581 10.6821 15.2507 11.0895 15.2507 11.7006V20.8668C15.2507 21.4778 15.6581 21.8852 16.2692 21.8852C16.8803 21.8852 17.2877 21.4778 17.2877 20.8668V11.7006C17.2877 11.0895 16.8803 10.6821 16.2692 10.6821Z" fill="#0F121A"/>
<path d="M23.3984 13.7375C23.3984 13.1264 23.8058 12.7191 24.4168 12.7191H27.9815C28.5925 12.7191 28.9999 12.3117 28.9999 11.7006C28.9999 11.0895 28.5925 10.6821 27.9815 10.6821H24.4168C22.6855 10.6821 21.3615 12.0061 21.3615 13.7375V20.8668C21.3615 21.4778 21.7688 21.8852 22.3799 21.8852C22.991 21.8852 23.3984 21.4778 23.3984 20.8668V18.3206V17.8114H23.9076H27.9815C28.5925 17.8114 28.9999 17.404 28.9999 16.7929C28.9999 16.1818 28.5925 15.7744 27.9815 15.7744H23.9076H23.3984V15.2652V13.7375Z" fill="#0F121A"/>
</svg>
