<svg width="48" height="48" viewBox="0 0 48 48" fill="none" xmlns="http://www.w3.org/2000/svg">
<path d="M38.8718 0H9.12821C6.25641 0 4 2.24681 4 5.10638V42.8936C4 45.7532 6.25641 48 9.12821 48H38.8718C41.7436 48 44 45.7532 44 42.8936V5.10638C44 2.24681 41.7436 0 38.8718 0Z" fill="black"/>
<path d="M13.2307 30.6383H16.3077C16.923 30.6383 17.3333 30.2297 17.3333 29.617C17.3333 29.0042 16.923 28.5957 16.3077 28.5957H13.2307C11.4871 28.5957 10.1538 29.9234 10.1538 31.6595V36.7659C10.1538 38.5021 11.4871 39.8297 13.2307 39.8297H16.3077C16.923 39.8297 17.3333 39.4212 17.3333 38.8085V35.234C17.3333 34.6212 16.923 34.2127 16.3077 34.2127H15.282C14.6666 34.2127 14.2564 34.6212 14.2564 35.234C14.2564 35.6425 14.5641 36.051 14.9743 36.1532L15.282 36.2553V36.6638V37.2766V37.7872H14.7692H13.2307C12.6153 37.7872 12.2051 37.3787 12.2051 36.7659V31.6595C12.2051 31.0468 12.6153 30.6383 13.2307 30.6383Z" fill="white"/>
<path d="M22.9744 28.5957C22.359 28.5957 21.9487 29.0042 21.9487 29.617V38.8085C21.9487 39.4212 22.359 39.8297 22.9744 39.8297C23.5898 39.8297 24 39.4212 24 38.8085V29.617C24 29.0042 23.5898 28.5957 22.9744 28.5957Z" fill="white"/>
<path d="M30.1538 31.6595C30.1538 31.0468 30.5641 30.6383 31.1795 30.6383H34.7692C35.3846 30.6383 35.7948 30.2297 35.7948 29.617C35.7948 29.0042 35.3846 28.5957 34.7692 28.5957H31.1795C29.4359 28.5957 28.1025 29.9234 28.1025 31.6595V38.8085C28.1025 39.4212 28.5128 39.8297 29.1282 39.8297C29.7436 39.8297 30.1538 39.4212 30.1538 38.8085V36.2553V35.7446H30.6666H34.7692C35.3846 35.7446 35.7948 35.3361 35.7948 34.7234C35.7948 34.1106 35.3846 33.7021 34.7692 33.7021H30.6666H30.1538V33.1914V31.6595Z" fill="white"/>
</svg>
