<svg width="48" height="48" viewBox="0 0 48 48" fill="none" xmlns="http://www.w3.org/2000/svg">
<path d="M22 12H2C0.9 12 0 12.9 0 14V34C0 35.1 0.9 36 2 36H22C23.1 36 24 35.1 24 34V14C24 12.9 23.1 12 22 12Z" fill="black"/>
<path d="M8.8 22.4999C10.0703 22.4999 11.1 21.4702 11.1 20.1999C11.1 18.9296 10.0703 17.8999 8.8 17.8999C7.52975 17.8999 6.5 18.9296 6.5 20.1999C6.5 21.4702 7.52975 22.4999 8.8 22.4999Z" fill="white"/>
<path d="M5.7 30.4002C5.8 30.4002 5.9 30.5002 6 30.5002H18C18.1 30.5002 18.2 30.5002 18.2 30.4002C18.2 30.3002 18.3 30.3002 18.4 30.2002C18.5 30.1002 18.5 30.0002 18.5 30.0002C18.5 29.9002 18.5 29.8002 18.4 29.8002L14.9 22.7002C14.8 22.5002 14.7 22.4002 14.5 22.3002C14.3 22.2002 14.2 22.2002 14 22.2002C13.8 22.2002 13.6 22.3002 13.5 22.4002C13.3 22.5002 13.2 22.6002 13.1 22.8002L11.5 26.2002C11.5 26.2002 11.5 26.3002 11.4 26.3002H11.3H11.2C11.2 26.3002 11.1 26.3002 11.1 26.2002L10.3 25.2002C10.2 25.1002 10.1 25.0002 9.9 24.9002C9.7 24.8002 9.6 24.8002 9.4 24.8002C9.2 24.8002 9.1 24.8002 9 24.9002C8.9 25.0002 8.7 25.1002 8.7 25.2002L5.6 29.7002C5.5 29.8002 5.5 29.9002 5.5 30.0002C5.5 30.1002 5.5 30.2002 5.6 30.3002C5.6 30.3002 5.7 30.4002 5.7 30.4002Z" fill="white"/>
<path d="M47 17H27C26.4 17 26 17.4 26 18C26 18.6 26.4 19 27 19H47C47.6 19 48 18.6 48 18C48 17.4 47.6 17 47 17Z" fill="black"/>
<path d="M27 15H47C47.6 15 48 14.6 48 14C48 13.4 47.6 13 47 13H27C26.4 13 26 13.4 26 14C26 14.6 26.4 15 27 15Z" fill="black"/>
<path d="M47 21H27C26.4 21 26 21.4 26 22C26 22.6 26.4 23 27 23H47C47.6 23 48 22.6 48 22C48 21.4 47.6 21 47 21Z" fill="black"/>
<path d="M47 25H27C26.4 25 26 25.4 26 26C26 26.6 26.4 27 27 27H47C47.6 27 48 26.6 48 26C48 25.4 47.6 25 47 25Z" fill="black"/>
<path d="M47 29H27C26.4 29 26 29.4 26 30C26 30.6 26.4 31 27 31H47C47.6 31 48 30.6 48 30C48 29.4 47.6 29 47 29Z" fill="black"/>
<path d="M38 33H27C26.4 33 26 33.4 26 34C26 34.6 26.4 35 27 35H38C38.6 35 39 34.6 39 34C39 33.4 38.6 33 38 33Z" fill="black"/>
</svg>
