<svg width="48" height="48" viewBox="0 0 48 48" fill="none" xmlns="http://www.w3.org/2000/svg">
<path d="M46 0H2C0.9 0 0 0.9 0 2V46C0 47.1 0.9 48 2 48H46C47.1 48 48 47.1 48 46V2C48 0.9 47.1 0 46 0Z" fill="#003CDF"/>
<path d="M20.1903 21.8411C21.8033 21.8411 23.1109 20.5336 23.1109 18.9206C23.1109 17.3076 21.8033 16 20.1903 16C18.5774 16 17.2698 17.3076 17.2698 18.9206C17.2698 20.5336 18.5774 21.8411 20.1903 21.8411Z" fill="white"/>
<path d="M16.254 31.8729C16.3809 31.8729 16.5079 31.9999 16.6349 31.9999H31.8726C31.9996 31.9999 32.1266 31.9999 32.1266 31.8729C32.1266 31.7459 32.2536 31.7459 32.3806 31.6189C32.5076 31.492 32.5076 31.365 32.5076 31.365C32.5076 31.238 32.5076 31.111 32.3806 31.111L27.9362 22.0954C27.8093 21.8414 27.6823 21.7144 27.4283 21.5874C27.1743 21.4604 27.0474 21.4604 26.7934 21.4604C26.5394 21.4604 26.2855 21.5874 26.1585 21.7144C25.9045 21.8414 25.7775 21.9684 25.6506 22.2223L23.6189 26.5397C23.6189 26.5397 23.6189 26.6667 23.4919 26.6667H23.3649H23.2379C23.2379 26.6667 23.1109 26.6667 23.1109 26.5397L22.0951 25.2699C21.9681 25.1429 21.8411 25.0159 21.5872 24.8889C21.4602 24.762 21.2062 24.762 20.9523 24.762C20.6983 24.762 20.5713 24.762 20.4443 24.8889C20.3174 25.0159 20.0634 25.1429 20.0634 25.2699L16.127 30.984C16 31.111 16 31.238 16 31.365C16 31.492 16 31.6189 16.127 31.7459C16.127 31.7459 16.254 31.8729 16.254 31.8729Z" fill="white"/>
</svg>
