<svg width="48" height="48" viewBox="0 0 48 48" fill="none" xmlns="http://www.w3.org/2000/svg">
<path d="M33.3 28.6C31.5 28.6 29.8 29.5 28.8 30.8L20.1 25.9C20.3 25.3 20.4 24.7 20.4 24C20.4 23.3 20.3 22.7 20.1 22.1L28.8 17.2C29.8 18.6 31.5 19.4 33.3 19.4C36.4 19.4 39 16.8 39 13.7C39 10.5 36.4 8 33.3 8C30.2 8 27.6 10.6 27.6 13.7C27.6 14.4 27.7 15 27.9 15.6L19.2 20.5C18.2 19.1 16.5 18.3 14.7 18.3C11.6 18.3 9 20.8 9 24C9 27.2 11.6 29.7 14.7 29.7C16.5 29.7 18.2 28.8 19.2 27.4L27.9 32.3C27.7 32.9 27.6 33.5 27.6 34.2C27.6 37.3 30.2 39.9 33.3 39.9C36.4 39.9 39 37.3 39 34.2C39 31.1 36.4 28.6 33.3 28.6ZM33.3 9.8C35.5 9.8 37.2 11.6 37.2 13.7C37.2 15.8 35.4 17.6 33.3 17.6C31.1 17.6 29.4 15.8 29.4 13.7C29.4 11.6 31.2 9.8 33.3 9.8ZM14.7 27.9C12.5 27.9 10.8 26.1 10.8 24C10.8 21.8 12.6 20.1 14.7 20.1C16.9 20.1 18.6 21.9 18.6 24C18.6 26.2 16.8 27.9 14.7 27.9ZM33.3 38.2C31.1 38.2 29.4 36.4 29.4 34.3C29.4 32.2 31.2 30.4 33.3 30.4C35.5 30.4 37.2 32.2 37.2 34.3C37.2 36.4 35.5 38.2 33.3 38.2Z" fill="black"/>
</svg>
