<svg width="48" height="48" viewBox="0 0 48 48" fill="none" xmlns="http://www.w3.org/2000/svg">
<path d="M29.4 32.2L25 36.7V11.3L29.4 15.8C29.8 16.2 30.3 16.2 30.7 15.8C31.1 15.4 31.1 14.8 30.7 14.4L24.6 8.3C24.2 7.9 23.7 7.9 23.3 8.3L17.2 14.4C16.8 14.8 16.8 15.4 17.2 15.8C17.6 16.2 18.1 16.2 18.5 15.8L22.9 11.3V36.7L18.5 32.2C18.1 31.8 17.6 31.8 17.2 32.2C16.8 32.6 16.8 33.2 17.2 33.6L23.3 39.7C23.7 40.1 24.2 40.1 24.6 39.7L30.7 33.6C31.1 33.2 31.1 32.6 30.7 32.2C30.3 31.8 29.8 31.8 29.4 32.2Z" fill="#003CDF"/>
</svg>
