<svg width="48" height="48" viewBox="0 0 48 48" fill="none" xmlns="http://www.w3.org/2000/svg">
<path d="M24 0C10.8 0 0 10.8 0 24C0 37.2 10.8 48 24 48C37.2 48 48 37.2 48 24C48 10.8 37.2 0 24 0ZM24 45.6C12.1 45.6 2.4 35.9 2.4 24C2.4 12.1 12.1 2.4 24 2.4C35.9 2.4 45.6 12.1 45.6 24C45.6 35.9 35.9 45.6 24 45.6Z" fill="black"/>
<path d="M35.5 23.0002L18.2 11.2002C17.8 11.0002 17.4 10.9002 17 11.1002C16.6 11.3002 16.4 11.7002 16.4 12.1002V35.7002C16.4 36.1002 16.6 36.5002 17 36.7002C17.2 36.8002 17.4 36.8002 17.6 36.8002C17.8 36.8002 18.1 36.7002 18.3 36.6002L35.5 25.0002C35.8 24.8002 36 24.4002 36 24.0002C36 23.6002 35.8 23.2002 35.5 23.0002ZM32.8 24.0002L18.8 33.6002V14.4002L32.8 24.0002Z" fill="black"/>
</svg>
