<svg xmlns="http://www.w3.org/2000/svg" xmlns:xlink="http://www.w3.org/1999/xlink" preserveAspectRatio="xMidYMid" width="19" height="19" viewBox="0 0 19 19">
  <defs>
    <style>
      .cls-1 {
        fill: #4e5c6c;
        filter: url(#color-overlay-1);
        fill-rule: evenodd;
      }
    </style>

    <filter id="color-overlay-1" filterUnits="userSpaceOnUse">
      <feFlood flood-color="#38f"/>
      <feComposite operator="in" in2="SourceGraphic"/>
      <feBlend in2="SourceGraphic" result="solidFill"/>
    </filter>
  </defs>
  <path d="M18.729,18.913 C18.657,18.951 18.578,18.969 18.500,18.969 C18.397,18.969 18.296,18.938 18.210,18.876 L13.000,15.166 L13.000,0.267 L18.790,4.391 C18.922,4.484 19.000,4.635 19.000,4.796 L19.000,18.470 C19.000,18.657 18.895,18.828 18.729,18.913 ZM12.000,15.166 L7.000,18.727 L7.000,3.828 L12.000,0.267 L12.000,15.166 ZM0.000,14.197 L0.000,0.523 C0.000,0.336 0.105,0.165 0.271,0.080 C0.437,-0.006 0.638,0.009 0.791,0.118 L6.000,3.828 L6.000,18.727 L0.210,14.603 C0.078,14.509 0.000,14.359 0.000,14.197 Z" class="cls-1"/>
</svg>
