<svg xmlns="http://www.w3.org/2000/svg" xmlns:xlink="http://www.w3.org/1999/xlink" preserveAspectRatio="xMidYMid" width="19" height="17" viewBox="0 0 19 17">
  <defs>
    <style>
      .cls-1 {
        fill: #929292;
        filter: url(#color-overlay-1);
        fill-rule: evenodd;
      }
    </style>

    <filter id="color-overlay-1" filterUnits="userSpaceOnUse">
      <feFlood flood-color="#4e5c6c"/>
      <feComposite operator="in" in2="SourceGraphic"/>
      <feBlend in2="SourceGraphic" result="solidFill"/>
    </filter>
  </defs>
  <path d="M18.999,16.000 L18.999,16.627 C18.999,16.841 18.822,17.014 18.603,17.014 L0.385,17.014 C0.166,17.014 -0.012,16.841 -0.012,16.627 L-0.012,0.379 C-0.012,0.165 0.166,-0.008 0.385,-0.008 L3.553,-0.008 C3.772,-0.008 3.949,0.165 3.949,0.379 C3.949,0.592 3.219,1.000 3.000,1.000 L1.000,1.000 L1.000,4.010 L18.000,4.010 L18.000,1.000 L15.000,1.000 C14.781,1.000 15.039,0.592 15.039,0.379 C15.039,0.165 15.216,-0.008 15.434,-0.008 L18.603,-0.008 C18.822,-0.008 18.999,0.165 18.999,0.379 L18.999,5.000 L19.000,5.000 L19.000,16.000 L18.999,16.000 ZM18.000,4.982 L1.000,4.982 L1.000,5.000 L18.000,5.000 L18.000,4.982 ZM5.137,11.715 L7.135,13.837 C7.233,13.940 7.361,13.991 7.488,13.991 C7.610,13.991 7.733,13.945 7.829,13.849 L13.823,7.909 C14.024,7.709 14.035,7.373 13.847,7.159 C13.658,6.945 13.344,6.934 13.141,7.133 L7.500,12.724 L5.844,10.964 C5.648,10.758 5.333,10.758 5.137,10.964 C4.942,11.171 4.942,11.508 5.137,11.715 ZM18.000,16.000 L1.000,16.000 L1.000,16.000 L18.000,16.000 L18.000,16.000 ZM12.645,1.001 L6.344,1.001 C6.150,1.001 5.993,0.775 5.993,0.495 C5.993,0.216 6.150,-0.011 6.344,-0.011 L12.645,-0.011 C12.839,-0.011 12.995,0.216 12.995,0.495 C12.995,0.775 12.839,1.001 12.645,1.001 Z" class="cls-1"/>
</svg>
