<svg xmlns="http://www.w3.org/2000/svg" xmlns:xlink="http://www.w3.org/1999/xlink" preserveAspectRatio="xMidYMid" width="20" height="18" viewBox="0 0 20 18">
  <defs>
    <style>
      .cls-1 {
        fill: #38f;
        fill-rule: evenodd;
      }
    </style>
  </defs>
  <path d="M19.874,9.796 C19.770,9.914 19.628,9.973 19.485,9.973 C19.358,9.973 19.231,9.927 19.130,9.831 L18.000,8.738 L18.000,17.532 C18.000,17.799 17.776,18.015 17.499,18.015 L2.510,18.016 C2.235,18.016 2.013,17.787 2.013,17.505 L2.013,8.724 L0.868,9.831 C0.654,10.034 0.321,10.019 0.124,9.796 C-0.073,9.576 -0.057,9.232 0.158,9.031 L9.643,0.119 C9.844,-0.070 10.153,-0.070 10.354,0.119 L17.753,7.070 C17.818,7.108 17.871,7.158 17.913,7.220 L19.840,9.031 C20.055,9.232 20.071,9.576 19.874,9.796 ZM10.015,8.868 C10.512,8.868 10.916,9.234 10.916,9.684 C10.916,9.959 11.162,10.181 11.465,10.181 C11.769,10.181 12.014,9.959 12.014,9.684 C12.014,8.859 11.399,8.169 10.565,7.951 L10.565,7.494 C10.565,7.219 10.319,6.997 10.015,6.997 C9.712,6.997 9.467,7.219 9.467,7.494 L9.467,7.951 C8.633,8.169 8.017,8.859 8.017,9.684 C8.017,10.683 8.914,11.495 10.015,11.495 C10.512,11.495 10.916,11.862 10.916,12.312 C10.916,12.762 10.512,13.128 10.015,13.128 C9.519,13.128 9.115,12.762 9.115,12.312 C9.115,12.037 8.869,11.815 8.566,11.815 C8.262,11.815 8.017,12.037 8.017,12.312 C8.017,13.137 8.633,13.827 9.467,14.045 L9.467,14.501 C9.467,14.776 9.712,14.999 10.015,14.999 C10.319,14.999 10.565,14.776 10.565,14.501 L10.565,14.045 C11.399,13.827 12.014,13.137 12.014,12.312 C12.014,11.313 11.118,10.500 10.015,10.500 C9.519,10.500 9.115,10.134 9.115,9.684 C9.115,9.234 9.519,8.868 10.015,8.868 Z" class="cls-1"/>
</svg>
