<?xml version="1.0" encoding="UTF-8" standalone="no"?>
<svg width="24px" height="23px" viewBox="0 0 24 23" version="1.1" xmlns="http://www.w3.org/2000/svg" xmlns:xlink="http://www.w3.org/1999/xlink">
    <!-- Generator: sketchtool 39.1 (31720) - http://www.bohemiancoding.com/sketch -->
    <title>99EF5ADA-4049-4D0D-AA48-1037E8890BA2</title>
    <desc>Created with sketchtool.</desc>
    <defs></defs>
    <g id="#496:-Chatroom-Web" stroke="none" stroke-width="1" fill="none" fill-rule="evenodd">
        <g id="Chatroom-2" transform="translate(-1621.000000, -68.000000)">
            <g id="Notifications-On" transform="translate(1621.000000, 68.000000)">
                <g id="Group">
                    <g id="Outline_Icons_1_" stroke="#BFC4C7">
                        <g id="Outline_Icons">
                            <g id="Group">
                                <path d="M20.5,16.5 L20.5,11 C20.5,7.349 18.191,4.244 14.959,3.041 C14.738,1.603 13.5,0.5 12,0.5 C10.5,0.5 9.258,1.603 9.037,3.041 C5.805,4.244 3.5,7.349 3.5,11 L3.5,16.5 C3.5,18.157 2.156,19.5 0.5,19.5 L23.5,19.5 C21.841,19.5 20.5,18.157 20.5,16.5 L20.5,16.5 Z" id="Shape"></path>
                                <path d="M15,19.5 C15,21.157 13.656,22.5 12,22.5 C10.341,22.5 9,21.157 9,19.5" id="Shape"></path>
                            </g>
                        </g>
                    </g>
                    <g id="Invisible_Shape">
                        <rect id="Rectangle-path" x="0" y="0" width="24" height="24"></rect>
                    </g>
                </g>
            </g>
        </g>
    </g>
</svg>