<?xml version="1.0" encoding="UTF-8" standalone="no"?>
<svg width="27px" height="23px" viewBox="0 0 27 23" version="1.1" xmlns="http://www.w3.org/2000/svg" xmlns:xlink="http://www.w3.org/1999/xlink">
    <!-- Generator: sketchtool 39.1 (31720) - http://www.bohemiancoding.com/sketch -->
    <title>2D6D7F88-2CF7-4587-A8A3-494056BA25F4</title>
    <desc>Created with sketchtool.</desc>
    <defs></defs>
    <g id="#496:-Chatroom-Web" stroke="none" stroke-width="1" fill="none" fill-rule="evenodd">
        <g id="Chatroom-3" transform="translate(-1618.000000, -68.000000)">
            <g id="Notifications-On" transform="translate(1618.000000, 68.000000)">
                <g id="Group">
                    <g id="Outline_Icons_1_">
                        <g id="Outline_Icons">
                            <g id="Group">
                                <path d="M23.5,16.5 L23.5,11 C23.5,7.349 21.191,4.244 17.959,3.041 C17.738,1.603 16.5,0.5 15,0.5 C13.5,0.5 12.258,1.603 12.037,3.041 C8.805,4.244 6.5,7.349 6.5,11 L6.5,16.5 C6.5,18.157 5.156,19.5 3.5,19.5 L26.5,19.5 C24.841,19.5 23.5,18.157 23.5,16.5 L23.5,16.5 Z" id="Shape" stroke="#BFC4C7"></path>
                                <rect id="Rectangle-3" fill="#BFC4C7" transform="translate(13.500000, 13.000000) rotate(-305.000000) translate(-13.500000, -13.000000) " x="13" y="-3" width="1" height="32" rx="0.5"></rect>
                                <path d="M18,19.5 C18,21.157 16.656,22.5 15,22.5 C13.341,22.5 12,21.157 12,19.5" id="Shape" stroke="#BFC4C7"></path>
                            </g>
                        </g>
                    </g>
                    <g id="Invisible_Shape" transform="translate(3.000000, 0.000000)">
                        <rect id="Rectangle-path" x="0" y="0" width="24" height="24"></rect>
                    </g>
                </g>
            </g>
        </g>
    </g>
</svg>