<svg xmlns="http://www.w3.org/2000/svg" xmlns:xlink="http://www.w3.org/1999/xlink" preserveAspectRatio="xMidYMid" width="19" height="19" viewBox="0 0 19 19">
  <defs>
    <style>
      .cls-1 {
        fill: #929292;
        filter: url(#color-overlay-1);
        fill-rule: evenodd;
      }
    </style>

    <filter id="color-overlay-1" filterUnits="userSpaceOnUse">
      <feFlood flood-color="#fff"/>
      <feComposite operator="in" in2="SourceGraphic"/>
      <feBlend in2="SourceGraphic" result="solidFill"/>
    </filter>
  </defs>
  <path d="M18.729,18.913 C18.657,18.950 18.578,18.969 18.500,18.969 C18.398,18.969 18.296,18.938 18.210,18.876 L12.500,14.810 L6.790,18.876 C6.782,18.882 6.770,18.880 6.761,18.885 C6.684,18.934 6.598,18.969 6.500,18.969 C6.402,18.969 6.316,18.934 6.239,18.885 C6.230,18.880 6.218,18.882 6.209,18.876 L0.210,14.603 C0.078,14.509 0.000,14.359 0.000,14.197 L0.000,0.523 C0.000,0.336 0.105,0.165 0.271,0.080 C0.438,-0.006 0.638,0.008 0.791,0.118 L6.500,4.184 L12.209,0.118 C12.383,-0.006 12.617,-0.006 12.791,0.118 L18.791,4.391 C18.922,4.484 19.000,4.635 19.000,4.796 L19.000,18.470 C19.000,18.657 18.896,18.828 18.729,18.913 ZM6.000,5.053 L1.000,1.492 L1.000,13.941 L6.000,17.502 L6.000,5.053 ZM7.000,17.502 L12.000,13.941 L12.000,1.492 L7.000,5.053 L7.000,17.502 ZM18.000,5.053 L13.000,1.492 L13.000,13.941 L18.000,17.502 L18.000,5.053 Z" class="cls-1"/>
</svg>
