<svg xmlns="http://www.w3.org/2000/svg" xmlns:xlink="http://www.w3.org/1999/xlink" preserveAspectRatio="xMidYMid" width="19" height="18.938" viewBox="0 0 19 18.938">
  <defs>
    <style>
      .cls-1 {
        fill: #929292;
        fill-rule: evenodd;
      }
    </style>
  </defs>
  <path d="M18.729,18.882 C18.657,18.919 18.578,18.938 18.500,18.938 C18.398,18.938 18.296,18.907 18.210,18.845 L12.500,14.779 L6.790,18.845 C6.782,18.851 6.770,18.849 6.761,18.854 C6.684,18.903 6.598,18.938 6.500,18.938 C6.402,18.938 6.316,18.903 6.239,18.854 C6.230,18.849 6.218,18.851 6.209,18.845 L0.210,14.572 C0.078,14.478 0.000,14.328 0.000,14.166 L0.000,0.492 C0.000,0.305 0.105,0.134 0.271,0.049 C0.438,-0.037 0.638,-0.023 0.791,0.087 L6.500,4.153 L12.209,0.087 C12.383,-0.037 12.617,-0.037 12.791,0.087 L18.791,4.360 C18.922,4.453 19.000,4.604 19.000,4.765 L19.000,18.439 C19.000,18.626 18.896,18.797 18.729,18.882 ZM6.000,5.022 L1.000,1.461 L1.000,13.910 L6.000,17.471 L6.000,5.022 ZM7.000,17.471 L12.000,13.910 L12.000,1.461 L7.000,5.022 L7.000,17.471 ZM18.000,5.022 L13.000,1.461 L13.000,13.910 L18.000,17.471 L18.000,5.022 Z" class="cls-1"/>
</svg>
