<svg width="24" height="24" viewBox="0 0 24 24" fill="none" xmlns="http://www.w3.org/2000/svg">
<path d="M20.25 1.50001H12.75V0.500006C12.7499 0.348464 12.6812 0.205127 12.563 0.110269C12.4448 0.0154124 12.29 -0.0207269 12.142 0.0120062L3.142 2.01201C2.91308 2.06265 2.75 2.26555 2.75 2.50001V21.5C2.75 21.7345 2.91308 21.9374 3.142 21.988L12.142 23.988C12.29 24.0207 12.4448 23.9846 12.563 23.8897C12.6812 23.7949 12.7499 23.6515 12.75 23.5V22.5H20.25C20.8023 22.5 21.25 22.0523 21.25 21.5V2.50001C21.25 1.94772 20.8023 1.50001 20.25 1.50001ZM10.25 12.5C10.25 13.3284 9.57843 14 8.75 14C7.92157 14 7.25 13.3284 7.25 12.5C7.25 11.6716 7.92157 11 8.75 11C9.57843 11 10.25 11.6716 10.25 12.5ZM18.75 20.5H13.25C12.9739 20.5 12.75 20.2761 12.75 20V4.00001C12.75 3.72386 12.9739 3.50001 13.25 3.50001H18.75C19.0261 3.50001 19.25 3.72386 19.25 4.00001V20C19.25 20.2761 19.0261 20.5 18.75 20.5Z" />
</svg>
