<svg xmlns="http://www.w3.org/2000/svg" width="47" height="48" viewBox="0 0 47 48">
    <g fill="none" fill-rule="nonzero">
        <path fill="#F92A2A" d="M45.473 23.614a1.45 1.45 0 0 1-1.039-.44 6.085 6.085 0 0 0-8.526 0 1.449 1.449 0 0 1-2.079 0 1.523 1.523 0 0 1 0-2.122 8.842 8.842 0 0 1 12.682 0c.42.43.544 1.074.317 1.634-.227.56-.762.926-1.355.928z"/>
        <ellipse cx="40.68" cy="29.126" fill="#F2B222" rx="1.585" ry="1.618"/>
        <path fill="#20D024" d="M25.358 13.906A1.47 1.47 0 0 1 24 12.98a1.523 1.523 0 0 1 .318-1.634c2.349-2.407 2.349-6.3 0-8.706a1.523 1.523 0 0 1 .036-2.083A1.448 1.448 0 0 1 26.396.52c3.496 3.578 3.496 9.368 0 12.946a1.443 1.443 0 0 1-1.038.44z"/>
        <ellipse cx="18.489" cy="6.472" fill="#EFB73B" rx="1.585" ry="1.618"/>
        <ellipse cx="45.435" cy="1.618" fill="#F00" rx="1.585" ry="1.618"/>
        <ellipse cx="44.906" cy="12.944" fill="#5FDA1B" rx="1.585" ry="1.618"/>
        <path fill="#1A37EA" d="M31.698 17.142a1.47 1.47 0 0 1-1.357-.926 1.523 1.523 0 0 1 .318-1.634L40.7 4.334a1.448 1.448 0 0 1 2.059.02c.566.578.574 1.514.017 2.102L32.736 16.704a1.449 1.449 0 0 1-1.038.438z"/>
        <path fill="#EFB73B" d="M27.46 19.958c-4.363-4.432-10.427-7.238-13.577-4.026-.283.283-.52.61-.702.97C13.11 17.028.55 41.038.55 41.038a4.802 4.802 0 0 0 .81 5.563 4.561 4.561 0 0 0 5.447.837l23.51-12.834c.416-.192.79-.463 1.105-.8 3.139-3.204.388-9.384-3.961-13.846zm.97 10.812c-.032.032-.12.148-.492.13-1.779 0-5.094-2.166-7.08-4.2-2.977-3.04-4.65-7.044-3.974-7.736a.715.715 0 0 1 .486-.124A12.311 12.311 0 0 1 24.472 23c3.72 3.826 4.406 7.31 3.958 7.77z"/>
    </g>
</svg>
