<svg width="120" height="120" viewBox="0 0 120 120" fill="none" xmlns="http://www.w3.org/2000/svg">
<g opacity="0.05">
<path d="M106.402 36.2767L67.9404 74.787L52.042 58.8645L38.3932 72.5484C38.3932 72.5484 56.6251 90.9619 60.839 94.9678C65.0528 98.9737 72.2717 97.8796 75.9483 94.1094C77.9629 92.0055 120 49.927 120 49.927L106.402 36.2767Z" fill="black"/>
<path d="M44.7573 25.6903C43.4142 26.9358 28.5231 42.0504 28.5231 42.0504V34.5941H15.613V54.9769L0 70.6974L13.6656 84.3981L52.0433 45.8374L67.9249 61.7599L81.6073 48.0592C81.6073 48.0592 60.2024 26.5487 59.3965 25.5724C54.5615 21.1289 48.9711 21.8022 44.7573 25.6903Z" fill="black"/>
</g>
</svg>
