<svg width="68" height="16" fill="none" xmlns="http://www.w3.org/2000/svg"><path fill-rule="evenodd" clip-rule="evenodd" d="M41.0379 15.3034V8.5937c0-2.9527-1.8565-4.52822-4.0379-4.52822-1.4254 0-2.5063.52664-3.0891 1.33533V0h-3.2385v15.3034h3.2385V9.3429c0-1.55348.821-2.25199 2.0082-2.25199 1.0376 0 1.8803.6258 1.8803 1.98316v6.22933h3.2385zM19.0282 9.83856c0-3.259 2.4414-5.77321 5.7233-5.77321 2.004-.0288 3.8687 1.03993 4.8827 2.79847l-2.8291 1.66365c-.3683-.76682-1.1459-1.22515-2.0969-1.22515-1.4038 0-2.4392 1.02683-2.4392 2.53624 0 1.50944 1.0354 2.53624 2.4392 2.53624.951 0 1.7503-.4605 2.0969-1.2251l2.8291 1.6306c-1.001 1.7746-2.8716 2.8551-4.8827 2.8204-3.2819.0089-5.7233-2.5053-5.7233-5.76214zm-6.1344 2.84274c.7739.0248 1.5237-.2757 2.0731-.8307l2.5995 1.5072c-1.0658 1.4873-2.6623 2.252-4.7159 2.252-3.68267 0-5.98106-2.5143-5.98106-5.77104 0-3.2568 2.33089-5.77321 5.74486-5.77321 3.152 0 5.485 2.47234 5.485 5.77321.0026.44414-.0409.88734-.13 1.32214H10.303c.4094 1.126 1.395 1.5204 2.5908 1.5204zm1.9883-3.97966c-.3466-1.26922-1.3193-1.72755-2.2898-1.72755-1.2326 0-2.0514.61257-2.3547 1.72755h4.6445zm-8.40283-.83092V4.1534c-1.36041 0-2.79664.6941-3.22989 2.16385V4.37154H0V15.3032h3.22989v-4.9403c0-2.16385 1.91063-2.71253 3.24938-2.49218zM54.0829 15.3035V4.37184h-3.2451v1.02904c-.7127-.83073-1.772-1.33533-3.219-1.33533-2.8292 0-5.1601 2.51641-5.1601 5.77321 0 3.25674 2.3374 5.77104 5.1666 5.75994 1.447 0 2.5063-.4913 3.219-1.3221v1.0269h3.2386zm-5.8101-8.13315c1.4882 0 2.5713 1.02904 2.5713 2.66846 0 1.63939-1.0809 2.66629-2.567 2.66629-1.486 0-2.5691-1.0269-2.5691-2.66629 0-1.63942 1.0766-2.66846 2.5648-2.66846zm12.0313 4.21995V7.52089h2.2247V4.37207h-2.2247V1.32241l-3.2386.97395v2.07571h-1.733v3.14882h1.733v3.86941c0 3.0606 1.2304 4.3541 5.4633 3.9134v-2.9725c-1.4254.0881-2.2247 0-2.2247-.9409z" fill="#fff"/><path d="M64.0918 14.0592c-.0042-.7901.4693-1.5047 1.1991-1.81.7298-.3052 1.5719-.1409 2.1329.4164.561.5572.7301 1.3972.4282 2.1276-.3018.7304-1.0149 1.2069-1.8062 1.2069-1.0733-.0045-1.9438-.8692-1.954-1.9409z" fill="#3CA"/></svg>