<svg width="160" height="32" viewBox="0 0 160 32" fill="none" xmlns="http://www.w3.org/2000/svg">
<g clip-path="url(#clip0)">
<path fill-rule="evenodd" clip-rule="evenodd" d="M74.6239 26.0969V19.8066C74.6239 17.0384 72.8767 15.5614 70.8236 15.5614C69.482 15.5614 68.4646 16.0551 67.9162 16.8133V11.75H64.8681V26.0969H67.9162V20.509C67.9162 19.0526 68.6889 18.3977 69.8062 18.3977C70.7828 18.3977 71.5759 18.9844 71.5759 20.2569V26.0969H74.6239ZM53.9089 20.9736C53.9089 17.9183 56.2067 15.5613 59.2955 15.5613C61.1817 15.5343 62.9367 16.5362 63.891 18.1848L61.2283 19.7445C60.8817 19.0256 60.1498 18.5959 59.2547 18.5959C57.9336 18.5959 56.959 19.5586 56.959 20.9736C56.959 22.3887 57.9336 23.3514 59.2547 23.3514C60.1498 23.3514 60.9021 22.9196 61.2283 22.2028L63.891 23.7315C62.9489 25.3952 61.1883 26.4082 59.2955 26.3757C56.2067 26.384 53.9089 24.0269 53.9089 20.9736ZM48.1353 23.6387C48.8637 23.6619 49.5694 23.3803 50.0865 22.8599L52.5331 24.2729C51.53 25.6673 50.0274 26.3841 48.0946 26.3841C44.6286 26.3841 42.4654 24.0271 42.4654 20.9738C42.4654 17.9206 44.6591 15.5615 47.8723 15.5615C50.8388 15.5615 53.0346 17.8793 53.0346 20.9738C53.0371 21.3902 52.9961 21.8057 52.9123 22.2133H45.6969C46.0822 23.2689 47.0099 23.6387 48.1353 23.6387ZM50.0066 19.9078C49.6804 18.7179 48.765 18.2882 47.8516 18.2882C46.6915 18.2882 45.9208 18.8625 45.6354 19.9078H50.0066ZM42.0981 19.1288V15.6438C40.8178 15.6438 39.466 16.2945 39.0582 17.6724V15.8483H36V26.0967H39.0399V21.4652C39.0399 19.4366 40.8381 18.9222 42.0981 19.1288ZM86.9015 26.097V15.8486H83.8474V16.8133C83.1766 16.0345 82.1796 15.5615 80.8177 15.5615C78.1549 15.5615 75.9612 17.9206 75.9612 20.9738C75.9612 24.0271 78.1611 26.3842 80.8238 26.3738C82.1857 26.3738 83.1827 25.9131 83.8535 25.1343V26.097H86.9015ZM81.4332 18.4722C82.8339 18.4722 83.8533 19.4369 83.8533 20.9739C83.8533 22.5108 82.8359 23.4735 81.4373 23.4735C80.0387 23.4735 79.0192 22.5108 79.0192 20.9739C79.0192 19.4369 80.0325 18.4722 81.4332 18.4722ZM92.7568 22.4284V18.8008H94.8506V15.8488H92.7568V12.9898L89.7087 13.9028V15.8488H88.0776V18.8008H89.7087V22.4284C89.7087 25.2978 90.8668 26.5104 94.8506 26.0972V23.3105C93.5091 23.3931 92.7568 23.3105 92.7568 22.4284Z" fill="white"/>
<path d="M96.3219 24.9304C96.3179 24.1897 96.7635 23.5197 97.4504 23.2335C98.1373 22.9474 98.9299 23.1015 99.4579 23.6239C99.9858 24.1463 100.145 24.9338 99.8609 25.6185C99.5768 26.3033 98.9056 26.75 98.1609 26.75C97.1508 26.7458 96.3314 25.9351 96.3219 24.9304V24.9304Z" fill="#00B286"/>
<path d="M29.2804 15.2553L21.5881 22.9574L18.4084 19.7729L15.6786 22.5097C15.6786 22.5097 19.325 26.1924 20.1678 26.9936C21.0106 27.7947 22.4543 27.5759 23.1897 26.8219C23.5926 26.4011 32.0001 17.9854 32.0001 17.9854L29.2804 15.2553Z" fill="#00B286"/>
<path d="M16.9515 13.1381C16.6828 13.3872 13.7046 16.4101 13.7046 16.4101V14.9188H11.1226V18.9954L8 22.1395L10.7331 24.8796L18.4087 17.1675L21.585 20.352L24.3215 17.6118C24.3215 17.6118 20.0405 13.3097 19.8793 13.1145C18.9123 12.2258 17.7942 12.3604 16.9515 13.1381Z" fill="white"/>
</g>
<defs>
<clipPath id="clip0">
<rect width="94" height="24" fill="white" transform="translate(8 8)"/>
</clipPath>
</defs>
</svg>
