<svg width="108" height="40" viewBox="0 0 108 40" fill="none" xmlns="http://www.w3.org/2000/svg">
<path fill-rule="evenodd" clip-rule="evenodd" d="M65.1779 30.1616V19.6777C65.1779 15.0641 62.2293 12.6023 58.7647 12.6023C56.5009 12.6023 54.7841 13.4252 53.8586 14.6888V6.25H48.715V30.1616H53.8586V20.8483C53.8586 18.421 55.1625 17.3295 57.0479 17.3295C58.6959 17.3295 60.0343 18.3074 60.0343 20.4282V30.1616H65.1779ZM30.2213 21.6227C30.2213 16.5306 34.0988 12.6021 39.3112 12.6021C42.4941 12.5571 45.4557 14.227 47.0661 16.9747L42.5728 19.5742C41.9879 18.376 40.7528 17.6599 39.2424 17.6599C37.0129 17.6599 35.3684 19.2643 35.3684 21.6227C35.3684 23.9812 37.0129 25.5856 39.2424 25.5856C40.7528 25.5856 42.0223 24.866 42.5728 23.6713L47.0661 26.2191C45.4762 28.992 42.5053 30.6803 39.3112 30.6262C34.0988 30.6399 30.2213 26.7115 30.2213 21.6227ZM20.4784 26.0645C21.7076 26.1032 22.8984 25.6338 23.771 24.7665L27.8996 27.1215C26.2069 29.4455 23.6712 30.6402 20.4096 30.6402C14.5607 30.6402 10.9103 26.7118 10.9103 21.6231C10.9103 16.5343 14.6123 12.6024 20.0346 12.6024C25.0405 12.6024 28.746 16.4655 28.746 21.6231C28.7501 22.317 28.6809 23.0095 28.5395 23.6889H16.3635C17.0138 25.4482 18.5792 26.0645 20.4784 26.0645ZM23.6362 19.8463C23.0857 17.8631 21.5409 17.147 19.9996 17.147C18.0419 17.147 16.7414 18.1042 16.2597 19.8463H23.6362ZM10.2906 18.548V12.7397C8.12996 12.7397 5.84889 13.8242 5.16079 16.1207V13.0805H0V30.1612H5.12982V22.442C5.12982 19.061 8.16436 18.2037 10.2906 18.548ZM85.8963 30.1617V13.081H80.7424V14.6889C79.6105 13.3909 77.9281 12.6024 75.6298 12.6024C71.1365 12.6024 67.4345 16.5343 67.4345 21.6231C67.4345 26.7118 71.1468 30.6403 75.6401 30.623C77.9384 30.623 79.6208 29.8553 80.7527 28.5572V30.1617H85.8963ZM76.6686 17.4537C79.0322 17.4537 80.7525 19.0616 80.7525 21.6231C80.7525 24.1847 79.0356 25.7892 76.6754 25.7892C74.3152 25.7892 72.595 24.1847 72.595 21.6231C72.595 19.0616 74.3049 17.4537 76.6686 17.4537ZM95.777 24.0473V18.0014H99.3104V13.0814H95.777V8.31627L90.6334 9.83807V13.0814H87.881V18.0014H90.6334V24.0473C90.6334 28.8296 92.5877 30.8506 99.3104 30.162V25.5174C97.0466 25.6552 95.777 25.5174 95.777 24.0473Z" fill="#061126"/>
<path d="M101.793 28.2173C101.787 26.9828 102.538 25.8662 103.698 25.3892C104.857 24.9122 106.194 25.1691 107.085 26.0397C107.976 26.9104 108.245 28.223 107.765 29.3642C107.286 30.5054 106.153 31.2499 104.897 31.25C103.192 31.243 101.809 29.8919 101.793 28.2173Z" fill="#00B286"/>
</svg>
