<svg viewBox="0 0 56 56" fill="none" xmlns="http://www.w3.org/2000/svg">
<circle cx="28" cy="28" r="28" fill="#00B286"/>
<path fill-rule="evenodd" clip-rule="evenodd" d="M21.7045 23.9098C21.7045 23.9098 24.6827 20.8871 24.9513 20.638C25.7941 19.8604 26.9121 19.7258 27.8791 20.6144C28.0403 20.8097 32.3212 25.1115 32.3212 25.1115L29.5848 27.8515L26.4085 24.6672L18.7331 32.3788L16 29.6388L19.1226 26.4949V22.4187H21.7045V23.9098ZM29.5881 31.4577L37.2803 23.7562L40 26.486C40 26.486 31.5926 34.9012 31.1897 35.3219C30.4544 36.0759 29.0106 36.2947 28.1679 35.4936C27.3251 34.6925 23.6788 31.01 23.6788 31.01L26.4085 28.2734L29.5881 31.4577Z" fill="white"/>
</svg>
