<svg fill="none" xmlns="http://www.w3.org/2000/svg" viewBox="0 0 108 40"><path
fill-rule="evenodd" clip-rule="evenodd" d="M65.178
30.162V19.678c0-4.614-2.949-7.076-6.413-7.076-2.264 0-3.98.823-4.906
2.087V6.25h-5.144v23.912h5.144v-9.314c0-2.427 1.303-3.518 3.189-3.518 1.648 0
2.986.977 2.986 3.098v9.734h5.144zm-34.957-8.54c0-5.091 3.878-9.02
9.09-9.02a8.844 8.844 0 017.755 4.373l-4.493
2.6c-.585-1.199-1.82-1.915-3.33-1.915-2.23 0-3.875 1.604-3.875 3.963 0 2.358
1.645 3.963 3.874 3.963 1.51 0 2.78-.72 3.33-1.915l4.494 2.548a8.768 8.768 0
01-7.755 4.407c-5.212.014-9.09-3.915-9.09-9.003zm-9.743 4.442a4.47 4.47 0
003.293-1.297l4.129 2.355c-1.693 2.323-4.229 3.518-7.49 3.518-5.85
0-9.5-3.928-9.5-9.017 0-5.089 3.702-9.02 9.125-9.02 5.006 0 8.711 3.862 8.711
9.02a9.853 9.853 0 01-.206 2.066H16.363c.65 1.76 2.216 2.375 4.115
2.375zm3.158-6.218c-.55-1.983-2.095-2.699-3.636-2.699-1.958 0-3.259.957-3.74
2.7h7.376zm-13.345-1.298V12.74c-2.161 0-4.442 1.084-5.13
3.38v-3.04H0v17.081h5.13v-7.719c0-3.381 3.034-4.238 5.16-3.894zm75.605
11.614V13.08h-5.154v1.608c-1.132-1.298-2.814-2.087-5.112-2.087-4.493 0-8.195
3.932-8.195 9.021s3.712 9.017 8.205 9c2.298 0 3.98-.768
5.113-2.066v1.605h5.143zM76.67 17.454c2.363 0 4.084 1.608 4.084 4.17 0
2.56-1.717 4.165-4.078 4.165-2.36 0-4.08-1.604-4.08-4.166 0-2.561 1.71-4.17
4.074-4.17zm19.108 6.593v-6.046h3.533v-4.92h-3.533V8.316l-5.144
1.522v3.243h-2.752v4.92h2.752v6.046c0 4.783 1.955 6.804 8.677
6.115v-4.645c-2.263.138-3.533 0-3.533-1.47z" fill="#fff"/><path d="M101.793
28.217a3.047 3.047 0 011.905-2.828 3.143 3.143 0 013.387.65c.891.871 1.16
2.184.68 3.325a3.104 3.104 0 01-2.868
1.886c-1.705-.007-3.088-1.358-3.104-3.033z" fill="#00B286"/></svg>
