<svg width="98" height="24" viewBox="0 0 98 24"
xmlns="http://www.w3.org/2000/svg" fill="#003BDF">
  <path d="M18.32 23h-6.496l-4.032-8.48H5.904V23h-5.6V.216h9.024c5.056 0 7.776 3.584 7.776 7.328 0 3.104-1.92 5.056-3.712 5.952L18.32 23zM11.504 7.544c0-1.184-.896-2.304-2.432-2.304H5.904v4.608h3.168c1.536 0 2.432-1.12 2.432-2.304zm24.032 8.544H25.232c0 1.408 1.088 2.688 3.04 2.688 1.824 0 2.624-.512 3.552-1.44l3.136 3.136c-1.76 1.76-3.488 2.72-6.688 2.72-3.808 0-8.192-1.376-8.192-8.8 0-5.632 3.2-8.8 7.712-8.8 4.992 0 7.744 3.648 7.744 8.16v2.336zM30.352 12.6c0-.416-.064-.896-.288-1.344-.32-.736-1.024-1.344-2.272-1.344-1.248 0-1.952.608-2.272 1.344-.224.448-.288.928-.288 1.344h5.12zm21.024 8.384c-1.408 1.408-3.264 2.208-5.664 2.208-2.976 0-7.744-1.28-7.744-8.8 0-7.52 4.768-8.8 7.744-8.8 2.4 0 4.256.8 5.664 2.208l-3.552 3.552c-.672-.672-1.248-1.024-2.112-1.024-.704 0-1.184.224-1.632.672-.608.64-.864 1.76-.864 3.392s.256 2.752.864 3.392c.448.448.928.672 1.632.672.864 0 1.44-.352 2.112-1.024l3.552 3.552zM68.464 23h-5.248V12.568c0-1.856-1.344-2.24-2.016-2.24-.672 0-2.016.384-2.016 2.24V23h-5.248V.216h5.248v6.976c1.088-1.088 2.464-1.6 3.776-1.6 3.712 0 5.504 2.752 5.504 6.24V23zm17.28 0h-5.12v-1.408c-1.056 1.056-2.016 1.568-3.84 1.568-1.728 0-3.168-.576-4.128-1.536-.992-.992-1.504-2.432-1.504-4.032 0-2.592 1.76-4.992 5.856-4.992h3.488v-.448c0-1.568-.768-2.144-2.592-2.144-1.344 0-1.92.32-2.752 1.152l-3.264-3.264c1.76-1.76 3.36-2.304 6.272-2.304 4.928 0 7.584 2.048 7.584 6.24V23zm-5.248-6.464v-.448H77.84c-1.024 0-1.664.576-1.664 1.376 0 .768.576 1.44 1.728 1.44 1.024 0 1.504-.096 2.08-.64.384-.352.512-.896.512-1.728zM97.776 23h-2.624c-3.808 0-5.344-2.72-5.344-5.088v-7.424H88.24V6.456h1.568V1.528h5.248v4.928h2.72v4.032h-2.72v7.04c0 .672.352 1.056 1.056 1.056h1.664V23z" fill-rule="evenodd"/>
</svg>