<svg xmlns="http://www.w3.org/2000/svg" width="96" height="96" viewBox="0 0 96 96">
    <g fill="none" fill-rule="evenodd" stroke="#000" stroke-linecap="round" stroke-linejoin="round" stroke-width="4">
        <path d="M30 94h30a2 2 0 0 0 2-2V44a2 2 0 0 0-2-2H32a2 2 0 0 0-2 2v50z"/>
        <path d="M38 42V20a2 2 0 0 0-2-2H4a2 2 0 0 0-2 2v72a2 2 0 0 0 2 2h26"/>
        <path d="M10 94V84a2 2 0 0 1 2-2h8a2 2 0 0 1 2 2v10M42 94V84a2 2 0 0 1 2-2h8a2 2 0 0 1 2 2v10M62 50H50M38 34H26M38 26H18M62 58h-8"/>
        <path fill="#F5A623" d="M79.665 16.343A8 8 0 1 1 68.35 27.657a8 8 0 0 1 11.314-11.314"/>
        <path d="M74 2v4M59.88 7.84l2.8 2.84M54 22h4M59.88 36.12l2.8-2.8M74 42v-4M88.16 36.12l-2.84-2.8M94 22h-4M88.16 7.88l-2.84 2.8"/>
    </g>
</svg>
