<svg xmlns="http://www.w3.org/2000/svg" width="24" height="24" viewBox="0 0 24 24">
    <g fill="#506379" fill-rule="nonzero">
        <path d="M20.714 3.218h-3.2V.875a.824.824 0 0 0-.828-.819.824.824 0 0 0-.828.819v2.343H8.143V.875a.824.824 0 0 0-.828-.819.824.824 0 0 0-.828.819v2.343H3.286C1.572 3.218.172 4.601.172 6.295v14.513c0 1.694 1.4 3.077 3.114 3.077h17.428c1.715 0 3.114-1.383 3.114-3.077V6.296c0-1.694-1.4-3.078-3.114-3.078zm1.458 17.591c0 .79-.657 1.44-1.458 1.44H3.286c-.8 0-1.458-.65-1.458-1.44V6.297c0-.791.657-1.44 1.458-1.44h3.2v1.129c0 .452.371.818.828.818a.824.824 0 0 0 .828-.818v-1.13h7.685v1.13c0 .452.371.818.828.818a.824.824 0 0 0 .828-.818v-1.13h3.2c.8 0 1.457.65 1.457 1.44l.003 14.513h.029z"/>
        <path d="M7.657 10.56H4.601a.824.824 0 0 0-.829.818c0 .452.372.818.829.818h3.056a.824.824 0 0 0 .829-.818.824.824 0 0 0-.829-.819zM7.657 18.183H4.601a.824.824 0 0 0-.829.818c0 .453.372.819.829.819h3.056A.824.824 0 0 0 8.486 19a.824.824 0 0 0-.829-.818zM7.657 14.371H4.601a.824.824 0 0 0-.829.819c0 .452.372.818.829.818h3.056a.824.824 0 0 0 .829-.818.824.824 0 0 0-.829-.819zM13.542 10.56h-3.085a.824.824 0 0 0-.828.818c0 .452.372.818.828.818h3.057a.824.824 0 0 0 .828-.818.8.8 0 0 0-.8-.819zM13.542 18.183h-3.085a.824.824 0 0 0-.828.818c0 .453.372.819.828.819h3.057a.824.824 0 0 0 .828-.819.8.8 0 0 0-.8-.818zM13.542 14.371h-3.085a.824.824 0 0 0-.828.819c0 .452.372.818.828.818h3.057a.824.824 0 0 0 .828-.818.8.8 0 0 0-.8-.819zM19.4 10.56h-3.057a.824.824 0 0 0-.829.818c0 .452.372.818.829.818h3.056a.824.824 0 0 0 .829-.818.823.823 0 0 0-.829-.819zM19.4 18.183h-3.057a.824.824 0 0 0-.829.818c0 .453.372.819.829.819h3.056a.824.824 0 0 0 .829-.819.823.823 0 0 0-.829-.818zM19.4 14.371h-3.057a.824.824 0 0 0-.829.819c0 .452.372.818.829.818h3.056a.824.824 0 0 0 .829-.818.823.823 0 0 0-.829-.819z"/>
    </g>
</svg>

