<svg xmlns="http://www.w3.org/2000/svg" width="24" height="24" viewBox="0 0 24 24">
    <g fill="none" fill-rule="evenodd">
        <path fill="#FFF" d="M-110-8H92v406h-202z"/>
        <path fill="#FF6F6F" fill-rule="nonzero" d="M20 10.918a2.51 2.51 0 0 0-2.5-2.52h-2.918c.843-.319 1.744-.74 2.227-1.227.67-.674 1.07-1.547 1.07-2.333 0-.537-.179-1-.518-1.341-.831-.842-2.518-.583-3.645.556-.483.487-.9 1.395-1.216 2.245-.315-.85-.733-1.758-1.216-2.245-1.128-1.14-2.814-1.4-3.645-.556-.34.34-.517.804-.517 1.341-.002.786.399 1.66 1.069 2.333.483.488 1.384.908 2.227 1.226H7.5a2.51 2.51 0 0 0-2.5 2.52v2.521h1.25v5.041A2.51 2.51 0 0 0 8.75 21h7.5a2.51 2.51 0 0 0 2.5-2.52v-5.042H20v-2.52zm-5.4-5.974c.433-.438.981-.709 1.429-.709.136 0 .322.026.448.153s.151.315.151.451c.001.452-.268 1.005-.703 1.442-.414.417-1.52.868-2.508 1.192.32-.997.769-2.112 1.183-2.529zM8.372 4.84c0-.136.025-.325.15-.451.127-.127.313-.153.449-.153.448 0 .996.271 1.43.71.413.416.861 1.531 1.182 2.528-.989-.322-2.095-.775-2.508-1.192-.435-.437-.705-.99-.703-1.442zM6.25 10.918c0-.695.56-1.26 1.25-1.26h4.375v2.52H6.25v-1.26zm1.25 7.561v-5.04h4.375v6.3H8.75c-.69 0-1.25-.565-1.25-1.26zm10 0c0 .695-.56 1.26-1.25 1.26h-3.125v-6.3H17.5v5.04zm1.25-6.3h-5.625V9.657H17.5c.69 0 1.25.565 1.25 1.26v1.26z"/>
    </g>
</svg>
