<svg xmlns="http://www.w3.org/2000/svg" width="24" height="24" viewBox="0 0 24 24">
    <path d="M22 10.5571c0-1.85595-1.4923-3.36074-3.3334-3.36074h-3.8902c1.1238-.424 2.3246-.9848 2.9689-1.6344.8935-.89919 1.4275-2.06265 1.4259-3.11118 0-.71546-.2375-1.33413-.69-1.788525-1.1085-1.122394-3.3578-.776263-4.8601.741595-.6443.6496-1.2006 1.86026-1.6211 2.99332-.4205-1.13306-.9768-2.34372-1.6211-2.99332C8.875-.115608 6.62733-.462006 5.51883.662255c-.45255.454665-.69006 1.073065-.69006 1.788525-.00159 1.04853.53216 2.21199 1.42589 3.11118.64431.6496 1.8451 1.2104 2.96894 1.6344H5.33342C3.49254 7.19636 2 8.70088 2 10.5571v3.3608h1.66658v6.7213C3.66658 22.4952 5.15885 24 7 24h10c1.8409 0 3.3334-1.5045 3.3334-3.3608v-6.7213H22v-3.3608zm-7.2006-7.96499c.5779-.58426 1.3087-.94506 1.906-.94506.1806 0 .4298.0344.5972.20347.1677.16906.2018.41999.2018.60213.0016.60213-.3581 1.33892-.9374 1.92159-.5517.55626-2.0263 1.15839-3.3448 1.59012.4267-1.32932 1.0255-2.81598 1.5772-3.37225zm-8.30406-.13946c0-.18214.03412-.43333.20181-.60213.16769-.16907.41658-.20347.59723-.20347.59723 0 1.32803.36107 1.90595.94506.55173.55627 1.14897 2.04293 1.57717 3.37225C9.45927 5.5345 7.98444 4.9305 7.43271 4.37424c-.57924-.58267-.93895-1.31946-.93737-1.92159zM3.66658 10.5571c0-.92636.74773-1.68022 1.66658-1.68022h5.83344v3.36082H3.66658v-1.6806zm1.66684 10.0821v-6.7213h5.83338v8.4018H7c-.91885 0-1.66658-.7538-1.66658-1.6805zm13.33318 0c0 .9264-.7477 1.6803-1.6666 1.6803h-4.1666v-8.4016h5.8334v6.7213h-.0002zm1.6668-8.4015h-7.5V8.87688h5.8334c.9189 0 1.6666.75386 1.6666 1.68022v1.6806z" fill="#000"/>
</svg>
