<?xml version="1.0" encoding="utf-8"?>
<!-- Generator: Adobe Illustrator 17.0.0, SVG Export Plug-In . SVG Version: 6.00 Build 0)  -->
<!DOCTYPE svg PUBLIC "-//W3C//DTD SVG 1.1//EN" "http://www.w3.org/Graphics/SVG/1.1/DTD/svg11.dtd">
<svg version="1.1" id="Layer_1" xmlns="http://www.w3.org/2000/svg" xmlns:xlink="http://www.w3.org/1999/xlink" x="0px" y="0px"
	 width="24px" height="24px" viewBox="0 0 24 24" enable-background="new 0 0 24 24" xml:space="preserve">
<g>
	<g>
		<path d="M12,0C9.627,0,7.307,0.704,5.333,2.022C3.36,3.341,1.822,5.215,0.913,7.408c-0.908,2.193-1.146,4.605-0.683,6.933
			s1.606,4.466,3.284,6.144s3.816,2.821,6.144,3.284c2.328,0.463,4.741,0.225,6.933-0.683c2.193-0.908,4.067-2.446,5.385-4.42
			C23.296,16.694,24,14.373,24,12c-0.003-3.182-1.269-6.232-3.518-8.481S15.182,0.003,12,0L12,0z M12.25,5
			c0.297,0,0.587,0.088,0.833,0.253c0.247,0.165,0.439,0.399,0.552,0.673c0.114,0.274,0.143,0.576,0.085,0.867
			c-0.058,0.291-0.201,0.558-0.41,0.768c-0.21,0.21-0.477,0.353-0.768,0.411c-0.291,0.058-0.592,0.028-0.867-0.085
			c-0.274-0.114-0.508-0.306-0.673-0.552C10.838,7.087,10.75,6.797,10.75,6.5c0-0.398,0.158-0.779,0.439-1.061
			C11.471,5.158,11.852,5,12.25,5z M14.5,18.5h-4c-0.265,0-0.52-0.105-0.707-0.293S9.5,17.765,9.5,17.5s0.105-0.52,0.293-0.707
			S10.235,16.5,10.5,16.5h0.75c0.066,0,0.13-0.026,0.177-0.073S11.5,16.316,11.5,16.25v-4.5c0-0.066-0.026-0.13-0.073-0.177
			S11.316,11.5,11.25,11.5H10.5c-0.265,0-0.52-0.105-0.707-0.293S9.5,10.765,9.5,10.5s0.105-0.52,0.293-0.707
			C9.98,9.605,10.235,9.5,10.5,9.5h1c0.53,0,1.039,0.211,1.414,0.586C13.289,10.461,13.5,10.97,13.5,11.5v4.75
			c0,0.066,0.026,0.13,0.073,0.177s0.11,0.073,0.177,0.073h0.75c0.265,0,0.52,0.105,0.707,0.293S15.5,17.235,15.5,17.5
			s-0.105,0.52-0.293,0.707S14.765,18.5,14.5,18.5z"/>
	</g>
</g>
</svg>
