<svg width="24" height="24" viewBox="0 0 24 24" fill="none" xmlns="http://www.w3.org/2000/svg">
<path d="M7.84368 3.51798L7.84605 3.5191C7.94627 3.56688 8.05541 3.59306 8.1664 3.59595C8.2774 3.59884 8.38777 3.57838 8.49033 3.5359C8.59293 3.4934 8.68544 3.42982 8.76189 3.34929C8.83832 3.26877 8.89698 3.17308 8.93601 3.063L9.37128 1.85691C9.56484 1.31351 9.92176 0.843326 10.3931 0.510878C10.8644 0.178422 11.4272 0 12.004 0C12.5808 0 13.1435 0.178624 13.6151 0.511339C14.0864 0.844009 14.4432 1.31438 14.6364 1.85748L15.0669 3.06677C15.1041 3.17114 15.1628 3.26659 15.239 3.34675C15.3155 3.42721 15.4078 3.49065 15.5102 3.53316C15.6125 3.57562 15.7226 3.59619 15.8334 3.59353C15.9442 3.59087 16.0532 3.56503 16.1516 3.51848L17.3128 2.96706C17.8339 2.72051 18.4183 2.64114 18.9863 2.73981C19.5542 2.8385 20.0778 3.11039 20.4852 3.51835C20.8925 3.92622 21.1637 4.45005 21.2617 5.01804C21.3596 5.58606 21.2795 6.17047 21.032 6.6921L20.4799 7.85241C20.4322 7.9527 20.4061 8.06204 20.4033 8.17341C20.4004 8.28448 20.421 8.39501 20.4636 8.49785C20.5061 8.60063 20.5698 8.69335 20.6505 8.77C20.731 8.8466 20.8268 8.90546 20.9311 8.94256L22.1431 9.37306C22.6866 9.56662 23.1568 9.92355 23.4893 10.3949C23.8217 10.8663 24.0001 11.4289 24.0001 12.0058C24.0001 12.5827 23.8215 13.1454 23.4888 13.6169C23.1562 14.0881 22.6859 14.4448 22.1426 14.6382L20.9325 15.0689C20.8276 15.1062 20.7319 15.165 20.6514 15.2414C20.5709 15.3179 20.5073 15.4105 20.4648 15.5131C20.4223 15.6157 20.4018 15.726 20.4047 15.8374C20.4075 15.9482 20.4336 16.0573 20.4817 16.1583L21.0351 17.3238C21.2781 17.8436 21.3551 18.4256 21.2558 18.9908C21.1564 19.5559 20.8856 20.0767 20.4799 20.4825C20.0743 20.8883 19.5535 21.1594 18.9887 21.2589C18.4236 21.3586 17.8417 21.2817 17.3157 21.0363L16.154 20.485C16.0536 20.4372 15.9443 20.4111 15.8333 20.4083C15.7223 20.4054 15.6117 20.426 15.5091 20.4684C15.4064 20.511 15.3138 20.5746 15.2371 20.6553C15.1606 20.7358 15.1018 20.8316 15.0637 20.9387L14.6285 22.152C14.4339 22.6928 14.0771 23.1604 13.6068 23.4913C13.1367 23.8219 12.576 23.9995 12.0013 24C11.4265 24.0005 10.8655 23.8236 10.3948 23.4935C9.92415 23.1635 9.56674 22.6963 9.36937 22.1504L8.9396 20.9404C8.90242 20.8357 8.8437 20.74 8.76723 20.6595C8.69072 20.579 8.59813 20.5154 8.49579 20.473C8.39305 20.4305 8.28251 20.4099 8.17172 20.4128C8.06048 20.4156 7.95128 20.4418 7.85034 20.4898L6.69196 21.0399C6.17136 21.2882 5.58665 21.3691 5.0181 21.2718C4.44963 21.1744 3.92521 20.9034 3.51686 20.4961C3.10854 20.0888 2.8363 19.565 2.73752 18.9967C2.63878 18.4284 2.71834 17.8435 2.96579 17.3213L3.51718 16.161C3.5649 16.0605 3.59103 15.9512 3.59385 15.84C3.59668 15.7287 3.57615 15.6182 3.53357 15.5154C3.49103 15.4127 3.42739 15.32 3.34669 15.2433C3.26606 15.1667 3.17025 15.1078 3.06312 15.0697L1.85131 14.635C1.30953 14.4409 0.840945 14.0842 0.509646 13.6138C0.178112 13.1432 0 12.5816 0 12.006C0 11.4307 0.177335 10.8694 0.508193 10.3986C0.839159 9.92791 1.30742 9.57081 1.85163 9.37533L3.06302 8.94404C3.16791 8.90692 3.26383 8.84813 3.34456 8.77151C3.42526 8.6949 3.48895 8.60217 3.53149 8.49933C3.57403 8.39648 3.59446 8.28587 3.59145 8.17463C3.58845 8.06338 3.56208 7.95401 3.51161 7.84847L2.96343 6.68554C2.71869 6.16512 2.64049 5.58185 2.73949 5.01531C2.8385 4.44879 3.10989 3.92662 3.51663 3.52003C3.92339 3.11345 4.44568 2.84227 5.01222 2.74351C5.57879 2.64473 6.16204 2.72317 6.68436 2.96908L7.84368 3.51798ZM5.83048 4.77764C5.68258 4.70801 5.51679 4.68571 5.3557 4.71379C5.19466 4.74187 5.04619 4.81896 4.93056 4.93453C4.81493 5.05012 4.73778 5.19857 4.70963 5.35961C4.68149 5.52067 4.70372 5.68648 4.7729 5.8336L5.31823 6.99053C5.48731 7.34395 5.58015 7.729 5.59073 8.12065C5.6013 8.51229 5.52937 8.90177 5.37962 9.26379C5.22987 9.62583 5.00563 9.95232 4.72148 10.2221C4.43733 10.4918 4.09962 10.6987 3.73206 10.8288L2.5251 11.2585C2.37135 11.3138 2.23833 11.4152 2.14438 11.5488C2.05044 11.6825 2 11.8421 2 12.006C2 12.169 2.05053 12.3283 2.14477 12.4621C2.2389 12.5958 2.37197 12.6971 2.52619 12.7523L3.73605 13.1863C4.10441 13.3174 4.44117 13.5243 4.72455 13.7937C5.00797 14.063 5.2317 14.3888 5.38138 14.7501C5.53098 15.1115 5.60314 15.4999 5.59321 15.8908C5.58327 16.2816 5.49145 16.6661 5.32363 17.0193L4.77267 18.1787C4.70254 18.3267 4.67994 18.4928 4.70799 18.6542C4.73605 18.8157 4.81338 18.9645 4.92932 19.0801C5.04533 19.1958 5.19429 19.2728 5.35568 19.3004C5.51728 19.3281 5.68333 19.3051 5.83254 19.234L6.99159 18.6836C7.34461 18.5155 7.72901 18.4236 8.12034 18.4134C8.51107 18.4035 8.89956 18.4755 9.26102 18.6252C9.62223 18.7748 9.948 18.9986 10.2172 19.2821C10.4866 19.5656 10.6934 19.9025 10.8243 20.271L11.2521 21.4757C11.3077 21.6293 11.4093 21.7622 11.5431 21.856C11.677 21.9499 11.8364 22 11.9997 22C12.1632 22 12.3227 21.9493 12.4562 21.8554C12.5899 21.7613 12.6914 21.6284 12.7463 21.4757L13.1802 20.2661C13.3112 19.8977 13.5181 19.5608 13.7873 19.2777C14.0566 18.9942 14.3823 18.7704 14.7439 18.6206C15.1052 18.4711 15.4936 18.399 15.8843 18.4089C16.2751 18.4189 16.6594 18.5108 17.0121 18.6784L18.1673 19.2267C18.3154 19.2958 18.4808 19.3176 18.6415 19.2893C18.8021 19.261 18.9501 19.1839 19.0655 19.0685C19.1808 18.9532 19.2578 18.8052 19.286 18.6444C19.3142 18.4838 19.2923 18.3184 19.2259 18.1762L18.6755 17.0171C18.5074 16.6639 18.4153 16.2793 18.4053 15.8888C18.3952 15.4978 18.4673 15.1091 18.6171 14.7476C18.7667 14.3864 18.9905 14.0607 19.274 13.7914C19.5574 13.5222 19.8942 13.3154 20.2622 13.1846L21.4719 12.754C21.6265 12.699 21.7602 12.5975 21.8547 12.4636C21.9493 12.3296 22.0001 12.1697 22.0001 12.0058C22.0001 11.8416 21.9494 11.6816 21.8549 11.5477C21.7604 11.4137 21.6267 11.3122 21.4729 11.2574L20.2612 10.827C19.8927 10.6959 19.5559 10.489 19.2725 10.2196C18.9892 9.95024 18.7654 9.62444 18.6158 9.26322C18.4662 8.90193 18.394 8.51331 18.4039 8.12243C18.4139 7.73149 18.5057 7.34703 18.6737 6.99349L19.2256 5.83369C19.2958 5.68564 19.3186 5.51946 19.2907 5.3579C19.2629 5.19645 19.1858 5.04749 19.0701 4.93161C18.9543 4.81566 18.8054 4.73835 18.6439 4.71029C18.4825 4.68224 18.3164 4.7048 18.1695 4.7743L17.008 5.32588C16.6553 5.4926 16.2715 5.58357 15.8814 5.59295C15.4914 5.60233 15.1037 5.5299 14.7435 5.38036C14.3832 5.23083 14.0582 5.0075 13.7892 4.72452C13.5205 4.44171 13.314 4.10575 13.1829 3.73797L12.7521 2.52795C12.6972 2.37362 12.5958 2.23991 12.4619 2.1454C12.3278 2.05077 12.1678 2 12.004 2C11.8399 2 11.6798 2.05074 11.5459 2.14523C11.4119 2.23975 11.3104 2.37345 11.2539 2.53192L10.8192 3.7365C10.6885 4.10526 10.4818 4.44244 10.2125 4.72619C9.94312 5.00994 9.61717 5.23392 9.25571 5.38365C8.89427 5.53336 8.5054 5.60546 8.11432 5.59527C7.7237 5.58509 7.33957 5.49305 6.98677 5.3251L5.83048 4.77764ZM11.997 17.1266C9.16828 17.1266 6.87515 14.8335 6.87515 12.0047C6.87515 9.176 9.1683 6.88287 11.997 6.88287C14.8258 6.88287 17.1189 9.17599 17.1189 12.0047C17.1189 14.8335 14.8258 17.1266 11.997 17.1266ZM11.997 15.1266C13.7212 15.1266 15.1189 13.7289 15.1189 12.0047C15.1189 10.2806 13.7212 8.88287 11.997 8.88287C10.2729 8.88287 8.87515 10.2806 8.87515 12.0047C8.87515 13.7289 10.2728 15.1266 11.997 15.1266Z" />
</svg>
