<svg xmlns="http://www.w3.org/2000/svg" width="24" height="24" viewBox="0 0 24 24">
    <g fill="none" fill-rule="evenodd">
        <path fill="#D8D8D8" fill-opacity="0" d="M0 0h24v24H0z"/>
        <path fill="#000" fill-rule="nonzero" d="M22 9V5.004l-3-.002v.995a.999.999 0 1 1-2 0v-.995L7 5v.997a.999.999 0 1 1-2 0V5H2.005l-.003 4H22zm0 2H2.001L2 21.996c0 .003 19.995.004 19.995.004.002 0 .003-6.107.004-11zm-3-8h2.995C23.102 3 24 3.896 24 5.004v16.992A2.004 2.004 0 0 1 21.995 24H2.005A2.003 2.003 0 0 1 0 21.996V5.004C0 3.897.897 3 2.005 3H5V1.003a.999.999 0 1 1 2 0V3h10V1.003a.999.999 0 1 1 2 0V3z"/>
    </g>
</svg>
