<svg width="24" height="24" viewBox="0 0 24 24" fill="none" xmlns="http://www.w3.org/2000/svg">
  <path d="M6.09283 7.39952C6.19272 7.47743 6.31852 7.51457 6.4448 7.50345C6.57108 7.49233 6.68842 7.43378 6.7731 7.33962C7.42005 6.61714 8.21049 6.03681 9.09422 5.63549C9.97794 5.23417 10.9356 5.02062 11.9065 5.00842C12.8773 4.99621 13.8401 5.18561 14.7337 5.56459C15.6273 5.94357 16.4321 6.50385 17.0971 7.20984C17.1436 7.25663 17.1989 7.29376 17.2599 7.3191C17.3208 7.34445 17.3862 7.35749 17.4522 7.35749C17.5183 7.35749 17.5836 7.34445 17.6446 7.3191C17.7055 7.29376 17.7609 7.25663 17.8074 7.20984L20.7285 4.47442C20.7754 4.42801 20.8126 4.37281 20.838 4.31198C20.8634 4.25115 20.8764 4.18591 20.8764 4.12001C20.8764 4.05411 20.8634 3.98887 20.838 3.92804C20.8126 3.86722 20.7754 3.81201 20.7285 3.7656C19.5751 2.54364 18.1771 1.57723 16.6254 0.929046C15.0737 0.280859 13.4027 -0.0346376 11.721 0.00301381C10.0392 0.0406652 8.38413 0.430624 6.86308 1.1476C5.34203 1.86459 3.98896 2.89258 2.89159 4.16494C2.84567 4.21838 2.8116 4.28092 2.79161 4.34844C2.77162 4.41596 2.76618 4.48693 2.77562 4.5567C2.78507 4.62647 2.8092 4.69346 2.84643 4.75326C2.88366 4.81307 2.93314 4.86433 2.99163 4.9037L6.09283 7.39952Z" fill="#D75140"/>
  <path d="M5.2327 14.7771C5.30515 14.7121 5.35699 14.6274 5.38187 14.5334C5.40675 14.4395 5.40358 14.3403 5.37276 14.248C4.87809 12.8049 4.87809 11.2386 5.37276 9.79547C5.40566 9.69861 5.40795 9.594 5.37932 9.49579C5.3507 9.39758 5.29253 9.31052 5.2127 9.24639L1.94143 6.64075C1.88298 6.59428 1.81484 6.56147 1.74201 6.54474C1.66918 6.52801 1.59352 6.52777 1.52059 6.54405C1.44766 6.56033 1.37931 6.59271 1.32057 6.63882C1.26183 6.68492 1.21418 6.74357 1.18114 6.81046C0.379083 8.47315 -0.0248575 10.2991 0.00118375 12.1442C0.027225 13.9893 0.482536 15.8032 1.3312 17.4427C1.36646 17.5105 1.41687 17.5694 1.47853 17.6148C1.5402 17.6601 1.61148 17.6907 1.68688 17.7042C1.76227 17.7177 1.83977 17.7138 1.91339 17.6927C1.98701 17.6715 2.05479 17.6338 2.1115 17.5825L5.2327 14.7771Z" fill="#F1BE42"/>
  <path d="M24 10.4943C24 10.362 23.9473 10.235 23.8535 10.1414C23.7597 10.0478 23.6325 9.99518 23.4999 9.99518H13.496C13.3633 9.99518 13.2361 10.0478 13.1423 10.1414C13.0485 10.235 12.9958 10.362 12.9958 10.4943V14.4877C12.9958 14.6201 13.0485 14.747 13.1423 14.8406C13.2361 14.9342 13.3633 14.9868 13.496 14.9868H18.3379C18.0432 15.5963 17.6588 16.1582 17.1974 16.654C17.1145 16.7458 17.0685 16.8649 17.0685 16.9885C17.0685 17.112 17.1145 17.2312 17.1974 17.3229L19.8684 20.3179C19.9152 20.3678 19.9718 20.4075 20.0346 20.4347C20.0974 20.4619 20.1651 20.4759 20.2336 20.4759C20.302 20.4759 20.3698 20.4619 20.4326 20.4347C20.4954 20.4075 20.5519 20.3678 20.5987 20.3179C22.6342 18.2392 23.843 15.493 24 12.5908V10.4943Z" fill="#5386EC"/>
  <path d="M15.5167 18.4411C15.4454 18.362 15.3507 18.3078 15.2463 18.2862C15.142 18.2647 15.0334 18.277 14.9365 18.3213C13.5898 18.9542 12.0747 19.1376 10.6154 18.8446C9.15605 18.5515 7.83 17.7975 6.83339 16.694C6.73989 16.6026 6.61419 16.5513 6.48326 16.5513C6.35233 16.5513 6.22662 16.6026 6.13312 16.694L3.13197 19.3695C3.08508 19.4159 3.04787 19.4712 3.02248 19.532C2.99708 19.5928 2.98401 19.6581 2.98401 19.724C2.98401 19.7898 2.99708 19.8551 3.02248 19.9159C3.04787 19.9767 3.08508 20.032 3.13197 20.0784C4.99154 22.1198 7.50018 23.4582 10.2341 23.8674C12.9681 24.2767 15.7598 23.7317 18.1378 22.3246C18.2009 22.2871 18.255 22.2362 18.2963 22.1755C18.3375 22.1148 18.3648 22.0458 18.3763 21.9734C18.3877 21.9009 18.3831 21.8269 18.3626 21.7564C18.3421 21.686 18.3063 21.6209 18.2578 21.5659L15.5167 18.4411Z" fill="#5AA55D"/>
</svg>
