<svg xmlns="http://www.w3.org/2000/svg" width="24" height="24" viewBox="0 0 24 24"><g fill="none" fill-rule="evenodd"><path d="M8 8h8v8H8z"/><path fill="#FFF" fill-rule="nonzero" d="M10.862 15.848a.923.923 0 0 1-.66-.277l-1.896-1.93a.918.918 0 0 1 .015-1.302.924.924 0 0 1 1.305.015l1.145 1.166 3.525-4.667a.925.925 0 0 1 1.293-.182c.407.306.49.882.183 1.288L11.6 15.481a.923.923 0 0 1-.738.367z"/><path d="M0 0h24v24H0z"/><path fill="#000" fill-rule="nonzero" d="M9.661 4c-.529 0-1.004.21-1.358.522-.354.313-.604.715-.793 1.145-.376.86-.51 1.841-.51 2.6 0 1.07.536 2.586 1.253 3.877.024.907.252 1.684.665 2.256.435.6 1.09.973 1.797.978h.01c.413.005.828-.118 1.132-.406.305-.29.464-.724.466-1.189v-.005c.003-.466-.163-.815-.289-1.2a4.394 4.394 0 0 1-.244-1.467c0-.533.355-1.73.355-2.844 0-.868-.09-1.848-.427-2.684-.167-.418-.4-.81-.743-1.105A2.007 2.007 0 0 0 9.661 4zm0 1.067c.274 0 .451.075.621.222.17.146.325.38.45.689.247.618.349 1.505.349 2.289 0 .857-.355 1.955-.355 2.844v.05l-1.652.278c-.588-1.136-1.01-2.552-1.01-3.172 0-.62.131-1.505.422-2.167.145-.331.326-.606.521-.778a.916.916 0 0 1 .654-.255zm5.678 3.555c-.51 0-.971.182-1.314.478-.343.296-.576.687-.743 1.106-.336.836-.427 1.815-.427 2.683 0 1.114.355 2.31.355 2.844a4.4 4.4 0 0 1-.244 1.467c-.126.385-.292.734-.289 1.2v.005c.002.466.161.9.466 1.19.304.287.719.41 1.131.405h.011c.708-.004 1.362-.378 1.797-.978.413-.572.641-1.349.665-2.256.717-1.29 1.253-2.808 1.253-3.877 0-.758-.134-1.74-.51-2.6-.189-.43-.439-.832-.793-1.145a2.057 2.057 0 0 0-1.358-.522zm0 1.067c.267 0 .46.083.654.255.195.173.376.447.521.778.29.663.421 1.547.421 2.167 0 .62-.42 2.036-1.009 3.172l-1.652-.278v-.05c0-.889-.355-1.986-.355-2.844 0-.784.102-1.67.35-2.289.124-.309.279-.542.449-.689a.868.868 0 0 1 .62-.222zm-4.497 2.539c.053.256.115.484.178.677.141.434.24.707.238.867v.006c0 .243-.062.348-.133.416-.071.068-.187.121-.388.117h-.011c-.353 0-.67-.161-.943-.539-.215-.298-.386-.734-.449-1.294l1.508-.25zm3.316 4.622l1.508.25c-.063.56-.234.996-.45 1.294-.272.378-.589.54-.942.54h-.01c-.202.003-.318-.05-.389-.118-.071-.068-.133-.173-.133-.416v-.006c-.002-.16.097-.432.238-.866.063-.194.125-.422.178-.678z"/></g></svg>