<svg width="24" height="24" viewBox="0 0 24 24" xmlns="http://www.w3.org/2000/svg">
  <g clip-path="url(#clip0)">
    <path d="M7.355 0C6.49 0 5.712.315 5.132.783c-.58.47-.989 1.072-1.297 1.717C3.219 3.79 3 5.262 3 6.4c0 1.604.878 3.88 2.05 5.816.039 1.36.412 2.525 1.09 3.384.71.9 1.78 1.46 2.939 1.467h.018c.675.008 1.354-.177 1.85-.609.5-.434.76-1.085.763-1.783v-.009c.005-.698-.267-1.221-.472-1.8-.207-.58-.4-1.234-.4-2.2 0-.8.581-2.595.581-4.266 0-1.301-.148-2.77-.698-4.025-.275-.627-.655-1.215-1.216-1.658C8.944.273 8.188 0 7.355 0zm9.29 6.933c-.833 0-1.589.273-2.15.717-.561.444-.941 1.031-1.216 1.658-.55 1.254-.698 2.724-.698 4.025 0 1.671.58 3.467.58 4.267 0 .965-.192 1.62-.399 2.2-.205.578-.477 1.1-.472 1.8v.008c.003.698.263 1.35.762 1.784.497.432 1.177.616 1.851.608h.018c1.158-.006 2.229-.567 2.94-1.467.677-.858 1.05-2.023 1.089-3.383 1.172-1.937 2.05-4.213 2.05-5.817 0-1.137-.219-2.61-.835-3.9-.308-.644-.718-1.248-1.297-1.716a3.544 3.544 0 00-2.223-.784z"/>
  </g>
  <defs>
    <clipPath id="clip0">
      <path d="M0 0h24v24H0z"/>
    </clipPath>
  </defs>
</svg>
