<svg xmlns="http://www.w3.org/2000/svg" width="24" height="24" viewBox="0 0 24 24"><path d="M9.1452 3c-.625 0-1.1869.236-1.6054.5875-.4185.3516-.7142.804-.937 1.2875C6.1581 5.8422 6 6.9468 6 7.8c0 1.203.634 2.9101 1.4808 4.3623.0279 1.0203.2974 1.8937.7863 2.5376.5136.675 1.2868 1.0953 2.123 1.1h.0131c.4874.0062.978-.1321 1.3367-.4563.3604-.3258.5488-.814.5504-1.3375V14c.0041-.5242-.1925-.9164-.3407-1.35-.149-.4352-.2883-.9258-.2883-1.65 0-.6.4193-1.9468.4193-3.2 0-.9757-.1073-2.078-.5045-3.0187-.1982-.4703-.4726-.9109-.878-1.2437S9.747 3 9.145 3zm0 1.2c.3235 0 .5332.0852.7338.25.2007.1649.3842.4274.5308.775.2932.6953.4128 1.693.4128 2.575 0 .9648-.4194 2.2-.4194 3.2v.0562l-1.9526.3125c-.6946-1.2781-1.1925-2.8704-1.1925-3.5688 0-.6968.1548-1.6921.498-2.4375.1711-.3727.3857-.6813.6159-.875.2301-.1938.4578-.2875.7732-.2875V4.2zm6.7096 4c-.602 0-1.1475.2046-1.5529.5375-.4054.3328-.6798.7734-.878 1.2437-.3972.9406-.5045 2.043-.5045 3.0187 0 1.2531.4193 2.6.4193 3.2 0 .7242-.1392 1.2148-.2883 1.65-.1482.4336-.3448.8257-.3407 1.35v.0062c.0016.5234.19 1.0117.5504 1.3375.3587.3242.8493.4625 1.3367.4562h.013c.8363-.0047 1.6095-.425 2.123-1.1.489-.6437.7585-1.5171.7864-2.5375C18.366 15.9099 19 14.2029 19 12.9999c0-.853-.158-1.9578-.6028-2.925-.2228-.4835-.5185-.9358-.937-1.2874-.4186-.3516-.9804-.5875-1.6054-.5875zm0 1.2c.3154 0 .543.0937.7732.2874.2302.1938.4448.5024.616.875.3431.7453.498 1.7406.498 2.4376 0 .6984-.498 2.2905-1.1926 3.5687l-1.9526-.3125V16.2c0-1-.4194-2.2352-.4194-3.2 0-.882.1196-1.8796.4128-2.575.1466-.3476.33-.61.5308-.775.2006-.1647.4103-.25.7338-.25zm-5.314 2.856c.0622.2884.1351.5454.2096.7626.1671.4883.2843.7953.2818.975v.0062c0 .2742-.0729.3922-.1572.4688-.0844.0765-.2212.1359-.4587.1312h-.0131c-.417 0-.7912-.1812-1.114-.6062-.2546-.3352-.4561-.8258-.5307-1.4562l1.7823-.2813zm3.9184 5.2l1.7823.2812c-.0746.6305-.276 1.1211-.5308 1.4563-.3227.425-.697.6062-1.1139.6062h-.013c-.2376.0047-.3744-.0547-.4588-.1313-.0843-.0765-.1572-.1945-.1572-.4687v-.0063c-.0025-.1796.1147-.4867.2818-.975a6.7703 6.7703 0 0 0 .2096-.7624z" fill-rule="nonzero"/>
</svg>
