<svg width="24" height="24" viewBox="0 0 24 24" fill="none" xmlns="http://www.w3.org/2000/svg">
  <path d="M23.119 19.8889L13.772 2.58981C13.6026 2.27652 13.348 2.01413 13.0357 1.83106C12.7234 1.64799 12.3654 1.55121 12.0005 1.55121C11.6355 1.55121 11.2775 1.64799 10.9653 1.83106C10.653 2.01413 10.3984 2.27652 10.229 2.58981L0.880979 19.8889C0.7213 20.1843 0.642983 20.5147 0.653601 20.848C0.66422 21.1814 0.763415 21.5065 0.941594 21.7918C1.11977 22.0771 1.37091 22.3131 1.67071 22.4768C1.97051 22.6406 2.30884 22.7266 2.65298 22.7265H21.347C21.6911 22.7266 22.0294 22.6406 22.3292 22.4768C22.629 22.3131 22.8802 22.0771 23.0584 21.7918C23.2365 21.5065 23.3357 21.1814 23.3464 20.848C23.357 20.5147 23.2787 20.1843 23.119 19.8889ZM11 8.66919C11 8.41216 11.1053 8.16566 11.2929 7.98391C11.4804 7.80216 11.7348 7.70006 12 7.70006C12.2652 7.70006 12.5195 7.80216 12.7071 7.98391C12.8946 8.16566 13 8.41216 13 8.66919V14.484C13 14.741 12.8946 14.9875 12.7071 15.1693C12.5195 15.351 12.2652 15.4531 12 15.4531C11.7348 15.4531 11.4804 15.351 11.2929 15.1693C11.1053 14.9875 11 14.741 11 14.484V8.66919ZM12.05 19.8239H12.022C11.6276 19.8227 11.249 19.6738 10.9654 19.4083C10.6817 19.1427 10.5149 18.7812 10.5 18.3993C10.4928 18.2094 10.5247 18.0199 10.5939 17.8421C10.6631 17.6642 10.7681 17.5015 10.903 17.3635C11.0378 17.2254 11.1996 17.1148 11.379 17.0381C11.5585 16.9613 11.7519 16.92 11.948 16.9165H11.976C12.3703 16.917 12.7491 17.0652 13.0331 17.3302C13.3172 17.5952 13.4845 17.9564 13.5 18.3383C13.5077 18.5286 13.4761 18.7186 13.4071 18.897C13.338 19.0753 13.2328 19.2385 13.0977 19.3769C12.9626 19.5154 12.8003 19.6262 12.6204 19.703C12.4405 19.7797 12.2465 19.8209 12.05 19.8239Z" />
</svg>
