<svg width="24" height="24" viewBox="0 0 24 24" fill="none" xmlns="http://www.w3.org/2000/svg">
<path fill-rule="evenodd" clip-rule="evenodd" d="M8.66667 2.75C7.60812 2.75 6.75 3.60812 6.75 4.66667V17H17.25V4.66667C17.25 3.60812 16.3919 2.75 15.3333 2.75H8.66667ZM6.75 19.3333V18.5H17.25V19.3333C17.25 20.3919 16.3919 21.25 15.3333 21.25H8.66667C7.60812 21.25 6.75 20.3919 6.75 19.3333ZM5.25 4.66667C5.25 2.77969 6.77969 1.25 8.66667 1.25H15.3333C17.2203 1.25 18.75 2.77969 18.75 4.66667V19.3333C18.75 21.2203 17.2203 22.75 15.3333 22.75H8.66667C6.77969 22.75 5.25 21.2203 5.25 19.3333V4.66667ZM11.5 19.05C11.0858 19.05 10.75 19.3858 10.75 19.8C10.75 20.2142 11.0858 20.55 11.5 20.55H12.5C12.9142 20.55 13.25 20.2142 13.25 19.8C13.25 19.3858 12.9142 19.05 12.5 19.05H11.5Z" fill="black"/>
</svg>
