<svg version="1" xmlns="http://www.w3.org/2000/svg" width="200" height="200" viewBox="0 0 150.000000 150.000000"><path d="M60.4 29c-1.2.5-6.9 5.6-12.7 11.4C41.9 46.2 36.8 51 36.3 51s-.8-1.8-.6-4l.2-4-8.2.2-8.1.3-.1 12.7-.1 12.6-9.7 9.8L0 88.4l8.2 8.3c4.5 4.6 8.5 8.3 8.9 8.3.3 0 11.1-10.6 24-23.5C53.9 68.6 64.8 58 65.2 58c.3 0 5 4.4 10.3 9.7l9.7 9.7 8.5-8.7 8.6-8.7-14.4-14.6C71.3 28.5 67.3 26.2 60.4 29z"/><path d="M109.2 69.3L85.1 93.4 74.9 83.3l-10.1-10-4.2 4.6c-2.2 2.5-5.8 6.1-7.9 8-2 1.9-3.7 4-3.7 4.7 0 1.7 27.9 29.4 30.8 30.5 3.7 1.4 8.4 1 11.7-.9 2.4-1.5 53.4-51.7 57.5-56.7.9-1.1-.6-3.1-7.3-9.8l-8.4-8.5-24.1 24.1z"/></svg>