<?xml version="1.0" standalone="no"?>
<!DOCTYPE svg PUBLIC "-//W3C//DTD SVG 20010904//EN"
 "http://www.w3.org/TR/2001/REC-SVG-20010904/DTD/svg10.dtd">
<svg version="1.0" xmlns="http://www.w3.org/2000/svg"
 width="1024.000000pt" height="1024.000000pt" viewBox="0 0 1024.000000 1024.000000"
 preserveAspectRatio="xMidYMid meet">
<metadata>
Created by potrace 1.11, written by Peter Selinger 2001-2013
</metadata>
<g transform="translate(0.000000,1024.000000) scale(0.100000,-0.100000)"
fill="#000000" stroke="none">
<path d="M0 5120 l0 -5120 5120 0 5120 0 0 5120 0 5120 -5120 0 -5120 0 0
-5120z m3735 2107 c144 -25 297 -64 395 -102 455 -174 731 -501 817 -965 24
-131 24 -419 0 -550 -66 -353 -261 -651 -553 -842 l-93 -61 28 -41 c91 -132
1141 -1745 1141 -1751 0 -3 -269 -5 -597 -5 l-598 0 -485 765 -485 765 -282 0
-283 0 0 -765 0 -765 -505 0 -505 0 0 2170 0 2171 953 -4 c839 -3 964 -5 1052
-20z m3635 -1290 c553 -130 878 -535 965 -1200 15 -114 21 -317 9 -317 -3 0
-117 -31 -254 -70 l-249 -70 -618 -80 c-697 -91 -673 -87 -673 -104 0 -27 60
-158 103 -223 143 -220 359 -324 642 -310 238 12 524 119 775 291 52 36 96 62
98 58 194 -514 249 -668 240 -680 -6 -7 -52 -38 -102 -69 -272 -169 -633 -289
-975 -324 -155 -16 -424 -6 -568 20 -213 40 -419 121 -588 232 -113 75 -298
261 -375 379 -112 171 -181 342 -227 559 -25 115 -27 146 -27 351 -1 177 3
246 18 325 129 702 614 1173 1296 1259 19 2 118 3 220 1 154 -3 203 -8 290
-28z"/>
<path d="M2740 5840 l0 -573 288 6 c307 7 397 17 532 62 251 84 374 276 356
560 -18 283 -148 425 -451 492 -52 11 -155 16 -397 20 l-328 5 0 -572z"/>
<path d="M6855 5246 c-145 -46 -246 -159 -305 -341 -27 -87 -59 -259 -49 -269
4 -4 811 103 817 108 7 8 -21 159 -43 229 -59 187 -176 288 -329 286 -28 0
-69 -6 -91 -13z"/>
</g>
</svg>
