<svg xmlns="http://www.w3.org/2000/svg" width="24" height="24" viewBox="0 0 24 24">
  <path d="M21.941,3.607 L18.87,0.554 C18.5126586,0.199828382 18.0301201,0.000776726157 17.527,0 L8.9,0 C7.85065898,0 7,0.850658975 7,1.9 L7,5 L3.4,5 C2.35065898,5 1.5,5.85065898 1.5,6.9 L1.5,22.11 C1.50550236,23.1554337 2.35455185,24 3.4,24 L15.1,24 C16.1473915,24 16.9972437,23.1523879 17,22.105 L17,19 L20.6,19 C21.6473915,19 22.4972437,18.1523879 22.5,17.105 L22.5,4.949 C22.5009354,4.44485074 22.2995595,3.96140435 21.941,3.607 Z M14.5,22 L4,22 C3.72385763,22 3.5,21.7761424 3.5,21.5 L3.5,7.5 C3.5,7.22385763 3.72385763,7 4,7 L11.784,7 C11.9148865,7 12.0405471,7.0513604 12.134,7.143 L14.85,9.8 C14.9459216,9.89402194 15,10.0226829 15,10.157 L15,21.5 C15,21.7761424 14.7761424,22 14.5,22 Z M20,17 L17.25,17 C17.1119288,17 17,16.8880712 17,16.75 L17,9.95 C16.9998188,9.44656413 16.7990034,8.96395953 16.442,8.609 L13.37,5.554 C13.0136411,5.19896445 12.5310326,4.99973561 12.028,5 L9.25,5 C9.11192881,5 9,4.88807119 9,4.75 L9,2.5 C9,2.22385763 9.22385763,2 9.5,2 L17.256,1.97399914 C17.3872326,1.97375688 17.5133,2.02511768 17.607,2.117 L20.35,4.8 C20.4459216,4.89402194 20.5,5.02268294 20.5,5.157 L20.5,16.5 C20.5,16.7761424 20.2761424,17 20,17 Z"/>
</svg>
