<svg xmlns="http://www.w3.org/2000/svg" xmlns:xlink="http://www.w3.org/1999/xlink" preserveAspectRatio="xMidYMid" width="18" height="18" viewBox="0 0 18 18">
  <defs>
    <style>
      .cls-1 {
        fill: #929292;
        fill-rule: evenodd;
      }
    </style>
  </defs>
  <path d="M9.000,18.000 C4.038,18.000 0.000,13.962 0.000,9.000 C0.000,4.038 4.038,0.000 9.000,0.000 C13.962,0.000 18.000,4.038 18.000,9.000 C18.000,13.962 13.962,18.000 9.000,18.000 ZM9.000,2.000 C5.140,2.000 2.000,5.140 2.000,9.000 C2.000,12.860 5.140,16.000 9.000,16.000 C12.860,16.000 16.000,12.860 16.000,9.000 C16.000,5.140 12.860,2.000 9.000,2.000 ZM7.943,12.165 C7.750,12.345 7.505,12.435 7.261,12.435 C7.004,12.435 6.749,12.336 6.554,12.142 L4.815,10.403 C4.424,10.012 4.424,9.379 4.815,8.989 C5.206,8.598 5.838,8.598 6.229,8.989 L7.285,10.044 L11.796,5.835 C12.198,5.458 12.832,5.479 13.209,5.883 C13.586,6.287 13.564,6.920 13.160,7.296 L7.943,12.165 Z" class="cls-1"/>
</svg>
