<svg width="24" height="24" viewBox="0 0 24 24" xmlns="http://www.w3.org/2000/svg">
<path d="M16.187 3.51099C16.0916 3.42054 15.9651 3.37013 15.8335 3.37013C15.702 3.37013 15.5755 3.42054 15.48 3.51099L4.06705 14.924C3.97331 15.0178 3.92065 15.1449 3.92065 15.2775C3.92065 15.4101 3.97331 15.5372 4.06705 15.631L8.34705 19.911C8.44081 20.0047 8.56797 20.0574 8.70055 20.0574C8.83313 20.0574 8.96028 20.0047 9.05405 19.911L20.467 8.49999C20.5608 8.40623 20.6134 8.27907 20.6134 8.14649C20.6134 8.01391 20.5608 7.88676 20.467 7.79299L16.187 3.51099Z" />
<path d="M3.00004 16.71C2.93947 16.6498 2.86447 16.6061 2.78221 16.5831C2.69995 16.5601 2.61317 16.5585 2.53014 16.5786C2.44712 16.5986 2.37061 16.6396 2.30792 16.6976C2.24523 16.7556 2.19845 16.8288 2.17204 16.91L0.032043 23.33C0.0025141 23.4181 -0.00190006 23.5126 0.0192954 23.603C0.0404909 23.6935 0.086458 23.7762 0.152043 23.842C0.21821 23.907 0.300904 23.9526 0.391159 23.9739C0.481414 23.9953 0.575786 23.9915 0.664043 23.963L7.08404 21.824C7.16547 21.7977 7.23877 21.7509 7.29693 21.6881C7.3551 21.6253 7.39618 21.5487 7.41625 21.4655C7.43632 21.3823 7.4347 21.2954 7.41155 21.213C7.38841 21.1306 7.3445 21.0555 7.28404 20.995L3.00004 16.71Z" />
<path d="M22.968 1.017C22.2959 0.375851 21.4028 0.0181427 20.474 0.0181427C19.5452 0.0181427 18.652 0.375851 17.98 1.017L17.268 1.73C17.1742 1.82377 17.1216 1.95092 17.1216 2.0835C17.1216 2.21608 17.1742 2.34324 17.268 2.437L21.547 6.717C21.6407 6.81074 21.7679 6.86339 21.9005 6.86339C22.0331 6.86339 22.1602 6.81074 22.254 6.717L22.968 6C23.6272 5.33837 23.9973 4.44247 23.9973 3.5085C23.9973 2.57453 23.6272 1.67863 22.968 1.017Z" />
</svg>
