<svg width="24" height="24" viewBox="0 0 24 24" xmlns="http://www.w3.org/2000/svg"><path d="M3.5 4.25h17a2.25 2.25 0 0 1 2.25 2.25v11a2.25 2.25 0 0 1-2.25 2.25h-17a2.25 2.25 0 0 1-2.25-2.25v-11A2.25 2.25 0 0 1 3.5 4.25zm0 1.5a.75.75 0 0 0-.75.75v11c0 .414.336.75.75.75h17a.75.75 0 0 0 .75-.75v-11a.75.75 0 0 0-.75-.75h-17z"/><path d="M5.5 13.25h3.75v-1.5H5.5zM5.5 16.25h8.25v-1.5H5.5zM15.5 6.75h3a1.5 1.5 0 0 1 1.5 1.5v3a1.5 1.5 0 0 1-1.5 1.5h-3a1.5 1.5 0 0 1-1.5-1.5v-3a1.5 1.5 0 0 1 1.5-1.5zm0 1.5v3h3v-3h-3z"/></svg>