<svg width="24" height="24" xmlns="http://www.w3.org/2000/svg">
  <path d="M12.7444 14.4737c.05.0158.1063.0335.1698.0533 2.7414.8668 4.2143 1.515 4.8515 2.3171.403.5086.5344 1.0968.3612 1.6481-.195.6212-.7434 1.0745-1.4907 1.2463-1.5235.3516-3.3294.465-6.5356.465-3.2087 0-5.0128-.1133-6.5355-.465-.7476-.1718-1.296-.6251-1.4905-1.2463-.173-.5518-.0418-1.14.3609-1.6475.6368-.8026 2.1104-1.4513 4.851-2.3174.0616-.0192.1183-.037.1698-.0534-.0622-.1393-.1614-.3242-.305-.5595l-.0645-.106c-.374-.614-.4711-.8374-.5829-1.4425-.0208-.1122-.1425-.3698-.2295-.4656-.4109-.455-.7044-1.7833-.4878-2.4839.0113-.0367.0344-.0942.0653-.1621a2.6324 2.6324 0 0 0 .057-.1304 1.46 1.46 0 0 0 .0306-.0823c.0185-.0552.0274-.0977.0266-.11-.0526-.828.0236-1.5998.2274-2.295.3008-1.0252 1.1612-1.9457 2.198-2.3545C8.9477 4.0629 9.4218 4 10.1001 4c.6795 0 1.1524.0627 1.7089.2821 1.0366.4087 1.897 1.3296 2.1978 2.355.204.6928.2802 1.465.2275 2.2945-.0008.0123.008.0548.0266.11a1.468 1.468 0 0 0 .0304.082 2.738 2.738 0 0 0 .0569.1307c.031.0674.0547.1256.066.1625.2163.7002-.0775 2.0286-.4883 2.4825-.0868.096-.2087.3545-.229.466-.0775.4191-.167.6934-.314.9781-.0643.1246-.1197.219-.2696.4652l-.0646.1062c-.1434.2354-.2424.4201-.3044.5589zm4.0838 3.5638c.0171-.0541-.0224-.1544-.1107-.2665-.4399-.554-1.9183-1.1422-4.1947-1.8603-.436-.1379-.5403-.1729-.6318-.2153-.271-.1262-.4663-.3606-.5483-.6557-.1461-.5256.0519-1.0779.5558-1.905l.0645-.1066c.2847-.467.3188-.5456.3918-.939.0686-.3732.313-.8885.5645-1.1636.103-.1536.2499-.8422.2093-1.0181-.1921-.417-.2814-.7116-.2583-1.0735.0415-.652-.016-1.2478-.1694-1.77-.175-.5973-.7288-1.1775-1.3706-1.4306-.3777-.149-.7034-.1905-1.2297-.1905s-.8522.0414-1.2302.1906c-.6415.253-1.1948.833-1.3702 1.4306-.1533.5227-.2108 1.1188-.1694 1.7704.0175.271-.0397.5406-.1487.8202a3.7836 3.7836 0 0 1-.0996.2309c-.0516.2017.0988.89.194 1.0324.2586.2842.5013.7998.5697 1.1708.0731.394.1072.4727.3915.9393l.064.1047c.5043.8266.7028 1.3803.5568 1.9067-.0816.2952-.277.5298-.5488.6564-.0918.0422-.1988.0781-.6316.215-2.2748.7174-3.7547 1.306-4.1941 1.8602-.0887.1117-.1284.2124-.111.2677.0306.099.1966.2233.4839.2896 1.4091.3255 3.1363.4317 6.2433.4317 3.1068 0 4.834-.1062 6.2434-.4317.287-.0663.453-.1905.4846-.2908zm4.7435-2.2063c.3386.427.4519.944.3039 1.4161-.1663.5303-.6267.9153-1.2506 1.0592-.3898.0901-.824.1605-1.3228.2147-.04.004-.04.004-.0745.0044-.3531 0-.6454-.2836-.6798-.6505-.037-.3926.2321-.7484.61-.7894.4537-.0497.8378-.1118 1.1747-.1898.1412-.0326.2215-.0824.2405-.0985-.0137.0168-.0285-.0121-.0495-.0386-.0628-.0791-.1852-.1746-.3595-.2786-.2905-.1732-.7065-.3604-1.218-.5556-.4811-.1836-.8968-.3226-1.5154-.5182-.3517-.111-.4227-.135-.501-.1713-.2498-.1168-.43-.3336-.5063-.6065-.1272-.4568.0313-.9148.4382-1.5846l.05-.0822c.2069-.3387.223-.376.2739-.6504.0557-.3036.2439-.7097.4415-.9316.0704-.1239.1615-.5522.1523-.6222-.1525-.3336-.2255-.5832-.206-.888.03-.4718-.011-.901-.1211-1.2764-.1176-.4017-.4969-.797-.9367-.9703-.2637-.1042-.494-.1332-.873-.1332-.18 0-.315.006-.4478.0233-.3801.0512-.7199-.2352-.7648-.6295-.0446-.3912.217-.7526.5934-.8025.1986-.0263.384-.035.6192-.035.5363 0 .9096.0495 1.352.2242.8433.3319 1.5184 1.056 1.7644 1.8951.1603.5472.2204 1.1532.1794 1.788 0 .0004.019.0598.069.1685.0268.0581.0478.1112.0591.148.1837.5925-.0598 1.6681-.4084 2.0531-.0409.045-.1206.212-.1301.2642-.09.4847-.1734.676-.4661 1.1558l-.032.0527a5.804 5.804 0 0 0-.1436.2476c2.0637.6548 3.183 1.1548 3.6855 1.788z" fill-rule="nonzero"/>
</svg>
