<svg width="24" height="24" viewBox="0 0 24 24" fill="none" xmlns="http://www.w3.org/2000/svg">
<path fill-rule="evenodd" clip-rule="evenodd" d="M6.5 1C3.46243 1 1 3.46243 1 6.5V17.5C1 20.5376 3.46243 23 6.5 23H17.5C20.5376 23 23 20.5376 23 17.5V15.9722C23 14.9597 22.1792 14.1389 21.1667 14.1389C20.1541 14.1389 19.3333 14.9597 19.3333 15.9722V17.5C19.3333 18.5125 18.5125 19.3333 17.5 19.3333H6.5C5.48748 19.3333 4.66667 18.5125 4.66667 17.5V6.5C4.66667 5.48748 5.48748 4.66667 6.5 4.66667H8.02778C9.0403 4.66667 9.86111 3.84586 9.86111 2.83333C9.86111 1.82081 9.0403 1 8.02778 1H6.5ZM22.0304 10.3076C22.3173 10.1886 22.5624 9.98742 22.735 9.72927C22.9076 9.47113 22.9998 9.16765 23 8.85714V2.57143C23 2.15466 22.8344 1.75496 22.5397 1.46026C22.245 1.16556 21.8453 1 21.4286 1H15.1429C14.8321 1.00007 14.5284 1.09226 14.27 1.26494C14.0116 1.43762 13.8103 1.68301 13.6914 1.97011C13.5725 2.25721 13.5413 2.57312 13.6019 2.87791C13.6625 3.18269 13.8122 3.46266 14.0319 3.68243L15.5074 5.158C15.544 5.19449 15.573 5.23784 15.5928 5.28557C15.6127 5.3333 15.6228 5.38447 15.6228 5.43614C15.6228 5.48782 15.6127 5.53898 15.5928 5.58671C15.573 5.63444 15.544 5.67779 15.5074 5.71429L10.0394 11.1807C9.67101 11.5491 9.46403 12.0488 9.46403 12.5699C9.46403 13.0909 9.67101 13.5906 10.0394 13.959C10.4079 14.3274 10.9075 14.5344 11.4286 14.5344C11.9496 14.5344 12.4493 14.3274 12.8177 13.959L18.2857 8.491C18.3222 8.45442 18.3656 8.42539 18.4133 8.40558C18.461 8.38578 18.5122 8.37558 18.5639 8.37558C18.6155 8.37558 18.6667 8.38578 18.7144 8.40558C18.7622 8.42539 18.8055 8.45442 18.842 8.491L20.3176 9.96657C20.4633 10.1128 20.6365 10.2288 20.8271 10.3081C21.0177 10.3874 21.2221 10.4283 21.4286 10.4286C21.6352 10.4287 21.8399 10.3876 22.0304 10.3076Z" fill="black"/>
</svg>
