<svg width="24" height="24" xmlns="http://www.w3.org/2000/svg" viewBox="0 0 24 24"><g><path d="M20.25 19.881a.364.364 0 0 1-.359.369H5.11a.364.364 0 0 1-.359-.369v-7.438l2.634-1.827-.855-1.232-3.279 2.274v8.223c0 1.03.83 1.869 1.859 1.869h14.78a1.864 1.864 0 0 0 1.859-1.869v-8.223L18.47 9.384l-.855 1.232 2.634 1.827v7.438z"/><path d="M10.083 15.75h4.834l3.62 2.84.926-1.18-4.027-3.16H9.564l-4.027 3.16.926 1.18z"/><path d="M20.614 11.357l-5 3 .772 1.286 5-3zm-17 1.286l5 3 .772-1.286-5-3z"/><path d="M18.75 14V3.815c0-.848-.645-1.565-1.483-1.565H7.733c-.838 0-1.483.717-1.483 1.565V14h1.5V3.815c0-.053.011-.065-.017-.065h9.534c-.028 0-.017.012-.017.065V14h1.5z"/><path d="M10 6.25h2v-1.5h-2zm0 2h5v-1.5h-5zm-1 3h7v-1.5H9zm0 2h7v-1.5H9z"/></g></svg>