<svg width="388" height="181" viewBox="0 0 388 181" fill="none" xmlns="http://www.w3.org/2000/svg">
<g clip-path="url(#clip0)">
<g opacity="0.5">
<path opacity="0.5" d="M59.8504 67.1347H141.467V39.3584H59.8504C26.9325 39.3584 0 66.4398 0 99.5439C0 132.636 26.9325 159.729 59.8504 159.729H141.467V131.953H59.8504C55.6146 131.953 51.4212 131.109 47.515 129.471C43.6089 127.832 40.0683 125.432 37.0999 122.41C34.0914 119.411 31.7043 115.847 30.0756 111.924C28.4469 108 27.6085 103.794 27.6085 99.5459C27.6085 95.2978 28.4469 91.0914 30.0756 87.1679C31.7043 83.2444 34.0914 79.6809 37.0999 76.6817C40.068 73.6591 43.6084 71.2582 47.5146 69.619C51.4207 67.9799 55.6143 67.1353 59.8504 67.1347Z" fill="url(#paint0_linear)"/>
</g>
<path d="M37.7162 122.013C33.2829 117.559 30.2663 111.893 29.0459 105.729C27.8256 99.5642 28.4562 93.1763 30.8582 87.3693C33.2603 81.5622 37.3265 76.5955 42.5451 73.0943C47.7636 69.5931 53.9012 67.7139 60.1854 67.6932H110.237V40.3925H60.1854C27.6522 40.3925 1.03406 67.0107 1.03406 99.5439C1.03406 132.077 27.6522 158.695 60.1854 158.695H110.237V131.395H60.1854C56.0059 131.394 51.868 130.565 48.0111 128.954C44.1543 127.344 40.6551 124.985 37.7162 122.013Z" fill="#535461"/>
<path d="M140.846 131.395H109.823V158.695H140.846V131.395Z" fill="#E0E0E0"/>
<path d="M140.846 40.3925H109.823V67.6931H140.846V40.3925Z" fill="#E0E0E0"/>
<g opacity="0.5">
<path opacity="0.5" d="M251.497 61.8028C261.962 61.8028 266.802 56.1855 266.802 48.6571C266.802 35.5115 256.208 26.0679 243.063 26.0679C236.788 26.1505 230.797 28.7013 226.389 33.1679C221.981 37.6345 219.509 43.6576 219.509 49.9332C219.509 56.2088 221.981 62.2319 226.389 66.6985C230.797 71.1652 236.788 73.7159 243.063 73.7985C247.915 73.7565 252.634 72.2117 256.572 69.3766C256.767 69.2381 256.933 69.0622 257.059 68.8591C257.186 68.656 257.27 68.4298 257.309 68.1936C257.347 67.994 257.334 67.7878 257.269 67.595C257.205 67.4022 257.091 67.2294 256.94 67.0933C256.784 66.9597 256.601 66.8599 256.404 66.8002C256.207 66.7405 255.999 66.7221 255.795 66.7461C255.59 66.7702 255.392 66.8362 255.215 66.9401C255.037 67.044 254.882 67.1834 254.761 67.3498C253.892 68.4914 251.298 70.4232 243.625 70.5969C232.014 70.8616 222.298 61.6166 222.26 50.0015C222.223 38.4814 231.683 29.3854 243.063 29.2571C254.442 29.1289 263.608 37.1702 263.608 48.4007C263.608 55.5485 258.645 58.8659 252.634 58.7418C250.719 58.87 250.339 58.1048 250.591 55.4326C250.802 53.232 252.903 44.0574 253.648 40.8475C253.712 40.5813 253.715 40.3037 253.654 40.0365C253.594 39.7693 253.472 39.5198 253.299 39.3074C253.126 39.0951 252.906 38.9257 252.656 38.8125C252.407 38.6994 252.135 38.6455 251.861 38.6552H251.733C251.338 38.7026 250.971 38.8814 250.69 39.1627C250.41 39.4441 250.232 39.8117 250.186 40.2063C250.12 40.7223 250.084 41.2416 250.078 41.7617C248.928 39.4659 246.248 37.679 243.046 37.5507C236.283 37.679 230.413 43.8051 230.157 52.7398C230.157 58.7377 233.346 62.1833 238.843 62.1833C242.674 62.1833 245.462 59.8876 247.013 57.716C247.021 57.7201 246.893 61.5463 251.497 61.8028ZM239.373 59.1224C235.927 59.1224 233.884 56.5702 233.884 52.504C233.884 45.4721 238.608 41.0171 243.071 41.0171C247.025 41.0171 248.56 43.6975 248.688 47.2714C248.68 53.0087 244.978 59.1224 239.365 59.1224H239.373Z" fill="url(#paint1_linear)"/>
</g>
<path d="M251.112 61.2816C261.114 61.2816 265.747 55.9042 265.747 48.7192C265.747 36.1568 255.625 27.131 243.063 27.131C237.013 27.131 231.212 29.5341 226.935 33.8115C222.657 38.0889 220.254 43.8903 220.254 49.9395C220.254 55.9886 222.657 61.79 226.935 66.0674C231.212 70.3448 237.013 72.7479 243.063 72.7479C247.699 72.7084 252.209 71.2329 255.972 68.5246C256.16 68.3928 256.318 68.2251 256.44 68.0312C256.561 67.8373 256.643 67.6211 256.68 67.3953C256.717 67.2047 256.704 67.0078 256.642 66.8237C256.581 66.6396 256.472 66.4745 256.328 66.3446C256.179 66.2194 256.005 66.1261 255.818 66.0703C255.631 66.0146 255.435 65.9976 255.241 66.0204C255.048 66.0433 254.861 66.1055 254.692 66.2032C254.523 66.3009 254.376 66.4321 254.26 66.5887C253.433 67.6766 250.951 69.5256 243.617 69.691C232.519 69.9434 223.237 61.1079 223.199 50.0056C223.162 38.9985 232.204 30.3037 243.079 30.1837C253.954 30.0638 262.715 37.7452 262.715 48.4793C262.715 55.3086 257.958 58.4812 252.225 58.3571C250.397 58.4771 250.028 57.7491 250.272 55.1845C250.471 53.079 252.481 44.3139 253.197 41.2488C253.258 40.9944 253.26 40.7294 253.202 40.4742C253.144 40.2191 253.028 39.9809 252.862 39.7782C252.697 39.5755 252.487 39.4139 252.248 39.3059C252.01 39.1979 251.75 39.1465 251.489 39.1557H251.364C250.987 39.2015 250.637 39.3729 250.369 39.6423C250.101 39.9116 249.931 40.2633 249.888 40.6407C249.825 41.1347 249.79 41.6319 249.784 42.1298C248.688 39.9334 246.124 38.225 243.075 38.1051C236.61 38.225 231.001 44.0822 230.757 52.6199C230.757 58.353 233.805 61.6456 239.05 61.6456C242.711 61.6456 245.391 59.4492 246.856 57.3768C246.843 57.3727 246.723 61.0334 251.112 61.2816ZM239.53 58.7212C236.221 58.7212 234.285 56.2806 234.285 52.38C234.285 45.6706 238.798 41.4018 243.067 41.4018C246.847 41.4018 248.312 43.9623 248.444 47.379C248.432 52.8598 244.879 58.717 239.526 58.717L239.53 58.7212Z" fill="#0945EB"/>
<g opacity="0.5">
<path opacity="0.5" d="M293.383 20.9842C299.529 20.9842 302.375 17.6751 302.375 13.2656C302.375 5.54699 296.17 0 288.435 0C284.718 0 281.154 1.4765 278.526 4.1047C275.898 6.73289 274.421 10.2975 274.421 14.0143C274.421 17.7312 275.898 21.2957 278.526 23.9239C281.154 26.5521 284.718 28.0286 288.435 28.0286C291.285 28.0037 294.057 27.0962 296.369 25.4309C296.593 25.2631 296.742 25.0133 296.783 24.736C296.806 24.619 296.798 24.4981 296.76 24.3851C296.722 24.272 296.656 24.1706 296.568 24.0907C296.475 24.0121 296.368 23.9533 296.252 23.918C296.136 23.8827 296.014 23.8717 295.894 23.8857C295.774 23.8997 295.657 23.9383 295.553 23.9992C295.448 24.0601 295.357 24.142 295.285 24.2396C294.776 24.9098 293.25 26.0431 288.746 26.1465C287.124 26.19 285.51 25.9102 283.998 25.3234C282.486 24.7365 281.105 23.8545 279.938 22.7287C278.77 21.6028 277.838 20.2558 277.196 18.766C276.554 17.2762 276.216 15.6736 276.2 14.0515C276.179 7.28844 281.734 1.94413 288.415 1.86967C295.095 1.79522 300.481 6.51491 300.481 13.1126C300.481 17.3111 297.556 19.2594 294.036 19.1849C292.911 19.2594 292.688 18.8085 292.837 17.2366C292.961 15.946 294.193 10.5562 294.632 8.67415C294.669 8.51779 294.671 8.35479 294.635 8.19795C294.599 8.0411 294.528 7.89465 294.426 7.77005C294.324 7.64546 294.195 7.54612 294.048 7.47978C293.902 7.41345 293.742 7.38194 293.581 7.38771H293.507C293.275 7.41583 293.06 7.52084 292.896 7.68589C292.732 7.85093 292.628 8.06643 292.601 8.29773C292.562 8.601 292.542 8.90623 292.539 9.21189C292.128 8.47094 291.53 7.85132 290.804 7.41557C290.077 6.97981 289.249 6.74334 288.402 6.73001C284.431 6.80447 280.981 10.4032 280.833 15.6482C280.833 19.1725 282.706 21.1952 285.929 21.1952C286.88 21.1741 287.812 20.9248 288.647 20.4685C289.482 20.0121 290.195 19.362 290.727 18.5727C290.727 18.5727 290.681 20.8353 293.383 20.9842ZM286.243 19.4124C284.22 19.4124 283.021 17.915 283.021 15.5158C283.021 11.3794 285.792 8.76929 288.398 8.76929C290.723 8.76929 291.62 10.3411 291.707 12.4425C291.732 15.8137 289.552 19.4124 286.243 19.4124Z" fill="url(#paint2_linear)"/>
</g>
<path d="M293.13 20.6327C298.963 20.6327 301.668 17.5014 301.668 13.3029C301.668 5.97306 295.761 0.711487 288.431 0.711487C284.903 0.711487 281.518 2.11325 279.023 4.6084C276.528 7.10356 275.126 10.4877 275.126 14.0164C275.126 17.5451 276.528 20.9293 279.023 23.4244C281.518 25.9196 284.903 27.3213 288.431 27.3213C291.138 27.2933 293.77 26.4261 295.964 24.8394C296.073 24.7628 296.166 24.6651 296.237 24.5522C296.308 24.4393 296.356 24.3133 296.377 24.1818C296.399 24.0709 296.392 23.9563 296.356 23.8491C296.321 23.7419 296.258 23.6456 296.175 23.5696C296.088 23.494 295.986 23.4374 295.875 23.4035C295.765 23.3696 295.649 23.3592 295.535 23.3728C295.42 23.3865 295.31 23.4239 295.211 23.4827C295.111 23.5415 295.025 23.6204 294.959 23.7143C294.475 24.3513 293.027 25.4268 288.754 25.5261C287.214 25.5696 285.681 25.3055 284.244 24.7492C282.808 24.1928 281.496 23.3555 280.387 22.2862C279.278 21.2169 278.394 19.9371 277.786 18.5217C277.177 17.1063 276.858 15.5838 276.845 14.0433C276.824 7.6235 282.098 2.55221 288.427 2.46121C294.756 2.37021 299.893 6.89963 299.893 13.1622C299.893 17.1456 297.118 18.9946 293.776 18.9243C292.708 18.9946 292.493 18.5686 292.638 17.0753C292.754 15.8344 293.929 10.7341 294.342 8.94717C294.382 8.79745 294.386 8.6405 294.354 8.48897C294.322 8.33745 294.254 8.19559 294.157 8.07484C294.06 7.95409 293.936 7.85782 293.795 7.79379C293.654 7.72976 293.5 7.69977 293.345 7.70623H293.275C293.055 7.73267 292.851 7.83236 292.695 7.98921C292.539 8.14606 292.44 8.35093 292.415 8.57076C292.377 8.85887 292.357 9.1489 292.353 9.43941C291.964 8.73802 291.397 8.15171 290.709 7.73984C290.022 7.32798 289.237 7.10519 288.435 7.09404C284.663 7.16436 281.403 10.5811 281.25 15.5614C281.25 18.9036 283.029 20.8271 286.09 20.8271C286.992 20.8071 287.875 20.5714 288.667 20.1395C289.459 19.7077 290.135 19.0924 290.64 18.3452C290.64 18.3452 290.57 20.4879 293.13 20.6327ZM286.371 19.1394C284.452 19.1394 283.31 17.7165 283.31 15.4414C283.31 11.5283 285.941 9.03817 288.431 9.03817C290.636 9.03817 291.492 10.5314 291.563 12.5252C291.567 15.7227 289.503 19.1394 286.371 19.1394Z" fill="#0945EB"/>
<g opacity="0.5">
<path opacity="0.5" d="M337.382 50.6757C343.703 50.6757 346.635 47.2839 346.635 42.7338C346.635 34.7917 340.236 29.0834 332.294 29.0834C328.513 29.1475 324.908 30.6947 322.256 33.3915C319.605 36.0884 318.119 39.719 318.119 43.5011C318.119 47.2831 319.605 50.9138 322.256 53.6106C324.908 56.3075 328.513 57.8546 332.294 57.9187C335.226 57.893 338.077 56.9594 340.456 55.2465C340.574 55.163 340.674 55.0567 340.751 54.9338C340.828 54.8109 340.879 54.6739 340.902 54.5309C340.926 54.4101 340.918 54.2852 340.878 54.1685C340.839 54.0517 340.771 53.9472 340.679 53.865C340.584 53.7848 340.474 53.725 340.355 53.6894C340.235 53.6537 340.11 53.6429 339.987 53.6577C339.864 53.6724 339.745 53.7124 339.637 53.7751C339.53 53.8378 339.437 53.9219 339.363 54.0222C338.838 54.7088 337.27 55.8794 332.633 55.9828C330.965 56.0279 329.304 55.7404 327.748 55.1369C326.192 54.5334 324.772 53.6261 323.57 52.4679C322.368 51.3097 321.409 49.9238 320.749 48.391C320.089 46.8582 319.74 45.2093 319.724 43.5404C319.699 36.5828 325.415 31.0855 332.29 31.0069C339.165 30.9283 344.7 35.7886 344.7 42.589C344.7 46.9074 341.692 48.9095 338.081 48.835C336.923 48.9136 336.691 48.4503 336.84 46.8288C336.968 45.501 338.238 39.9582 338.689 38.0182C338.728 37.8574 338.73 37.6897 338.693 37.5283C338.656 37.367 338.583 37.2163 338.478 37.088C338.374 36.9598 338.241 36.8575 338.09 36.7893C337.939 36.721 337.775 36.6886 337.61 36.6945H337.531C337.292 36.7228 337.07 36.8309 336.9 37.0014C336.731 37.1718 336.623 37.3945 336.596 37.6335C336.556 37.9449 336.534 38.2585 336.53 38.5725C336.107 37.8149 335.493 37.1814 334.749 36.735C334.005 36.2887 333.158 36.0451 332.29 36.0286C328.203 36.1071 324.658 39.8051 324.501 45.2032C324.501 48.8268 326.429 50.9074 329.746 50.9074C330.725 50.8856 331.683 50.6293 332.542 50.16C333.401 49.6907 334.134 49.0221 334.681 48.2104C334.681 48.2104 334.607 50.5268 337.382 50.6757ZM330.056 49.0584C327.988 49.0584 326.747 47.5155 326.747 45.0502C326.747 40.8103 329.601 38.1092 332.298 38.1092C334.689 38.1092 335.608 39.7265 335.69 41.8858C335.686 45.3563 333.452 49.0584 330.056 49.0584Z" fill="url(#paint3_linear)"/>
</g>
<path d="M336.989 50.1132C342.822 50.1132 345.527 46.9819 345.527 42.7834C345.527 35.4536 339.62 30.192 332.29 30.192C328.762 30.192 325.377 31.5938 322.882 34.0889C320.387 36.5841 318.985 39.9683 318.985 43.4969C318.985 47.0256 320.387 50.4098 322.882 52.9049C325.377 55.4001 328.762 56.8019 332.29 56.8019C334.997 56.7738 337.629 55.9067 339.823 54.32C339.932 54.2433 340.025 54.1456 340.096 54.0327C340.167 53.9198 340.214 53.7939 340.236 53.6623C340.258 53.5514 340.251 53.4369 340.215 53.3296C340.18 53.2224 340.117 53.1262 340.034 53.0501C339.947 52.9745 339.845 52.918 339.734 52.8841C339.624 52.8502 339.508 52.8397 339.394 52.8534C339.279 52.867 339.169 52.9044 339.069 52.9632C338.97 53.022 338.884 53.101 338.817 53.1949C338.334 53.8319 336.886 54.9074 332.613 55.0066C331.073 55.0502 329.54 54.786 328.103 54.2297C326.667 53.6734 325.355 52.8361 324.246 51.7667C323.137 50.6974 322.253 49.4176 321.645 48.0022C321.036 46.5868 320.717 45.0643 320.704 43.5238C320.683 37.104 325.957 32.0327 332.286 31.9417C338.615 31.8507 343.74 36.3926 343.74 42.6676C343.74 46.651 340.964 48.5 337.622 48.4297C336.555 48.5 336.34 48.0739 336.485 46.5807C336.6 45.3397 337.775 40.2395 338.189 38.4525C338.228 38.3028 338.232 38.1459 338.2 37.9943C338.168 37.8428 338.101 37.7009 338.004 37.5802C337.907 37.4594 337.783 37.3632 337.642 37.2991C337.501 37.2351 337.347 37.2051 337.192 37.2116H337.122C336.902 37.238 336.697 37.3377 336.541 37.4946C336.385 37.6514 336.287 37.8563 336.261 38.0761C336.224 38.3642 336.203 38.6543 336.199 38.9448C335.812 38.2432 335.246 37.6564 334.558 37.2439C333.871 36.8313 333.087 36.6076 332.286 36.5953C328.514 36.6656 325.254 40.0823 325.101 45.0626C325.101 48.4049 326.88 50.3283 329.941 50.3283C330.842 50.3083 331.726 50.0726 332.518 49.6408C333.309 49.2089 333.986 48.5936 334.491 47.8464C334.491 47.8464 334.429 49.9808 336.989 50.1132ZM330.23 48.62C328.311 48.62 327.169 47.197 327.169 44.922C327.169 41.0089 329.8 38.5187 332.29 38.5187C334.495 38.5187 335.351 40.012 335.421 42.0057C335.426 45.2156 333.362 48.6282 330.23 48.6282V48.62Z" fill="#0945EB"/>
<g opacity="0.5">
<path opacity="0.5" d="M297.825 93.4467C303.852 93.4467 306.644 90.212 306.644 85.877C306.644 78.3073 300.543 72.8679 292.973 72.8679C289.328 72.8679 285.831 74.316 283.253 76.8938C280.676 79.4716 279.228 82.9678 279.228 86.6133C279.228 90.2588 280.676 93.755 283.253 96.3328C285.831 98.9106 289.328 100.359 292.973 100.359C295.768 100.334 298.486 99.4439 300.754 97.8107C300.864 97.7298 300.958 97.6279 301.029 97.5108C301.1 97.3936 301.147 97.2636 301.167 97.1282C301.19 97.0135 301.182 96.8949 301.145 96.784C301.108 96.6731 301.043 96.5737 300.956 96.4953C300.866 96.4211 300.762 96.3659 300.65 96.3331C300.538 96.3003 300.42 96.2906 300.304 96.3045C300.188 96.3184 300.076 96.3557 299.975 96.4141C299.874 96.4725 299.786 96.5508 299.715 96.6442C299.215 97.3019 297.722 98.4146 293.3 98.5139C291.71 98.5551 290.127 98.2797 288.645 97.7036C287.162 97.1275 285.809 96.2623 284.663 95.1583C283.518 94.0543 282.604 92.7336 281.974 91.273C281.344 89.8124 281.011 88.2411 280.994 86.6505C280.973 80.0322 286.421 74.7748 292.99 74.7044C299.558 74.6341 304.824 79.2545 304.824 85.7322C304.824 89.8687 301.957 91.7591 298.503 91.6846C297.399 91.7591 297.18 91.3165 297.329 89.7736C297.411 88.5037 298.652 83.2049 299.066 81.3724C299.103 81.2191 299.104 81.0592 299.069 80.9054C299.034 80.7516 298.964 80.6079 298.865 80.4857C298.765 80.3635 298.638 80.266 298.494 80.201C298.351 80.136 298.194 80.1051 298.036 80.1108H297.962C297.735 80.1381 297.523 80.2411 297.362 80.4032C297.201 80.5653 297.099 80.7771 297.072 81.0043C297.034 81.302 297.014 81.6017 297.01 81.9019C296.608 81.1792 296.023 80.5748 295.314 80.1494C294.604 79.724 293.796 79.4924 292.969 79.4779C289.072 79.5524 285.693 83.0808 285.544 88.2265C285.544 91.6805 287.381 93.666 290.541 93.666C291.473 93.6448 292.387 93.4001 293.206 92.9524C294.024 92.5046 294.723 91.867 295.244 91.0931C295.244 91.0931 295.178 93.2978 297.825 93.4467ZM290.839 91.8914C288.853 91.8914 287.678 90.423 287.678 88.0693C287.678 84.028 290.4 81.451 292.969 81.451C295.248 81.451 296.129 82.9939 296.204 85.0539C296.208 88.3754 294.073 91.8914 290.839 91.8914Z" fill="url(#paint4_linear)"/>
</g>
<path d="M297.668 93.2275C303.5 93.2275 306.205 90.0962 306.205 85.8977C306.205 78.5679 300.299 73.3063 292.969 73.3063C289.44 73.3063 286.056 74.708 283.561 77.2032C281.066 79.6984 279.664 83.0825 279.664 86.6112C279.664 90.1399 281.066 93.5241 283.561 96.0192C286.056 98.5144 289.44 99.9161 292.969 99.9161C295.676 99.8881 298.308 99.021 300.501 97.4343C300.61 97.3576 300.703 97.2599 300.774 97.147C300.845 97.0341 300.893 96.9082 300.915 96.7766C300.937 96.6657 300.929 96.5512 300.894 96.4439C300.858 96.3367 300.796 96.2404 300.712 96.1644C300.625 96.0888 300.523 96.0322 300.413 95.9983C300.303 95.9645 300.187 95.954 300.072 95.9676C299.958 95.9813 299.847 96.0187 299.748 96.0775C299.649 96.1363 299.563 96.2152 299.496 96.3091C299.012 96.9462 297.564 98.0216 293.291 98.1209C291.752 98.1644 290.218 97.9003 288.782 97.344C287.345 96.7877 286.034 95.9503 284.925 94.881C283.816 93.8117 282.932 92.5319 282.323 91.1165C281.715 89.7011 281.395 88.1786 281.383 86.6381C281.362 80.2183 286.636 75.147 292.965 75.056C299.293 74.965 304.443 79.482 304.443 85.757C304.443 89.7404 301.668 91.5894 298.326 91.5191C297.258 91.5894 297.043 91.1634 297.188 89.6701C297.304 88.4292 298.479 83.3289 298.892 81.542C298.932 81.3923 298.936 81.2353 298.904 81.0838C298.872 80.9322 298.804 80.7904 298.707 80.6696C298.61 80.5489 298.486 80.4526 298.345 80.3886C298.204 80.3246 298.05 80.2946 297.895 80.301H297.825C297.605 80.3275 297.401 80.4272 297.245 80.584C297.089 80.7409 296.99 80.9457 296.965 81.1656C296.927 81.4537 296.906 81.7437 296.903 82.0342C296.515 81.3327 295.949 80.7459 295.262 80.3333C294.575 79.9207 293.791 79.697 292.989 79.6847C289.217 79.755 285.958 83.1717 285.804 88.152C285.804 91.4943 287.583 93.4178 290.644 93.4178C291.546 93.3978 292.429 93.162 293.221 92.7302C294.013 92.2984 294.689 91.6831 295.194 90.9359C295.194 90.9359 295.107 93.0827 297.668 93.2275ZM290.909 91.7342C288.99 91.7342 287.848 90.3113 287.848 88.0362C287.848 84.1231 290.479 81.633 292.969 81.633C295.174 81.633 296.03 83.1262 296.1 85.12C296.104 88.3175 294.04 91.7301 290.909 91.7301V91.7342Z" fill="#0945EB"/>
<g opacity="0.5">
<path opacity="0.5" d="M261.346 104.69C267.617 104.69 270.525 101.323 270.525 96.8304C270.525 88.9711 264.175 83.2917 256.295 83.2917C252.501 83.2917 248.863 84.7988 246.181 87.4813C243.498 90.1638 241.991 93.802 241.991 97.5956C241.991 101.389 243.498 105.028 246.181 107.71C248.863 110.393 252.501 111.9 256.295 111.9C259.203 111.874 262.031 110.947 264.39 109.248C264.507 109.165 264.607 109.06 264.683 108.939C264.759 108.817 264.81 108.682 264.833 108.541C264.856 108.421 264.848 108.298 264.809 108.183C264.771 108.068 264.703 107.965 264.614 107.883C264.52 107.803 264.41 107.743 264.292 107.707C264.174 107.671 264.049 107.66 263.927 107.674C263.804 107.689 263.686 107.728 263.579 107.791C263.472 107.853 263.379 107.936 263.306 108.036C262.785 108.719 261.238 109.877 256.63 109.98C254.974 110.027 253.325 109.743 251.779 109.146C250.234 108.548 248.823 107.648 247.629 106.499C246.435 105.35 245.482 103.974 244.826 102.453C244.17 100.931 243.823 99.294 243.807 97.637C243.786 90.7333 249.453 85.2814 256.274 85.2028C263.095 85.1242 268.589 89.9473 268.589 96.6773C268.589 100.963 265.606 102.948 262.012 102.882C260.866 102.956 260.634 102.501 260.771 100.892C260.895 99.5729 262.156 94.0755 262.603 92.1521C262.642 91.9924 262.644 91.8258 262.608 91.6654C262.572 91.505 262.499 91.3552 262.395 91.2277C262.291 91.1002 262.159 90.9985 262.009 90.9307C261.86 90.8628 261.696 90.8307 261.532 90.8367H261.453C261.217 90.8649 260.996 90.9721 260.828 91.141C260.66 91.3099 260.554 91.5306 260.527 91.7674C260.487 92.0774 260.465 92.3896 260.461 92.7022C260.042 91.95 259.433 91.321 258.695 90.8781C257.956 90.4353 257.115 90.1942 256.254 90.179C252.2 90.2534 248.68 93.9266 248.527 99.2792C248.527 102.874 250.438 104.938 253.726 104.938C254.708 104.92 255.67 104.665 256.531 104.194C257.392 103.723 258.126 103.05 258.669 102.233C258.669 102.233 258.591 104.537 261.346 104.69ZM254.078 103.085C252.01 103.085 250.769 101.554 250.769 99.1054C250.769 94.8987 253.598 92.2224 256.274 92.2224C258.645 92.2224 259.584 93.8273 259.642 95.97C259.662 99.4115 257.445 103.081 254.078 103.081V103.085Z" fill="url(#paint5_linear)"/>
</g>
<path d="M261.011 104.189C266.843 104.189 269.548 101.058 269.548 96.8593C269.548 89.5295 263.641 84.2679 256.312 84.2679C252.783 84.2679 249.399 85.6696 246.904 88.1648C244.408 90.66 243.007 94.0441 243.007 97.5728C243.007 101.102 244.408 104.486 246.904 106.981C249.399 109.476 252.783 110.878 256.312 110.878C259.019 110.85 261.651 109.983 263.844 108.396C263.953 108.319 264.046 108.222 264.117 108.109C264.188 107.996 264.236 107.87 264.258 107.738C264.279 107.627 264.272 107.513 264.237 107.406C264.201 107.298 264.139 107.202 264.055 107.126C263.968 107.05 263.866 106.994 263.756 106.96C263.646 106.926 263.529 106.916 263.415 106.929C263.3 106.943 263.19 106.98 263.091 107.039C262.992 107.098 262.906 107.177 262.839 107.271C262.355 107.908 260.907 108.983 256.634 109.083C255.094 109.126 253.561 108.862 252.125 108.306C250.688 107.749 249.377 106.912 248.268 105.843C247.159 104.773 246.274 103.493 245.666 102.078C245.058 100.663 244.738 99.1402 244.725 97.5997C244.705 91.1799 249.979 86.1086 256.307 86.0176C262.636 85.9266 267.761 90.4271 267.761 96.6897C267.761 100.673 264.986 102.522 261.644 102.452C260.576 102.522 260.361 102.096 260.506 100.603C260.622 99.3618 261.797 94.2616 262.21 92.4746C262.25 92.3249 262.254 92.1679 262.222 92.0164C262.19 91.8649 262.122 91.723 262.025 91.6023C261.928 91.4815 261.804 91.3853 261.663 91.3212C261.522 91.2572 261.368 91.2272 261.213 91.2337H261.143C260.923 91.2601 260.719 91.3598 260.563 91.5167C260.407 91.6735 260.308 91.8784 260.283 92.0982C260.245 92.3863 260.224 92.6764 260.221 92.9669C259.833 92.2653 259.267 91.6785 258.58 91.266C257.893 90.8534 257.109 90.6297 256.307 90.6174C252.535 90.6877 249.276 94.1044 249.122 99.0847C249.122 102.427 250.901 104.35 253.962 104.35C254.864 104.33 255.747 104.095 256.539 103.663C257.331 103.231 258.007 102.616 258.512 101.869C258.512 101.869 258.429 104.048 261.011 104.189ZM254.252 102.696C252.332 102.696 251.191 101.273 251.191 98.9978C251.191 95.0847 253.821 92.5946 256.312 92.5946C258.516 92.5946 259.373 94.0879 259.443 96.0816C259.426 99.2833 257.362 102.696 254.235 102.696H254.252Z" fill="#0945EB"/>
<g opacity="0.5">
<path opacity="0.5" d="M261.346 148.925C267.617 148.925 270.525 145.558 270.525 141.066C270.525 133.206 264.175 127.527 256.295 127.527C252.501 127.527 248.863 129.034 246.181 131.717C243.498 134.399 241.991 138.037 241.991 141.831C241.991 145.624 243.498 149.263 246.181 151.945C248.863 154.628 252.501 156.135 256.295 156.135C259.203 156.109 262.031 155.183 264.39 153.483C264.507 153.401 264.607 153.296 264.683 153.174C264.759 153.053 264.81 152.917 264.833 152.776C264.856 152.657 264.848 152.534 264.809 152.418C264.771 152.303 264.703 152.2 264.614 152.118C264.52 152.038 264.41 151.978 264.292 151.942C264.174 151.906 264.049 151.895 263.927 151.91C263.804 151.924 263.686 151.964 263.579 152.026C263.472 152.088 263.379 152.172 263.306 152.271C262.785 152.954 261.238 154.112 256.63 154.215C254.974 154.262 253.325 153.978 251.779 153.381C250.234 152.783 248.823 151.883 247.629 150.734C246.435 149.585 245.482 148.209 244.826 146.688C244.17 145.166 243.823 143.529 243.807 141.872C243.786 134.969 249.453 129.517 256.274 129.438C263.095 129.359 268.589 134.183 268.589 140.913C268.589 145.198 265.606 147.183 262.012 147.117C260.866 147.192 260.634 146.737 260.771 145.128C260.895 143.808 262.156 138.311 262.603 136.387C262.642 136.228 262.644 136.061 262.608 135.901C262.572 135.74 262.499 135.59 262.395 135.463C262.291 135.335 262.159 135.234 262.009 135.166C261.86 135.098 261.696 135.066 261.532 135.072H261.453C261.217 135.1 260.996 135.207 260.828 135.376C260.66 135.545 260.554 135.766 260.527 136.003C260.487 136.313 260.465 136.625 260.461 136.937C260.042 136.185 259.433 135.556 258.695 135.113C257.956 134.671 257.115 134.429 256.254 134.414C252.2 134.489 248.68 138.162 248.527 143.514C248.527 147.109 250.438 149.173 253.726 149.173C254.705 149.158 255.666 148.907 256.527 148.44C257.388 147.973 258.123 147.305 258.669 146.493C258.669 146.493 258.591 148.772 261.346 148.925ZM254.078 147.32C252.01 147.32 250.769 145.789 250.769 143.341C250.769 139.134 253.598 136.458 256.274 136.458C258.645 136.458 259.584 138.063 259.642 140.205C259.662 143.647 257.445 147.32 254.078 147.32Z" fill="url(#paint6_linear)"/>
</g>
<path d="M261.011 148.429C266.843 148.429 269.548 145.297 269.548 141.099C269.548 133.769 263.641 128.507 256.312 128.507C252.783 128.507 249.399 129.909 246.904 132.404C244.408 134.9 243.007 138.284 243.007 141.812C243.007 145.341 244.408 148.725 246.904 151.22C249.399 153.715 252.783 155.117 256.312 155.117C259.019 155.089 261.651 154.222 263.844 152.635C263.953 152.559 264.046 152.461 264.117 152.348C264.188 152.235 264.236 152.109 264.258 151.978C264.279 151.867 264.272 151.752 264.237 151.645C264.201 151.538 264.139 151.442 264.055 151.365C263.968 151.29 263.866 151.233 263.756 151.199C263.646 151.166 263.529 151.155 263.415 151.169C263.3 151.182 263.19 151.22 263.091 151.279C262.992 151.337 262.906 151.416 262.839 151.51C262.355 152.147 260.907 153.223 256.634 153.322C255.094 153.366 253.561 153.101 252.125 152.545C250.688 151.989 249.377 151.151 248.268 150.082C247.159 149.013 246.274 147.733 245.666 146.318C245.058 144.902 244.738 143.38 244.725 141.839C244.705 135.419 249.979 130.348 256.307 130.257C262.636 130.166 267.761 134.667 267.761 140.929C267.761 144.913 264.986 146.762 261.644 146.691C260.576 146.762 260.361 146.336 260.506 144.842C260.622 143.601 261.797 138.501 262.21 136.714C262.25 136.564 262.254 136.407 262.222 136.256C262.19 136.104 262.122 135.963 262.025 135.842C261.928 135.721 261.804 135.625 261.663 135.561C261.522 135.497 261.368 135.467 261.213 135.473H261.143C260.923 135.5 260.719 135.599 260.563 135.756C260.407 135.913 260.308 136.118 260.283 136.338C260.245 136.626 260.224 136.916 260.221 137.206C259.825 136.513 259.254 135.936 258.565 135.533C257.876 135.13 257.093 134.915 256.295 134.911C252.523 134.981 249.263 138.398 249.11 143.378C249.11 146.72 250.889 148.644 253.95 148.644C254.851 148.624 255.735 148.388 256.527 147.956C257.318 147.524 257.995 146.909 258.5 146.162C258.5 146.162 258.429 148.284 261.011 148.429ZM254.252 146.935C252.332 146.935 251.191 145.512 251.191 143.237C251.191 139.324 253.821 136.834 256.312 136.834C258.516 136.834 259.373 138.327 259.443 140.321C259.426 143.519 257.362 146.935 254.235 146.935H254.252Z" fill="#0945EB"/>
<g opacity="0.5">
<path opacity="0.5" d="M324.15 172.801C330.47 172.801 333.399 169.409 333.399 164.863C333.399 156.925 327 151.212 319.062 151.212C315.239 151.212 311.572 152.731 308.868 155.435C306.165 158.138 304.646 161.805 304.646 165.628C304.646 169.451 306.165 173.118 308.868 175.821C311.572 178.525 315.239 180.044 319.062 180.044C321.993 180.018 324.844 179.085 327.223 177.371C327.341 177.288 327.442 177.182 327.519 177.059C327.595 176.936 327.647 176.799 327.67 176.656C327.693 176.535 327.685 176.41 327.646 176.293C327.607 176.177 327.538 176.072 327.446 175.99C327.351 175.91 327.241 175.85 327.122 175.814C327.003 175.779 326.878 175.768 326.755 175.783C326.631 175.797 326.512 175.837 326.405 175.9C326.298 175.963 326.204 176.047 326.131 176.147C325.606 176.834 324.038 178.004 319.405 178.108C317.739 178.151 316.081 177.862 314.527 177.258C312.973 176.654 311.555 175.747 310.356 174.59C309.156 173.433 308.198 172.048 307.538 170.518C306.878 168.987 306.529 167.34 306.512 165.674C306.487 158.716 312.204 153.223 319.078 153.144C325.953 153.066 331.488 157.922 331.488 164.726C331.488 169.045 328.481 171.047 324.869 170.968C323.711 171.047 323.484 170.583 323.628 168.962C323.757 167.634 325.027 162.091 325.477 160.155C325.517 159.995 325.518 159.827 325.481 159.666C325.445 159.504 325.371 159.354 325.267 159.225C325.162 159.097 325.029 158.995 324.878 158.927C324.728 158.858 324.563 158.826 324.398 158.832H324.319C324.08 158.86 323.858 158.968 323.688 159.139C323.519 159.309 323.412 159.532 323.384 159.771C323.344 160.082 323.322 160.396 323.318 160.71C322.895 159.952 322.282 159.319 321.538 158.872C320.794 158.426 319.946 158.182 319.078 158.166C314.992 158.244 311.447 161.942 311.294 167.341C311.294 170.964 313.221 173.045 316.534 173.045C317.513 173.023 318.472 172.767 319.33 172.297C320.189 171.828 320.923 171.159 321.469 170.348C321.469 170.348 321.374 172.648 324.15 172.801ZM316.828 171.183C314.76 171.183 313.519 169.64 313.519 167.175C313.519 162.935 316.373 160.238 319.07 160.238C321.461 160.238 322.379 161.856 322.462 164.015C322.454 167.481 320.216 171.183 316.824 171.183H316.828Z" fill="url(#paint7_linear)"/>
</g>
<path d="M323.757 172.246C329.589 172.246 332.294 169.115 332.294 164.916C332.294 157.587 326.387 152.325 319.058 152.325C315.529 152.325 312.145 153.727 309.65 156.222C307.154 158.717 305.753 162.101 305.753 165.63C305.753 169.159 307.154 172.543 309.65 175.038C312.145 177.533 315.529 178.935 319.058 178.935C321.765 178.907 324.397 178.04 326.59 176.453C326.699 176.376 326.792 176.279 326.863 176.166C326.934 176.053 326.982 175.927 327.004 175.795C327.025 175.685 327.018 175.57 326.983 175.463C326.947 175.355 326.885 175.259 326.801 175.183C326.714 175.108 326.612 175.051 326.502 175.017C326.392 174.983 326.276 174.973 326.161 174.986C326.047 175 325.936 175.038 325.837 175.096C325.738 175.155 325.652 175.234 325.585 175.328C325.101 175.965 323.653 177.04 319.38 177.14C317.84 177.183 316.307 176.919 314.871 176.363C313.434 175.806 312.123 174.969 311.014 173.9C309.905 172.83 309.02 171.551 308.412 170.135C307.804 168.72 307.484 167.197 307.471 165.657C307.451 159.237 312.725 154.166 319.053 154.075C325.382 153.984 330.503 158.517 330.503 164.776C330.503 168.759 327.728 170.608 324.385 170.538C323.318 170.608 323.103 170.182 323.248 168.689C323.364 167.448 324.538 162.348 324.952 160.561C324.992 160.411 324.996 160.254 324.964 160.103C324.931 159.951 324.864 159.809 324.767 159.688C324.67 159.568 324.546 159.471 324.405 159.407C324.264 159.343 324.11 159.313 323.955 159.32H323.885C323.665 159.346 323.461 159.446 323.305 159.603C323.149 159.76 323.05 159.965 323.025 160.184C322.987 160.472 322.966 160.763 322.962 161.053C322.575 160.351 322.009 159.765 321.322 159.352C320.635 158.94 319.851 158.716 319.049 158.704C315.277 158.774 312.017 162.191 311.864 167.171C311.864 170.513 313.643 172.437 316.704 172.437C317.606 172.417 318.489 172.181 319.281 171.749C320.073 171.317 320.749 170.702 321.254 169.955C321.254 169.955 321.196 172.106 323.757 172.246ZM316.998 170.753C315.078 170.753 313.937 169.33 313.937 167.055C313.937 163.142 316.567 160.652 319.058 160.652C321.262 160.652 322.119 162.145 322.189 164.139C322.193 167.34 320.129 170.753 316.998 170.753Z" fill="#0945EB"/>
<path opacity="0.5" d="M299.728 130.658C303.893 130.658 305.825 128.421 305.825 125.426C305.825 120.193 301.606 116.429 296.373 116.429C293.929 116.543 291.623 117.594 289.934 119.364C288.245 121.134 287.303 123.486 287.303 125.932C287.303 128.379 288.245 130.731 289.934 132.501C291.623 134.271 293.929 135.322 296.373 135.436C298.305 135.419 300.183 134.803 301.751 133.674C301.829 133.619 301.895 133.549 301.945 133.468C301.996 133.387 302.029 133.296 302.044 133.202C302.06 133.123 302.055 133.041 302.03 132.964C302.005 132.887 301.96 132.818 301.9 132.764C301.837 132.71 301.764 132.671 301.686 132.647C301.607 132.623 301.524 132.616 301.443 132.626C301.361 132.635 301.282 132.662 301.212 132.703C301.141 132.745 301.079 132.801 301.031 132.867C300.688 133.322 299.654 134.108 296.597 134.162C295.516 134.177 294.442 133.978 293.438 133.578C292.434 133.178 291.518 132.584 290.743 131.83C289.178 130.307 288.283 128.225 288.253 126.042C288.224 123.859 289.062 121.753 290.585 120.189C292.108 118.624 294.19 117.728 296.373 117.699C300.894 117.649 304.555 120.851 304.555 125.322C304.555 128.168 302.574 129.488 300.183 129.459C299.422 129.508 299.269 129.206 299.356 128.139C299.438 127.262 300.278 123.61 300.572 122.348C300.597 122.242 300.598 122.132 300.574 122.026C300.55 121.919 300.501 121.82 300.432 121.735C300.364 121.651 300.276 121.584 300.177 121.538C300.078 121.493 299.969 121.472 299.86 121.475H299.811C299.654 121.494 299.507 121.565 299.396 121.677C299.284 121.788 299.213 121.935 299.194 122.092C299.169 122.298 299.155 122.505 299.153 122.712C298.875 122.212 298.47 121.795 297.979 121.501C297.488 121.206 296.929 121.047 296.357 121.037C293.664 121.087 291.327 123.519 291.223 127.084C291.223 129.471 292.493 130.844 294.677 130.844C295.322 130.83 295.954 130.661 296.52 130.351C297.085 130.042 297.569 129.601 297.929 129.066C297.929 129.066 297.9 130.555 299.728 130.658ZM294.901 129.591C293.527 129.591 292.717 128.574 292.717 126.948C292.717 124.152 294.599 122.373 296.377 122.373C297.953 122.373 298.561 123.44 298.615 124.855C298.611 127.151 297.138 129.591 294.901 129.591Z" fill="#0945EB"/>
<path opacity="0.5" d="M219.572 146.538C223.737 146.538 225.669 144.3 225.669 141.306C225.669 136.073 221.45 132.309 216.217 132.309C213.773 132.423 211.467 133.474 209.778 135.244C208.089 137.013 207.147 139.366 207.147 141.812C207.147 144.259 208.089 146.611 209.778 148.381C211.467 150.151 213.773 151.202 216.217 151.316C218.148 151.298 220.027 150.683 221.594 149.554C221.672 149.499 221.738 149.428 221.789 149.348C221.839 149.267 221.873 149.176 221.888 149.082C221.904 149.003 221.899 148.921 221.874 148.844C221.848 148.767 221.803 148.698 221.743 148.644C221.681 148.59 221.608 148.55 221.529 148.527C221.451 148.503 221.368 148.496 221.286 148.505C221.205 148.515 221.126 148.542 221.055 148.583C220.984 148.625 220.923 148.681 220.875 148.747C220.531 149.202 219.497 149.988 216.44 150.042C215.359 150.056 214.286 149.858 213.282 149.458C212.277 149.058 211.362 148.464 210.587 147.71C209.022 146.187 208.127 144.105 208.097 141.922C208.068 139.739 208.906 137.633 210.429 136.069C211.952 134.504 214.034 133.608 216.217 133.579C220.738 133.529 224.399 136.731 224.399 141.202C224.399 144.048 222.417 145.368 220.027 145.339C219.265 145.388 219.112 145.086 219.199 144.019C219.282 143.142 220.122 139.49 220.415 138.228C220.441 138.122 220.442 138.012 220.418 137.905C220.393 137.799 220.345 137.7 220.276 137.615C220.207 137.531 220.12 137.463 220.02 137.418C219.921 137.373 219.813 137.352 219.704 137.355H219.654C219.497 137.374 219.351 137.445 219.239 137.556C219.127 137.668 219.056 137.814 219.038 137.972C219.012 138.177 218.998 138.385 218.997 138.592C218.718 138.092 218.313 137.674 217.823 137.38C217.332 137.086 216.772 136.926 216.2 136.917C213.508 136.966 211.17 139.399 211.067 142.964C211.067 145.351 212.337 146.724 214.521 146.724C215.166 146.71 215.798 146.54 216.363 146.231C216.929 145.921 217.412 145.481 217.772 144.946C217.772 144.946 217.743 146.435 219.572 146.538ZM214.744 145.471C213.371 145.471 212.56 144.453 212.56 142.828C212.56 140.031 214.442 138.253 216.221 138.253C217.797 138.253 218.405 139.32 218.459 140.735C218.455 143.03 216.982 145.471 214.744 145.471Z" fill="#0945EB"/>
<path opacity="0.5" d="M209.743 75.8337C213.909 75.8337 215.84 73.5959 215.84 70.6011C215.84 65.3685 211.621 61.6043 206.389 61.6043C203.945 61.7183 201.639 62.7694 199.95 64.5392C198.261 66.3089 197.318 68.6614 197.318 71.1078C197.318 73.5543 198.261 75.9067 199.95 77.6765C201.639 79.4462 203.945 80.4973 206.389 80.6113C208.32 80.5939 210.199 79.9783 211.766 78.8492C211.844 78.7942 211.91 78.7241 211.961 78.6431C212.011 78.5621 212.045 78.4719 212.06 78.3776C212.076 78.2983 212.071 78.2161 212.045 78.1393C212.02 78.0624 211.975 77.9935 211.915 77.9392C211.852 77.8859 211.78 77.8461 211.701 77.8223C211.622 77.7985 211.54 77.7912 211.458 77.8009C211.376 77.8106 211.298 77.8371 211.227 77.8787C211.156 77.9203 211.095 77.9761 211.046 78.0426C210.703 78.4976 209.669 79.2835 206.612 79.3373C205.531 79.352 204.458 79.1536 203.453 78.7535C202.449 78.3533 201.533 77.7593 200.759 77.0053C199.984 76.2513 199.365 75.3521 198.938 74.359C198.511 73.3659 198.283 72.2984 198.269 71.2174C198.254 70.1365 198.452 69.0632 198.853 68.0589C199.253 67.0545 199.847 66.1389 200.601 65.3641C201.355 64.5894 202.254 63.9708 203.247 63.5435C204.24 63.1163 205.308 62.8889 206.389 62.8742C210.91 62.8246 214.571 66.0262 214.571 70.4977C214.571 73.3436 212.589 74.6631 210.198 74.6342C209.437 74.6838 209.284 74.3818 209.371 73.3146C209.454 72.4377 210.293 68.7852 210.587 67.5236C210.613 67.4176 210.613 67.3072 210.589 67.2009C210.565 67.0946 210.517 66.9953 210.448 66.9108C210.379 66.8263 210.291 66.7589 210.192 66.7138C210.093 66.6687 209.985 66.6471 209.876 66.6508H209.826C209.669 66.6693 209.523 66.7401 209.411 66.8519C209.299 66.9638 209.228 67.11 209.21 67.2671C209.184 67.473 209.17 67.6801 209.168 67.8876C208.89 67.3878 208.485 66.9699 207.994 66.6759C207.504 66.3818 206.944 66.222 206.372 66.2123C203.679 66.262 201.342 68.6942 201.239 72.2598C201.239 74.6466 202.509 76.0199 204.693 76.0199C205.337 76.0052 205.969 75.8361 206.535 75.5265C207.101 75.217 207.584 74.7762 207.944 74.2412C207.944 74.2412 207.915 75.7303 209.743 75.8337ZM204.916 74.7665C203.543 74.7665 202.732 73.7489 202.732 72.1233C202.732 69.3271 204.614 67.5484 206.393 67.5484C207.969 67.5484 208.577 68.6156 208.631 70.0303C208.626 72.326 207.15 74.7665 204.916 74.7665Z" fill="#0945EB"/>
<path opacity="0.5" d="M368.559 78.1005C372.724 78.1005 374.656 75.8626 374.656 72.8678C374.656 67.6352 370.437 63.871 365.204 63.871C362.76 63.9851 360.454 65.0361 358.765 66.8059C357.076 68.5757 356.133 70.9281 356.133 73.3745C356.133 75.821 357.076 78.1734 358.765 79.9432C360.454 81.713 362.76 82.764 365.204 82.8781C367.136 82.8606 369.014 82.245 370.581 81.1159C370.659 81.0609 370.726 80.9908 370.776 80.9098C370.826 80.8288 370.86 80.7386 370.875 80.6444C370.891 80.565 370.886 80.4829 370.861 80.406C370.835 80.3292 370.79 80.2602 370.73 80.2059C370.668 80.1526 370.595 80.1128 370.516 80.089C370.438 80.0652 370.355 80.0579 370.273 80.0676C370.192 80.0774 370.113 80.1038 370.042 80.1454C369.971 80.187 369.91 80.2428 369.862 80.3093C369.518 80.7643 368.484 81.5503 365.427 81.604C363.244 81.6337 361.139 80.7948 359.574 79.272C358.009 77.7493 357.114 75.6673 357.084 73.4842C357.054 71.301 357.893 69.1955 359.416 67.6309C360.939 66.0662 363.021 65.1705 365.204 65.1409C369.725 65.0913 373.386 68.2929 373.386 72.7644C373.386 75.6103 371.405 76.9298 369.014 76.9009C368.253 76.9505 368.1 76.6486 368.186 75.5814C368.269 74.7044 369.109 71.0519 369.403 69.7903C369.428 69.6843 369.429 69.5739 369.405 69.4676C369.38 69.3613 369.332 69.262 369.263 69.1775C369.194 69.093 369.107 69.0256 369.008 68.9805C368.908 68.9354 368.8 68.9138 368.691 68.9175H368.641C368.484 68.936 368.338 69.0068 368.226 69.1187C368.114 69.2305 368.044 69.3768 368.025 69.5338C367.999 69.7397 367.986 69.9469 367.984 70.1543C367.705 69.6545 367.301 69.2366 366.81 68.9426C366.319 68.6485 365.759 68.4887 365.187 68.479C362.495 68.5287 360.157 70.9609 360.054 74.5265C360.054 76.9133 361.324 78.2866 363.508 78.2866C364.153 78.272 364.785 78.1028 365.35 77.7933C365.916 77.4838 366.399 77.043 366.759 76.5079C366.759 76.5079 366.714 78.0012 368.559 78.1005ZM363.731 77.0332C362.358 77.0332 361.547 76.0157 361.547 74.39C361.547 71.5938 363.429 69.8151 365.208 69.8151C366.784 69.8151 367.392 70.8823 367.446 72.297C367.425 74.5969 365.949 77.0332 363.715 77.0332H363.731Z" fill="#0945EB"/>
<path opacity="0.3" d="M217.719 96.8179C220.052 96.8179 221.135 95.577 221.135 93.8852C221.135 90.9524 218.773 88.847 215.841 88.847C214.455 88.8856 213.139 89.4632 212.172 90.457C211.206 91.4508 210.665 92.7823 210.665 94.1685C210.665 95.5547 211.206 96.8863 212.172 97.8801C213.139 98.8738 214.455 99.4514 215.841 99.4901C216.922 99.481 217.974 99.137 218.852 98.5056C218.94 98.4423 218.999 98.3473 219.017 98.2409C219.026 98.1965 219.023 98.1507 219.008 98.1079C218.994 98.0651 218.968 98.0268 218.935 97.9968C218.9 97.9669 218.859 97.9445 218.814 97.9312C218.77 97.9178 218.724 97.9137 218.678 97.9192C218.632 97.9246 218.588 97.9395 218.548 97.9628C218.508 97.9861 218.474 98.0174 218.447 98.0547C218.252 98.307 217.673 98.7414 215.965 98.7786C215.349 98.8034 214.735 98.7046 214.158 98.488C213.581 98.2715 213.054 97.9416 212.607 97.5178C212.159 97.094 211.802 96.585 211.555 96.0207C211.307 95.4564 211.176 94.8482 211.167 94.2322C211.159 93.6162 211.274 93.0048 211.506 92.4341C211.738 91.8633 212.082 91.3448 212.518 90.9092C212.953 90.4735 213.472 90.1295 214.042 89.8975C214.613 89.6656 215.225 89.5503 215.841 89.5584C218.372 89.5295 220.424 91.3247 220.424 93.8273C220.424 95.4198 219.315 96.1602 217.975 96.1313C217.561 96.1602 217.462 95.9906 217.52 95.3908C217.566 94.8986 218.037 92.8552 218.203 92.1396C218.214 92.0794 218.211 92.0175 218.195 91.9584C218.18 91.8992 218.151 91.8443 218.111 91.7977C218.072 91.751 218.022 91.7136 217.966 91.6884C217.911 91.6631 217.85 91.6505 217.789 91.6515H217.76C217.673 91.6655 217.593 91.7067 217.531 91.7691C217.47 91.8316 217.43 91.9121 217.417 91.999C217.402 92.1142 217.393 92.2302 217.392 92.3464C217.236 92.0667 217.01 91.8328 216.735 91.668C216.461 91.5033 216.148 91.4134 215.828 91.4074C214.318 91.4364 213.011 92.8014 212.953 94.7952C212.953 96.1313 213.665 96.9006 214.889 96.9006C215.25 96.8921 215.604 96.7971 215.92 96.6236C216.237 96.4502 216.508 96.2033 216.709 95.9038C216.71 96.0319 216.737 96.1584 216.789 96.2754C216.842 96.3924 216.917 96.4973 217.012 96.5833C217.107 96.6693 217.219 96.7345 217.341 96.7749C217.462 96.8153 217.591 96.83 217.719 96.8179ZM215.013 96.2223C214.244 96.2223 213.772 95.6514 213.772 94.7414C213.772 93.1778 214.827 92.181 215.841 92.181C216.722 92.181 217.082 92.7766 217.082 93.5749C217.094 94.8531 216.267 96.2223 215.017 96.2223H215.013Z" fill="#0945EB"/>
<path opacity="0.3" d="M244.94 119.126C247.273 119.126 248.357 117.885 248.357 116.193C248.357 113.26 245.995 111.155 243.063 111.155C241.677 111.194 240.361 111.771 239.394 112.765C238.428 113.759 237.887 115.09 237.887 116.476C237.887 117.863 238.428 119.194 239.394 120.188C240.361 121.182 241.677 121.759 243.063 121.798C244.144 121.789 245.196 121.445 246.074 120.814C246.161 120.75 246.221 120.655 246.239 120.549C246.248 120.504 246.245 120.459 246.23 120.416C246.216 120.373 246.19 120.335 246.157 120.305C246.121 120.275 246.08 120.253 246.036 120.239C245.992 120.226 245.946 120.222 245.9 120.227C245.854 120.233 245.81 120.247 245.77 120.271C245.73 120.294 245.696 120.325 245.668 120.363C245.474 120.615 244.895 121.049 243.187 121.087C242.571 121.111 241.957 121.013 241.38 120.796C240.803 120.579 240.276 120.25 239.829 119.826C239.381 119.402 239.024 118.893 238.777 118.329C238.529 117.764 238.398 117.156 238.39 116.54C238.381 115.924 238.496 115.313 238.728 114.742C238.96 114.171 239.304 113.653 239.74 113.217C240.175 112.781 240.694 112.437 241.264 112.205C241.835 111.973 242.447 111.858 243.063 111.866C245.594 111.837 247.646 113.633 247.646 116.135C247.646 117.728 246.537 118.468 245.197 118.439C244.783 118.468 244.684 118.299 244.742 117.699C244.787 117.207 245.259 115.163 245.424 114.448C245.435 114.387 245.433 114.325 245.417 114.266C245.401 114.207 245.373 114.152 245.333 114.106C245.294 114.059 245.244 114.022 245.188 113.996C245.133 113.971 245.072 113.958 245.011 113.959H244.982C244.895 113.973 244.815 114.015 244.753 114.077C244.692 114.14 244.651 114.22 244.638 114.307C244.624 114.422 244.615 114.538 244.614 114.654C244.458 114.375 244.232 114.141 243.957 113.976C243.683 113.811 243.37 113.721 243.05 113.715C241.54 113.744 240.233 115.109 240.175 117.103C240.175 118.439 240.887 119.209 242.111 119.209C242.472 119.2 242.826 119.105 243.142 118.932C243.459 118.758 243.73 118.511 243.931 118.212C243.932 118.34 243.959 118.466 244.011 118.583C244.063 118.7 244.139 118.805 244.234 118.891C244.329 118.977 244.441 119.043 244.563 119.083C244.684 119.123 244.813 119.138 244.94 119.126ZM242.235 118.53C241.466 118.53 240.994 117.959 240.994 117.049C240.994 115.486 242.049 114.489 243.063 114.489C243.944 114.489 244.303 115.085 244.303 115.883C244.316 117.161 243.493 118.526 242.239 118.526L242.235 118.53Z" fill="#0945EB"/>
<path opacity="0.3" d="M326.23 91.8914C328.563 91.8914 329.647 90.6505 329.647 88.9587C329.647 86.0259 327.285 83.9205 324.352 83.9205C322.967 83.9591 321.651 84.5367 320.684 85.5305C319.718 86.5243 319.177 87.8558 319.177 89.242C319.177 90.6282 319.718 91.9598 320.684 92.9536C321.651 93.9473 322.967 94.5249 324.352 94.5636C325.434 94.5545 326.486 94.2105 327.364 93.5791C327.451 93.5158 327.511 93.4208 327.529 93.3144C327.538 93.27 327.535 93.2242 327.52 93.1814C327.506 93.1386 327.48 93.1003 327.446 93.0703C327.411 93.0404 327.37 93.0181 327.326 93.0047C327.282 92.9913 327.236 92.9873 327.19 92.9927C327.144 92.9981 327.1 93.013 327.06 93.0363C327.02 93.0596 326.985 93.0909 326.958 93.1282C326.764 93.3805 326.185 93.8149 324.476 93.8521C323.861 93.8769 323.247 93.7781 322.67 93.5615C322.093 93.345 321.566 93.0151 321.118 92.5913C320.671 92.1675 320.314 91.6585 320.066 91.0942C319.819 90.5299 319.688 89.9217 319.679 89.3057C319.671 88.6897 319.786 88.0783 320.018 87.5076C320.25 86.9368 320.594 86.4183 321.029 85.9827C321.465 85.547 321.984 85.203 322.554 84.971C323.125 84.739 323.736 84.6238 324.352 84.6319C326.884 84.603 328.936 86.3982 328.936 88.9008C328.936 90.4933 327.827 91.2337 326.487 91.2048C326.073 91.2337 325.974 91.0641 326.032 90.4643C326.077 89.9721 326.549 87.9287 326.714 87.2131C326.725 87.1529 326.723 87.091 326.707 87.0319C326.691 86.9727 326.663 86.9178 326.623 86.8711C326.583 86.8245 326.534 86.7871 326.478 86.7618C326.422 86.7366 326.362 86.724 326.301 86.725H326.272C326.185 86.739 326.105 86.7802 326.043 86.8426C325.982 86.9051 325.941 86.9856 325.928 87.0724C325.913 87.1877 325.905 87.3037 325.904 87.4199C325.748 87.1402 325.522 86.9063 325.247 86.7415C324.973 86.5767 324.66 86.4869 324.34 86.4809C322.83 86.5099 321.523 87.8749 321.465 89.8687C321.465 91.2048 322.177 91.9742 323.401 91.9742C323.762 91.9656 324.116 91.8706 324.432 91.6971C324.749 91.5237 325.019 91.2768 325.221 90.9773C325.222 91.1054 325.249 91.2319 325.301 91.3489C325.353 91.4659 325.429 91.5708 325.524 91.6568C325.619 91.7428 325.731 91.8081 325.853 91.8484C325.974 91.8888 326.103 91.9035 326.23 91.8914ZM323.525 91.2958C322.756 91.2958 322.284 90.7249 322.284 89.8149C322.284 88.2513 323.339 87.2545 324.352 87.2545C325.233 87.2545 325.593 87.8501 325.593 88.6484C325.606 89.939 324.783 91.304 323.529 91.304L323.525 91.2958Z" fill="#0945EB"/>
<path opacity="0.3" d="M271.41 68.4625C273.743 68.4625 274.826 67.2216 274.826 65.5298C274.826 62.597 272.464 60.4916 269.532 60.4916C268.146 60.5302 266.83 61.1078 265.864 62.1016C264.897 63.0954 264.356 64.4269 264.356 65.8131C264.356 67.1993 264.897 68.5309 265.864 69.5247C266.83 70.5184 268.146 71.096 269.532 71.1347C270.613 71.1256 271.665 70.7817 272.543 70.1502C272.631 70.087 272.69 69.9919 272.708 69.8855C272.717 69.8411 272.714 69.7953 272.699 69.7525C272.685 69.7097 272.659 69.6714 272.626 69.6414C272.591 69.6115 272.55 69.5892 272.505 69.5758C272.461 69.5625 272.415 69.5584 272.369 69.5638C272.323 69.5692 272.279 69.5841 272.239 69.6074C272.199 69.6307 272.165 69.662 272.138 69.6993C271.943 69.9517 271.364 70.386 269.656 70.4232C269.04 70.448 268.426 70.3492 267.849 70.1326C267.272 69.9161 266.745 69.5862 266.298 69.1624C265.851 68.7386 265.493 68.2296 265.246 67.6653C264.999 67.101 264.867 66.4929 264.859 65.8769C264.85 65.2609 264.966 64.6494 265.197 64.0787C265.429 63.5079 265.773 62.9894 266.209 62.5538C266.644 62.1181 267.163 61.7741 267.734 61.5422C268.304 61.3102 268.916 61.1949 269.532 61.203C272.063 61.1741 274.115 62.9693 274.115 65.4719C274.115 67.0644 273.006 67.8048 271.666 67.7759C271.252 67.8048 271.153 67.6352 271.211 67.0355C271.257 66.5432 271.728 64.4998 271.894 63.7842C271.905 63.724 271.902 63.6621 271.886 63.603C271.871 63.5438 271.842 63.489 271.802 63.4423C271.763 63.3956 271.713 63.3582 271.658 63.333C271.602 63.3077 271.541 63.2951 271.48 63.2961H271.451C271.364 63.3101 271.284 63.3513 271.223 63.4137C271.161 63.4762 271.121 63.5567 271.108 63.6436C271.093 63.7588 271.084 63.8748 271.083 63.991C270.927 63.7113 270.701 63.4774 270.426 63.3126C270.152 63.1479 269.839 63.058 269.519 63.052C268.009 63.081 266.702 64.446 266.644 66.4398C266.644 67.7759 267.356 68.5453 268.58 68.5453C268.941 68.5367 269.295 68.4417 269.612 68.2682C269.928 68.0948 270.199 67.8479 270.4 67.5484C270.401 67.6765 270.428 67.8031 270.48 67.9201C270.533 68.037 270.609 68.1419 270.704 68.2279C270.798 68.3139 270.91 68.3792 271.032 68.4196C271.153 68.46 271.282 68.4746 271.41 68.4625ZM268.704 67.8669C267.935 67.8669 267.463 67.296 267.463 66.386C267.463 64.8224 268.518 63.8256 269.532 63.8256C270.413 63.8256 270.773 64.4212 270.773 65.2195C270.781 66.4977 269.958 67.8627 268.704 67.8627V67.8669Z" fill="#0945EB"/>
<path opacity="0.5" d="M299.728 50.502C303.893 50.502 305.825 48.2642 305.825 45.2694C305.825 40.0368 301.606 36.2726 296.373 36.2726C293.929 36.3867 291.623 37.4377 289.934 39.2075C288.245 40.9773 287.303 43.3297 287.303 45.7761C287.303 48.2226 288.245 50.575 289.934 52.3448C291.623 54.1146 293.929 55.1656 296.373 55.2796C298.305 55.2622 300.183 54.6466 301.751 53.5175C301.829 53.4625 301.895 53.3924 301.945 53.3114C301.996 53.2304 302.029 53.1402 302.044 53.046C302.06 52.9666 302.055 52.8845 302.03 52.8076C302.005 52.7307 301.96 52.6618 301.9 52.6075C301.837 52.5542 301.764 52.5144 301.686 52.4906C301.607 52.4668 301.524 52.4595 301.443 52.4692C301.361 52.4789 301.282 52.5054 301.212 52.547C301.141 52.5886 301.079 52.6444 301.031 52.7109C300.688 53.1659 299.654 53.9518 296.597 54.0056C295.516 54.0203 294.442 53.8219 293.438 53.4218C292.434 53.0216 291.518 52.4276 290.743 51.6736C289.968 50.9196 289.35 50.0204 288.923 49.0273C288.495 48.0342 288.268 46.9667 288.253 45.8858C288.238 44.8048 288.437 43.7315 288.837 42.7272C289.237 41.7229 289.831 40.8072 290.585 40.0325C291.339 39.2577 292.238 38.6391 293.232 38.2119C294.225 37.7846 295.292 37.5572 296.373 37.5425C300.894 37.4929 304.555 40.6945 304.555 45.166C304.555 48.0119 302.574 49.3314 300.183 49.3025C299.422 49.3521 299.269 49.0501 299.356 47.9829C299.438 47.106 300.278 43.4535 300.572 42.1919C300.597 42.0859 300.598 41.9755 300.574 41.8692C300.55 41.7629 300.501 41.6636 300.432 41.5791C300.364 41.4946 300.276 41.4272 300.177 41.3821C300.078 41.337 299.969 41.3154 299.86 41.3191H299.811C299.654 41.3376 299.507 41.4084 299.396 41.5203C299.284 41.6321 299.213 41.7784 299.194 41.9355C299.169 42.1413 299.155 42.3485 299.153 42.5559C298.875 42.0561 298.47 41.6382 297.979 41.3442C297.488 41.0502 296.929 40.8903 296.357 40.8806C293.664 40.9303 291.327 43.3625 291.223 46.9281C291.223 49.3149 292.493 50.6882 294.677 50.6882C295.322 50.6736 295.954 50.5044 296.52 50.1949C297.085 49.8854 297.569 49.4445 297.929 48.9095C297.929 48.9095 297.9 50.3986 299.728 50.502ZM294.901 49.4348C293.527 49.4348 292.717 48.4173 292.717 46.7916C292.717 43.9954 294.599 42.2167 296.377 42.2167C297.953 42.2167 298.561 43.2839 298.615 44.6986C298.611 46.9943 297.138 49.4348 294.901 49.4348Z" fill="#0945EB"/>
<g opacity="0.5">
<path opacity="0.5" d="M369.138 136.015C382.027 136.015 388 129.099 388 119.825C388 103.635 374.954 91.999 358.759 91.999C342.565 91.999 329.519 105.203 329.519 121.397C329.519 137.591 342.565 150.795 358.759 150.795C364.736 150.743 370.55 148.839 375.4 145.347C375.641 145.177 375.845 144.96 376.002 144.71C376.158 144.46 376.263 144.182 376.31 143.891C376.358 143.646 376.341 143.392 376.262 143.155C376.183 142.918 376.045 142.706 375.859 142.538C375.666 142.374 375.441 142.251 375.198 142.178C374.955 142.105 374.7 142.082 374.448 142.112C374.196 142.142 373.953 142.224 373.734 142.352C373.515 142.48 373.325 142.652 373.175 142.857C372.108 144.259 368.91 146.642 359.458 146.857C345.155 147.179 333.188 135.792 333.142 121.488C333.097 107.3 344.749 96.094 358.768 95.9369C372.786 95.7797 384.079 105.682 384.079 119.515C384.079 128.317 377.948 132.404 370.561 132.247C368.203 132.404 367.731 131.461 368.046 128.16C368.302 125.45 370.896 114.15 371.814 110.195C371.893 109.867 371.896 109.526 371.821 109.197C371.746 108.868 371.597 108.56 371.384 108.299C371.171 108.037 370.9 107.829 370.593 107.689C370.286 107.55 369.951 107.483 369.613 107.494H369.456C368.971 107.553 368.519 107.773 368.174 108.12C367.829 108.467 367.61 108.919 367.553 109.405C367.472 110.04 367.428 110.68 367.421 111.32C366.006 108.491 362.706 106.29 358.776 106.133C350.445 106.29 343.215 113.835 342.9 124.838C342.9 132.226 346.83 136.47 353.589 136.47C358.304 136.47 361.762 133.641 363.649 130.969C363.632 130.985 363.475 135.701 369.138 136.015ZM354.205 132.706C349.961 132.706 347.446 129.562 347.446 124.532C347.446 115.887 353.262 110.386 358.764 110.386C363.636 110.386 365.522 113.695 365.68 118.088C365.663 125.165 361.113 132.714 354.201 132.714L354.205 132.706Z" fill="url(#paint8_linear)"/>
</g>
<path d="M368.77 135.498C381.204 135.498 386.97 128.826 386.97 119.879C386.97 104.259 374.383 93.0372 358.764 93.0372C343.144 93.0372 330.557 105.773 330.557 121.393C330.557 137.012 343.144 149.748 358.764 149.748C364.528 149.698 370.135 147.862 374.813 144.495C375.045 144.33 375.242 144.121 375.393 143.88C375.544 143.638 375.645 143.369 375.69 143.088C375.737 142.852 375.721 142.607 375.645 142.378C375.569 142.149 375.435 141.943 375.256 141.781C375.069 141.623 374.852 141.504 374.618 141.433C374.384 141.363 374.137 141.341 373.894 141.369C373.651 141.398 373.417 141.477 373.205 141.6C372.994 141.724 372.811 141.89 372.666 142.087C371.636 143.44 368.55 145.74 359.43 145.947C345.63 146.261 334.089 135.275 334.044 121.475C333.998 107.788 345.237 96.9793 358.764 96.8262C372.29 96.6732 383.169 106.228 383.169 119.577C383.169 128.069 377.254 132.011 370.126 131.858C367.851 132.011 367.396 131.101 367.698 127.916C367.947 125.302 370.445 114.402 371.33 110.588C371.406 110.272 371.408 109.943 371.336 109.626C371.264 109.309 371.119 109.013 370.914 108.761C370.709 108.51 370.448 108.309 370.152 108.174C369.856 108.04 369.533 107.975 369.208 107.986H369.055C368.586 108.043 368.15 108.255 367.817 108.59C367.483 108.925 367.273 109.362 367.218 109.831C367.14 110.445 367.097 111.062 367.09 111.68C365.725 108.95 362.54 106.828 358.751 106.675C350.714 106.828 343.74 114.121 343.446 124.722C343.446 131.85 347.235 135.945 353.758 135.945C358.309 135.945 361.643 133.215 363.463 130.638C363.463 130.646 363.31 135.192 368.77 135.498ZM354.362 132.313C350.267 132.313 347.843 129.281 347.843 124.429C347.843 116.09 353.452 110.778 358.764 110.778C363.463 110.778 365.283 113.964 365.436 118.224C365.432 125.033 361.034 132.313 354.362 132.313Z" fill="#0945EB"/>
<path opacity="0.2" d="M150.712 50.9405C151.072 49.1908 153.38 48.5372 155.08 49.0874C156.78 49.6375 158.1 50.957 159.63 51.9002C161.161 52.8433 163.212 53.3893 164.652 52.3138C166.033 51.3045 166.228 49.3025 167.32 47.9912C168.412 46.6799 170.439 46.2167 172.188 46.5103C173.938 46.804 175.527 47.6934 177.074 48.5786L186.554 53.927" stroke="#535461" stroke-width="3" stroke-miterlimit="10"/>
<path opacity="0.2" d="M147.403 61.2816C147.763 59.5319 150.071 58.8783 151.771 59.4285C153.471 59.9786 154.791 61.2982 156.321 62.2413C157.852 63.1844 159.903 63.7304 161.343 62.6549C162.724 61.6456 162.919 59.6436 164.011 58.3323C165.103 57.0211 167.13 56.5578 168.879 56.8515C170.629 57.1452 172.217 58.0345 173.765 58.9197L183.245 64.2681" stroke="#535461" stroke-width="3" stroke-miterlimit="10"/>
<path opacity="0.2" d="M150.712 148.147C151.072 149.897 153.38 150.551 155.08 150C156.78 149.45 158.1 148.131 159.63 147.188C161.161 146.244 163.212 145.698 164.652 146.774C166.033 147.783 166.228 149.785 167.32 151.097C168.412 152.408 170.439 152.871 172.188 152.577C173.938 152.284 175.527 151.394 177.074 150.509L186.554 145.161" stroke="#535461" stroke-width="3" stroke-miterlimit="10"/>
<path opacity="0.2" d="M147.403 137.806C147.763 139.556 150.071 140.209 151.771 139.659C153.471 139.109 154.791 137.79 156.321 136.846C157.852 135.903 159.903 135.357 161.343 136.433C162.724 137.442 162.919 139.444 164.011 140.755C165.103 142.067 167.13 142.53 168.879 142.236C170.629 141.943 172.217 141.053 173.765 140.168L183.245 134.82" stroke="#535461" stroke-width="3" stroke-miterlimit="10"/>
<g opacity="0.7">
<path opacity="0.7" d="M66.7501 138.336C66.3184 138.562 65.9653 138.914 65.7367 139.345L65.2155 138.753C65.141 138.112 63.5609 124.888 60.413 124.814C58.0015 124.756 55.3914 124.553 53.6416 125.227L53.5506 124.971L52.6158 122.344L55.0977 121.463L55.0604 121.36L57.0211 120.665C57.3024 120.251 56.6902 120.272 56.0408 120.375C56.0557 120.338 56.0668 120.299 56.0739 120.259L57.2114 113.517C57.2114 113.517 57.5134 112.073 56.8474 111.672C56.1814 111.271 56.2269 113.517 56.2269 113.517L54.986 118.146C54.986 118.146 51.4204 116.359 49.286 115.597C49.0376 115.48 48.7747 115.397 48.5042 115.349C48.1277 115.254 47.863 115.229 47.7637 115.308C47.4815 115.326 47.2031 115.383 46.9365 115.478L46.7296 115.552L46.6179 115.233L46.5807 115.13C46.9886 114.814 47.3217 114.411 47.5562 113.952C47.7907 113.492 47.9209 112.986 47.9375 112.47C48.0568 111.885 48.0418 111.281 47.8934 110.703C47.7451 110.124 47.4674 109.587 47.0812 109.132C47.1102 109.117 47.1356 109.096 47.1557 109.07C47.1851 109.019 47.2006 108.961 47.2006 108.903C47.2006 108.844 47.1851 108.786 47.1557 108.735C46.9899 108.376 46.7391 108.062 46.4248 107.821C46.1106 107.58 45.7424 107.42 45.3522 107.353C45.0363 107.342 44.7251 107.274 44.4339 107.151C44.1981 107.014 44.0202 106.766 43.7762 106.679C43.6182 106.646 43.4548 106.651 43.2989 106.693C43.1431 106.734 42.9991 106.812 42.8786 106.919C42.5879 107.128 42.3324 107.382 42.1216 107.672C41.9194 108.024 41.6687 108.345 41.3771 108.628C41.1495 108.805 40.8683 108.901 40.6366 109.074C40.4595 109.209 40.3164 109.383 40.2187 109.582C40.121 109.782 40.0715 110.002 40.0741 110.224C40.084 110.46 40.1388 110.692 40.2354 110.907C40.1716 111.227 40.148 111.553 40.1651 111.879L40.1196 111.933L40.1651 111.887C40.2046 112.623 40.4495 113.332 40.8722 113.935C41.2948 114.539 41.8782 115.011 42.5559 115.3C43.1464 115.682 43.8382 115.878 44.5414 115.862L44.5787 115.966L44.7234 116.379C44.3094 116.636 43.9439 116.963 43.6438 117.347L43.5735 117.438C43.284 117.852 42.3326 119.233 42.7462 120.239C42.7462 120.277 42.76 120.317 42.7876 120.359C42.8228 120.679 42.8949 120.994 43.0027 121.298L45.3439 127.891L45.4308 128.131L45.6376 128.714C45.9279 129.534 46.486 130.232 47.2219 130.696C48.6779 130.84 51.8051 131.796 52.107 131.672L55.9994 133.045L53.9312 142.559C53.9312 142.559 52.773 144.362 54.1546 144.338C55.5078 144.229 56.8515 144.023 58.1752 143.721C58.1752 143.721 58.3324 142.853 57.654 142.745C57.1675 142.71 56.6816 142.822 56.26 143.068L56.1442 142.414C56.1442 142.414 61.9808 132.214 59.35 130.36C58.8453 130.005 58.3365 129.637 57.8277 129.277L59.1928 128.929L63.5195 140.151L63.5526 140.127C63.5526 140.375 63.6188 142.245 64.7025 141.541C65.7933 140.734 66.8245 139.849 67.7883 138.894C67.7883 138.894 67.3788 138.071 66.7501 138.336ZM54.7544 120.64L52.0243 120.801L51.2921 118.683L55.015 120.582L54.7544 120.64Z" fill="url(#paint9_linear)"/>
</g>
<path d="M45.5232 115.595C47.5274 114.883 48.5748 112.681 47.8627 110.677C47.1507 108.673 44.9488 107.626 42.9446 108.338C40.9405 109.05 39.893 111.252 40.6051 113.256C41.3172 115.26 43.5191 116.307 45.5232 115.595Z" fill="black"/>
<path d="M51.3211 118.816L55.1349 120.772C55.2151 120.813 55.3037 120.834 55.3937 120.835C55.4836 120.835 55.5724 120.814 55.6529 120.774C55.7334 120.734 55.8033 120.675 55.857 120.603C55.9107 120.531 55.9468 120.447 55.9622 120.359L57.0832 113.761H56.1194L54.8784 118.286C54.8784 118.286 48.0119 115.225 47.4328 115.705C46.8537 116.185 51.3211 118.816 51.3211 118.816Z" fill="#0945EB"/>
<path d="M46.4291 115.899C47.3357 115.577 48.3331 115.628 49.2019 116.042C50.0707 116.455 50.7398 117.196 51.0619 118.103L53.5007 124.967L45.4401 127.831L43.4376 122.195C43 120.963 43.0693 119.608 43.6303 118.428C44.1912 117.247 45.1979 116.338 46.4291 115.899Z" fill="#0945EB"/>
<path d="M55.0645 129.347L51.3872 130.654C50.8114 130.859 50.2009 130.948 49.5906 130.917C48.9802 130.886 48.382 130.735 47.83 130.473C47.278 130.21 46.7832 129.842 46.3736 129.388C45.9641 128.935 45.6479 128.405 45.4431 127.829L53.5051 124.983L55.0645 129.347Z" fill="#4D8AF0"/>
<path opacity="0.05" d="M43.8217 120.913L49.5714 123.469L55.0149 121.533L54.7626 120.826L49.592 121.132L45.0171 118.336C44.2891 117.889 44.1485 118.807 43.8506 119.606C43.5818 120.342 43.1061 120.594 43.8217 120.913Z" fill="black"/>
<path d="M43.7224 120.78L49.5341 123.366L54.9777 121.43L54.7254 120.723L49.5548 121.029L45.0419 118.27C44.2643 117.794 44.1361 118.737 43.8465 119.602C43.6273 120.288 43.0647 120.491 43.7224 120.78Z" fill="#0945EB"/>
<path d="M54.7253 120.727C54.7253 120.727 57.4182 119.999 56.8929 120.752L54.9777 121.434L54.7253 120.727Z" fill="#FDA57D"/>
<path d="M56.111 113.765C56.111 113.765 56.0696 111.569 56.7191 111.962C57.3685 112.355 57.0748 113.765 57.0748 113.765H56.111Z" fill="#FDA57D"/>
<path opacity="0.05" d="M45.4431 127.829L45.5258 128.065L53.5961 125.215L53.5051 124.962L45.4431 127.829Z" fill="black"/>
<path d="M53.3604 130.265L58.9611 128.834L63.1927 139.804L64.9094 138.48C64.9094 138.48 63.354 124.9 60.2103 124.83C57.0666 124.76 53.592 124.416 52.1939 126.199C50.7957 127.982 53.3604 130.265 53.3604 130.265Z" fill="#4D8AF0"/>
<path opacity="0.1" d="M52.4917 126.741C52.4917 126.741 56.0035 127.196 57.0128 128.768L52.4917 126.741Z" fill="black"/>
<path d="M50.4111 130.944L55.8422 132.867L53.8071 142.162L55.9705 142.017C55.9705 142.017 61.6788 132.044 59.1059 130.232C56.533 128.42 53.8154 126.207 51.681 126.923C49.5466 127.639 50.4111 130.944 50.4111 130.944Z" fill="#4D8AF0"/>
<path opacity="0.05" d="M53.1039 117.442L54.8081 118.882L54.8825 118.286L53.1039 117.442Z" fill="black"/>
<path d="M53.8277 142.162C53.8277 142.162 52.6943 143.928 54.047 143.899C55.3695 143.794 56.6828 143.593 57.9766 143.299C57.9766 143.299 58.1297 142.451 57.4678 142.344C56.9915 142.309 56.5157 142.418 56.1028 142.658L55.987 142.017L53.8277 142.162Z" fill="#333333"/>
<path d="M63.2341 139.75C63.2341 139.75 63.2341 141.897 64.3592 141.161C65.4251 140.371 66.4329 139.506 67.3747 138.571C67.3747 138.571 67.0562 137.769 66.4357 138.03C66.0127 138.252 65.6667 138.596 65.443 139.018L64.9301 138.439L63.2341 139.75Z" fill="#333333"/>
<path d="M46.5562 115.005C46.3581 114.447 45.7464 114.155 45.1899 114.353C44.6335 114.551 44.343 115.163 44.5411 115.721L44.8983 116.726C45.0964 117.284 45.7081 117.576 46.2646 117.378C46.8211 117.18 47.1116 116.568 46.9135 116.01L46.5562 115.005Z" fill="#FDA57D"/>
<path opacity="0.05" d="M45.2321 114.452C44.9654 114.547 44.7473 114.744 44.6256 115C44.5039 115.256 44.4885 115.55 44.5827 115.817L44.7027 116.16C45.4333 116.142 46.1392 115.892 46.7171 115.444L46.5972 115.101C46.5017 114.834 46.3045 114.616 46.0487 114.495C45.7929 114.373 45.4993 114.357 45.2321 114.452Z" fill="black"/>
<path d="M45.7294 115.865C47.5118 115.231 48.4434 113.273 47.8101 111.491C47.1768 109.708 45.2185 108.777 43.4361 109.41C41.6537 110.043 40.7221 112.002 41.3554 113.784C41.9887 115.566 43.947 116.498 45.7294 115.865Z" fill="#FDA57D"/>
<path opacity="0.05" d="M41.3067 113.637C41.5839 113.592 41.8367 113.452 42.0211 113.24C42.2055 113.029 42.3099 112.759 42.316 112.479C42.4443 111.399 42.618 110.774 44.6779 110.654C46.7379 110.534 47.135 110.464 47.0399 109.922C46.9778 109.55 46.0099 108.938 45.406 108.586C45.2461 108.5 45.0696 108.449 44.8883 108.437C44.707 108.424 44.5252 108.451 44.3553 108.516L42.254 109.265L41.1992 110.295L40.5374 111.469L40.7359 112.665L41.3067 113.637Z" fill="black"/>
<path d="M41.2736 113.538C41.5508 113.493 41.8036 113.353 41.988 113.141C42.1724 112.93 42.2768 112.66 42.2829 112.379C42.4112 111.3 42.5849 110.675 44.6449 110.555C46.7048 110.435 47.1019 110.365 47.0068 109.823C46.9447 109.451 45.9768 108.839 45.3729 108.487C45.2131 108.4 45.0365 108.349 44.8552 108.337C44.6739 108.325 44.4921 108.352 44.3222 108.417L42.2168 109.165L41.162 110.195L40.5001 111.37L40.6987 112.565L41.2736 113.538Z" fill="black"/>
<path d="M41.8275 114.071C42.0083 114.006 42.0508 113.661 41.9223 113.3C41.7938 112.938 41.543 112.697 41.3622 112.761C41.1814 112.825 41.139 113.171 41.2674 113.532C41.3959 113.894 41.6467 114.135 41.8275 114.071Z" fill="#FDA57D"/>
<path d="M40.7649 111.813C40.508 111.436 40.3488 111.001 40.3016 110.547C40.2995 110.33 40.3481 110.116 40.4437 109.921C40.5392 109.726 40.6789 109.557 40.8517 109.426C41.0792 109.256 41.3522 109.161 41.5756 108.987C41.8608 108.711 42.1059 108.397 42.3036 108.053C42.5099 107.77 42.7598 107.521 43.044 107.316C43.1626 107.212 43.3041 107.136 43.4571 107.096C43.6101 107.056 43.7704 107.052 43.9251 107.085C44.1774 107.172 44.3388 107.411 44.5704 107.548C44.8553 107.667 45.1595 107.733 45.468 107.742C45.8491 107.807 46.2086 107.964 46.5156 108.199C46.8226 108.434 47.0678 108.74 47.2301 109.091C47.2588 109.141 47.2739 109.197 47.2739 109.254C47.2739 109.312 47.2588 109.368 47.2301 109.418C47.1832 109.467 47.1228 109.502 47.0564 109.517C45.7617 109.955 44.4628 110.398 43.1392 110.733C42.7181 110.826 42.3036 110.946 41.8982 111.093C41.2874 111.337 40.743 111.723 40.3099 112.218" fill="black"/>
</g>
<defs>
<linearGradient id="paint0_linear" x1="70.7335" y1="159.729" x2="70.7335" y2="39.3584" gradientUnits="userSpaceOnUse">
<stop stop-color="#808080" stop-opacity="0.25"/>
<stop offset="0.54" stop-color="#808080" stop-opacity="0.12"/>
<stop offset="1" stop-color="#808080" stop-opacity="0.1"/>
</linearGradient>
<linearGradient id="paint1_linear" x1="34393.4" y1="19655.7" x2="34393.4" y2="14148.1" gradientUnits="userSpaceOnUse">
<stop stop-color="#808080" stop-opacity="0.25"/>
<stop offset="0.54" stop-color="#808080" stop-opacity="0.12"/>
<stop offset="1" stop-color="#808080" stop-opacity="0.1"/>
</linearGradient>
<linearGradient id="paint2_linear" x1="23540.6" y1="8425.69" x2="23540.6" y2="6526.47" gradientUnits="userSpaceOnUse">
<stop stop-color="#808080" stop-opacity="0.25"/>
<stop offset="0.54" stop-color="#808080" stop-opacity="0.12"/>
<stop offset="1" stop-color="#808080" stop-opacity="0.1"/>
</linearGradient>
<linearGradient id="paint3_linear" x1="27076.1" y1="10781.5" x2="27076.1" y2="8771.07" gradientUnits="userSpaceOnUse">
<stop stop-color="#808080" stop-opacity="0.25"/>
<stop offset="0.54" stop-color="#808080" stop-opacity="0.12"/>
<stop offset="1" stop-color="#808080" stop-opacity="0.1"/>
</linearGradient>
<linearGradient id="paint4_linear" x1="23398.7" y1="13143.7" x2="23398.7" y2="11316.6" gradientUnits="userSpaceOnUse">
<stop stop-color="#808080" stop-opacity="0.25"/>
<stop offset="0.54" stop-color="#808080" stop-opacity="0.12"/>
<stop offset="1" stop-color="#808080" stop-opacity="0.1"/>
</linearGradient>
<linearGradient id="paint5_linear" x1="21773.3" y1="14482.2" x2="21773.3" y2="12503.6" gradientUnits="userSpaceOnUse">
<stop stop-color="#808080" stop-opacity="0.25"/>
<stop offset="0.54" stop-color="#808080" stop-opacity="0.12"/>
<stop offset="1" stop-color="#808080" stop-opacity="0.1"/>
</linearGradient>
<linearGradient id="paint6_linear" x1="21773.3" y1="17585.7" x2="21773.3" y2="15607.2" gradientUnits="userSpaceOnUse">
<stop stop-color="#808080" stop-opacity="0.25"/>
<stop offset="0.54" stop-color="#808080" stop-opacity="0.12"/>
<stop offset="1" stop-color="#808080" stop-opacity="0.1"/>
</linearGradient>
<linearGradient id="paint7_linear" x1="26364.2" y1="19413.9" x2="26364.2" y2="17404.4" gradientUnits="userSpaceOnUse">
<stop stop-color="#808080" stop-opacity="0.25"/>
<stop offset="0.54" stop-color="#808080" stop-opacity="0.12"/>
<stop offset="1" stop-color="#808080" stop-opacity="0.1"/>
</linearGradient>
<linearGradient id="paint8_linear" x1="58945.8" y1="35215.9" x2="58945.8" y2="26859.3" gradientUnits="userSpaceOnUse">
<stop stop-color="#808080" stop-opacity="0.25"/>
<stop offset="0.54" stop-color="#808080" stop-opacity="0.12"/>
<stop offset="1" stop-color="#808080" stop-opacity="0.1"/>
</linearGradient>
<linearGradient id="paint9_linear" x1="14283.5" y1="18214.1" x2="13063" y2="14778.9" gradientUnits="userSpaceOnUse">
<stop stop-color="#808080" stop-opacity="0.25"/>
<stop offset="0.54" stop-color="#808080" stop-opacity="0.12"/>
<stop offset="1" stop-color="#808080" stop-opacity="0.1"/>
</linearGradient>
<clipPath id="clip0">
<rect width="388" height="180.048" fill="white"/>
</clipPath>
</defs>
</svg>
