<svg xmlns="http://www.w3.org/2000/svg" width="24" height="24" viewBox="0 0 24 24">
    <g fill="none" fill-rule="evenodd">
        <path fill="#FFF" d="M-8-104h202v406H-8z"/>
        <path fill="#8F6CF0" fill-rule="nonzero" d="M5.318 19C4.046 19 3 17.927 3 16.617V7.361C3 6.069 4.05 5 5.318 5h13.364C19.957 5 21 6.055 21 7.36v9.28c0 1.298-1.035 2.36-2.318 2.36H5.318zM4.342 7.36v9.257c0 .547.434.994.976.994h13.364a.984.984 0 0 0 .976-.994V7.361a.984.984 0 0 0-.976-.994H5.318a.984.984 0 0 0-.976.994zm.75 1.275a.702.702 0 0 1 .044-.96.669.669 0 0 1 .934.036l5.536 5.834c.225.23.606.23.832 0l5.537-5.62a.648.648 0 0 1 .944 0 .678.678 0 0 1 0 .962l-3.122 3.18 2.459 2.524a.678.678 0 0 1 0 .96.66.66 0 0 1-.472.204.66.66 0 0 1-.471-.204l-2.48-2.525-1.453 1.48a1.944 1.944 0 0 1-1.37.574 1.85 1.85 0 0 1-1.372-.578l-1.432-1.516-2.711 2.761a.66.66 0 0 1-.472.204.66.66 0 0 1-.471-.204.678.678 0 0 1 0-.96l2.718-2.769-3.178-3.383z"/>
    </g>
</svg>
