<svg xmlns="http://www.w3.org/2000/svg" width="24" height="24" viewBox="0 0 24 24">
    <g fill="none" fill-rule="evenodd">
        <path fill="#FFF" d="M-8-328h202V78H-8z"/>
        <path fill="#50E3C2" d="M12.348 12.68a.688.688 0 0 0 .695-.68.688.688 0 0 0-.695-.68.688.688 0 0 0-.696.68c0 .376.311.68.696.68zM6.783 6.56h-1.38C4.63 6.56 4 7.179 4 7.926v8.15c0 .757.622 1.365 1.402 1.365h1.38a.688.688 0 0 0 .696-.68.688.688 0 0 0-.695-.68h-1.38c-.012 0-.012 0-.012-.005v-8.15c0 .004.009-.005.011-.005h1.38a.688.688 0 0 0 .696-.68.688.688 0 0 0-.695-.68zm3.478-.482c0-.372.317-.636.683-.592l6.982.83c.377.045.683.381.683.749v9.87c0 .369-.318.706-.683.751l-6.982.853c-.377.046-.683-.217-.683-.59V6.079zM8.87 5.204c0-.753.63-1.286 1.387-1.194l8.356 1.021c.766.094 1.387.79 1.387 1.523v10.892c0 .747-.63 1.43-1.387 1.523l-8.356 1.02c-.766.094-1.387-.45-1.387-1.193V5.204z"/>
    </g>
</svg>
