<svg xmlns="http://www.w3.org/2000/svg" width="24" height="24" viewBox="0 0 24 24">
    <g fill="none" fill-rule="evenodd">
        <path fill="#FFF" d="M-8-201h202v406H-8z"/>
        <path fill="#9013FE" fill-rule="nonzero" d="M20 12a8 8 0 1 0-16 0 8 8 0 0 0 16 0zM5.6 12a6.4 6.4 0 1 1 12.8 0 6.4 6.4 0 0 1-12.8 0zm1.3 0a1.288 1.288 0 1 0 2.576 0A1.288 1.288 0 0 0 6.9 12zm3.812 0a1.288 1.288 0 1 0 2.576 0 1.288 1.288 0 0 0-2.576 0zm3.812 0a1.288 1.288 0 1 0 2.576 0 1.288 1.288 0 0 0-2.576 0z"/>
    </g>
</svg>
