<svg xmlns="http://www.w3.org/2000/svg" width="24" height="24" viewBox="0 0 24 24">
    <g fill="none" fill-rule="evenodd">
        <path fill="#FFF" d="M-8-169h202v406H-8z"/>
        <path fill="#7ED321" fill-rule="nonzero" d="M14.968 19.172c-1.33.621-2.482.828-4.055.828C7.235 20 4 17.264 4 12.759 4 8.069 7.301 4 12.286 4 16.208 4 19 6.782 19 10.644c0 3.379-1.817 5.494-4.21 5.494-1.041 0-1.794-.575-1.905-1.77h-.045c-.709 1.15-1.683 1.77-2.88 1.77-1.418 0-2.481-1.127-2.481-3.012 0-2.827 2.016-5.356 5.206-5.356.975 0 2.083.253 2.615.552l-.665 4.276c-.2 1.356-.044 1.977.576 2 .953.046 2.15-1.219 2.15-3.885 0-3.012-1.862-5.31-5.296-5.31-3.412 0-6.359 2.735-6.359 7.149 0 3.862 2.349 6.023 5.65 6.023 1.13 0 2.349-.253 3.235-.713l.377 1.31zm-1.95-9.494a2.778 2.778 0 0 0-.687-.092c-1.463 0-2.615 1.494-2.615 3.264 0 .874.377 1.426 1.086 1.426.842 0 1.706-1.08 1.883-2.414l.333-2.184z"/>
    </g>
</svg>
