<svg xmlns="http://www.w3.org/2000/svg" width="24" height="24" viewBox="0 0 24 24">
    <g fill="none" fill-rule="evenodd">
        <path fill="#FFF" d="M-8-40h202v406H-8z"/>
        <path fill="#F7A700" fill-rule="nonzero" d="M12.777 14.342l.17.053c2.75.856 4.228 1.496 4.867 2.288.404.502.536 1.083.362 1.627-.196.614-.746 1.061-1.495 1.23-1.528.348-3.34.46-6.556.46-3.218 0-5.028-.112-6.555-.46-.75-.169-1.3-.616-1.495-1.23-.174-.545-.042-1.125.362-1.627.639-.792 2.117-1.433 4.866-2.288l.17-.053a5.106 5.106 0 0 0-.306-.552l-.065-.105c-.375-.606-.472-.827-.584-1.424a1.334 1.334 0 0 0-.23-.46c-.413-.45-.707-1.76-.49-2.453.011-.036.035-.093.066-.16a2.579 2.579 0 0 0 .087-.21.438.438 0 0 0 .027-.108c-.053-.818.024-1.58.228-2.267.302-1.012 1.165-1.92 2.205-2.324C8.969 4.062 9.444 4 10.125 4s1.156.062 1.714.279c1.04.403 1.903 1.312 2.204 2.325.205.684.281 1.447.229 2.266-.001.012.008.054.026.108l.03.081c.018.043.034.077.058.13.031.066.055.123.066.16.217.691-.078 2.003-.49 2.451a1.34 1.34 0 0 0-.23.46c-.077.414-.167.685-.314.966-.065.123-.12.216-.27.46l-.066.104a5.15 5.15 0 0 0-.305.552zm4.096 3.52c.018-.054-.022-.153-.11-.264-.442-.547-1.925-1.128-4.208-1.837-.437-.136-.542-.17-.634-.212a1 1 0 0 1-.55-.648c-.146-.519.052-1.064.558-1.881l.064-.105c.286-.461.32-.539.393-.928.07-.368.314-.877.566-1.148.104-.152.251-.832.21-1.006-.192-.411-.282-.702-.259-1.06.042-.644-.016-1.232-.17-1.748-.175-.59-.73-1.162-1.374-1.412-.38-.147-.706-.188-1.234-.188s-.855.04-1.234.188c-.643.25-1.198.822-1.374 1.412-.154.517-.212 1.105-.17 1.749.018.267-.04.534-.15.81-.03.076-.054.131-.099.228-.052.199.1.878.195 1.02.259.28.502.789.571 1.155.073.39.108.467.393.928l.064.103c.506.816.705 1.363.558 1.883a1 1 0 0 1-.55.648c-.092.042-.2.077-.634.212-2.281.709-3.766 1.29-4.206 1.837-.09.11-.13.21-.112.264.03.098.197.22.486.286 1.413.322 3.145.427 6.262.427 3.116 0 4.849-.105 6.262-.427.288-.065.455-.188.486-.287zm4.758-2.18c.34.422.454.933.305 1.399-.167.524-.629.904-1.254 1.046-.391.089-.827.158-1.327.212-.04.004-.04.004-.075.004a.696.696 0 0 1-.682-.642c-.037-.388.233-.74.612-.78.455-.049.84-.11 1.178-.187a.654.654 0 0 0 .242-.097c-.014.016-.029-.012-.05-.038a1.386 1.386 0 0 0-.36-.275c-.292-.172-.71-.356-1.222-.55a26.07 26.07 0 0 0-1.52-.51c-.353-.11-.424-.134-.503-.17a.928.928 0 0 1-.508-.599c-.127-.45.032-.903.44-1.565l.05-.08c.207-.335.224-.372.275-.643.056-.3.244-.7.443-.92.07-.122.162-.545.152-.614-.153-.33-.226-.576-.206-.877.03-.466-.011-.89-.122-1.26-.118-.397-.498-.788-.94-.959-.264-.102-.495-.131-.875-.131-.18 0-.316.006-.45.023a.69.69 0 0 1-.766-.622c-.045-.386.217-.743.595-.792.2-.026.385-.035.621-.035.538 0 .912.05 1.356.222.846.327 1.523 1.042 1.77 1.871.16.54.221 1.139.18 1.766 0 0 .019.059.07.166.026.057.047.11.058.146.185.585-.06 1.647-.41 2.027a.912.912 0 0 0-.13.261c-.09.479-.174.668-.467 1.142l-.032.052a5.71 5.71 0 0 0-.144.244c2.07.647 3.192 1.14 3.696 1.766z"/>
    </g>
</svg>
