<svg xmlns="http://www.w3.org/2000/svg" width="24" height="24" fill="none" viewBox="0 0 24 24">
  <g id="icon-linkedin-24px">
    <rect id="Rectangle" width="24" height="24" fill="#D8D8D8" fill-opacity="0.01"/>
    <g id="professional-network-linkedin">
      <path id="Shape" fill="#003BDF" d="M7.77993 19.7477V20.2477C8.05607 20.2477 8.27993 20.0238 8.27993 19.7477H7.77993ZM4.53993 19.7477H4.03993C4.03993 20.0238 4.26378 20.2477 4.53993 20.2477V19.7477ZM4.53993 10.2499V9.74994C4.26378 9.74994 4.03993 9.9738 4.03993 10.2499H4.53993ZM7.77993 10.2499H8.27993C8.27993 9.9738 8.05607 9.74994 7.77993 9.74994V10.2499ZM13.0799 19.7477V20.2477C13.3561 20.2477 13.5799 20.0238 13.5799 19.7477H13.0799ZM9.67326 19.7477H9.17326C9.17326 20.0238 9.39712 20.2477 9.67326 20.2477V19.7477ZM9.67326 10.2499V9.74994C9.39712 9.74994 9.17326 9.9738 9.17326 10.2499H9.67326ZM13.0799 10.2499H13.5799C13.5799 9.9738 13.3561 9.74994 13.0799 9.74994V10.2499ZM12.5799 11.334C12.5799 11.6102 12.8038 11.834 13.0799 11.834C13.3561 11.834 13.5799 11.6102 13.5799 11.334H12.5799ZM13.0799 11.334L12.7526 10.956C12.643 11.051 12.5799 11.1889 12.5799 11.334H13.0799ZM15.9333 10.2431V9.74308L15.9266 9.74317L15.9333 10.2431ZM19.5133 19.7477V20.2477C19.7894 20.2477 20.0133 20.0238 20.0133 19.7477H19.5133ZM15.9333 19.7477H15.4333C15.4333 20.0238 15.6571 20.2477 15.9333 20.2477V19.7477ZM15.9333 14.8045L15.4333 14.8022V14.8045H15.9333ZM14.5133 13.3386L14.5109 13.8386L14.5133 13.3386ZM14.5066 13.3386L14.5066 12.8386C14.3739 12.8386 14.2467 12.8913 14.153 12.9851C14.0592 13.0789 14.0065 13.2061 14.0066 13.3388L14.5066 13.3386ZM6.17326 5.25903H6.67326C6.67326 4.98289 6.4494 4.75903 6.17326 4.75903V5.25903ZM6.17326 5.25903H5.67326C5.67326 5.53358 5.89463 5.75677 6.16917 5.75902L6.17326 5.25903ZM7.82659 6.96358L7.32659 6.96356C7.32659 7.09618 7.37926 7.22336 7.47303 7.31713C7.5668 7.4109 7.69398 7.46358 7.82659 7.46358V6.96358ZM7.77993 19.2477H4.53993V20.2477H7.77993V19.2477ZM5.03993 19.7477V10.2499H4.03993V19.7477H5.03993ZM4.53993 10.7499H7.77993V9.74994H4.53993V10.7499ZM7.27993 10.2499V19.7477H8.27993V10.2499H7.27993ZM14.5066 12.8454C13.432 12.8454 12.5799 13.7332 12.5799 14.8045H13.5799C13.5799 14.2641 14.0053 13.8454 14.5066 13.8454V12.8454ZM12.5799 14.8045V19.7477H13.5799V14.8045H12.5799ZM13.0799 19.2477H9.67326V20.2477H13.0799V19.2477ZM10.1733 19.7477V10.2499H9.17326V19.7477H10.1733ZM9.67326 10.7499H13.0799V9.74994H9.67326V10.7499ZM12.5799 10.2499V11.334H13.5799V10.2499H12.5799ZM13.5799 11.334H12.5799H13.5799ZM13.4072 11.712C14.1175 11.0971 15.013 10.7554 15.9399 10.7431L15.9266 9.74317C14.7614 9.75865 13.6393 10.1883 12.7526 10.956L13.4072 11.712ZM15.9333 10.7431C16.853 10.7431 17.5995 11.0859 18.1269 11.7386C18.6641 12.4035 19.0133 13.4401 19.0133 14.8863H20.0133C20.0133 13.2916 19.6291 12.0066 18.9047 11.1101C18.1704 10.2014 17.1269 9.74312 15.9333 9.74312V10.7431ZM19.0133 14.8863V19.7477H20.0133V14.8863H19.0133ZM19.5133 19.2477H15.9333V20.2477H19.5133V19.2477ZM16.4333 19.7477V14.8045H15.4333V19.7477H16.4333ZM16.4333 14.8045V14.8045H15.4333V14.8045H16.4333ZM16.4333 14.8068C16.4381 13.7355 15.5902 12.8437 14.5157 12.8386L14.5109 13.8386C15.0122 13.841 15.4357 14.2618 15.4333 14.8022L16.4333 14.8068ZM14.5157 12.8386C14.5126 12.8386 14.5096 12.8386 14.5066 12.8386L14.5066 13.8386C14.508 13.8386 14.5094 13.8386 14.5109 13.8386L14.5157 12.8386ZM14.0066 13.3388L14.0066 13.3456L15.0066 13.3452L15.0066 13.3384L14.0066 13.3388ZM7.33993 6.96358C7.33993 7.63948 6.80706 8.16812 6.17326 8.16812V9.16812C7.38041 9.16812 8.33993 8.17046 8.33993 6.96358H7.33993ZM6.17326 8.16812C5.53946 8.16812 5.00659 7.63948 5.00659 6.96358H4.00659C4.00659 8.17046 4.96611 9.16812 6.17326 9.16812V8.16812ZM5.00659 6.96358C5.00659 6.28768 5.53946 5.75903 6.17326 5.75903V4.75903C4.96611 4.75903 4.00659 5.7567 4.00659 6.96358H5.00659ZM5.67326 5.25903V5.25903H6.67326V5.25903H5.67326ZM6.16917 5.75902C6.79948 5.76417 7.32661 6.2915 7.32659 6.96356L8.32659 6.96359C8.32663 5.76347 7.37757 4.76887 6.17735 4.75905L6.16917 5.75902ZM7.82659 7.46358H7.83993V6.46358H7.82659V7.46358Z"/>
    </g>
  </g>
</svg>
