<svg width="16" height="16" viewBox="0 0 16 16" fill="none" xmlns="http://www.w3.org/2000/svg">
<path fill-rule="evenodd" clip-rule="evenodd" d="M0.390524 0.390524C0.140476 0.640573 0 0.979711 0 1.33333V15.3333C0 15.5101 0.0702369 15.6797 0.195261 15.8047C0.320285 15.9298 0.489855 16 0.666666 16C0.843477 16 1.01305 15.9298 1.13807 15.8047C1.2631 15.6797 1.33333 15.5101 1.33333 15.3333V1.66667C1.33333 1.57826 1.36845 1.49348 1.43096 1.43096C1.49348 1.36845 1.57826 1.33333 1.66667 1.33333H4.33333C4.42174 1.33333 4.50652 1.36845 4.56904 1.43096C4.63155 1.49348 4.66667 1.57826 4.66667 1.66667V2.83333C4.66667 2.92174 4.63155 3.00652 4.56904 3.06904C4.50652 3.13155 4.42174 3.16667 4.33333 3.16667H3.66667C3.40145 3.16667 3.1471 3.27202 2.95956 3.45956C2.77202 3.6471 2.66667 3.90145 2.66667 4.16667V11C2.66667 11.2652 2.77202 11.5196 2.95956 11.7071C3.1471 11.8946 3.40145 12 3.66667 12H15C15.2652 12 15.5196 11.8946 15.7071 11.7071C15.8946 11.5196 16 11.2652 16 11V4.16667C16 3.90145 15.8946 3.6471 15.7071 3.45956C15.5196 3.27202 15.2652 3.16667 15 3.16667H14C13.9116 3.16667 13.8268 3.13155 13.7643 3.06904C13.7018 3.00652 13.6667 2.92174 13.6667 2.83333V1.66667C13.6667 1.57826 13.7018 1.49348 13.7643 1.43096C13.8268 1.36845 13.9116 1.33333 14 1.33333H15C15.1768 1.33333 15.3464 1.2631 15.4714 1.13807C15.5964 1.01305 15.6667 0.843478 15.6667 0.666667C15.6667 0.489856 15.5964 0.320286 15.4714 0.195262C15.3464 0.0702379 15.1768 0 15 0H1.33333C0.979711 0 0.640573 0.140476 0.390524 0.390524ZM12.2357 1.43096C12.2982 1.49348 12.3333 1.57826 12.3333 1.66667V2.83333C12.3333 2.92174 12.2982 3.00652 12.2357 3.06904C12.1732 3.13155 12.0884 3.16667 12 3.16667H6.33333C6.24493 3.16667 6.16014 3.13155 6.09763 3.06904C6.03512 3.00652 6 2.92174 6 2.83333V1.66667C6 1.57826 6.03512 1.49348 6.09763 1.43096C6.16014 1.36845 6.24493 1.33333 6.33333 1.33333H12C12.0884 1.33333 12.1732 1.36845 12.2357 1.43096ZM5 4.66667C4.44772 4.66667 4 5.11438 4 5.66667V9.66667C4 10.219 4.44772 10.6667 5 10.6667H13.6667C14.219 10.6667 14.6667 10.219 14.6667 9.66667V5.66667C14.6667 5.11438 14.219 4.66667 13.6667 4.66667H5Z" fill="black"/>
</svg>
