<?xml version="1.0" encoding="iso-8859-1"?>
<!-- Generator: Adobe Illustrator 17.1.0, SVG Export Plug-In . SVG Version: 6.00 Build 0)  -->
<!DOCTYPE svg PUBLIC "-//W3C//DTD SVG 1.1//EN" "http://www.w3.org/Graphics/SVG/1.1/DTD/svg11.dtd">
<svg version="1.1" id="Capa_1" xmlns="http://www.w3.org/2000/svg" xmlns:xlink="http://www.w3.org/1999/xlink" x="0px" y="0px"
	 viewBox="0 0 255.223 255.223" style="enable-background:new 0 0 255.223 255.223;" xml:space="preserve">
<g>
	<path style="fill:#000002;" d="M240.752,78.298c-1.349,0-2.718,0.253-4.075,0.728V12.5c0-6.893-5.607-12.5-12.5-12.5H31.044
		c-6.893,0-12.5,5.607-12.5,12.5v66.524c-1.357-0.474-2.726-0.727-4.074-0.727c-5.45,0-11.316,4.101-11.316,13.103v146.322
		c0,9.65,7.851,17.5,17.5,17.5h213.915c9.649,0,17.5-7.85,17.5-17.5V91.4C252.069,82.398,246.203,78.298,240.752,78.298z M33.544,15
		h188.133v74.376c0,0.063,0.008,0.126,0.01,0.188l-90.731,69.912c-0.78,0.601-2.03,0.959-3.345,0.959
		c-1.314,0-2.563-0.357-3.343-0.958L33.27,89.359c0.173-0.633,0.274-1.295,0.274-1.983V15z M237.069,237.723
		c0,1.355-1.145,2.5-2.5,2.5H20.654c-1.355,0-2.5-1.145-2.5-2.5V96.647l96.958,74.711c3.412,2.63,7.851,4.077,12.499,4.077
		c4.648,0,9.087-1.447,12.5-4.077l96.958-74.711V237.723z"/>
	<path style="fill:#000002;" d="M75.309,48.938h32.838c4.142,0,7.499-3.357,7.499-7.5s-3.357-7.5-7.499-7.5H75.309
		c-4.142,0-7.5,3.357-7.5,7.5S71.167,48.938,75.309,48.938z"/>
	<path style="fill:#000002;" d="M75.309,79.15h101c4.143,0,7.5-3.357,7.5-7.5s-3.357-7.5-7.5-7.5h-101c-4.142,0-7.5,3.357-7.5,7.5
		S71.167,79.15,75.309,79.15z"/>
	<path style="fill:#000002;" d="M75.309,109.363h101c4.143,0,7.5-3.357,7.5-7.5c0-4.143-3.357-7.5-7.5-7.5h-101
		c-4.142,0-7.5,3.357-7.5,7.5C67.809,106.006,71.167,109.363,75.309,109.363z"/>
</g>
<g>
</g>
<g>
</g>
<g>
</g>
<g>
</g>
<g>
</g>
<g>
</g>
<g>
</g>
<g>
</g>
<g>
</g>
<g>
</g>
<g>
</g>
<g>
</g>
<g>
</g>
<g>
</g>
<g>
</g>
</svg>
