<svg width="22" height="24" viewBox="0 0 22 24" fill="none" xmlns="http://www.w3.org/2000/svg">
<path d="M18.6501 0H5.40864C3.55851 0 2.05869 1.48825 2.05869 3.3241V5.0496H0.913621C0.409042 5.0496 0 5.45549 0 5.95618C0 6.45686 0.409042 6.86275 0.913621 6.86275H2.05869V11.0934H0.913621C0.587215 11.0934 0.285605 11.2662 0.122402 11.5467C-0.0408005 11.8272 -0.0408005 12.1728 0.122402 12.4533C0.285605 12.7338 0.587215 12.9066 0.913621 12.9066H2.05869V17.1372H0.913621C0.409042 17.1372 0 17.5431 0 18.0438C0 18.5445 0.409042 18.9504 0.913621 18.9504H2.05869V20.6759C2.05869 22.5118 3.55851 24 5.40864 24H18.6501C20.5002 24 22 22.5118 22 20.6759V3.3241C22 1.48825 20.5002 0 18.6501 0ZM5.40864 22.1868C5.00479 22.1868 4.61749 22.0277 4.33192 21.7443C4.04636 21.4609 3.88594 21.0766 3.88594 20.6759V18.9504H5.1041C5.60868 18.9504 6.01772 18.5445 6.01772 18.0438C6.01772 17.5431 5.60868 17.1372 5.1041 17.1372H3.88594V12.9066H5.1041C5.60868 12.9066 6.01772 12.5007 6.01772 12C6.01772 11.4993 5.60868 11.0934 5.1041 11.0934H3.88594V6.86275H5.1041C5.60868 6.86275 6.01772 6.45686 6.01772 5.95618C6.01772 5.45549 5.60868 5.0496 5.1041 5.0496H3.88594V3.3241C3.88594 2.48962 4.56767 1.81315 5.40864 1.81315H7.57087V22.1868H5.40864ZM20.1728 20.6759C20.1728 21.0766 20.0123 21.4609 19.7268 21.7443C19.4412 22.0277 19.0539 22.1868 18.6501 22.1868H9.40116V1.81315H18.6501C19.491 1.81315 20.1728 2.48962 20.1728 3.3241V20.6759Z" fill="black"/>
</svg>
