<svg width="24" height="24" viewBox="0 0 24 24" xmlns="http://www.w3.org/2000/svg">
  <path d="M16.4314 3.0652H7.0303c-1.3136 0-2.3784 1.1081-2.3784 2.475V6.825h-.813c-.3582 0-.6486.3022-.6486.675s.2904.675.6486.675h.813v3.15h-.813c-.2317 0-.4459.1287-.5617.3375a.6988.6988 0 0 0 0 .675c.1158.2088.33.3375.5617.3375h.813v3.15h-.813c-.3582 0-.6486.3022-.6486.675s.2904.675.6486.675h.813v1.2848c0 1.3669 1.0648 2.475 2.3784 2.475h9.401c1.3136 0 2.3784-1.1081 2.3784-2.475V5.5402c0-1.3669-1.0648-2.475-2.3783-2.475zM7.0303 19.5848c-.2868 0-.5617-.1186-.7645-.3296-.2027-.211-.3166-.497-.3166-.7954V17.175h.8649c.3582 0 .6486-.3022.6486-.675s-.2904-.675-.6486-.675h-.865v-3.15h.865c.3582 0 .6486-.3022.6486-.675s-.2904-.675-.6486-.675h-.865v-3.15h.865c.3582 0 .6486-.3022.6486-.675s-.2904-.675-.6486-.675h-.865V5.5402c0-.6213.4841-1.125 1.0812-1.125h1.5351v15.1696H7.0303zm10.4821-1.125c0 .2983-.1139.5845-.3166.7954-.2028.211-.4777.3296-.7644.3296H9.8649V4.4152h6.5665c.597 0 1.081.5037 1.081 1.125v12.9196z" fill-rule="nonzero"/>
</svg>
