<svg width="24" height="24" xmlns="http://www.w3.org/2000/svg">
  <path d="M17.3846 18.923v1.5453c0 .846-.6843 1.5317-1.5316 1.5317h-1.5453v-1.5385h1.5385v-1.5384h1.5384zM12.7692 22h-2.3077v-1.5385h2.3077V22zm-3.8461 0H6.6154v-1.5385H8.923V22zm-3.8462 0H3.5317C2.6857 22 2 21.3156 2 20.4683v-1.5452h1.5385v1.5384h1.5384V22zM2 17.3846V15.077h1.5385v2.3077H2zm0-3.8461v-2.3077h1.5385v2.3077H2zm0-3.8462V8.147c0-.8459.6844-1.5316 1.5317-1.5316h1.5452v1.5384H3.5385v1.5385H2zM20.4683 2C21.3143 2 22 2.6844 22 3.5317V15.853c0 .8459-.6844 1.5316-1.5317 1.5316H8.147c-.8459 0-1.5316-.6843-1.5316-1.5316V3.5317C6.6154 2.6857 7.2997 2 8.147 2h12.3213zM8.1538 3.5385v12.3077h12.3077V3.5385H8.1538zm10 7.6923a.7692.7692 0 0 1-.7692-.7693V7.707l-4.8407 4.837a.7692.7692 0 0 1-1.0878-1.088l4.8362-4.8406h-2.7538a.7692.7692 0 0 1 0-1.5385h4.6153a.7692.7692 0 0 1 .7693.7693v4.6153a.7692.7692 0 0 1-.7693.7693z" fill="#000" fill-rule="nonzero"/>
</svg>
