<svg width="24" height="24" viewBox="0 0 24 24" fill="none" xmlns="http://www.w3.org/2000/svg">
<path d="M0.75 21.75H23.25" stroke="#002383" stroke-width="1.5" stroke-linecap="round" stroke-linejoin="round"/>
<path d="M6 11.25H3C2.80109 11.25 2.61032 11.329 2.46967 11.4697C2.32902 11.6103 2.25 11.8011 2.25 12V21.75H6.75V12C6.75 11.8011 6.67098 11.6103 6.53033 11.4697C6.38968 11.329 6.19891 11.25 6 11.25Z" stroke="#002383" stroke-width="1.5" stroke-linecap="round" stroke-linejoin="round"/>
<path d="M13.5 2.25H10.5C10.3011 2.25 10.1103 2.32902 9.96967 2.46967C9.82902 2.61032 9.75 2.80109 9.75 3V21.75H14.25V3C14.25 2.80109 14.171 2.61032 14.0303 2.46967C13.8897 2.32902 13.6989 2.25 13.5 2.25Z" stroke="#002383" stroke-width="1.5" stroke-linecap="round" stroke-linejoin="round"/>
<path d="M21 6.75H18C17.8011 6.75 17.6103 6.82902 17.4697 6.96967C17.329 7.11032 17.25 7.30109 17.25 7.5V21.75H21.75V7.5C21.75 7.30109 21.671 7.11032 21.5303 6.96967C21.3897 6.82902 21.1989 6.75 21 6.75Z" stroke="#002383" stroke-width="1.5" stroke-linecap="round" stroke-linejoin="round"/>
</svg>
