<svg width="48" height="48" viewBox="0 0 48 48" fill="none" xmlns="http://www.w3.org/2000/svg">
<g clip-path="url(#clip0)">
<path d="M25.2316 2.25986L28.1436 7.49986H33.1016C33.3729 7.49512 33.6394 7.57175 33.8668 7.71987C34.0941 7.868 34.2718 8.08083 34.3771 8.33091C34.4823 8.581 34.5102 8.85688 34.4572 9.12298C34.4042 9.38908 34.2727 9.6332 34.0796 9.82386L29.5256 14.7999L32.0496 20.5999C32.16 20.8653 32.1843 21.1587 32.1191 21.4386C32.054 21.7186 31.9027 21.9711 31.6865 22.1606C31.4703 22.35 31.2002 22.4669 30.9141 22.4948C30.628 22.5226 30.3403 22.4601 30.0916 22.3159L23.9996 18.8799L17.8956 22.3079C17.647 22.4521 17.3593 22.5146 17.0732 22.4868C16.7871 22.4589 16.517 22.342 16.3008 22.1526C16.0846 21.9631 15.9333 21.7106 15.8682 21.4306C15.803 21.1507 15.8273 20.8573 15.9376 20.5919L18.4616 14.7999L13.9076 9.82386C13.7156 9.63281 13.585 9.38877 13.5326 9.12301C13.4801 8.85725 13.5082 8.58189 13.6133 8.33222C13.7184 8.08254 13.8956 7.86993 14.1223 7.72164C14.349 7.57334 14.6148 7.49612 14.8856 7.49986H19.8456L22.7576 2.25986C22.8733 2.03104 23.0501 1.83878 23.2685 1.70446C23.4869 1.57014 23.7383 1.49902 23.9946 1.49902C24.251 1.49902 24.5024 1.57014 24.7208 1.70446C24.9392 1.83878 25.116 2.03104 25.2316 2.25986V2.25986Z" stroke="#002383" stroke-width="3" stroke-linecap="round" stroke-linejoin="round"/>
<path d="M27 39V46.5H34.5" stroke="#002383" stroke-width="3" stroke-linecap="round" stroke-linejoin="round"/>
<path d="M33 31.5V39H40.5" stroke="#002383" stroke-width="3" stroke-linecap="round" stroke-linejoin="round"/>
<path d="M39 25.5V33H46.5" stroke="#002383" stroke-width="3" stroke-linecap="round" stroke-linejoin="round"/>
<path d="M39 33L45 27" stroke="#002383" stroke-width="3" stroke-linecap="round" stroke-linejoin="round"/>
<path d="M21 39V46.5H13.5" stroke="#002383" stroke-width="3" stroke-linecap="round" stroke-linejoin="round"/>
<path d="M15 31.5V39H7.5" stroke="#002383" stroke-width="3" stroke-linecap="round" stroke-linejoin="round"/>
<path d="M9 25.5V33H1.5" stroke="#002383" stroke-width="3" stroke-linecap="round" stroke-linejoin="round"/>
<path d="M9 33L3 27" stroke="#002383" stroke-width="3" stroke-linecap="round" stroke-linejoin="round"/>
</g>
<defs>
<clipPath id="clip0">
<rect width="48" height="48" fill="white"/>
</clipPath>
</defs>
</svg>
