<svg width="40" height="40" viewBox="0 0 40 40" fill="none" xmlns="http://www.w3.org/2000/svg">
<g clip-path="url(#clip0)">
<rect x="11.6666" y="11.6667" width="18.3333" height="18.3333" fill="black"/>
<g filter="url(#filter0_d)">
<path d="M20 40C23.9556 40 27.8224 38.827 31.1114 36.6294C34.4004 34.4318 36.9638 31.3082 38.4776 27.6537C39.9913 23.9992 40.3874 19.9778 39.6157 16.0982C38.844 12.2186 36.9392 8.65492 34.1421 5.85787C31.3451 3.06082 27.7814 1.156 23.9018 0.384298C20.0222 -0.387407 16.0009 0.00866024 12.3463 1.52241C8.69181 3.03617 5.56824 5.59962 3.37061 8.8886C1.17298 12.1776 0 16.0444 0 20C0.00573514 25.3026 2.11471 30.3863 5.8642 34.1358C9.61368 37.8853 14.6974 39.9943 20 40ZM28.02 20.8333C28.005 21.1318 27.905 21.4197 27.7316 21.663C27.5582 21.9064 27.3188 22.095 27.0417 22.2067L16.9 27.2767C16.6263 27.4186 16.3233 27.4945 16.015 27.4983C15.728 27.5005 15.4462 27.4219 15.2017 27.2717C14.9535 27.1066 14.7526 26.8798 14.6184 26.6136C14.4843 26.3475 14.4217 26.051 14.4367 25.7533V15.91C14.4112 15.6111 14.4691 15.3109 14.6039 15.0428C14.7387 14.7748 14.9452 14.5494 15.2003 14.3916C15.4555 14.2337 15.7494 14.1498 16.0495 14.1489C16.3495 14.148 16.6439 14.2303 16.9 14.3867L27.0417 19.4583C27.3191 19.5701 27.5587 19.759 27.732 20.0027C27.9054 20.2464 28.0054 20.5346 28.02 20.8333Z" fill="white"/>
</g>
</g>
<defs>
<filter id="filter0_d" x="-10" y="-5.48363e-06" width="60" height="60" filterUnits="userSpaceOnUse" color-interpolation-filters="sRGB">
<feFlood flood-opacity="0" result="BackgroundImageFix"/>
<feColorMatrix in="SourceAlpha" type="matrix" values="0 0 0 0 0 0 0 0 0 0 0 0 0 0 0 0 0 0 127 0"/>
<feOffset dy="10"/>
<feGaussianBlur stdDeviation="5"/>
<feColorMatrix type="matrix" values="0 0 0 0 0 0 0 0 0 0 0 0 0 0 0 0 0 0 0.4 0"/>
<feBlend mode="normal" in2="BackgroundImageFix" result="effect1_dropShadow"/>
<feBlend mode="normal" in="SourceGraphic" in2="effect1_dropShadow" result="shape"/>
</filter>
<clipPath id="clip0">
<rect width="40" height="40" fill="white"/>
</clipPath>
</defs>
</svg>
