<svg width="48" height="48" viewBox="0 0 48 48" fill="none" xmlns="http://www.w3.org/2000/svg">
<path d="M24 30C31.4558 30 37.5 23.9558 37.5 16.5C37.5 9.04416 31.4558 3 24 3C16.5442 3 10.5 9.04416 10.5 16.5C10.5 23.9558 16.5442 30 24 30Z" stroke="#002383" stroke-width="3" stroke-linecap="round" stroke-linejoin="round"/>
<path d="M15 45C22.4558 45 28.5 38.9558 28.5 31.5C28.5 24.0442 22.4558 18 15 18C7.54416 18 1.5 24.0442 1.5 31.5C1.5 38.9558 7.54416 45 15 45Z" stroke="#002383" stroke-width="3" stroke-linecap="round" stroke-linejoin="round"/>
<path d="M33 45C40.4558 45 46.5 38.9558 46.5 31.5C46.5 24.0442 40.4558 18 33 18C25.5442 18 19.5 24.0442 19.5 31.5C19.5 38.9558 25.5442 45 33 45Z" stroke="#002383" stroke-width="3" stroke-linecap="round" stroke-linejoin="round"/>
</svg>
