<svg width="24" height="24" viewBox="0 0 24 24" fill="none" xmlns="http://www.w3.org/2000/svg">
<g clip-path="url(#clip0)">
<path d="M12.75 15.948V21.748C12.75 22.1458 12.908 22.5274 13.1893 22.8087C13.4706 23.09 13.8522 23.248 14.25 23.248H20.25C20.6478 23.248 21.0294 23.09 21.3107 22.8087C21.592 22.5274 21.75 22.1458 21.75 21.748V15.948" stroke="#002383" stroke-width="1.5" stroke-linecap="round" stroke-linejoin="round"/>
<path d="M11.25 17.2601L15.768 13.3071C16.1781 12.9478 16.7048 12.7498 17.25 12.7498C17.7952 12.7498 18.3219 12.9478 18.732 13.3071L23.25 17.2601" stroke="#002383" stroke-width="1.5" stroke-linecap="round" stroke-linejoin="round"/>
<path d="M18.75 23.25H15.75V20.25C15.75 19.8522 15.908 19.4706 16.1893 19.1893C16.4706 18.908 16.8522 18.75 17.25 18.75C17.6478 18.75 18.0294 18.908 18.3107 19.1893C18.592 19.4706 18.75 19.8522 18.75 20.25V23.25Z" stroke="#002383" stroke-width="1.5" stroke-linecap="round" stroke-linejoin="round"/>
<path d="M3.75 6.75H14.25" stroke="#002383" stroke-width="1.5" stroke-linecap="round" stroke-linejoin="round"/>
<path d="M3.75 11.25H12" stroke="#002383" stroke-width="1.5" stroke-linecap="round" stroke-linejoin="round"/>
<path d="M3.75 15.75H7.5" stroke="#002383" stroke-width="1.5" stroke-linecap="round" stroke-linejoin="round"/>
<path d="M7.5 20.25H2.25C1.85218 20.25 1.47064 20.092 1.18934 19.8107C0.908035 19.5294 0.75 19.1478 0.75 18.75V2.25C0.75 1.85218 0.908035 1.47064 1.18934 1.18934C1.47064 0.908035 1.85218 0.75 2.25 0.75H12.879C13.2765 0.750085 13.6578 0.907982 13.939 1.189L16.811 4.061C17.092 4.3422 17.2499 4.72345 17.25 5.121V9.75" stroke="#002383" stroke-width="1.5" stroke-linecap="round" stroke-linejoin="round"/>
</g>
<defs>
<clipPath id="clip0">
<rect width="24" height="24" fill="white"/>
</clipPath>
</defs>
</svg>
