<svg width="24" height="24" viewBox="0 0 24 24" fill="none" xmlns="http://www.w3.org/2000/svg">
<g clip-path="url(#clip0)">
<path d="M9.11011 23.248L5.32111 20.155C5.07633 19.959 4.8929 19.697 4.79258 19.3999C4.69226 19.1028 4.67925 18.7832 4.75511 18.479C4.8146 18.2411 4.92674 18.0196 5.08326 17.8308C5.23979 17.6421 5.4367 17.4909 5.65946 17.3883C5.88223 17.2858 6.12517 17.2347 6.37036 17.2386C6.61555 17.2425 6.85673 17.3014 7.07611 17.411L8.25011 18V11.25C8.25011 10.8522 8.40814 10.4706 8.68945 10.1893C8.97075 9.90804 9.35228 9.75 9.75011 9.75C10.1479 9.75 10.5295 9.90804 10.8108 10.1893C11.0921 10.4706 11.2501 10.8522 11.2501 11.25V15.75L13.2431 16.083C13.9433 16.1996 14.5794 16.5608 15.0384 17.1022C15.4974 17.6436 15.7496 18.3302 15.7501 19.04V23.248" stroke="#002383" stroke-width="1.5" stroke-linecap="round" stroke-linejoin="round"/>
<path d="M17.379 14.486C17.7201 13.9383 18.003 13.3565 18.223 12.75" stroke="#002383" stroke-width="1.5" stroke-linecap="round" stroke-linejoin="round"/>
<path d="M18.75 9.74804C21.2353 9.74804 23.25 7.73333 23.25 5.24805C23.25 2.76276 21.2353 0.748047 18.75 0.748047C16.2647 0.748047 14.25 2.76276 14.25 5.24805C14.25 7.73333 16.2647 9.74804 18.75 9.74804Z" stroke="#002383" stroke-width="1.5" stroke-linecap="round" stroke-linejoin="round"/>
<path d="M18.75 5.24805V3.74805" stroke="#002383" stroke-width="1.5" stroke-linecap="round" stroke-linejoin="round"/>
<path d="M12.0001 1.06507C11.2667 0.863705 10.5106 0.757171 9.75012 0.748071C8.09607 0.744248 6.47311 1.19739 5.06027 2.0575C3.64744 2.91761 2.49964 4.15127 1.7435 5.62237C0.987365 7.09348 0.652275 8.74486 0.7752 10.3943C0.898124 12.0438 1.47428 13.6273 2.44012 14.9701" stroke="#002383" stroke-width="1.5" stroke-linecap="round" stroke-linejoin="round"/>
</g>
<defs>
<clipPath id="clip0">
<rect width="24" height="24" fill="white"/>
</clipPath>
</defs>
</svg>
