<svg width="24" height="24" viewBox="0 0 24 24" fill="none" xmlns="http://www.w3.org/2000/svg">
<g clip-path="url(#clip0)">
<path d="M13.5 14.248C15.5711 14.248 17.25 12.5691 17.25 10.498C17.25 8.42698 15.5711 6.74805 13.5 6.74805C11.4289 6.74805 9.75 8.42698 9.75 10.498C9.75 12.5691 11.4289 14.248 13.5 14.248Z" stroke="#002383" stroke-width="1.5" stroke-linecap="round" stroke-linejoin="round"/>
<path d="M21 5.24805C22.2426 5.24805 23.25 4.24069 23.25 2.99805C23.25 1.75541 22.2426 0.748047 21 0.748047C19.7574 0.748047 18.75 1.75541 18.75 2.99805C18.75 4.24069 19.7574 5.24805 21 5.24805Z" stroke="#002383" stroke-width="1.5" stroke-linecap="round" stroke-linejoin="round"/>
<path d="M21 17.998C22.2426 17.998 23.25 16.9907 23.25 15.748C23.25 14.5054 22.2426 13.498 21 13.498C19.7574 13.498 18.75 14.5054 18.75 15.748C18.75 16.9907 19.7574 17.998 21 17.998Z" stroke="#002383" stroke-width="1.5" stroke-linecap="round" stroke-linejoin="round"/>
<path d="M13.5 23.248C14.7426 23.248 15.75 22.2407 15.75 20.998C15.75 19.7554 14.7426 18.748 13.5 18.748C12.2574 18.748 11.25 19.7554 11.25 20.998C11.25 22.2407 12.2574 23.248 13.5 23.248Z" stroke="#002383" stroke-width="1.5" stroke-linecap="round" stroke-linejoin="round"/>
<path d="M3 23.248C4.24264 23.248 5.25 22.2407 5.25 20.998C5.25 19.7554 4.24264 18.748 3 18.748C1.75736 18.748 0.75 19.7554 0.75 20.998C0.75 22.2407 1.75736 23.248 3 23.248Z" stroke="#002383" stroke-width="1.5" stroke-linecap="round" stroke-linejoin="round"/>
<path d="M3.75 7.49805C4.99264 7.49805 6 6.49069 6 5.24805C6 4.00541 4.99264 2.99805 3.75 2.99805C2.50736 2.99805 1.5 4.00541 1.5 5.24805C1.5 6.49069 2.50736 7.49805 3.75 7.49805Z" stroke="#002383" stroke-width="1.5" stroke-linecap="round" stroke-linejoin="round"/>
<path d="M16.151 7.84789L19.411 4.58789" stroke="#002383" stroke-width="1.5" stroke-linecap="round" stroke-linejoin="round"/>
<path d="M16.7939 12.292L19.0789 14.577" stroke="#002383" stroke-width="1.5" stroke-linecap="round" stroke-linejoin="round"/>
<path d="M13.5 14.248V18.748" stroke="#002383" stroke-width="1.5" stroke-linecap="round" stroke-linejoin="round"/>
<path d="M10.851 13.147L4.58997 19.408" stroke="#002383" stroke-width="1.5" stroke-linecap="round" stroke-linejoin="round"/>
<path d="M10.001 9.14892L5.60999 6.51392" stroke="#002383" stroke-width="1.5" stroke-linecap="round" stroke-linejoin="round"/>
</g>
<defs>
<clipPath id="clip0">
<rect width="24" height="24" fill="white"/>
</clipPath>
</defs>
</svg>
