<svg width="24" height="24" viewBox="0 0 24 24" fill="none" xmlns="http://www.w3.org/2000/svg">
<g clip-path="url(#clip0)">
<path d="M11.25 15.75V23.25" stroke="#002383" stroke-width="1.5" stroke-linecap="round" stroke-linejoin="round"/>
<path d="M2.25 23.25V15.75" stroke="#002383" stroke-width="1.5" stroke-linecap="round" stroke-linejoin="round"/>
<path d="M0.75 16.5L6.75 12L12.75 16.5" stroke="#002383" stroke-width="1.5" stroke-linecap="round" stroke-linejoin="round"/>
<path d="M21.75 17.25C21.75 18.0456 21.4339 18.8087 20.8713 19.3713C20.3087 19.9339 19.5456 20.25 18.75 20.25C17.9544 20.25 17.1913 19.9339 16.6287 19.3713C16.0661 18.8087 15.75 18.0456 15.75 17.25C15.75 12.75 18.75 6.75 18.75 6.75C18.75 6.75 21.75 12.75 21.75 17.25Z" stroke="#002383" stroke-width="1.5" stroke-linecap="round" stroke-linejoin="round"/>
<path d="M18.75 20.25V23.25" stroke="#002383" stroke-width="1.5" stroke-linecap="round" stroke-linejoin="round"/>
<path d="M0.75 23.25H23.25" stroke="#002383" stroke-width="1.5" stroke-linecap="round" stroke-linejoin="round"/>
<path d="M5.25 23.25V20.25C5.25 19.8522 5.40804 19.4706 5.68934 19.1893C5.97064 18.908 6.35218 18.75 6.75 18.75C7.14782 18.75 7.52936 18.908 7.81066 19.1893C8.09196 19.4706 8.25 19.8522 8.25 20.25V23.25" stroke="#002383" stroke-width="1.5" stroke-linecap="round" stroke-linejoin="round"/>
<path d="M8.24983 6.75C8.62264 6.75148 8.98998 6.6603 9.31882 6.48466C9.64767 6.30901 9.92771 6.0544 10.1338 5.74372C10.3399 5.43304 10.4655 5.07602 10.4994 4.70476C10.5334 4.33349 10.4745 3.95961 10.3281 3.61673C10.1818 3.27384 9.95252 2.9727 9.66095 2.74037C9.36938 2.50803 9.02466 2.35179 8.65775 2.28568C8.29084 2.21957 7.91326 2.24567 7.55894 2.36162C7.20462 2.47758 6.88466 2.67977 6.62783 2.95C6.47786 2.41256 6.18073 1.92769 5.76994 1.55008C5.35915 1.17246 4.85104 0.917105 4.3029 0.812802C3.75476 0.7085 3.18837 0.759397 2.66761 0.959755C2.14684 1.16011 1.6924 1.50197 1.35552 1.94677C1.01864 2.39158 0.812712 2.92165 0.760959 3.47722C0.709206 4.03279 0.813683 4.59178 1.06261 5.09115C1.31154 5.59053 1.69502 6.01044 2.16982 6.30353C2.64462 6.59663 3.19186 6.75127 3.74983 6.75H8.24983Z" stroke="#002383" stroke-width="1.5" stroke-linecap="round" stroke-linejoin="round"/>
</g>
<defs>
<clipPath id="clip0">
<rect width="24" height="24" fill="white"/>
</clipPath>
</defs>
</svg>
