<svg width="24" height="24" viewBox="0 0 24 24" fill="none" xmlns="http://www.w3.org/2000/svg">
<g clip-path="url(#clip0)">
<path d="M14.249 20.25H13.249C13.1139 20.2474 12.9854 20.1912 12.8916 20.0939C12.7979 19.9966 12.7466 19.8661 12.749 19.731V3.518C12.7478 3.45115 12.7598 3.38473 12.7843 3.32252C12.8087 3.26031 12.8452 3.20353 12.8917 3.15542C12.9381 3.10732 12.9936 3.06884 13.0549 3.04217C13.1162 3.0155 13.1821 3.00117 13.249 3H14.249" stroke="#002383" stroke-width="1.5" stroke-linecap="round" stroke-linejoin="round"/>
<path d="M10.499 12H12.749" stroke="#002383" stroke-width="1.5" stroke-linecap="round" stroke-linejoin="round"/>
<path d="M19.499 5.25C20.7417 5.25 21.749 4.24264 21.749 3C21.749 1.75736 20.7417 0.75 19.499 0.75C18.2564 0.75 17.249 1.75736 17.249 3C17.249 4.24264 18.2564 5.25 19.499 5.25Z" stroke="#002383" stroke-width="1.5" stroke-linecap="round" stroke-linejoin="round"/>
<path d="M23.249 9C23.0262 8.16526 22.542 7.42375 21.8675 6.88395C21.1929 6.34414 20.3633 6.03439 19.5 6C18.6365 6.03418 17.8067 6.34384 17.1319 6.88366C16.4572 7.42348 15.9729 8.16511 15.75 9H23.249Z" stroke="#002383" stroke-width="1.5" stroke-linecap="round" stroke-linejoin="round"/>
<path d="M19.499 19.5C20.7417 19.5 21.749 18.4926 21.749 17.25C21.749 16.0074 20.7417 15 19.499 15C18.2564 15 17.249 16.0074 17.249 17.25C17.249 18.4926 18.2564 19.5 19.499 19.5Z" stroke="#002383" stroke-width="1.5" stroke-linecap="round" stroke-linejoin="round"/>
<path d="M23.249 23.25C23.0261 22.4151 22.5419 21.6735 21.8671 21.1337C21.1923 20.5938 20.3625 20.2842 19.499 20.25C18.6356 20.2842 17.8057 20.5938 17.1309 21.1337C16.4562 21.6735 15.9719 22.4151 15.749 23.25H23.249Z" stroke="#002383" stroke-width="1.5" stroke-linecap="round" stroke-linejoin="round"/>
<path d="M5.24902 12C6.90588 12 8.24902 10.6569 8.24902 9C8.24902 7.34315 6.90588 6 5.24902 6C3.59217 6 2.24902 7.34315 2.24902 9C2.24902 10.6569 3.59217 12 5.24902 12Z" stroke="#002383" stroke-width="1.5" stroke-linecap="round" stroke-linejoin="round"/>
<path d="M0.749023 18C0.749023 16.8065 1.22313 15.6619 2.06704 14.818C2.91096 13.9741 4.05555 13.5 5.24902 13.5C6.4425 13.5 7.58709 13.9741 8.431 14.818C9.27492 15.6619 9.74902 16.8065 9.74902 18H0.749023Z" stroke="#002383" stroke-width="1.5" stroke-linecap="round" stroke-linejoin="round"/>
</g>
<defs>
<clipPath id="clip0">
<rect width="24" height="24" fill="white"/>
</clipPath>
</defs>
</svg>
