<svg width="48" height="48" viewBox="0 0 48 48" fill="none" xmlns="http://www.w3.org/2000/svg">
<g clip-path="url(#clip0)">
<path d="M39.15 22.1899H30.6C29.026 22.1899 27.75 23.439 27.75 24.9799V41.7194C27.75 43.2603 29.026 44.5094 30.6 44.5094H39.15C40.724 44.5094 42 43.2603 42 41.7194V24.9799C42 23.439 40.724 22.1899 39.15 22.1899Z" stroke="#002DA6" stroke-width="2.5" stroke-linecap="round" stroke-linejoin="round"/>
<path d="M34.9125 38.2321C35.2091 38.2321 35.4992 38.3182 35.7458 38.4795C35.9925 38.6409 36.1848 38.8702 36.2983 39.1385C36.4118 39.4068 36.4415 39.7021 36.3837 39.9869C36.3258 40.2717 36.1829 40.5334 35.9731 40.7387C35.7634 40.9441 35.4961 41.0839 35.2051 41.1406C34.9141 41.1973 34.6125 41.1682 34.3384 41.057C34.0644 40.9459 33.8301 40.7577 33.6653 40.5162C33.5004 40.2748 33.4125 39.9909 33.4125 39.7004C33.4125 39.311 33.5705 38.9375 33.8518 38.6621C34.1331 38.3868 34.5147 38.2321 34.9125 38.2321Z" stroke="#002DA6" stroke-width="2.5" stroke-linecap="round" stroke-linejoin="round"/>
<path d="M6 23.6216V4.53259C6 3.75371 6.31607 3.00674 6.87868 2.45598C7.44129 1.90523 8.20435 1.59583 9 1.59583H39C39.7956 1.59583 40.5587 1.90523 41.1213 2.45598C41.6839 3.00674 42 3.75371 42 4.53259V16.2797" stroke="#002DA6" stroke-width="2.5" stroke-linecap="round" stroke-linejoin="round"/>
<path d="M19.5 23.6216H1.5C1.5 25.5688 2.29018 27.4362 3.6967 28.8131C5.10322 30.19 7.01088 30.9635 9 30.9635H16.5" stroke="#002DA6" stroke-width="2.5" stroke-linecap="round" stroke-linejoin="round"/>
</g>
<defs>
<clipPath id="clip0">
<rect width="48" height="46.9883" fill="white" transform="translate(0 0.127441)"/>
</clipPath>
</defs>
</svg>
