<svg width="48" height="48" viewBox="0 0 48 48" fill="none" xmlns="http://www.w3.org/2000/svg">
<g clip-path="url(#clip0)">
<path d="M9 19.5C12.3137 19.5 15 16.8137 15 13.5C15 10.1863 12.3137 7.5 9 7.5C5.68629 7.5 3 10.1863 3 13.5C3 16.8137 5.68629 19.5 9 19.5Z" stroke="#002383" stroke-width="3" stroke-linecap="round" stroke-linejoin="round"/>
<path d="M16.5 34.5V30C16.5 28.0109 15.7098 26.1032 14.3033 24.6967C12.8968 23.2902 10.9891 22.5 9 22.5C7.01088 22.5 5.10322 23.2902 3.6967 24.6967C2.29018 26.1032 1.5 28.0109 1.5 30V34.5H4.5L6 46.5H12L13.5 34.5H16.5Z" stroke="#002383" stroke-width="3" stroke-linecap="round" stroke-linejoin="round"/>
<path d="M34.5004 1.49987C32.1952 1.48956 29.9363 2.14643 27.9961 3.39122C26.0559 4.63602 24.5174 6.41558 23.5659 8.51525C22.6145 10.6149 22.2909 12.945 22.6342 15.2245C22.9774 17.504 23.9728 19.6355 25.5004 21.3619L24.0004 29.9999L31.8244 25.1759C33.4759 25.5674 35.1918 25.6041 36.8586 25.2836C38.5254 24.9631 40.1053 24.2926 41.4938 23.3164C42.8824 22.3403 44.0481 21.0807 44.9139 19.6207C45.7797 18.1608 46.326 16.5339 46.5166 14.8472C46.7072 13.1606 46.5379 11.4528 46.0198 9.83643C45.5016 8.22009 44.6465 6.73206 43.5109 5.4706C42.3752 4.20914 40.9849 3.20295 39.4316 2.51848C37.8784 1.83401 36.1977 1.48683 34.5004 1.49987V1.49987Z" stroke="#002383" stroke-width="3" stroke-linecap="round" stroke-linejoin="round"/>
<path d="M31.5 10.5H37.5" stroke="#002383" stroke-width="3" stroke-linecap="round" stroke-linejoin="round"/>
<path d="M31.5 16.5H37.5" stroke="#002383" stroke-width="3" stroke-linecap="round" stroke-linejoin="round"/>
</g>
<defs>
<clipPath id="clip0">
<rect width="48" height="48" fill="white"/>
</clipPath>
</defs>
</svg>
