<svg width="48" height="48" viewBox="0 0 48 48" fill="none" xmlns="http://www.w3.org/2000/svg">
<g clip-path="url(#clip0)">
<path d="M1.5 32.2361V3.5106C1.5 3.00277 1.70608 2.51574 2.0729 2.15665C2.43972 1.79756 2.93724 1.59583 3.456 1.59583H26.544C27.0628 1.59583 27.5603 1.79756 27.9271 2.15665C28.2939 2.51574 28.5 3.00277 28.5 3.5106V13.3429" stroke="#002DA6" stroke-width="2.5" stroke-linecap="round" stroke-linejoin="round"/>
<path d="M7.5 7.46936V25.09" stroke="#002DA6" stroke-width="2.5" stroke-linecap="round" stroke-linejoin="round"/>
<path d="M16.5 13.3429C18.1569 13.3429 19.5 12.0281 19.5 10.4061C19.5 8.7842 18.1569 7.46936 16.5 7.46936C14.8431 7.46936 13.5 8.7842 13.5 10.4061C13.5 12.0281 14.8431 13.3429 16.5 13.3429Z" stroke="#002DA6" stroke-width="2.5" stroke-linecap="round" stroke-linejoin="round"/>
<path d="M30.3999 26.5583C30.6637 26.1126 31.0427 25.7427 31.4987 25.4856C31.9548 25.2286 32.4718 25.0935 32.9981 25.0939C33.5243 25.0943 34.0412 25.2302 34.4968 25.488C34.9524 25.7457 35.3307 26.1163 35.5938 26.5624C35.8569 27.0086 35.9955 27.5146 35.9957 28.0297C35.9958 28.5449 35.8576 29.051 35.5947 29.4973C35.3319 29.9436 34.9538 30.3144 34.4984 30.5724C34.0429 30.8305 33.5261 30.9667 32.9999 30.9674" stroke="#002DA6" stroke-width="2.5" stroke-linecap="round" stroke-linejoin="round"/>
<path d="M19.5 25.0254V21.1312C19.5 20.6234 19.7061 20.1363 20.0729 19.7773C20.4397 19.4182 20.9372 19.2164 21.456 19.2164H44.544C45.0628 19.2164 45.5603 19.4182 45.9271 19.7773C46.2939 20.1363 46.5 20.6234 46.5 21.1312V34.9203C46.5003 35.1719 46.4499 35.4211 46.3517 35.6537C46.2535 35.8862 46.1095 36.0975 45.9278 36.2755C45.7462 36.4535 45.5304 36.5947 45.293 36.6911C45.0556 36.7874 44.801 36.837 44.544 36.837H34.5" stroke="#002DA6" stroke-width="2.5" stroke-linecap="round" stroke-linejoin="round"/>
<path d="M26.5 30.9635H9.5C8.39543 30.9635 7.5 31.8401 7.5 32.9213V43.6895C7.5 44.7708 8.39543 45.6473 9.5 45.6473H26.5C27.6046 45.6473 28.5 44.7708 28.5 43.6895V32.9213C28.5 31.8401 27.6046 30.9635 26.5 30.9635Z" stroke="#002DA6" stroke-width="2.5" stroke-linecap="round" stroke-linejoin="round"/>
<path d="M7.5 33.9003L18 39.7738L28.5 33.9003" stroke="#002DA6" stroke-width="2.5" stroke-linecap="round" stroke-linejoin="round"/>
</g>
<defs>
<clipPath id="clip0">
<rect width="48" height="46.9883" fill="white" transform="translate(0 0.127441)"/>
</clipPath>
</defs>
</svg>
