<svg width="48" height="48" viewBox="0 0 48 48" fill="none" xmlns="http://www.w3.org/2000/svg">
<path d="M30.3037 20.5V29C30.3037 29.3978 30.1457 29.7794 29.8644 30.0607C29.5831 30.342 29.2016 30.5 28.8038 30.5H19.7998C19.402 30.5 19.0204 30.342 18.7391 30.0607C18.4578 29.7794 18.2998 29.3978 18.2998 29V20.5" stroke="#002383" stroke-width="3" stroke-linecap="round" stroke-linejoin="round"/>
<path d="M15.3047 23.0001L24.3047 15.5L33.3046 23.0001" stroke="#002383" stroke-width="3" stroke-linecap="round" stroke-linejoin="round"/>
<path d="M24.3056 45.5C15.7356 38.064 -2.10042 19.98 2.99958 9.77403C3.80361 8.16591 4.97829 6.77189 6.42682 5.70686C7.87534 4.64183 9.55623 3.93628 11.331 3.64837C13.1057 3.36046 14.9234 3.49844 16.6343 4.05092C18.3453 4.6034 19.9004 5.55457 21.1716 6.82603L24.3036 9.95603L27.4356 6.82603C28.7066 5.5558 30.2612 4.60568 31.9713 4.05392C33.6814 3.50216 35.4982 3.36456 37.2719 3.65243C39.0456 3.9403 40.7256 4.64542 42.1734 5.70971C43.6212 6.77401 44.7955 8.16702 45.5996 9.77403V9.77403C50.6756 19.916 32.8876 38.15 24.3056 45.5Z" stroke="#002383" stroke-width="3" stroke-linecap="round" stroke-linejoin="round"/>
</svg>
