<svg width="48" height="48" viewBox="0 0 48 48" fill="none" xmlns="http://www.w3.org/2000/svg">
<g clip-path="url(#clip0)">
<path d="M46.5 45.6473V23.6216L24 1.59583L1.5 23.6216V45.6473" stroke="#002DA6" stroke-width="2.5" stroke-linecap="round" stroke-linejoin="round"/>
<path d="M24 33.9003C28.5563 33.9003 32.25 30.2845 32.25 25.8242C32.25 21.3638 28.5563 17.748 24 17.748C19.4437 17.748 15.75 21.3638 15.75 25.8242C15.75 30.2845 19.4437 33.9003 24 33.9003Z" stroke="#002DA6" stroke-width="2.5" stroke-linecap="round" stroke-linejoin="round"/>
<path d="M36.73 45.6473C35.7994 43.0702 34.0755 40.839 31.7956 39.2608C29.5158 37.6826 26.7923 36.8352 24 36.8352C21.2078 36.8352 18.4842 37.6826 16.2044 39.2608C13.9246 40.839 12.2007 43.0702 11.27 45.6473" stroke="#002DA6" stroke-width="2.5" stroke-linecap="round" stroke-linejoin="round"/>
</g>
<defs>
<clipPath id="clip0">
<rect width="48" height="46.9883" fill="white" transform="translate(0 0.127441)"/>
</clipPath>
</defs>
</svg>
