<svg width="24" height="24" viewBox="0 0 24 24" fill="none" xmlns="http://www.w3.org/2000/svg">
<g clip-path="url(#clip0)">
<path d="M20.8204 4.52081H18.5129V3.40664C18.5053 3.32528 18.5137 3.24311 18.5375 3.16546C18.5613 3.08781 18.6 3.01641 18.651 2.95591C18.7021 2.8954 18.7644 2.84714 18.834 2.81424C18.9035 2.78135 18.9786 2.76456 19.0546 2.76497H20.6796V0.431641H18.3341C16.2054 0.431641 15.8046 2.18164 15.8046 3.26664V4.52081H14.1796V6.85414H15.8046V13.5625H18.5129V6.85414H20.5983L20.8204 4.52081Z" stroke="#002383" stroke-linecap="round" stroke-linejoin="round"/>
</g>
<g clip-path="url(#clip1)">
<path d="M8.62 12.375H3.37C1.71314 12.375 0.369995 13.7181 0.369995 15.375V20.625C0.369995 22.2819 1.71314 23.625 3.37 23.625H8.62C10.2768 23.625 11.62 22.2819 11.62 20.625V15.375C11.62 13.7181 10.2768 12.375 8.62 12.375Z" stroke="#002383" stroke-width="1.2" stroke-linecap="round" stroke-linejoin="round"/>
<path d="M5.995 20.5C7.37571 20.5 8.495 19.3807 8.495 18C8.495 16.6193 7.37571 15.5 5.995 15.5C4.61428 15.5 3.495 16.6193 3.495 18C3.495 19.3807 4.61428 20.5 5.995 20.5Z" stroke="#002383" stroke-width="1.2" stroke-linecap="round" stroke-linejoin="round"/>
<path d="M9.67004 14.575C9.67004 14.6413 9.6437 14.7048 9.59682 14.7517C9.54994 14.7986 9.48635 14.825 9.42004 14.825C9.35374 14.825 9.29015 14.7986 9.24327 14.7517C9.19638 14.7048 9.17004 14.6413 9.17004 14.575" stroke="#002383" stroke-width="1.2" stroke-linecap="round" stroke-linejoin="round"/>
<path d="M9.17004 14.575C9.17004 14.5086 9.19638 14.4451 9.24327 14.3982C9.29015 14.3513 9.35374 14.325 9.42004 14.325C9.48635 14.325 9.54994 14.3513 9.59682 14.3982C9.6437 14.4451 9.67004 14.5086 9.67004 14.575" stroke="#002383" stroke-width="1.2" stroke-linecap="round" stroke-linejoin="round"/>
</g>
<defs>
<clipPath id="clip0">
<rect width="13" height="14" fill="white" transform="translate(11)"/>
</clipPath>
<clipPath id="clip1">
<rect width="12" height="12" fill="white" transform="translate(0 12)"/>
</clipPath>
</defs>
</svg>
