<svg width="24" height="24" viewBox="0 0 24 24" fill="none" xmlns="http://www.w3.org/2000/svg">
<g clip-path="url(#clip0)">
<path d="M12.749 21H14.249V23.25L17.249 21H21.749C22.1468 21 22.5284 20.842 22.8097 20.5607C23.091 20.2794 23.249 19.8978 23.249 19.5V15C23.249 14.6022 23.091 14.2206 22.8097 13.9393C22.5284 13.658 22.1468 13.5 21.749 13.5H12.749C12.3512 13.5 11.9697 13.658 11.6884 13.9393C11.4071 14.2206 11.249 14.6022 11.249 15V19.5C11.249 19.8978 11.4071 20.2794 11.6884 20.5607C11.9697 20.842 12.3512 21 12.749 21V21Z" stroke="#002383" stroke-width="1.5" stroke-linecap="round" stroke-linejoin="round"/>
<path d="M4.97302 19.5C6.42277 19.5 7.59802 18.3247 7.59802 16.875C7.59802 15.4253 6.42277 14.25 4.97302 14.25C3.52328 14.25 2.34802 15.4253 2.34802 16.875C2.34802 18.3247 3.52328 19.5 4.97302 19.5Z" stroke="#002383" stroke-width="1.5" stroke-linecap="round" stroke-linejoin="round"/>
<path d="M9.19998 23.2501C8.89425 22.3734 8.32334 21.6135 7.56639 21.0758C6.80944 20.5381 5.90396 20.2493 4.97548 20.2493C4.047 20.2493 3.14151 20.5381 2.38457 21.0758C1.62762 21.6135 1.0567 22.3734 0.750977 23.2501" stroke="#002383" stroke-width="1.5" stroke-linecap="round" stroke-linejoin="round"/>
<path d="M19.024 6.75C20.4738 6.75 21.649 5.57475 21.649 4.125C21.649 2.67525 20.4738 1.5 19.024 1.5C17.5743 1.5 16.399 2.67525 16.399 4.125C16.399 5.57475 17.5743 6.75 19.024 6.75Z" stroke="#002383" stroke-width="1.5" stroke-linecap="round" stroke-linejoin="round"/>
<path d="M23.249 10.5001C22.9433 9.62338 22.3724 8.86351 21.6155 8.32582C20.8585 7.78814 19.953 7.49927 19.0245 7.49927C18.0961 7.49927 17.1906 7.78814 16.4336 8.32582C15.6767 8.86351 15.1058 9.62338 14.8 10.5001" stroke="#002383" stroke-width="1.5" stroke-linecap="round" stroke-linejoin="round"/>
<path d="M16.499 15.75H20.249" stroke="#002383" stroke-width="1.5" stroke-linecap="round" stroke-linejoin="round"/>
<path d="M14.249 18H20.249" stroke="#002383" stroke-width="1.5" stroke-linecap="round" stroke-linejoin="round"/>
<path d="M11.249 8.25H9.74902V10.5L6.74902 8.25H2.24902C1.8512 8.25 1.46967 8.09196 1.18836 7.81066C0.907059 7.52936 0.749023 7.14782 0.749023 6.75V2.25C0.749023 1.85218 0.907059 1.47064 1.18836 1.18934C1.46967 0.908035 1.8512 0.75 2.24902 0.75H11.249C11.6468 0.75 12.0284 0.908035 12.3097 1.18934C12.591 1.47064 12.749 1.85218 12.749 2.25V6.75C12.749 7.14782 12.591 7.52936 12.3097 7.81066C12.0284 8.09196 11.6468 8.25 11.249 8.25V8.25Z" stroke="#002383" stroke-width="1.5" stroke-linecap="round" stroke-linejoin="round"/>
<path d="M7.49902 3H3.74902" stroke="#002383" stroke-width="1.5" stroke-linecap="round" stroke-linejoin="round"/>
<path d="M9.74902 5.25H3.74902" stroke="#002383" stroke-width="1.5" stroke-linecap="round" stroke-linejoin="round"/>
</g>
<defs>
<clipPath id="clip0">
<rect width="24" height="24" fill="white"/>
</clipPath>
</defs>
</svg>
