<svg width="336" height="336" viewBox="0 0 336 336" fill="none" xmlns="http://www.w3.org/2000/svg">
<g opacity="0.1">
<path d="M168 329.014C256.918 329.014 329 256.932 329 168.014C329 79.0958 256.918 7.01367 168 7.01367C79.0822 7.01367 7 79.0958 7 168.014C7 256.932 79.0822 329.014 168 329.014Z" stroke="white" stroke-width="8" stroke-linecap="round" stroke-linejoin="round"/>
<path d="M252.002 252.014L182.8 182.826" stroke="white" stroke-width="8" stroke-linecap="round" stroke-linejoin="round"/>
<path d="M168 189.014C179.598 189.014 189 179.612 189 168.014C189 156.416 179.598 147.014 168 147.014C156.402 147.014 147 156.416 147 168.014C147 179.612 156.402 189.014 168 189.014Z" stroke="white" stroke-width="8" stroke-linecap="round" stroke-linejoin="round"/>
<path d="M168 91.0137V147.014" stroke="white" stroke-width="8" stroke-linecap="round" stroke-linejoin="round"/>
</g>
</svg>
