<svg xmlns="http://www.w3.org/2000/svg" xmlns:xlink="http://www.w3.org/1999/xlink" preserveAspectRatio="xMidYMid" width="18" height="18" viewBox="0 0 18 18">
  <defs>
    <style>
      .cls-1 {
        fill: #a3a9ac;
        fill-rule: evenodd;
      }
    </style>
  </defs>
  <path d="M16.972,5.837 C16.880,5.929 16.760,5.976 16.639,5.976 C16.519,5.976 16.399,5.929 16.307,5.837 C16.123,5.653 16.123,5.353 16.307,5.168 C17.305,4.164 17.305,2.650 16.307,1.646 C15.339,0.674 13.770,0.674 12.802,1.646 C12.619,1.831 12.321,1.831 12.137,1.646 C11.953,1.462 11.953,1.162 12.137,0.978 C13.460,-0.353 15.649,-0.352 16.972,0.978 C18.350,2.363 18.350,4.452 16.972,5.837 ZM17.006,9.985 C17.006,12.552 15.792,14.835 13.914,16.305 L14.853,17.264 C15.019,17.434 15.019,17.710 14.853,17.880 C14.770,17.965 14.660,18.008 14.551,18.008 C14.442,18.008 14.333,17.965 14.250,17.880 L13.196,16.804 C11.973,17.563 10.537,18.009 8.996,18.009 C7.447,18.009 6.005,17.559 4.778,16.793 L3.714,17.880 C3.631,17.965 3.522,18.008 3.413,18.008 C3.304,18.008 3.195,17.965 3.112,17.880 C2.945,17.710 2.945,17.434 3.112,17.264 L4.062,16.293 C2.193,14.823 0.986,12.545 0.986,9.985 C0.986,5.561 4.579,1.961 8.996,1.961 C13.413,1.961 17.006,5.561 17.006,9.985 ZM8.996,2.973 C5.135,2.973 1.995,6.119 1.995,9.985 C1.995,13.852 5.135,16.997 8.996,16.997 C12.856,16.997 15.997,13.852 15.997,9.985 C15.997,6.119 12.856,2.973 8.996,2.973 ZM9.518,10.995 L6.469,10.995 C6.208,10.995 5.996,10.764 5.996,10.478 C5.996,10.193 6.208,9.961 6.469,9.961 L9.045,9.961 L9.045,5.480 C9.045,5.194 9.256,4.963 9.518,4.963 C9.779,4.963 9.991,5.194 9.991,5.480 L9.991,10.478 C9.991,10.764 9.779,10.995 9.518,10.995 ZM5.190,1.646 C4.222,0.674 2.653,0.674 1.685,1.646 C0.687,2.650 0.687,4.164 1.685,5.168 C1.869,5.353 1.869,5.653 1.685,5.837 C1.593,5.929 1.473,5.976 1.352,5.976 C1.232,5.976 1.112,5.929 1.020,5.837 C-0.358,4.452 -0.358,2.363 1.020,0.978 C2.343,-0.352 4.532,-0.353 5.855,0.978 C6.039,1.162 6.039,1.462 5.855,1.646 C5.671,1.831 5.373,1.831 5.190,1.646 Z" class="cls-1"/>
</svg>
