<svg xmlns="http://www.w3.org/2000/svg" xmlns:xlink="http://www.w3.org/1999/xlink" preserveAspectRatio="xMidYMid" width="36" height="36" viewBox="0 0 36 36">
  <defs>
    <style>
      .cls-1 {
        fill: #fff;
        fill-rule: evenodd;
      }
    </style>
  </defs>
  <path d="M27.237,19.028 C27.025,19.537 26.447,19.779 25.943,19.563 C25.440,19.351 25.203,18.765 25.414,18.255 C25.666,17.647 25.769,17.163 25.769,16.587 C25.769,14.058 23.706,12.000 21.171,12.000 L14.296,12.000 C11.718,12.000 9.698,13.977 9.698,16.500 C9.698,19.023 11.718,21.000 14.296,21.000 L14.640,21.000 C15.186,21.000 15.628,21.447 15.628,22.000 L15.628,23.196 L17.457,21.302 C17.642,21.108 17.897,21.000 18.163,21.000 L18.593,21.000 C19.139,21.000 19.581,21.447 19.581,22.000 C19.581,22.553 19.139,23.000 18.593,23.000 L18.580,23.000 L15.347,26.351 C15.157,26.548 14.901,26.652 14.640,26.652 C14.514,26.652 14.388,26.628 14.267,26.578 C13.895,26.425 13.652,26.059 13.652,25.652 L13.652,22.971 C10.278,22.660 7.722,19.930 7.722,16.500 C7.722,12.855 10.609,10.000 14.296,10.000 L21.171,10.000 C24.796,10.000 27.745,12.955 27.745,16.587 C27.745,17.426 27.588,18.179 27.237,19.028 ZM21.861,23.000 L23.003,23.000 L23.003,22.000 C23.003,21.447 23.453,21.000 24.007,21.000 C24.562,21.000 25.011,21.447 25.011,22.000 L25.011,23.000 L26.135,23.000 C26.606,23.000 26.989,23.447 26.989,24.000 C26.989,24.553 26.606,25.000 26.135,25.000 L25.011,25.000 L25.011,26.000 C25.011,26.553 24.562,27.000 24.007,27.000 C23.453,27.000 23.003,26.553 23.003,26.000 L23.003,25.000 L21.861,25.000 C21.389,25.000 21.006,24.553 21.006,24.000 C21.006,23.447 21.389,23.000 21.861,23.000 Z" class="cls-1"/>
</svg>
