<svg xmlns="http://www.w3.org/2000/svg" xmlns:xlink="http://www.w3.org/1999/xlink" preserveAspectRatio="xMidYMid" width="17" height="14" viewBox="0 0 17 14">
  <defs>
    <style>
      .cls-1 {
        fill: #38f;
        fill-rule: evenodd;
      }
    </style>
  </defs>
  <path d="M15.995,10.000 L1.004,10.000 C0.450,10.000 0.001,9.552 0.001,9.000 C0.001,8.448 0.450,8.000 1.004,8.000 L15.995,8.000 C16.549,8.000 16.997,8.448 16.997,9.000 C16.997,9.552 16.549,10.000 15.995,10.000 ZM15.995,6.000 L1.004,6.000 C0.450,6.000 0.001,5.552 0.001,5.000 C0.001,4.448 0.450,4.000 1.004,4.000 L15.995,4.000 C16.549,4.000 16.997,4.448 16.997,5.000 C16.997,5.552 16.549,6.000 15.995,6.000 ZM15.995,2.000 L1.004,2.000 C0.450,2.000 0.001,1.552 0.001,1.000 C0.001,0.448 0.450,0.000 1.004,0.000 L15.995,0.000 C16.549,0.000 16.997,0.448 16.997,1.000 C16.997,1.552 16.549,2.000 15.995,2.000 ZM1.004,12.000 L15.995,12.000 C16.549,12.000 16.997,12.448 16.997,13.000 C16.997,13.552 16.549,14.000 15.995,14.000 L1.004,14.000 C0.450,14.000 0.001,13.552 0.001,13.000 C0.001,12.448 0.450,12.000 1.004,12.000 Z" class="cls-1"/>
</svg>
