<svg xmlns="http://www.w3.org/2000/svg" xmlns:xlink="http://www.w3.org/1999/xlink" preserveAspectRatio="xMidYMid" width="16" height="16" viewBox="0 0 16 16">
  <defs>
    <style>
      .cls-1 {
        fill: #38f;
        fill-rule: evenodd;
      }
    </style>
  </defs>
  <path d="M14.744,6.242 L11.004,10.051 C10.389,10.676 9.572,11.021 8.701,11.021 C7.832,11.021 7.015,10.676 6.400,10.050 C6.083,9.725 6.083,9.202 6.400,8.878 C6.718,8.555 7.233,8.555 7.551,8.879 C8.166,9.505 9.238,9.505 9.852,8.878 L13.593,5.071 C13.901,4.758 14.070,4.342 14.070,3.900 C14.070,3.457 13.901,3.041 13.593,2.729 L13.018,2.142 C12.711,1.829 12.302,1.657 11.867,1.657 C11.432,1.657 11.024,1.829 10.716,2.142 L9.100,3.787 C8.782,4.111 8.267,4.111 7.949,3.786 C7.632,3.464 7.632,2.939 7.949,2.615 L9.565,0.971 C10.180,0.345 10.998,-0.000 11.867,-0.000 C12.737,-0.000 13.554,0.345 14.169,0.971 L14.744,1.558 C15.359,2.183 15.698,3.015 15.698,3.900 C15.698,4.785 15.359,5.617 14.744,6.242 ZM9.852,6.536 C10.170,6.859 10.170,7.384 9.852,7.707 C9.534,8.031 9.019,8.031 8.701,7.707 L8.126,7.122 C7.512,6.495 6.439,6.495 5.824,7.122 L2.083,10.929 C1.449,11.575 1.449,12.626 2.083,13.273 L2.658,13.858 C3.274,14.484 4.346,14.484 4.960,13.858 L6.729,12.060 C7.047,11.735 7.562,11.735 7.880,12.060 C8.198,12.382 8.198,12.907 7.880,13.231 L6.111,15.029 C5.497,15.654 4.680,16.000 3.810,16.000 C2.940,16.000 2.123,15.656 1.508,15.029 L0.932,14.444 C-0.337,13.152 -0.337,11.050 0.932,9.758 L4.673,5.950 C5.289,5.324 6.106,4.979 6.975,4.979 C7.845,4.979 8.662,5.324 9.278,5.951 L9.852,6.536 Z" class="cls-1"/>
</svg>
