<svg xmlns="http://www.w3.org/2000/svg" xmlns:xlink="http://www.w3.org/1999/xlink" preserveAspectRatio="xMidYMid" width="17" height="17" viewBox="0 0 17 17">
  <defs>
    <style>
      .cls-1 {
        fill: #fff;
        filter: url(#color-overlay-1);
        fill-rule: evenodd;
      }
    </style>

    <filter id="color-overlay-1" filterUnits="userSpaceOnUse">
      <feFlood flood-color="#929292"/>
      <feComposite operator="in" in2="SourceGraphic"/>
      <feBlend in2="SourceGraphic" result="solidFill"/>
    </filter>
  </defs>
  <path d="M8.500,17.000 C3.813,17.000 0.000,13.187 0.000,8.500 C0.000,3.813 3.813,-0.000 8.500,-0.000 C13.187,-0.000 17.000,3.813 17.000,8.500 C17.000,13.187 13.187,17.000 8.500,17.000 ZM9.925,6.584 C9.925,6.875 10.167,7.111 10.466,7.111 C10.765,7.111 11.006,6.875 11.006,6.584 C11.006,5.418 10.163,4.443 9.040,4.202 L9.040,3.518 C9.040,3.227 8.799,2.991 8.500,2.991 C8.201,2.991 7.959,3.227 7.959,3.518 L7.959,4.202 C6.837,4.443 5.994,5.418 5.994,6.584 C5.994,7.750 6.837,8.724 7.959,8.966 L7.959,11.699 C7.441,11.490 7.075,10.995 7.075,10.416 C7.075,10.125 6.833,9.889 6.534,9.889 C6.235,9.889 5.994,10.125 5.994,10.416 C5.994,11.582 6.837,12.557 7.959,12.798 L7.959,13.482 C7.959,13.773 8.201,14.009 8.500,14.009 C8.799,14.009 9.040,13.773 9.040,13.482 L9.040,12.798 C10.163,12.557 11.006,11.582 11.006,10.416 C11.006,9.250 10.163,8.276 9.040,8.034 L9.040,5.301 C9.559,5.510 9.925,6.005 9.925,6.584 ZM7.075,6.584 C7.075,6.005 7.441,5.510 7.959,5.301 L7.959,7.866 C7.441,7.658 7.075,7.163 7.075,6.584 ZM9.925,10.416 C9.925,10.995 9.559,11.490 9.040,11.699 L9.040,9.134 C9.559,9.342 9.925,9.837 9.925,10.416 Z" class="cls-1"/>
</svg>
