<svg xmlns="http://www.w3.org/2000/svg" xmlns:xlink="http://www.w3.org/1999/xlink" preserveAspectRatio="xMidYMid" width="17" height="18" viewBox="0 0 17 18">
  <defs>
    <style>
      .cls-1 {
        fill: #cfd1d2;
        fill-rule: evenodd;
      }
    </style>
  </defs>
  <path d="M16.529,2.995 L14.987,2.995 L14.987,17.477 C14.987,17.761 14.262,18.000 14.000,18.000 L2.480,17.991 C2.218,17.991 2.006,17.761 2.006,17.477 L2.006,2.995 L0.471,2.995 C0.210,2.995 -0.000,2.775 -0.000,2.504 C-0.000,2.232 0.210,2.012 0.471,2.012 L5.009,2.012 L5.009,0.461 C5.009,0.200 5.238,-0.011 5.522,-0.011 L11.501,-0.011 C11.785,-0.011 12.015,0.200 12.015,0.461 L12.015,2.012 L16.529,2.012 C16.790,2.012 17.000,2.232 17.000,2.504 C17.000,2.775 16.790,2.995 16.529,2.995 ZM10.987,0.934 L6.036,0.934 L6.036,2.012 L10.987,2.012 L10.987,0.934 ZM2.954,3.041 L3.000,17.000 L14.000,17.000 L14.038,3.041 L2.954,3.041 ZM11.501,14.986 C11.217,14.986 10.987,14.756 10.987,14.472 L10.987,5.513 C10.987,5.229 11.217,4.999 11.501,4.999 C11.785,4.999 12.015,5.229 12.015,5.513 L12.015,14.472 C12.015,14.756 11.785,14.986 11.501,14.986 ZM8.511,14.986 C8.228,14.986 7.998,14.756 7.998,14.472 L7.998,5.513 C7.998,5.229 8.228,4.999 8.511,4.999 C8.796,4.999 9.025,5.229 9.025,5.513 L9.025,14.472 C9.025,14.756 8.796,14.986 8.511,14.986 ZM5.522,14.986 C5.238,14.986 5.009,14.756 5.009,14.472 L5.009,5.513 C5.009,5.229 5.238,4.999 5.522,4.999 C5.806,4.999 6.036,5.229 6.036,5.513 L6.036,14.472 C6.036,14.756 5.806,14.986 5.522,14.986 Z" class="cls-1"/>
</svg>
