<svg width="24" height="24" viewBox="0 0 24 24" xmlns="http://www.w3.org/2000/svg">
  <g>
    <path fill-rule="evenodd" clip-rule="evenodd" d="M5.33316 2.02236C7.30655 0.703788 9.62663 0 12 0C15.1815 0.00344108 18.2318 1.26883 20.4815 3.51852C22.7312 5.76821 23.9966 8.81846 24 12C24 14.3734 23.2962 16.6935 21.9776 18.6668C20.6591 20.6402 18.7849 22.1783 16.5922 23.0866C14.3995 23.9948 11.9867 24.2324 9.65892 23.7694C7.33115 23.3064 5.19295 22.1635 3.51472 20.4853C1.83649 18.8071 0.693605 16.6689 0.230582 14.3411C-0.232441 12.0133 0.00519943 9.60051 0.913451 7.4078C1.8217 5.21509 3.35977 3.34094 5.33316 2.02236ZM6.4443 20.3147C8.08879 21.4135 10.0222 22 12 22C14.6513 21.9971 17.1931 20.9426 19.0679 19.0679C20.9426 17.1931 21.9971 14.6513 22 12C22 10.0222 21.4135 8.08879 20.3147 6.4443C19.2159 4.79981 17.6541 3.51808 15.8268 2.7612C13.9996 2.00433 11.9889 1.8063 10.0491 2.19215C8.10929 2.578 6.32746 3.53041 4.92894 4.92893C3.53041 6.32746 2.578 8.10929 2.19215 10.0491C1.8063 11.9889 2.00433 13.9996 2.76121 15.8268C3.51809 17.6541 4.79981 19.2159 6.4443 20.3147ZM7.43801 14.5H16.561C16.6414 14.5021 16.7195 14.5266 16.7867 14.5708C16.8538 14.615 16.9073 14.677 16.941 14.75C16.98 14.8276 17.0003 14.9132 17.0003 15C17.0003 15.0868 16.98 15.1724 16.941 15.25C16.5007 16.1973 15.8051 17.0031 14.9324 17.5772C14.0596 18.1513 13.0442 18.4708 12 18.5C10.9557 18.471 9.94022 18.1516 9.06744 17.5775C8.19465 17.0034 7.49915 16.1974 7.05901 15.25C7.02005 15.1724 6.99976 15.0868 6.99976 15C6.99976 14.9132 7.02005 14.8276 7.05901 14.75C7.09276 14.6773 7.14608 14.6153 7.21302 14.5712C7.27996 14.527 7.35786 14.5024 7.43801 14.5ZM8 11C9.10457 11 10 10.1046 10 9C10 7.89543 9.10457 7 8 7C6.89543 7 6 7.89543 6 9C6 10.1046 6.89543 11 8 11ZM18 9C18 10.1046 17.1046 11 16 11C14.8954 11 14 10.1046 14 9C14 7.89543 14.8954 7 16 7C17.1046 7 18 7.89543 18 9Z"/>
  </g>
</svg>
