<svg width="24" height="24" viewBox="0 0 24 24" xmlns="http://www.w3.org/2000/svg"><g fill="#000" fill-rule="nonzero"><path d="M19.593 0a4.388 4.388 0 0 0-3.108 1.32L1.99 15.816a.75.75 0 0 0-.196.344L.024 23.064a.75.75 0 0 0 .912.912l6.905-1.77a.75.75 0 0 0 .344-.197l14.5-14.5a4.388 4.388 0 0 0 .036-6.229A4.39 4.39 0 0 0 19.593 0zM22.5 4.397a2.888 2.888 0 0 1-.87 2.046L7.27 20.803 1.79 22.21l1.405-5.479L17.551 2.375a2.888 2.888 0 0 1 4.108-.035c.544.546.846 1.287.841 2.057z"/><path d="M16.076 2.79l5.134 5.134a.75.75 0 0 0 1.06-1.06L17.136 1.73a.75.75 0 0 0-1.06 1.06zM13.982 4.884l5.134 5.134a.75.75 0 0 0 1.06-1.06l-5.134-5.134a.75.75 0 0 0-1.06 1.06zM1.991 16.876l5.14 5.129a.75.75 0 1 0 1.059-1.062l-5.14-5.129a.75.75 0 1 0-1.059 1.062z"/></g></svg>