<svg xmlns="http://www.w3.org/2000/svg" width="24" height="24" viewBox="0 0 24 24">
  <path d="M18.9999995,7.412556 C18.9999995,7.9574109 18.5522843,8.39910307 17.9999995,8.39910307 L10.9999995,8.39910307 C10.4477148,8.39910307 9.99999955,7.9574109 9.99999955,7.412556 C9.99999955,6.86770109 10.4477148,6.42600892 10.9999995,6.42600892 L17.9999995,6.42600892 C18.5522843,6.42600892 18.9999995,6.86770109 18.9999995,7.412556 Z M11.4999995,10.8654708 L15.4999995,10.8654708 C16.0522843,10.8654708 16.4999995,11.3071629 16.4999995,11.8520178 C16.4999995,12.3968727 16.0522843,12.8385649 15.4999995,12.8385649 L11.4999995,12.8385649 C10.9477148,12.8385649 10.4999995,12.3968727 10.4999995,11.8520178 C10.4999995,11.3071629 10.9477148,10.8654708 11.4999995,10.8654708 Z M23.9999995,5.35560534 L24.0029995,19.2501344 C24.0029995,20.3398442 23.107569,21.2232285 22.0029995,21.2232285 L9.83867185,21.2232285 C9.80209635,21.2232285 9.76582914,21.2165401 9.73165971,21.2034934 C9.57687369,21.1443922 9.49930579,20.9710024 9.55840696,20.8162164 L9.91037424,19.8944138 C10.0582868,19.5070307 10.4299295,19.2511209 10.8445905,19.2511209 L21.4999995,19.2511209 C21.7761419,19.2511209 21.9999995,19.0302748 21.9999995,18.7578474 L21.9999995,5.55883404 C21.9997062,5.42812064 21.9468352,5.30286649 21.8529995,5.21058292 L19.7319995,3.11811657 C19.6382127,3.02530157 19.5108421,2.97312192 19.3779995,2.97309415 L8.49999955,2.97309415 C8.22385717,2.97309415 7.99999955,3.19394024 7.99999955,3.46636769 L7.99999955,4.98764241 C7.99999955,5.02762607 7.99200686,5.06720635 7.97649128,5.10405685 C7.91219735,5.25675903 7.73628726,5.32842807 7.58358509,5.26413415 L6.16299955,4.66600894 C6.06611158,4.63175629 6.00107892,4.5416205 5.99999955,4.44008965 L5.99999955,2.97309415 C5.99999955,1.88338434 6.89543005,1 7.99999955,1 L19.5849995,1 C20.1153892,1 20.6240141,1.20806401 20.9989995,1.57811659 L23.4139995,3.95964123 C23.7893434,4.32982373 24.0001516,4.83200914 23.9999995,5.35560534 Z M4.84125709,6.9332386 C5.89807532,7.01346595 6.89544172,7.44759415 7.65129391,8.16445439 C8.49320299,8.96293212 8.96645106,10.0467734 8.96625013,11.1772122 L8.96668826,19.8407253 C8.95764926,21.5893733 7.46298517,23 5.62520176,23 C3.78741834,23 2.29275425,21.5893733 2.2837133,19.8399524 L2.28471494,12.8088746 C2.25338231,12.0412753 2.66684321,11.3197808 3.36067795,10.9285217 C4.05248095,10.5384084 4.91307778,10.5384961 5.60479292,10.9287507 C6.29854005,11.3201518 6.71183809,12.0417316 6.68045432,12.8032634 L6.68265472,17.1327261 C6.68285239,17.3979957 6.53435158,17.6423366 6.29456145,17.7738521 C6.05671079,17.9043038 5.76429592,17.9044998 5.52625453,17.7743689 C5.28627551,17.6431788 5.13741502,17.3990443 5.13721732,17.13364 L5.13814218,12.8048629 C5.12989498,12.4716432 4.84011339,12.2032594 4.4827884,12.203352 C4.12546582,12.2034446 3.83584295,12.4719749 3.82783049,12.8016589 L3.82827057,19.8399707 C3.8282706,20.7767 4.63148998,21.5384839 5.62520176,21.5384839 C6.61891353,21.5384839 7.42213291,20.7767 7.42213294,19.8399781 L7.42169285,11.1772196 C7.42169285,9.64253854 6.10737175,8.39601898 4.48318403,8.39601898 C2.85899632,8.39601898 1.54467521,9.64253854 1.54467521,11.1772196 L1.5446507,17.6715035 C1.54956609,17.9397209 1.40202,18.1887131 1.16023761,18.3228822 C0.920435643,18.4559524 0.624357497,18.4559524 0.384555533,18.3228822 C0.142773142,18.1887131 -0.00477295095,17.9397209 0.000117933049,17.6741687 L0.000558024532,11.1768503 C0.000185739609,10.0463224 0.47338132,8.96238097 1.3153318,8.16386398 C2.15612223,7.36644719 3.29579088,6.91893102 4.48366912,6.91928246 L4.85584894,6.91928246 L4.84125709,6.9332386 Z"/>
</svg>
