<?xml version="1.0" encoding="utf-8"?>
<!-- Generator: Adobe Illustrator 17.0.0, SVG Export Plug-In . SVG Version: 6.00 Build 0)  -->
<!DOCTYPE svg PUBLIC "-//W3C//DTD SVG 1.1//EN" "http://www.w3.org/Graphics/SVG/1.1/DTD/svg11.dtd">
<svg version="1.1" id="Layer_1" xmlns="http://www.w3.org/2000/svg" xmlns:xlink="http://www.w3.org/1999/xlink" x="0px" y="0px"
	 width="24px" height="24px" viewBox="0 0 24 24" enable-background="new 0 0 24 24" xml:space="preserve">
<g>
	<g>
		<path fill="#00B286" d="M22.136,5.238c-0.063-0.615-0.353-1.184-0.813-1.598c-0.46-0.414-1.056-0.642-1.674-0.64h-1.073
			c-0.038,0-0.075,0.008-0.109,0.025c-0.034,0.016-0.064,0.04-0.087,0.07c-0.023,0.03-0.04,0.064-0.048,0.101
			c-0.008,0.037-0.008,0.075,0.001,0.112C18.443,3.78,18.499,4.264,18.5,4.75c0,0.033,0.006,0.065,0.019,0.096
			c0.012,0.03,0.031,0.058,0.054,0.081c0.023,0.023,0.051,0.042,0.081,0.054C18.685,4.994,18.717,5,18.75,5h0.9
			c0.124-0.001,0.244,0.045,0.336,0.127c0.092,0.083,0.151,0.197,0.164,0.32l0.315,3c0.007,0.07,0,0.141-0.022,0.207
			c-0.022,0.067-0.058,0.128-0.105,0.18c-0.047,0.052-0.105,0.094-0.169,0.122c-0.064,0.028-0.134,0.043-0.204,0.042h-2.74
			c-0.043,0-0.086,0.011-0.124,0.033c-0.038,0.021-0.069,0.052-0.091,0.089c-0.692,1.131-1.479,2.202-2.352,3.2
			c-0.043,0.049-0.064,0.114-0.06,0.179l0.181,2.97c0.004,0.068-0.005,0.137-0.029,0.201c-0.023,0.064-0.059,0.123-0.106,0.173
			c-0.047,0.05-0.103,0.089-0.166,0.116c-0.063,0.027-0.13,0.041-0.199,0.041H9.72c-0.068,0-0.136-0.014-0.199-0.041
			c-0.063-0.027-0.119-0.067-0.166-0.116c-0.047-0.05-0.083-0.109-0.106-0.173c-0.023-0.064-0.033-0.133-0.029-0.201L9.4,12.5
			c0.004-0.065-0.018-0.13-0.061-0.179c-0.873-0.998-1.66-2.069-2.352-3.2c-0.022-0.037-0.053-0.067-0.09-0.088
			C6.86,9.012,6.818,9,6.775,9h-2.74c-0.07,0-0.14-0.014-0.204-0.042c-0.064-0.028-0.122-0.07-0.169-0.122
			c-0.047-0.052-0.083-0.114-0.105-0.18C3.535,8.589,3.528,8.518,3.535,8.448l0.316-3c0.013-0.123,0.071-0.237,0.163-0.32
			C4.106,5.045,4.226,5,4.35,5h0.9c0.066,0,0.13-0.026,0.177-0.073C5.474,4.88,5.5,4.816,5.5,4.75
			c0.001-0.486,0.057-0.97,0.168-1.443c0.008-0.037,0.008-0.075,0-0.112S5.643,3.124,5.62,3.095
			c-0.023-0.029-0.053-0.053-0.087-0.07C5.499,3.009,5.462,3,5.424,3H4.35C3.732,3,3.137,3.229,2.678,3.642S1.929,4.624,1.864,5.238
			l-1.684,16c-0.037,0.348,0,0.701,0.108,1.034c0.108,0.333,0.285,0.64,0.52,0.901c0.234,0.26,0.521,0.469,0.841,0.611
			C1.969,23.926,2.316,24,2.666,24h18.668c0.35,0,0.697-0.074,1.017-0.216c0.32-0.143,0.607-0.351,0.841-0.611
			c0.234-0.26,0.411-0.567,0.52-0.901c0.108-0.333,0.145-0.685,0.108-1.034L22.136,5.238z M6.848,21.531
			c-0.008,0.127-0.064,0.247-0.157,0.334C6.598,21.952,6.475,22,6.348,22H2.666c-0.07,0-0.14-0.014-0.204-0.042
			c-0.064-0.028-0.122-0.07-0.169-0.122c-0.047-0.052-0.083-0.114-0.105-0.181c-0.022-0.067-0.029-0.138-0.022-0.208l0.316-3
			c0.013-0.123,0.071-0.238,0.164-0.32c0.092-0.083,0.212-0.128,0.336-0.128h3.55c0.068,0,0.136,0.014,0.199,0.041
			c0.063,0.027,0.119,0.067,0.166,0.116c0.047,0.05,0.083,0.109,0.106,0.173c0.023,0.064,0.033,0.133,0.029,0.201L6.848,21.531z
			 M7.214,15.531c-0.008,0.127-0.064,0.247-0.157,0.334C6.964,15.952,6.841,16,6.714,16H3.3c-0.07,0-0.14-0.014-0.204-0.042
			c-0.064-0.028-0.122-0.07-0.169-0.122c-0.047-0.052-0.083-0.113-0.105-0.18C2.8,15.589,2.793,15.518,2.8,15.448l0.421-4
			c0.013-0.123,0.071-0.238,0.164-0.32C3.477,11.045,3.597,10.999,3.721,11h3.24c0.068,0,0.136,0.014,0.199,0.041
			c0.063,0.027,0.119,0.067,0.166,0.116c0.047,0.05,0.083,0.109,0.106,0.173c0.023,0.064,0.033,0.133,0.029,0.201L7.214,15.531z
			 M15.014,21.843c-0.047,0.05-0.103,0.089-0.166,0.116C14.786,21.986,14.718,22,14.65,22H9.354c-0.068,0-0.136-0.014-0.199-0.041
			c-0.063-0.027-0.119-0.067-0.166-0.116c-0.047-0.05-0.083-0.109-0.106-0.173c-0.023-0.064-0.033-0.133-0.029-0.201l0.183-3
			c0.008-0.127,0.064-0.247,0.157-0.334C9.287,18.048,9.41,18,9.537,18h4.926c0.127,0,0.25,0.048,0.343,0.135
			c0.093,0.087,0.149,0.207,0.157,0.334l0.183,3c0.004,0.068-0.006,0.137-0.029,0.201c-0.023,0.064-0.06,0.123-0.107,0.173H15.014z
			 M16.79,15.531l-0.244-4c-0.004-0.068,0.006-0.137,0.029-0.201c0.023-0.064,0.059-0.123,0.106-0.173
			c0.047-0.05,0.104-0.089,0.166-0.116C16.91,11.014,16.978,11,17.046,11h3.24c0.124-0.001,0.244,0.045,0.336,0.128
			s0.151,0.197,0.164,0.32l0.421,4c0.007,0.07,0,0.141-0.022,0.207c-0.022,0.067-0.057,0.128-0.105,0.18
			c-0.047,0.052-0.105,0.094-0.169,0.122C20.847,15.986,20.777,16,20.707,16h-3.422c-0.127,0-0.25-0.049-0.342-0.136
			c-0.093-0.087-0.149-0.206-0.157-0.333H16.79z M21.711,21.831c-0.047,0.052-0.105,0.094-0.169,0.122
			c-0.064,0.029-0.134,0.043-0.204,0.044h-3.687c-0.127,0-0.25-0.048-0.343-0.135c-0.093-0.087-0.149-0.207-0.157-0.334l-0.183-3
			c-0.004-0.068,0.006-0.137,0.029-0.201c0.023-0.064,0.059-0.123,0.106-0.173c0.047-0.05,0.103-0.089,0.166-0.116
			c0.063-0.027,0.131-0.041,0.199-0.041h3.55c0.124-0.001,0.244,0.045,0.336,0.128c0.092,0.083,0.151,0.197,0.164,0.32l0.316,3
			c0.007,0.07,0,0.141-0.022,0.208c-0.022,0.067-0.058,0.129-0.105,0.181L21.711,21.831z"/>
		<path fill="#00B286" d="M12,13c0.066,0,0.131-0.013,0.191-0.038c0.061-0.025,0.116-0.062,0.163-0.108C12.543,12.664,17,8.171,17,5
			c0-1.326-0.527-2.598-1.465-3.536C14.598,0.527,13.326,0,12,0S9.402,0.527,8.464,1.464C7.527,2.402,7,3.674,7,5
			c0,3.171,4.457,7.664,4.647,7.854C11.741,12.948,11.868,13,12,13z M10.25,5c0-0.346,0.103-0.684,0.295-0.972
			c0.192-0.288,0.466-0.512,0.785-0.645c0.32-0.132,0.672-0.167,1.011-0.1c0.339,0.068,0.651,0.234,0.896,0.479
			c0.245,0.245,0.411,0.557,0.479,0.896c0.068,0.339,0.033,0.691-0.1,1.011c-0.133,0.32-0.357,0.593-0.645,0.785
			C12.684,6.647,12.346,6.75,12,6.75c-0.464-0.001-0.909-0.185-1.237-0.513C10.435,5.909,10.25,5.464,10.25,5z"/>
	</g>
</g>
</svg>
