<svg xmlns="http://www.w3.org/2000/svg" width="24" height="24" viewBox="0 0 24 24">
    <g fill="none" fill-rule="evenodd">
        <path fill="#FFF" d="M-56-323H50v514H-56z"/>
        <path fill="#0945eb" fill-rule="nonzero" d="M15.592 21.204h3.816a.449.449 0 0 0 .45-.449v-8.082a.898.898 0 1 1 1.795 0v8.082A2.245 2.245 0 0 1 19.408 23H4.592a2.245 2.245 0 0 1-2.245-2.245v-8.082a.898.898 0 1 1 1.796 0v3.143h9.653v-3.143a.898.898 0 1 1 1.796 0v8.531zm-1.796 0v-3.592H4.143v3.143c0 .248.2.45.449.45h9.204zM7.959 10.878c-.784 0-1.496-.31-2.02-.813A2.918 2.918 0 0 1 1 7.96l.021-.195 1.23-5.535c.16-.718.798-1.23 1.534-1.229h16.429a1.57 1.57 0 0 1 1.534 1.23l1.23 5.534.022.195a2.918 2.918 0 0 1-4.939 2.106 2.909 2.909 0 0 1-2.02.813c-.784 0-1.496-.31-2.02-.813a2.909 2.909 0 0 1-2.021.813c-.784 0-1.496-.31-2.02-.813a2.909 2.909 0 0 1-2.02.813z"/>
    </g>
</svg>
