<svg xmlns="http://www.w3.org/2000/svg" width="15" height="16" viewBox="0 0 15 16">
    <g fill="none" fill-rule="evenodd">
        <path fill="none" d="M-5-4h24v24H-5z"/>
        <path fill="#FF6F6F" fill-rule="nonzero" d="M14.295 4.009h-3.343c.09-.072.18-.144.253-.216.903-.899.958-2.283.126-3.092A1.999 1.999 0 0 0 9.904.126c-.615 0-1.23.252-1.681.701-.235.234-.506.63-.76 1.079-.234-.468-.523-.863-.758-1.079a2.405 2.405 0 0 0-1.68-.701c-.543 0-1.067.198-1.429.575-.813.81-.759 2.211.127 3.092.072.072.163.144.253.216H.633a.542.542 0 0 0-.543.54v3.9c0 .288.235.54.543.54h.09v6.454c0 .287.235.539.542.539h12.416c.289 0 .542-.234.542-.54V8.972h.09c.29 0 .542-.234.542-.54V4.548a.584.584 0 0 0-.56-.539zM6.922 14.885H1.789V8.971h5.133v5.914zm0-6.975H1.157V5.088h5.765V7.91zm0-4.099c0 .072-.036.108-.055.144-.018.018-.108.054-.253.054-.65 0-1.698-.54-2.15-.97-.47-.468-.542-1.187-.127-1.583a.976.976 0 0 1 .669-.27c.325 0 .669.144.922.396.524.521.94 1.51.994 2.05v.18zm1.066-.18c.054-.539.47-1.528.994-2.049.253-.252.596-.395.922-.395.27 0 .506.09.668.27.398.395.344 1.114-.126 1.581-.452.45-1.5.971-2.15.971a.515.515 0 0 1-.254-.054.204.204 0 0 1-.054-.144v-.18zm5.15 11.254H8.007V8.971h5.133v5.914zm.615-6.975H8.006V5.088H13.771V7.91h-.018z"/>
    </g>
</svg>
