<svg xmlns="http://www.w3.org/2000/svg" width="16" height="16" viewBox="0 0 16 16">
    <g fill="none" fill-rule="evenodd">
        <path fill="#D8D8D8" fill-opacity="0" d="M-4-4h24v24H-4z"/>
        <g fill="#C57E3E" fill-rule="nonzero">
            <path d="M8 4a.666.666 0 1 1-1.332 0A.666.666 0 0 1 8 4z"/>
            <path d="M15.333 2.667H11.22c-.368 0-.702-.15-.943-.39L8.391.39C8.13.13 7.789 0 7.448 0H2.667A2.667 2.667 0 0 0 0 2.667V16h8.667v-4a2.667 2.667 0 0 1 2.666-2.667h2A2.667 2.667 0 0 0 16 6.667V3.333a.666.666 0 0 0-.667-.666zm-14 12v-1.334h6v1.334h-6zm13.334-8c0 .735-.599 1.333-1.334 1.333H6.667v1.333h1.691A3.977 3.977 0 0 0 7.333 12h-6V9.641A3.981 3.981 0 0 0 4 10.666c.736 0 1.333-.596 1.333-1.333V2.667H4v6.666a2.67 2.67 0 0 1-2.667-2.667v-4c0-.735.598-1.333 1.334-1.333h4.78l1.885 1.885A2.648 2.648 0 0 0 11.219 4h3.448v2.667z"/>
        </g>
    </g>
</svg>
