<svg xmlns="http://www.w3.org/2000/svg" width="16" height="15" viewBox="0 0 16 15">
    <g fill="none" fill-rule="evenodd">
        <path fill="none" d="M-4-5h24v24H-4z"/>
        <path fill="#17283A" fill-rule="nonzero" d="M13.636 1.945h-2.605V1.44c0-.707-.57-1.28-1.273-1.28H6.242c-.703 0-1.273.573-1.273 1.28v.504H2.364A2.37 2.37 0 0 0 0 4.323v8.14a2.37 2.37 0 0 0 2.364 2.378h11.272A2.37 2.37 0 0 0 16 12.463v-8.14a2.37 2.37 0 0 0-2.364-2.378zM6.06 1.44c0-.1.081-.182.182-.182h3.516c.1 0 .182.081.182.182v.504H6.06V1.44zM2.364 3.042h11.272c.703 0 1.273.573 1.273 1.28v2.79h-4.774a1.457 1.457 0 0 0-1.439-1.258H7.304c-.721 0-1.333.532-1.439 1.249H1.091v-2.78c0-.34.134-.666.373-.906.238-.24.562-.375.9-.375zM9.06 7.317v.671a.365.365 0 0 1-.364.366H7.304a.365.365 0 0 1-.364-.366v-.67c0-.203.163-.367.364-.367h1.394c.2.001.362.165.362.366zm4.576 6.426H2.364a1.277 1.277 0 0 1-1.273-1.28V8.21h4.774a1.457 1.457 0 0 0 1.439 1.25h1.394c.721-.001 1.333-.533 1.438-1.25h4.773v4.253c0 .707-.57 1.28-1.273 1.28z"/>
    </g>
</svg>
