<svg xmlns="http://www.w3.org/2000/svg" width="16" height="16" viewBox="0 0 16 16">
    <g fill="none" fill-rule="evenodd">
        <path fill="none" d="M-4-4h24v24H-4z"/>
        <g fill="#FBB" fill-rule="nonzero">
            <path d="M14.633 7c-.439-1.864-1.478-3.21-3.023-3.977.435-.62.437-1.237.437-1.88a.568.568 0 0 0-.565-.572.568.568 0 0 0-.564.572c0 .7 0 1.041-.424 1.45a7.888 7.888 0 0 0-1.091-.222c.383-.595.385-1.186.385-1.8A.568.568 0 0 0 9.224 0a.568.568 0 0 0-.565.571c0 .816-.01 1.181-.755 1.72-.366.007-.72.028-1.059.071.116-.4.12-.804.12-1.22A.568.568 0 0 0 6.4.573a.568.568 0 0 0-.565.57c0 .78-.005 1.118-.592 1.598-1.917.687-3.192 2.14-3.689 4.261C.743 7.364.188 8.428.188 9.714c0 1.515.776 2.719 1.797 2.846.746 1.652 2.41 3.44 6.11 3.44 3.699 0 5.362-1.788 6.108-3.44C15.224 12.433 16 11.23 16 9.714c0-1.287-.555-2.351-1.367-2.713zm-.592 4.43c-.393-.086-.633.068-.733.336-.772 2.051-2.526 3.091-5.214 3.091-2.688 0-4.442-1.04-5.213-3.09-.1-.267-.376-.437-.716-.338-.4 0-.847-.734-.847-1.715 0-.932.421-1.643.8-1.699a.568.568 0 0 0 .474-.458c.518-2.74 2.37-4.128 5.502-4.128 3.13 0 4.98 1.389 5.502 4.128a.568.568 0 0 0 .474.458c.378.055.8.767.8 1.7 0 .98-.447 1.714-.83 1.714z"/>
            <path d="M9.224 12.571c0 .63-.507 1.143-1.13 1.143-.623 0-1.13-.512-1.13-1.143 0-.63.507-1.142 1.13-1.142.623 0 1.13.512 1.13 1.142zM6.944 8.444a1.738 1.738 0 0 1-1.673 1.277c-.781 0-1.47-.525-1.674-1.277a.572.572 0 0 1 .394-.702.561.561 0 0 1 .694.399c.07.257.311.437.585.437.275 0 .515-.18.585-.437a.562.562 0 0 1 .695-.4.572.572 0 0 1 .394.703zM12.591 8.444a1.738 1.738 0 0 1-1.673 1.277c-.781 0-1.47-.525-1.674-1.277a.572.572 0 0 1 .394-.702c.3-.087.612.094.694.399.07.257.311.437.585.437.275 0 .515-.18.585-.437a.562.562 0 0 1 .695-.4.572.572 0 0 1 .394.703zM.188.571C.188.256.441 0 .753 0h1.694c.214 0 .41.122.505.316A.577.577 0 0 1 2.9.914L1.882 2.286h.565c.312 0 .565.256.565.571a.568.568 0 0 1-.565.572H.753a.564.564 0 0 1-.505-.316.576.576 0 0 1 .053-.599l1.017-1.371H.753A.568.568 0 0 1 .188.57z"/>
        </g>
    </g>
</svg>
