<svg xmlns="http://www.w3.org/2000/svg" width="16" height="14" viewBox="0 0 16 14">
    <g fill="none" fill-rule="evenodd">
        <path fill="none" d="M-4-5h24v24H-4z"/>
        <path fill="#EAAFAF" fill-rule="nonzero" d="M4.526.296a4.18 4.18 0 0 0-3.009 1.268c-1.644 1.694-1.642 4.43 0 6.125l5.866 6.044a.857.857 0 0 0 1.224 0c1.956-2.015 3.919-4.03 5.875-6.044a4.408 4.408 0 0 0 0-6.116 4.198 4.198 0 0 0-6.018 0L8 2.046l-.465-.482A4.18 4.18 0 0 0 4.526.296zm0 1.687c.637 0 1.275.26 1.777.777l1.08 1.116a.857.857 0 0 0 1.233 0l1.08-1.107c1.004-1.034 2.55-1.034 3.554 0a2.689 2.689 0 0 1 0 3.732L8 11.911 2.75 6.493a2.689 2.689 0 0 1 0-3.732c.502-.517 1.14-.777 1.776-.777z"/>
    </g>
</svg>
