<svg xmlns="http://www.w3.org/2000/svg" width="16" height="16" viewBox="0 0 16 16">
    <g fill="none" fill-rule="evenodd">
        <path fill="none" d="M-4-4h24v24H-4z"/>
        <path fill="#64D9FF" fill-rule="nonzero" d="M13.81 7.056l.539.446a.902.902 0 0 0 1.298-.148.973.973 0 0 0-.143-1.338L8.537.262a.902.902 0 0 0-1.155 0L.415 6.016a.973.973 0 0 0-.143 1.338c.319.41.9.477 1.298.148l.54-.445v7.876c0 .526.413.953.923.953h9.853c.51 0 .924-.427.924-.953V7.056zm-9.853 6.925V5.53L7.96 2.225l4.002 3.306v8.45H3.957z"/>
    </g>
</svg>
