<svg xmlns="http://www.w3.org/2000/svg" viewBox="0 0 58 60">
  <g fill-rule="evenodd" fill="#F5A623">
    <path d="M49 55a1 1 0 0 1-1-1v-4a1 1 0 1 1 2 0v4a1 1 0 0 1-1 1"/>
    <path d="M51 53h-4a1 1 0 1 1 0-2h4a1 1 0 1 1 0 2M48 6a.999.999 0 0 1-.707-1.707l4-4a.999.999 0 1 1 1.414 1.414l-4 4A.997.997 0 0 1 48 6"/>
    <path d="M52 6a.997.997 0 0 1-.707-.293l-4-4A.999.999 0 1 1 48.707.293l4 4A.999.999 0 0 1 52 6M42 16a1 1 0 1 1-2 0 1 1 0 0 1 2 0m-9-7a1 1 0 1 1-2 0 1 1 0 0 1 2 0m19 15a1 1 0 1 1-2 0 1 1 0 0 1 2 0m-9 4a1 1 0 1 1-2 0 1 1 0 0 1 2 0M58 9a1 1 0 1 1-2 0 1 1 0 0 1 2 0m-37.666 7.748L2.917 57.084l40.335-17.417L20.334 16.75zM1 60a1 1 0 0 1-.918-1.396l19-44a1 1 0 0 1 1.625-.31l25 25a1.003 1.003 0 0 1-.311 1.624l-43.999 19A.988.988 0 0 1 1 60z"/>
    <path d="M40 36a1 1 0 0 1-1-1c0-3.283 6.54-5 13-5a1 1 0 1 1 0 2c-7.117 0-11 1.982-11 3a1 1 0 0 1-1 1M24 20a1 1 0 1 1 0-2c.673-.341 2-4.323 2-11a1 1 0 1 1 2 0c0 4.829-.843 13-4 13m10.999 10a1 1 0 0 1-.799-1.6C34.58 27.894 43.631 16 55 16a1 1 0 1 1 0 2c-10.38 0-19.113 11.484-19.2 11.6a.998.998 0 0 1-.801.4m-5.998-5a1 1 0 0 1-.516-1.857c4.556-2.734 5.56-5.441 5.57-5.469.183-.517.75-.792 1.269-.615a.995.995 0 0 1 .624 1.257c-.045.137-1.176 3.388-6.433 6.541a.994.994 0 0 1-.514.143M37 14.996h-.009A.996.996 0 0 1 36 14c0-.186.063-4.603 5.485-7.857a1 1 0 1 1 1.03 1.715c-4.404 2.642-4.513 6.009-4.515 6.15-.01.547-.455.988-1 .988M3.997 5c.38.285.718.624 1.003 1.003A5.043 5.043 0 0 1 6.003 5 5.043 5.043 0 0 1 5 3.997 5.043 5.043 0 0 1 3.997 5M5 10a1 1 0 0 1-1-1c0-1.654-1.346-3-3-3a1 1 0 1 1 0-2c1.654 0 3-1.346 3-3a1 1 0 1 1 2 0c0 1.654 1.346 3 3 3a1 1 0 1 1 0 2C7.346 6 6 7.346 6 9a1 1 0 0 1-1 1m30.88 34.938a.997.997 0 0 1-.707-.293L15.355 24.827a.999.999 0 1 1 1.414-1.414l19.818 19.818a.999.999 0 0 1-.707 1.707m-5.927 2.56a.997.997 0 0 1-.707-.293l-16.45-16.451a.999.999 0 1 1 1.414-1.414l16.45 16.45a.999.999 0 0 1-.707 1.708m-9.017 3.894a.997.997 0 0 1-.707-.293L8.902 39.772a.999.999 0 1 1 1.414-1.414l11.326 11.327a.999.999 0 0 1-.706 1.707M15.01 53.95a.997.997 0 0 1-.707-.292l-7.96-7.96a.999.999 0 1 1 1.414-1.414l7.96 7.96a.999.999 0 0 1-.707 1.707"/>
  </g>
</svg>