<svg xmlns="http://www.w3.org/2000/svg" width="16" height="13" viewBox="0 0 16 13">
    <g fill="none" fill-rule="evenodd">
        <path fill="none" d="M-4-6h24v24H-4z"/>
        <g fill="#EC1C95" fill-rule="nonzero">
            <path d="M14.256 11.419H1.758c-.046 0-.092-.002-.14-.008.065.01.131.02.196.027a1.087 1.087 0 0 1-.261-.075l.178.08a1.13 1.13 0 0 1-.229-.144c.05.04.1.083.15.124a1.2 1.2 0 0 1-.17-.181l.117.16a1.179 1.179 0 0 1-.135-.244c.023.063.05.126.074.19a1.163 1.163 0 0 1-.07-.278c.008.07.018.14.025.209-.013-.119-.007-.239-.007-.358V2.962c0-.365-.004-.733 0-1.098 0-.048.004-.095.007-.144l-.026.21c.014-.098.037-.19.07-.279-.023.064-.05.127-.073.19.035-.087.081-.168.135-.243l-.118.16a1.2 1.2 0 0 1 .171-.182c-.05.04-.1.082-.15.124.07-.057.147-.106.229-.143-.06.025-.119.053-.178.079a.991.991 0 0 1 .261-.075c-.065.009-.132.02-.197.027.145-.017.293-.008.438-.008H14.245c.046 0 .093.002.141.008-.065-.01-.132-.02-.196-.027.09.014.178.039.26.075l-.177-.08c.081.039.157.087.228.144-.05-.04-.1-.083-.15-.124a1.2 1.2 0 0 1 .171.181l-.117-.16c.053.076.1.157.135.244l-.074-.19c.035.091.058.182.07.278l-.026-.209c.014.119.008.239.008.358v7.959c0 .365.003.733 0 1.098 0 .048-.004.095-.008.144.01-.07.019-.14.026-.21-.013.098-.037.19-.07.279.023-.064.05-.127.074-.19a1.236 1.236 0 0 1-.135.243l.117-.16a1.2 1.2 0 0 1-.17.182c.05-.04.1-.082.15-.124-.071.057-.148.106-.23.143.06-.025.12-.053.179-.079a.991.991 0 0 1-.261.075c.065-.009.132-.02.196-.027a2.666 2.666 0 0 1-.13.008.752.752 0 0 0-.526.23.826.826 0 0 0-.217.56c.019.422.327.795.743.79a1.756 1.756 0 0 0 1.498-.907c.167-.293.246-.636.246-.976v-9.26a2.098 2.098 0 0 0-.18-.813c-.124-.294-.334-.518-.571-.707C14.922.075 14.523 0 14.127 0H1.813c-.04 0-.08 0-.12.002A1.764 1.764 0 0 0 .234.927c-.198.367-.233.762-.233 1.17v8.596c0 .15-.002.3 0 .45.003.301.07.566.191.836.128.291.342.514.58.7.281.217.64.318.984.32.417.003.833 0 1.25 0H14.259c.387 0 .76-.364.742-.79-.02-.429-.327-.79-.744-.79z"/>
            <path d="M11.954 3.834L10.595 4.99 8.493 6.78c-.165.142-.332.281-.497.425l.15-.12a1.124 1.124 0 0 1-.182.106c.06-.024.118-.051.178-.076a1.101 1.101 0 0 1-.207.06c.066-.01.133-.02.197-.027a.914.914 0 0 1-.248 0c.065.009.132.019.196.026a.946.946 0 0 1-.202-.056c.06.024.12.051.178.075a.71.71 0 0 1-.155-.084l.15.119c-.437-.38-.882-.75-1.322-1.124L4.565 4.27l-.514-.437c-.154-.132-.317-.22-.525-.22-.182 0-.4.083-.526.22-.13.144-.226.333-.217.535.008.189.069.408.217.535.499.423.996.846 1.496 1.267l2.12 1.796.216.183.036.03.119.104c.16.138.299.216.497.291.3.115.66.121.965.029.269-.082.475-.228.687-.41.038-.034.08-.068.12-.102l1.969-1.677c.583-.497 1.165-.99 1.746-1.488l.03-.024c.137-.117.216-.357.216-.535a.785.785 0 0 0-.216-.535c-.141-.132-.327-.23-.526-.22a.844.844 0 0 0-.521.222z"/>
            <path d="M5.59 6.015c-.666.695-.933.977-1.601 1.672-.092.098-.187.193-.28.29-.296.309-.32.87 0 1.174.32.303.819.33 1.135 0 .667-.695.934-.977 1.602-1.672.092-.098.187-.193.279-.29.297-.309.32-.87 0-1.174-.32-.302-.818-.33-1.134 0zM12.988 7.977c-.668-.694-.935-.976-1.604-1.67-.092-.098-.187-.193-.28-.29-.296-.308-.842-.33-1.135 0-.296.332-.317.844 0 1.173.668.694.935.976 1.604 1.67.092.097.187.193.28.29.296.308.842.33 1.135 0 .295-.333.317-.844 0-1.173z"/>
        </g>
    </g>
</svg>
