<svg xmlns="http://www.w3.org/2000/svg" width="16" height="13" viewBox="0 0 16 13">
    <g fill="none" fill-rule="evenodd">
        <path fill="none" d="M-4-6h24v24H-4z"/>
        <path fill="#9013FE" fill-rule="nonzero" d="M15.242 13h.018a.578.578 0 0 0 .543-.452 7.807 7.807 0 0 0 .192-2.043c-.156-4.415-3.817-8.023-8.16-8.023h-.042c-.115 0-.23-.017-.344-.012L7.383.57a.595.595 0 0 0-.318-.507.57.57 0 0 0-.587.04L.248 4.478a.587.587 0 0 0 .008.966l6.541 4.436c.18.123.412.132.601.025a.588.588 0 0 0 .296-.532l-.07-1.93c.098-.005.197-.001.298-.001h.042c3.068 0 5.834 2.125 6.726 5.145a.573.573 0 0 0 .552.412zM7.793 3.68h.036c3.592 0 6.641 2.847 6.986 6.446-1.488-2.327-4.06-3.88-6.845-3.88h-.048a7.34 7.34 0 0 0-.968.07.587.587 0 0 0-.502.605l.05 1.35-4.9-3.322L6.27 1.671l.05 1.436c.006.164.08.318.203.425.124.106.287.189.447.167.268-.035.546-.02.825-.02z"/>
    </g>
</svg>
