<svg xmlns="http://www.w3.org/2000/svg" width="15" height="16" viewBox="0 0 15 16">
    <g fill="none" fill-rule="evenodd">
        <path fill="none" d="M-5-4h24v24H-5z"/>
        <g fill="#417505" fill-rule="nonzero">
            <path d="M3.553 11.096l.259.555a.658.658 0 0 0 .37.337l.456.16-.138.364a.686.686 0 0 0 .016.546c.08.172.228.306.412.374l.372.136-.167.437a.615.615 0 0 0 .013.49l.22.48a.617.617 0 0 0 .349.32l1.415.52a.567.567 0 0 0 .703-.32l.544-1.359a.585.585 0 0 0-.014-.46L6.57 9.802a3.77 3.77 0 0 0 .275-.363.39.39 0 0 0-.133-.551.427.427 0 0 0-.574.127c-.104.16-.224.31-.36.445a.387.387 0 0 0-.08.44l1.874 4.02-.415 1.036-1.08-.397-.157-.336.265-.664a.472.472 0 0 0-.008-.38.503.503 0 0 0-.287-.26l-.587-.216.227-.544a.475.475 0 0 0-.008-.38.503.503 0 0 0-.287-.26l-.691-.256-.334-.73a.414.414 0 0 0-.395-.236c-1.014.033-1.97-.45-2.515-1.272a2.655 2.655 0 0 1-.133-2.727.394.394 0 0 0-.185-.54.427.427 0 0 0-.562.177 3.426 3.426 0 0 0 .098 3.402c.634 1.044 1.777 1.707 3.035 1.758z"/>
            <path d="M3.605 7.548a4.324 4.324 0 0 0 2.206.655 4.33 4.33 0 0 0 2.232-.565l.642.403a.716.716 0 0 0 .511.1h.017l.61-.122.107.49a.76.76 0 0 0 .34.48c.176.11.39.148.595.107l.51-.102.125.58a.679.679 0 0 0 .301.428l.519.32a.674.674 0 0 0 .495.09l1.708-.332a.559.559 0 0 0 .45-.66l-.355-1.64a.632.632 0 0 0-.285-.4l-4.276-2.692a3.897 3.897 0 0 0-.66-2.723A4.18 4.18 0 0 0 7.046.313 4.351 4.351 0 0 0 4.144.53a4.111 4.111 0 0 0-2.056 1.98A3.873 3.873 0 0 0 1.875 5.3a4.041 4.041 0 0 0 1.73 2.249zm-.513-5.13A3.383 3.383 0 0 1 5.656.965a3.428 3.428 0 0 1 2.757 1.077 3.13 3.13 0 0 1 .78 2.758.394.394 0 0 0 .18.411l4.445 2.8.29 1.333-1.388.278-.413-.26-.179-.823a.503.503 0 0 0-.228-.322.542.542 0 0 0-.4-.07l-.768.16-.167-.737a.505.505 0 0 0-.226-.32.544.544 0 0 0-.396-.07l-.848.164-.821-.517a.429.429 0 0 0-.465 0c-.861.57-1.949.722-2.943.413a3.3 3.3 0 0 1-2.13-1.993 3.113 3.113 0 0 1 .356-2.834v.005z"/>
            <path d="M4.288 4.657a1.33 1.33 0 0 0 .979.178c.605-.12 1.038-.636 1.032-1.23-.005-.593-.447-1.1-1.055-1.211-.607-.11-1.212.205-1.444.757a1.217 1.217 0 0 0 .492 1.506h-.004zm.324-1.28a.462.462 0 0 1 .388-.2c.17 0 .327.089.407.233a.43.43 0 0 1-.02.456.477.477 0 0 1-.615.097.435.435 0 0 1-.16-.577v-.009z"/>
        </g>
    </g>
</svg>
