<svg xmlns="http://www.w3.org/2000/svg" width="10" height="16" viewBox="0 0 10 16">
    <g fill="none" fill-rule="evenodd">
        <path fill="none" d="M-7-4h24v24H-7z"/>
        <path fill="#50E3C2" fill-rule="nonzero" d="M.455 0h9.09c.252 0 .455.21.455.47v15.06c0 .26-.203.47-.455.47H.455A.463.463 0 0 1 0 15.53V.47C0 .21.203 0 .455 0zm5.681 12.235a.476.476 0 0 1-.218.403l-3.842 2.42H9.09V.942H6.136v11.294zM.91 14.692l4.318-2.721V.94H.91v13.75zm2.727-9.986c0-.26.204-.471.455-.471s.455.211.455.47v.942c0 .26-.204.47-.455.47a.463.463 0 0 1-.455-.47v-.941z"/>
    </g>
</svg>
