<svg xmlns="http://www.w3.org/2000/svg" width="16" height="16" viewBox="0 0 16 16">
    <g fill="none" fill-rule="evenodd">
        <path fill="none" d="M-4-4h24v24H-4z"/>
        <path fill="#8B572A" fill-rule="nonzero" d="M8 1.403A6.604 6.604 0 0 1 14.597 8 6.604 6.604 0 0 1 8 14.597 6.604 6.604 0 0 1 1.403 8 6.605 6.605 0 0 1 8 1.403zM8 0a8 8 0 0 0-8 8c0 4.42 3.581 8 8 8 4.419 0 8-3.58 8-8a8 8 0 0 0-8-8zm3.746 10.972a.635.635 0 0 0-.103-.892l-3.01-2.387.001-2.513a.634.634 0 1 0-1.268 0V8c0 .194.088.377.239.497l3.25 2.578a.633.633 0 0 0 .892-.103zM8 2.35a.743.743 0 1 0 0 1.486.743.743 0 0 0 0-1.486zm4.924 4.906a.743.743 0 1 0 0 1.486.743.743 0 0 0 0-1.486zM8 12.182a.743.743 0 1 0 0 1.486.743.743 0 0 0 0-1.486zM3.076 7.257a.743.743 0 1 0-.001 1.486.743.743 0 0 0 0-1.486z"/>
    </g>
</svg>
