<?xml version="1.0" encoding="UTF-8"?>
<svg width="136px" height="88px" viewBox="0 0 136 88" version="1.1" xmlns="http://www.w3.org/2000/svg" xmlns:xlink="http://www.w3.org/1999/xlink">
    <!-- Generator: Sketch 51.3 (57544) - http://www.bohemiancoding.com/sketch -->
    <title>sign</title>
    <desc>Created with Sketch.</desc>
    <defs></defs>
    <g id="Page-1" stroke="none" stroke-width="1" fill="none" fill-rule="evenodd">
        <g id="sign">
            <rect id="Rectangle-2" fill="#FEC008" fill-rule="nonzero" x="0" y="0" width="136" height="88"></rect>
            <g id="Group" transform="translate(39.000000, 6.000000)" fill="#000000">
                <rect id="Rectangle-3" fill-rule="nonzero" x="0" y="64" width="58" height="2"></rect>
                <polygon id="Path-2" fill-rule="nonzero" points="22 32 36 32 36 44 42 44 29 59 16 44 22 44"></polygon>
                <path d="M13.96,20.16 C12.959995,20.16 12.0866704,20.0000016 11.34,19.68 C10.5933296,19.3599984 10.0166687,18.9066696 9.61,18.32 C9.2033313,17.7333304 9,17.0466706 9,16.26 L9,15.78 C9,15.6866662 9.0266664,15.6133336 9.08,15.56 C9.1333336,15.5066664 9.2066662,15.48 9.3,15.48 L10.58,15.48 C10.6733338,15.48 10.7466664,15.5066664 10.8,15.56 C10.8533336,15.6133336 10.88,15.6866662 10.88,15.78 L10.88,16.16 C10.88,16.8400034 11.1733304,17.3999978 11.76,17.84 C12.3466696,18.2800022 13.1266618,18.5 14.1,18.5 C15.0200046,18.5 15.713331,18.3066686 16.18,17.92 C16.646669,17.5333314 16.88,17.0266698 16.88,16.4 C16.88,15.9866646 16.7600012,15.6333348 16.52,15.34 C16.2799988,15.0466652 15.9300023,14.7766679 15.47,14.53 C15.0099977,14.2833321 14.3400044,13.9866684 13.46,13.64 C12.4866618,13.2666648 11.7166695,12.9266682 11.15,12.62 C10.5833305,12.3133318 10.1133352,11.9100025 9.74,11.41 C9.3666648,10.9099975 9.18,10.2800038 9.18,9.52 C9.18,8.3733276 9.5899959,7.4733366 10.41,6.82 C11.2300041,6.1666634 12.339993,5.84 13.74,5.84 C14.7266716,5.84 15.5933296,6.006665 16.34,6.34 C17.0866704,6.673335 17.6633313,7.139997 18.07,7.74 C18.4766687,8.340003 18.68,9.0333294 18.68,9.82 L18.68,10.12 C18.68,10.2133338 18.6533336,10.2866664 18.6,10.34 C18.5466664,10.3933336 18.4733338,10.42 18.38,10.42 L17.08,10.42 C16.9866662,10.42 16.9133336,10.3966669 16.86,10.35 C16.8066664,10.3033331 16.78,10.2400004 16.78,10.16 L16.78,9.92 C16.78,9.2266632 16.5033361,8.6500023 15.95,8.19 C15.3966639,7.7299977 14.6333382,7.5 13.66,7.5 C12.8333292,7.5 12.1933356,7.6699983 11.74,8.01 C11.2866644,8.3500017 11.06,8.8399968 11.06,9.48 C11.06,9.9200022 11.1733322,10.2799986 11.4,10.56 C11.6266678,10.8400014 11.9633311,11.0899989 12.41,11.31 C12.8566689,11.5300011 13.5399954,11.8133316 14.46,12.16 C15.4066714,12.5333352 16.1733304,12.8766651 16.76,13.19 C17.3466696,13.5033349 17.8333314,13.9166641 18.22,14.43 C18.6066686,14.9433359 18.8,15.5799962 18.8,16.34 C18.8,17.1000038 18.6066686,17.7666638 18.22,18.34 C17.8333314,18.9133362 17.273337,19.3599984 16.54,19.68 C15.806663,20.0000016 14.9466716,20.16 13.96,20.16 Z M23.28,8.3 C22.8933314,8.3 22.5766679,8.1833345 22.33,7.95 C22.0833321,7.7166655 21.96,7.4133352 21.96,7.04 C21.96,6.6666648 22.0833321,6.3633345 22.33,6.13 C22.5766679,5.8966655 22.8933314,5.78 23.28,5.78 C23.6666686,5.78 23.9799988,5.8966655 24.22,6.13 C24.4600012,6.3633345 24.58,6.6666648 24.58,7.04 C24.58,7.4133352 24.4600012,7.7166655 24.22,7.95 C23.9799988,8.1833345 23.6666686,8.3 23.28,8.3 Z M22.62,20 C22.5266662,20 22.4533336,19.9733336 22.4,19.92 C22.3466664,19.8666664 22.32,19.7933338 22.32,19.7 L22.32,10.12 C22.32,10.0266662 22.3466664,9.9533336 22.4,9.9 C22.4533336,9.8466664 22.5266662,9.82 22.62,9.82 L23.94,9.82 C24.0333338,9.82 24.1066664,9.8466664 24.16,9.9 C24.2133336,9.9533336 24.24,10.0266662 24.24,10.12 L24.24,19.7 C24.24,19.7933338 24.2133336,19.8666664 24.16,19.92 C24.1066664,19.9733336 24.0333338,20 23.94,20 L22.62,20 Z M34.44,10.12 C34.44,10.0266662 34.4666664,9.9533336 34.52,9.9 C34.5733336,9.8466664 34.6466662,9.82 34.74,9.82 L36.06,9.82 C36.1533338,9.82 36.2266664,9.8466664 36.28,9.9 C36.3333336,9.9533336 36.36,10.0266662 36.36,10.12 L36.36,19.48 C36.36,21.080008 35.9033379,22.2299965 34.99,22.93 C34.0766621,23.6300035 32.8600076,23.98 31.34,23.98 C31.1266656,23.98 30.820002,23.9666668 30.42,23.94 C30.2333324,23.94 30.14,23.8333344 30.14,23.62 L30.18,22.44 C30.18,22.3466662 30.213333,22.2733336 30.28,22.22 C30.346667,22.1666664 30.4266662,22.1466666 30.52,22.16 C30.7066676,22.1733334 30.966665,22.18 31.3,22.18 C32.4066722,22.18 33.2066642,21.9700021 33.7,21.55 C34.1933358,21.1299979 34.44,20.420005 34.44,19.42 L34.44,19.08 C34.44,19.0399998 34.4266668,19.0166667 34.4,19.01 C34.3733332,19.0033333 34.3466668,19.0133332 34.32,19.04 C33.7466638,19.6800032 32.9333386,20 31.88,20 C31.013329,20 30.2300035,19.7733356 29.53,19.32 C28.8299965,18.8666644 28.346668,18.2000044 28.08,17.32 C27.9066658,16.7333304 27.82,15.9200052 27.82,14.88 C27.82,13.7733278 27.919999,12.920003 28.12,12.32 C28.3733346,11.519996 28.8233301,10.8766691 29.47,10.39 C30.1166699,9.9033309 30.8799956,9.66 31.76,9.66 C32.8533388,9.66 33.7066636,9.9866634 34.32,10.64 C34.3466668,10.6800002 34.3733332,10.6933334 34.4,10.68 C34.4266668,10.6666666 34.44,10.6400002 34.44,10.6 L34.44,10.12 Z M34.32,16.74 C34.3600002,16.5266656 34.3899999,16.3000012 34.41,16.06 C34.4300001,15.8199988 34.44,15.4200028 34.44,14.86 C34.44,14.2999972 34.4300001,13.9033345 34.41,13.67 C34.3899999,13.4366655 34.3533336,13.2133344 34.3,13 C34.1933328,12.5066642 33.9533352,12.1033349 33.58,11.79 C33.2066648,11.4766651 32.7400028,11.32 32.18,11.32 C31.6199972,11.32 31.1533352,11.4766651 30.78,11.79 C30.4066648,12.1033349 30.1400008,12.5066642 29.98,13 C29.8333326,13.400002 29.76,14.0199958 29.76,14.86 C29.76,15.7800046 29.826666,16.406665 29.96,16.74 C30.093334,17.2333358 30.3566647,17.6366651 30.75,17.95 C31.1433353,18.2633349 31.6199972,18.42 32.18,18.42 C32.7666696,18.42 33.2433315,18.2633349 33.61,17.95 C33.9766685,17.6366651 34.2133328,17.2333358 34.32,16.74 Z M44.58,9.68 C45.6733388,9.68 46.5399968,9.9966635 47.18,10.63 C47.8200032,11.2633365 48.14,12.1199946 48.14,13.2 L48.14,19.7 C48.14,19.7933338 48.1133336,19.8666664 48.06,19.92 C48.0066664,19.9733336 47.9333338,20 47.84,20 L46.52,20 C46.4266662,20 46.3533336,19.9733336 46.3,19.92 C46.2466664,19.8666664 46.22,19.7933338 46.22,19.7 L46.22,13.58 C46.22,12.91333 46.0266686,12.3733354 45.64,11.96 C45.2533314,11.5466646 44.7400032,11.34 44.1,11.34 C43.5266638,11.34 43.0433353,11.5099983 42.65,11.85 C42.2566647,12.1900017 42.026667,12.6466638 41.96,13.22 L41.96,19.7 C41.96,19.7933338 41.9333336,19.8666664 41.88,19.92 C41.8266664,19.9733336 41.7533338,20 41.66,20 L40.34,20 C40.2466662,20 40.1733336,19.9733336 40.12,19.92 C40.0666664,19.8666664 40.04,19.7933338 40.04,19.7 L40.04,10.12 C40.04,10.0266662 40.0666664,9.9533336 40.12,9.9 C40.1733336,9.8466664 40.2466662,9.82 40.34,9.82 L41.66,9.82 C41.7533338,9.82 41.8266664,9.8466664 41.88,9.9 C41.9333336,9.9533336 41.96,10.0266662 41.96,10.12 L41.96,10.68 C41.96,10.7200002 41.9733332,10.7466666 42,10.76 C42.0266668,10.7733334 42.0466666,10.7666668 42.06,10.74 C42.6200028,10.0333298 43.4599944,9.68 44.58,9.68 Z" id="Sign"></path>
            </g>
        </g>
    </g>
</svg>