<svg width="24" height="24" viewBox="0 0 24 24" fill="black" xmlns="http://www.w3.org/2000/svg">
<path fill-rule="evenodd" clip-rule="evenodd" d="M12 0.747147C11.203 0.747151 10.909 0.859919 10.406 1.07848C9.91916 1.29 9.47948 1.59622 9.11243 1.97913L0.84725 9.24238C0.827697 9.25922 0.808853 9.27678 0.790746 9.29501C0.646102 9.44024 0.554685 9.62055 0.518163 9.81009C0.506202 9.87197 0.5 9.9355 0.5 10V21.25C0.5 21.913 0.763393 22.5489 1.23223 23.0178C1.70107 23.4866 2.33696 23.75 3 23.75H21C21.663 23.75 22.2989 23.4866 22.7678 23.0178C23.2366 22.5489 23.5 21.913 23.5 21.25V10.0076V10C23.5 9.97842 23.4993 9.95695 23.4979 9.93561C23.4995 9.95959 23.5002 9.98361 23.5 10.0076M20.9404 9.96071L13.5329 3.45117C13.5082 3.42942 13.4845 3.40646 13.462 3.38238C13.2749 3.18192 13.0485 3.02209 12.797 2.91281C12.5455 2.80353 12.2742 2.74713 12 2.74713C11.7258 2.74713 11.4545 2.80353 11.203 2.91281C10.9515 3.02209 10.7251 3.18192 10.538 3.38238C10.5155 3.40646 10.4919 3.42942 10.4671 3.45117L3.05961 9.96072L8.79336 14.5089C8.80621 14.5186 8.81888 14.5286 8.83136 14.539L10.7647 16.0726L10.7664 16.0739C11.1184 16.3498 11.5528 16.4997 12 16.4997C12.4472 16.4997 12.8816 16.3498 13.2336 16.0739L13.2353 16.0726L15.171 14.5372C15.182 14.528 15.1931 14.5192 15.2044 14.5106L20.9404 9.96071ZM15.7313 16.6455L18.043 18.9571C18.4335 19.3476 19.0667 19.3476 19.4572 18.9571C19.8477 18.5666 19.8477 17.9334 19.4572 17.5429L17.3086 15.3943L21.5 12.0696V21.25C21.5 21.3826 21.4473 21.5098 21.3536 21.6035C21.2598 21.6973 21.1326 21.75 21 21.75H3C2.86739 21.75 2.74022 21.6973 2.64645 21.6035C2.55268 21.5098 2.5 21.3826 2.5 21.25V12.0696L6.69142 15.3944L4.54289 17.5429C4.15237 17.9334 4.15237 18.5666 4.54289 18.9571C4.93342 19.3476 5.56658 19.3476 5.95711 18.9571L8.26871 16.6455L9.52554 17.6425L9.52933 17.6454C10.234 18.1989 11.104 18.4997 12 18.4997C12.896 18.4997 13.766 18.1989 14.4707 17.6454L15.7313 16.6455Z" />
<path fill-rule="evenodd" clip-rule="evenodd" d="M12 0.747147C11.203 0.747151 10.909 0.859919 10.406 1.07848C9.91916 1.29 9.47948 1.59622 9.11243 1.97913L0.84725 9.24238C0.827697 9.25922 0.808853 9.27678 0.790746 9.29501C0.646102 9.44024 0.554685 9.62055 0.518163 9.81009C0.506202 9.87197 0.5 9.9355 0.5 10V21.25C0.5 21.913 0.763393 22.5489 1.23223 23.0178C1.70107 23.4866 2.33696 23.75 3 23.75H21C21.663 23.75 22.2989 23.4866 22.7678 23.0178C23.2366 22.5489 23.5 21.913 23.5 21.25V10.0076L14.0123 1.75432C13.4945 1.30389 12.9501 0.826106 12.267 0.75989C12.1831 0.751757 12.094 0.747146 12 0.747147ZM13.5329 3.45117L20.9404 9.96071L15.2044 14.5106C15.1931 14.5192 15.182 14.528 15.171 14.5372L13.2353 16.0726L13.2336 16.0739C12.8816 16.3498 12.4472 16.4997 12 16.4997C11.5528 16.4997 11.1184 16.3498 10.7664 16.0739L10.7647 16.0726L8.83136 14.539C8.81888 14.5286 8.80621 14.5186 8.79336 14.5089L3.05961 9.96072L10.4671 3.45117C10.4919 3.42942 10.5155 3.40646 10.538 3.38238C10.7251 3.18192 10.9515 3.02209 11.203 2.91281C11.4545 2.80353 11.7258 2.74713 12 2.74713C12.2742 2.74713 12.5455 2.80353 12.797 2.91281C13.0485 3.02209 13.2749 3.18192 13.462 3.38238C13.4845 3.40646 13.5082 3.42942 13.5329 3.45117ZM15.7313 16.6455L18.043 18.9571C18.4335 19.3476 19.0667 19.3476 19.4572 18.9571C19.8477 18.5666 19.8477 17.9334 19.4572 17.5429L17.3086 15.3943L21.5 12.0696V21.25C21.5 21.3826 21.4473 21.5098 21.3536 21.6035C21.2598 21.6973 21.1326 21.75 21 21.75H3C2.86739 21.75 2.74022 21.6973 2.64645 21.6035C2.55268 21.5098 2.5 21.3826 2.5 21.25V12.0696L6.69142 15.3944L4.54289 17.5429C4.15237 17.9334 4.15237 18.5666 4.54289 18.9571C4.93342 19.3476 5.56658 19.3476 5.95711 18.9571L8.26871 16.6455L9.52554 17.6425L9.52933 17.6454C10.234 18.1989 11.104 18.4997 12 18.4997C12.896 18.4997 13.766 18.1989 14.4707 17.6454L15.7313 16.6455Z" />
<path fill-rule="evenodd" clip-rule="evenodd" d="M12 0.747147C11.203 0.747151 10.909 0.859919 10.406 1.07848C9.91916 1.29 9.47948 1.59622 9.11243 1.97913L0.84725 9.24238C0.827697 9.25922 0.808853 9.27678 0.790746 9.29501C0.646102 9.44024 0.554685 9.62055 0.518163 9.81009C0.506202 9.87197 0.5 9.9355 0.5 10V21.25C0.5 21.913 0.763393 22.5489 1.23223 23.0178C1.70107 23.4866 2.33696 23.75 3 23.75H21C21.663 23.75 22.2989 23.4866 22.7678 23.0178C23.2366 22.5489 23.5 21.913 23.5 21.25V10.0076L14.0123 1.75432C13.4945 1.30389 12.9501 0.826106 12.267 0.75989C12.1831 0.751757 12.094 0.747146 12 0.747147ZM13.5329 3.45117L20.9404 9.96071L15.2044 14.5106C15.1931 14.5192 15.182 14.528 15.171 14.5372L13.2353 16.0726L13.2336 16.0739C12.8816 16.3498 12.4472 16.4997 12 16.4997C11.5528 16.4997 11.1184 16.3498 10.7664 16.0739L10.7647 16.0726L8.83136 14.539C8.81888 14.5286 8.80621 14.5186 8.79336 14.5089L3.05961 9.96072L10.4671 3.45117C10.4919 3.42942 10.5155 3.40646 10.538 3.38238C10.7251 3.18192 10.9515 3.02209 11.203 2.91281C11.4545 2.80353 11.7258 2.74713 12 2.74713C12.2742 2.74713 12.5455 2.80353 12.797 2.91281C13.0485 3.02209 13.2749 3.18192 13.462 3.38238C13.4845 3.40646 13.5082 3.42942 13.5329 3.45117ZM15.7313 16.6455L18.043 18.9571C18.4335 19.3476 19.0667 19.3476 19.4572 18.9571C19.8477 18.5666 19.8477 17.9334 19.4572 17.5429L17.3086 15.3943L21.5 12.0696V21.25C21.5 21.3826 21.4473 21.5098 21.3536 21.6035C21.2598 21.6973 21.1326 21.75 21 21.75H3C2.86739 21.75 2.74022 21.6973 2.64645 21.6035C2.55268 21.5098 2.5 21.3826 2.5 21.25V12.0696L6.69142 15.3944L4.54289 17.5429C4.15237 17.9334 4.15237 18.5666 4.54289 18.9571C4.93342 19.3476 5.56658 19.3476 5.95711 18.9571L8.26871 16.6455L9.52554 17.6425L9.52933 17.6454C10.234 18.1989 11.104 18.4997 12 18.4997C12.896 18.4997 13.766 18.1989 14.4707 17.6454L15.7313 16.6455Z" />
<path fill-rule="evenodd" clip-rule="evenodd" d="M12 0.747147C11.203 0.747151 10.909 0.859919 10.406 1.07848C9.91916 1.29 9.47948 1.59622 9.11243 1.97913L0.84725 9.24238C0.827697 9.25922 0.808853 9.27678 0.790746 9.29501C0.646102 9.44024 0.554685 9.62055 0.518163 9.81009C0.506202 9.87197 0.5 9.9355 0.5 10V21.25C0.5 21.913 0.763393 22.5489 1.23223 23.0178C1.70107 23.4866 2.33696 23.75 3 23.75H21C21.663 23.75 22.2989 23.4866 22.7678 23.0178C23.2366 22.5489 23.5 21.913 23.5 21.25V10.0076L14.0123 1.75432C13.4945 1.30389 12.9501 0.826106 12.267 0.75989C12.1831 0.751757 12.094 0.747146 12 0.747147ZM13.5329 3.45117L20.9404 9.96071L15.2044 14.5106C15.1931 14.5192 15.182 14.528 15.171 14.5372L13.2353 16.0726L13.2336 16.0739C12.8816 16.3498 12.4472 16.4997 12 16.4997C11.5528 16.4997 11.1184 16.3498 10.7664 16.0739L10.7647 16.0726L8.83136 14.539C8.81888 14.5286 8.80621 14.5186 8.79336 14.5089L3.05961 9.96072L10.4671 3.45117C10.4919 3.42942 10.5155 3.40646 10.538 3.38238C10.7251 3.18192 10.9515 3.02209 11.203 2.91281C11.4545 2.80353 11.7258 2.74713 12 2.74713C12.2742 2.74713 12.5455 2.80353 12.797 2.91281C13.0485 3.02209 13.2749 3.18192 13.462 3.38238C13.4845 3.40646 13.5082 3.42942 13.5329 3.45117ZM15.7313 16.6455L18.043 18.9571C18.4335 19.3476 19.0667 19.3476 19.4572 18.9571C19.8477 18.5666 19.8477 17.9334 19.4572 17.5429L17.3086 15.3943L21.5 12.0696V21.25C21.5 21.3826 21.4473 21.5098 21.3536 21.6035C21.2598 21.6973 21.1326 21.75 21 21.75H3C2.86739 21.75 2.74022 21.6973 2.64645 21.6035C2.55268 21.5098 2.5 21.3826 2.5 21.25V12.0696L6.69142 15.3944L4.54289 17.5429C4.15237 17.9334 4.15237 18.5666 4.54289 18.9571C4.93342 19.3476 5.56658 19.3476 5.95711 18.9571L8.26871 16.6455L9.52554 17.6425L9.52933 17.6454C10.234 18.1989 11.104 18.4997 12 18.4997C12.896 18.4997 13.766 18.1989 14.4707 17.6454L15.7313 16.6455Z" />
<path fill-rule="evenodd" clip-rule="evenodd" d="M12 0.747147C11.203 0.747151 10.909 0.859919 10.406 1.07848C9.91916 1.29 9.47948 1.59622 9.11243 1.97913L0.84725 9.24238C0.827697 9.25922 0.808853 9.27678 0.790746 9.29501C0.646102 9.44024 0.554685 9.62055 0.518163 9.81009C0.506202 9.87197 0.5 9.9355 0.5 10V21.25C0.5 21.913 0.763393 22.5489 1.23223 23.0178C1.70107 23.4866 2.33696 23.75 3 23.75H21C21.663 23.75 22.2989 23.4866 22.7678 23.0178C23.2366 22.5489 23.5 21.913 23.5 21.25V10.0076L14.0123 1.75432C13.4945 1.30389 12.9501 0.826106 12.267 0.75989C12.1831 0.751757 12.094 0.747146 12 0.747147ZM13.5329 3.45117L20.9404 9.96071L15.2044 14.5106C15.1931 14.5192 15.182 14.528 15.171 14.5372L13.2353 16.0726L13.2336 16.0739C12.8816 16.3498 12.4472 16.4997 12 16.4997C11.5528 16.4997 11.1184 16.3498 10.7664 16.0739L10.7647 16.0726L8.83136 14.539C8.81888 14.5286 8.80621 14.5186 8.79336 14.5089L3.05961 9.96072L10.4671 3.45117C10.4919 3.42942 10.5155 3.40646 10.538 3.38238C10.7251 3.18192 10.9515 3.02209 11.203 2.91281C11.4545 2.80353 11.7258 2.74713 12 2.74713C12.2742 2.74713 12.5455 2.80353 12.797 2.91281C13.0485 3.02209 13.2749 3.18192 13.462 3.38238C13.4845 3.40646 13.5082 3.42942 13.5329 3.45117ZM15.7313 16.6455L18.043 18.9571C18.4335 19.3476 19.0667 19.3476 19.4572 18.9571C19.8477 18.5666 19.8477 17.9334 19.4572 17.5429L17.3086 15.3943L21.5 12.0696V21.25C21.5 21.3826 21.4473 21.5098 21.3536 21.6035C21.2598 21.6973 21.1326 21.75 21 21.75H3C2.86739 21.75 2.74022 21.6973 2.64645 21.6035C2.55268 21.5098 2.5 21.3826 2.5 21.25V12.0696L6.69142 15.3944L4.54289 17.5429C4.15237 17.9334 4.15237 18.5666 4.54289 18.9571C4.93342 19.3476 5.56658 19.3476 5.95711 18.9571L8.26871 16.6455L9.52554 17.6425L9.52933 17.6454C10.234 18.1989 11.104 18.4997 12 18.4997C12.896 18.4997 13.766 18.1989 14.4707 17.6454L15.7313 16.6455Z" />
<path fill-rule="evenodd" clip-rule="evenodd" d="M12 0.747147C11.203 0.747151 10.909 0.859919 10.406 1.07848C9.91916 1.29 9.47948 1.59622 9.11243 1.97913L0.84725 9.24238C0.827697 9.25922 0.808853 9.27678 0.790746 9.29501C0.646102 9.44024 0.554685 9.62055 0.518163 9.81009C0.506202 9.87197 0.5 9.9355 0.5 10V21.25C0.5 21.913 0.763393 22.5489 1.23223 23.0178C1.70107 23.4866 2.33696 23.75 3 23.75H21C21.663 23.75 22.2989 23.4866 22.7678 23.0178C23.2366 22.5489 23.5 21.913 23.5 21.25V10.0076L14.0123 1.75432C13.4945 1.30389 12.9501 0.826106 12.267 0.75989C12.1831 0.751757 12.094 0.747146 12 0.747147ZM13.5329 3.45117L20.9404 9.96071L15.2044 14.5106C15.1931 14.5192 15.182 14.528 15.171 14.5372L13.2353 16.0726L13.2336 16.0739C12.8816 16.3498 12.4472 16.4997 12 16.4997C11.5528 16.4997 11.1184 16.3498 10.7664 16.0739L10.7647 16.0726L8.83136 14.539C8.81888 14.5286 8.80621 14.5186 8.79336 14.5089L3.05961 9.96072L10.4671 3.45117C10.4919 3.42942 10.5155 3.40646 10.538 3.38238C10.7251 3.18192 10.9515 3.02209 11.203 2.91281C11.4545 2.80353 11.7258 2.74713 12 2.74713C12.2742 2.74713 12.5455 2.80353 12.797 2.91281C13.0485 3.02209 13.2749 3.18192 13.462 3.38238C13.4845 3.40646 13.5082 3.42942 13.5329 3.45117ZM15.7313 16.6455L18.043 18.9571C18.4335 19.3476 19.0667 19.3476 19.4572 18.9571C19.8477 18.5666 19.8477 17.9334 19.4572 17.5429L17.3086 15.3943L21.5 12.0696V21.25C21.5 21.3826 21.4473 21.5098 21.3536 21.6035C21.2598 21.6973 21.1326 21.75 21 21.75H3C2.86739 21.75 2.74022 21.6973 2.64645 21.6035C2.55268 21.5098 2.5 21.3826 2.5 21.25V12.0696L6.69142 15.3944L4.54289 17.5429C4.15237 17.9334 4.15237 18.5666 4.54289 18.9571C4.93342 19.3476 5.56658 19.3476 5.95711 18.9571L8.26871 16.6455L9.52554 17.6425L9.52933 17.6454C10.234 18.1989 11.104 18.4997 12 18.4997C12.896 18.4997 13.766 18.1989 14.4707 17.6454L15.7313 16.6455Z" />
<path fill-rule="evenodd" clip-rule="evenodd" d="M12 0.747147C11.203 0.747151 10.909 0.859919 10.406 1.07848C9.91916 1.29 9.47948 1.59622 9.11243 1.97913L0.84725 9.24238C0.827697 9.25922 0.808853 9.27678 0.790746 9.29501C0.646102 9.44024 0.554685 9.62055 0.518163 9.81009C0.506202 9.87197 0.5 9.9355 0.5 10V21.25C0.5 21.913 0.763393 22.5489 1.23223 23.0178C1.70107 23.4866 2.33696 23.75 3 23.75H21C21.663 23.75 22.2989 23.4866 22.7678 23.0178C23.2366 22.5489 23.5 21.913 23.5 21.25V10.0076L14.0123 1.75432C13.4945 1.30389 12.9501 0.826106 12.267 0.75989C12.1831 0.751757 12.094 0.747146 12 0.747147ZM13.5329 3.45117L20.9404 9.96071L15.2044 14.5106C15.1931 14.5192 15.182 14.528 15.171 14.5372L13.2353 16.0726L13.2336 16.0739C12.8816 16.3498 12.4472 16.4997 12 16.4997C11.5528 16.4997 11.1184 16.3498 10.7664 16.0739L10.7647 16.0726L8.83136 14.539C8.81888 14.5286 8.80621 14.5186 8.79336 14.5089L3.05961 9.96072L10.4671 3.45117C10.4919 3.42942 10.5155 3.40646 10.538 3.38238C10.7251 3.18192 10.9515 3.02209 11.203 2.91281C11.4545 2.80353 11.7258 2.74713 12 2.74713C12.2742 2.74713 12.5455 2.80353 12.797 2.91281C13.0485 3.02209 13.2749 3.18192 13.462 3.38238C13.4845 3.40646 13.5082 3.42942 13.5329 3.45117ZM15.7313 16.6455L18.043 18.9571C18.4335 19.3476 19.0667 19.3476 19.4572 18.9571C19.8477 18.5666 19.8477 17.9334 19.4572 17.5429L17.3086 15.3943L21.5 12.0696V21.25C21.5 21.3826 21.4473 21.5098 21.3536 21.6035C21.2598 21.6973 21.1326 21.75 21 21.75H3C2.86739 21.75 2.74022 21.6973 2.64645 21.6035C2.55268 21.5098 2.5 21.3826 2.5 21.25V12.0696L6.69142 15.3944L4.54289 17.5429C4.15237 17.9334 4.15237 18.5666 4.54289 18.9571C4.93342 19.3476 5.56658 19.3476 5.95711 18.9571L8.26871 16.6455L9.52554 17.6425L9.52933 17.6454C10.234 18.1989 11.104 18.4997 12 18.4997C12.896 18.4997 13.766 18.1989 14.4707 17.6454L15.7313 16.6455Z" />
</svg>
