<svg xmlns="http://www.w3.org/2000/svg" xmlns:xlink="http://www.w3.org/1999/xlink" preserveAspectRatio="xMidYMid" width="21" height="21" viewBox="0 0 21 21">
  <defs>
    <style>
      .cls-1 {
        fill: #fff;
        fill-rule: evenodd;
      }
    </style>
  </defs>
  <path d="M18.531,20.937 L18.125,20.937 L17.303,20.937 L15.656,20.937 L14.351,20.937 L6.307,20.937 L5.000,20.937 L3.354,20.937 L2.531,20.937 L0.094,20.937 L0.094,17.656 L2.531,17.656 L2.531,8.234 C2.531,3.928 6.022,0.438 10.328,0.438 C14.634,0.438 18.125,3.928 18.125,8.234 L18.125,17.656 L20.562,17.656 L20.562,20.937 L18.531,20.937 ZM19.781,18.500 L15.661,18.500 L15.661,18.486 L15.661,17.656 L17.303,17.656 L17.303,8.264 C17.303,4.395 14.181,1.258 10.328,1.258 C6.477,1.258 3.354,4.395 3.354,8.264 L3.354,17.656 L5.000,17.656 L5.812,17.656 L5.812,17.666 L14.839,17.666 L14.839,18.486 L5.812,18.486 L5.812,18.500 L5.000,18.500 L5.000,18.486 L4.996,18.486 L4.996,18.500 L0.875,18.500 L0.875,20.125 L4.996,20.125 L4.996,20.127 L5.812,20.127 L5.812,20.125 L15.250,20.125 L15.250,20.127 L15.661,20.127 L15.661,20.125 L19.781,20.125 L19.781,18.500 ZM14.844,17.656 L15.656,17.656 L15.656,18.500 L14.844,18.500 L14.844,17.656 ZM14.241,12.283 L11.919,14.604 L11.340,14.023 L13.660,11.703 L14.241,12.283 ZM8.879,14.023 L11.199,11.703 L11.779,12.283 L9.458,14.604 L8.879,14.023 ZM14.839,16.031 L5.812,16.031 L5.812,15.219 L14.860,15.219 L14.841,9.063 L5.816,9.063 L5.795,16.031 L5.000,16.031 L5.000,8.233 C5.000,5.291 7.385,2.906 10.327,2.906 L10.330,2.906 C13.271,2.906 15.656,5.291 15.656,8.233 L15.656,15.219 L15.656,16.025 L14.839,16.025 L14.839,16.031 ZM10.328,3.693 C7.950,3.693 6.049,5.869 5.855,8.250 L14.802,8.250 C14.608,5.869 12.707,3.693 10.328,3.693 Z" class="cls-1"/>
</svg>
