<svg xmlns="http://www.w3.org/2000/svg" xmlns:xlink="http://www.w3.org/1999/xlink" preserveAspectRatio="xMidYMid" width="20.54" height="20.5" viewBox="0 0 20.54 20.5">
  <defs>
    <style>
      .cls-1 {
        fill: #929292;
        fill-rule: evenodd;
      }
    </style>
  </defs>
  <path d="M20.518,6.148 L20.518,6.159 L19.704,6.159 L19.704,20.507 L0.836,20.507 L0.836,6.159 L0.021,6.159 L0.021,6.148 L0.016,6.148 L0.016,5.328 L0.021,5.328 L0.021,-0.010 L20.518,-0.010 L20.518,5.328 L20.524,5.328 L20.524,5.635 L20.524,6.148 L20.518,6.148 ZM8.218,19.687 L12.321,19.687 L12.321,15.174 L8.218,15.174 L8.218,19.687 ZM7.809,14.353 L12.731,14.353 L12.731,13.533 L7.809,13.533 L7.809,14.353 ZM1.657,19.687 L7.399,19.687 L7.399,15.174 L6.987,15.174 L6.987,12.712 L13.552,12.712 L13.552,15.174 L13.141,15.174 L13.141,19.687 L18.884,19.687 L18.884,6.159 L12.316,6.159 L8.224,6.159 L1.657,6.159 L1.657,19.687 ZM19.704,0.815 L0.836,0.815 L0.836,5.328 L8.218,5.328 L8.218,6.148 L8.224,6.148 L8.224,5.328 L12.316,5.328 L12.316,6.148 L12.321,6.148 L12.321,5.328 L19.704,5.328 L19.704,0.815 ZM10.270,2.456 C11.398,2.456 12.321,3.409 12.321,4.507 L12.321,5.328 L11.500,5.328 L11.500,4.507 C11.500,3.606 11.173,3.276 10.270,3.276 C9.367,3.276 9.039,3.606 9.039,4.507 L9.039,5.328 L8.218,5.328 L8.218,4.507 C8.218,3.409 9.142,2.456 10.270,2.456 ZM14.372,11.482 L6.168,11.482 L6.168,6.969 L14.372,6.969 L14.372,11.482 ZM13.552,7.789 L6.987,7.789 L6.987,10.661 L13.552,10.661 L13.552,7.789 ZM12.165,8.645 L10.715,10.095 L10.426,9.805 L11.875,8.355 L12.165,8.645 ZM13.106,9.345 L12.235,10.216 L11.946,9.926 L12.815,9.055 L13.106,9.345 ZM2.478,6.969 L5.348,6.969 L5.348,11.482 L2.478,11.482 L2.478,6.969 ZM3.297,10.661 L4.527,10.661 L4.527,7.789 L3.297,7.789 L3.297,10.661 ZM18.062,11.482 L15.191,11.482 L15.191,6.969 L18.062,6.969 L18.062,11.482 ZM17.242,7.789 L16.012,7.789 L16.012,10.661 L17.242,10.661 L17.242,7.789 ZM10.675,16.812 L11.505,16.812 L11.505,17.644 L10.675,17.644 L10.675,16.812 Z" class="cls-1"/>
</svg>
