<svg xmlns="http://www.w3.org/2000/svg" width="24" height="24">
  <g fill="none">
    <path fill="none" d="M0-1h24v24H0z"/>
    <path fill="#003BDF" d="M18.335 8.706l-2.581-.043c.18-1.15.299-3.14-.72-4.44C14.594 3.666 13.751 3 12.223 3c-.396 0-.827.044-1.282.132a.724.724 0 0 0-.587.819c.597 3.798-.85 4.659-1.143 4.791a1.67 1.67 0 0 0-.896.36 1.7 1.7 0 0 0-.828-.215H5.683C4.755 8.887 4 9.625 4 10.532v6.822C4 18.262 4.755 19 5.683 19h1.805a1.7 1.7 0 0 0 .944-.284c.262.18.576.284.914.284h8.026c.91 0 1.653-.723 1.682-1.619l.94-6.9a.833.833 0 0 0 .006-.103 1.68 1.68 0 0 0-1.665-1.672zM7.693 17.354a.203.203 0 0 1-.205.201H5.683a.203.203 0 0 1-.206-.2v-6.823c0-.11.093-.2.206-.2h1.805c.113 0 .205.09.205.2v6.822zm9.891-.119a.717.717 0 0 0-.006.096c0 .117-.098.224-.206.224H9.346c-.088 0-.175-.123-.175-.248v-6.925c0-.115.082-.202.19-.202.06 0 .121-.007.18-.021.123-.03 2.887-.769 2.37-5.703.916-.066 1.555.144 1.949.645.85 1.082.493 3.322.284 4.093a.71.71 0 0 0 .123.62.745.745 0 0 0 .574.29l3.477.077c.1 0 .187.082.202.182l-.936 6.872z"/>
  </g>
</svg>