<svg width="24" height="24" xmlns="http://www.w3.org/2000/svg">
  <path d="M18.3353 8.706h-.0001l-2.5814-.0425c.1804-1.1506.299-3.1408-.7204-4.4398C14.5954 3.6653 13.7524 3 12.2244 3c-.396 0-.8275.0444-1.2825.132-.3884.075-.6473.436-.5873.8187.5977 3.7988-.85 4.659-1.1422 4.7915a1.67 1.67 0 0 0-.896.3594 1.6998 1.6998 0 0 0-.8285-.215H5.683C4.755 8.8867 4 9.625 4 10.5325v6.8217C4 18.2617 4.755 19 5.683 19h1.805a1.7 1.7 0 0 0 .9436-.2839c.262.179.5764.2839.9144.2839h8.0259c.9097 0 1.653-.7233 1.682-1.6189l.9396-6.8998a.8329.8329 0 0 0 .0065-.103c.0002-.9137-.7542-1.6722-1.6647-1.6722zM7.6935 17.3543c0 .111-.0922.201-.2056.201H5.683c-.1134 0-.2055-.09-.2055-.201v-6.8218c0-.1108.0921-.201.2055-.201h1.805c.1134 0 .2056.0902.2056.201V17.3542zm9.8906-.119a.7172.7172 0 0 0-.0065.0954c0 .1175-.098.2246-.2055.2246H9.346c-.0884 0-.1752-.1231-.1752-.2485v-6.9254c0-.1145.0818-.2008.1902-.2008a.7524.7524 0 0 0 .1797-.0217c.1233-.0304 2.8868-.7688 2.3695-5.7023.9171-.0668 1.5554.144 1.9495.6449.851 1.082.4936 3.3217.2844 4.0926a.7096.7096 0 0 0 .1224.6202c.136.1774.3477.284.5743.2891l3.4773.0773c.099 0 .187.082.2022.1823l-.9363 6.8723z" fill-rule="nonzero"/>
</svg>
