<svg width="24" height="24" viewBox="0 0 24 24" fill="none" xmlns="http://www.w3.org/2000/svg">
<g clip-path="url(#clip0)">
<path d="M19.452 7.5H4.54695C4.47733 7.49972 4.40841 7.51398 4.34461 7.54188C4.28082 7.56977 4.22355 7.61068 4.17649 7.66198C4.12942 7.71329 4.09358 7.77386 4.07128 7.83982C4.04897 7.90577 4.04068 7.97566 4.04695 8.045L5.33395 22.181C5.37912 22.6781 5.60853 23.1403 5.97712 23.4769C6.3457 23.8135 6.82682 24.0001 7.32595 24H16.673C17.1721 24.0001 17.6532 23.8135 18.0218 23.4769C18.3904 23.1403 18.6198 22.6781 18.665 22.181L19.95 8.045C19.9561 7.97586 19.9479 7.90619 19.9257 7.84042C19.9035 7.77466 19.8678 7.71423 19.821 7.663C19.7741 7.6117 19.7172 7.5707 19.6536 7.54264C19.5901 7.51458 19.5214 7.50005 19.452 7.5ZM10.252 20.5C10.252 20.6989 10.1729 20.8897 10.0323 21.0303C9.89163 21.171 9.70086 21.25 9.50195 21.25C9.30304 21.25 9.11227 21.171 8.97162 21.0303C8.83097 20.8897 8.75195 20.6989 8.75195 20.5V11.5C8.75195 11.3011 8.83097 11.1103 8.97162 10.9697C9.11227 10.829 9.30304 10.75 9.50195 10.75C9.70086 10.75 9.89163 10.829 10.0323 10.9697C10.1729 11.1103 10.252 11.3011 10.252 11.5V20.5ZM15.252 20.5C15.252 20.6989 15.1729 20.8897 15.0323 21.0303C14.8916 21.171 14.7009 21.25 14.502 21.25C14.303 21.25 14.1123 21.171 13.9716 21.0303C13.831 20.8897 13.752 20.6989 13.752 20.5V11.5C13.752 11.3011 13.831 11.1103 13.9716 10.9697C14.1123 10.829 14.303 10.75 14.502 10.75C14.7009 10.75 14.8916 10.829 15.0323 10.9697C15.1729 11.1103 15.252 11.3011 15.252 11.5V20.5Z" fill="black"/>
<path d="M22 4H17.25C17.1837 4 17.1201 3.97366 17.0732 3.92678C17.0263 3.87989 17 3.8163 17 3.75V2.5C17 1.83696 16.7366 1.20107 16.2678 0.732233C15.7989 0.263392 15.163 0 14.5 0L9.5 0C8.83696 0 8.20107 0.263392 7.73223 0.732233C7.26339 1.20107 7 1.83696 7 2.5V3.75C7 3.8163 6.97366 3.87989 6.92678 3.92678C6.87989 3.97366 6.8163 4 6.75 4H2C1.73478 4 1.48043 4.10536 1.29289 4.29289C1.10536 4.48043 1 4.73478 1 5C1 5.26522 1.10536 5.51957 1.29289 5.70711C1.48043 5.89464 1.73478 6 2 6H22C22.2652 6 22.5196 5.89464 22.7071 5.70711C22.8946 5.51957 23 5.26522 23 5C23 4.73478 22.8946 4.48043 22.7071 4.29289C22.5196 4.10536 22.2652 4 22 4ZM9 3.75V2.5C9 2.36739 9.05268 2.24021 9.14645 2.14645C9.24021 2.05268 9.36739 2 9.5 2H14.5C14.6326 2 14.7598 2.05268 14.8536 2.14645C14.9473 2.24021 15 2.36739 15 2.5V3.75C15 3.8163 14.9737 3.87989 14.9268 3.92678C14.8799 3.97366 14.8163 4 14.75 4H9.25C9.1837 4 9.12011 3.97366 9.07322 3.92678C9.02634 3.87989 9 3.8163 9 3.75Z" fill="black"/>
</g>
<defs>
<clipPath id="clip0">
<rect width="24" height="24" fill="white"/>
</clipPath>
</defs>
</svg>
