<?xml version="1.0" encoding="utf-8"?>
<!-- Generator: Adobe Illustrator 17.0.0, SVG Export Plug-In . SVG Version: 6.00 Build 0)  -->
<!DOCTYPE svg PUBLIC "-//W3C//DTD SVG 1.1//EN" "http://www.w3.org/Graphics/SVG/1.1/DTD/svg11.dtd">
<svg version="1.1" id="Layer_1" xmlns="http://www.w3.org/2000/svg" xmlns:xlink="http://www.w3.org/1999/xlink" x="0px" y="0px"
	 width="24px" height="24px" viewBox="0 0 24 24" enable-background="new 0 0 24 24" xml:space="preserve">
<path d="M8.157,1.716C8.605,1.258,9.214,1,9.848,1h4.304c0.634,0,1.242,0.258,1.691,0.716c0.448,0.458,0.7,1.08,0.7,1.728v0.489h5.5
	C22.572,3.933,23,4.371,23,4.911s-0.428,0.978-0.956,0.978h-1.468c-0.049,0.711-0.155,2.026-0.351,4.355
	c-0.229,2.727-0.439,5.25-0.468,5.607c-0.144,1.781-0.417,4.994-0.438,5.151c-0.064,0.486-0.312,0.972-0.681,1.335
	c-0.258,0.254-0.528,0.422-0.916,0.569l-0.209,0.08l-5.4,0.01c-5.154,0.009-5.607,0.023-5.979-0.145
	c-0.064-0.029-0.125-0.063-0.207-0.103c-0.529-0.26-0.949-0.748-1.146-1.331c-0.091-0.271-0.137-0.704-0.348-3.295
	c-0.043-0.533-0.059-0.719-0.36-4.324c-0.121-1.447-0.252-3.011-0.292-3.477c-0.04-0.466-0.097-1.147-0.127-1.513
	c-0.03-0.367-0.103-1.233-0.162-1.926C3.457,6.464,3.43,6.142,3.413,5.889H1.957C1.428,5.889,1,5.451,1,4.911
	s0.428-0.978,0.957-0.978h5.5V3.444C7.457,2.796,7.708,2.174,8.157,1.716z M14.63,3.444v0.489H9.37V3.444
	c0-0.13,0.05-0.254,0.14-0.346c0.09-0.092,0.211-0.143,0.338-0.143h4.304c0.127,0,0.248,0.052,0.338,0.143
	C14.58,3.19,14.63,3.315,14.63,3.444z M10.804,10.044c0-0.54-0.428-0.978-0.956-0.978c-0.528,0-0.957,0.438-0.957,0.978v7.333
	c0,0.54,0.428,0.978,0.957,0.978c0.528,0,0.956-0.438,0.956-0.978V10.044z M14.152,9.067c0.528,0,0.957,0.438,0.957,0.978v7.333
	c0,0.54-0.428,0.978-0.957,0.978c-0.528,0-0.957-0.438-0.957-0.978v-7.333C13.196,9.504,13.624,9.067,14.152,9.067z M18.399,9.689
	c0.108-1.336,0.255-3.083,0.273-3.234l0.02-0.171h-6.695H5.301l0.017,0.081c0.009,0.045,0.027,0.219,0.039,0.387
	c0.012,0.168,0.046,0.574,0.075,0.901c0.053,0.596,0.879,10.489,0.975,11.675c0.13,1.615,0.14,1.66,0.39,1.778
	c0.117,0.055,0.537,0.06,5.205,0.06c4.763,0,5.086-0.004,5.202-0.063c0.04-0.02,0.073-0.032,0.101-0.05
	c0.171-0.11,0.189-0.46,0.499-4.262c0.031-0.375,0.079-0.951,0.108-1.279s0.085-1.003,0.125-1.498
	c0.04-0.495,0.13-1.566,0.199-2.378C18.305,10.822,18.378,9.947,18.399,9.689z"/>
</svg>
