<svg xmlns="http://www.w3.org/2000/svg" xmlns:xlink="http://www.w3.org/1999/xlink" preserveAspectRatio="xMidYMid" width="15.76" height="20.624" viewBox="0 0 15.76 20.624">
  <defs>
    <style>
      .cls-1 {
        fill: #fff;
        fill-rule: evenodd;
      }
    </style>
  </defs>
  <path d="M7.466,20.635 L3.322,20.635 L0.006,20.635 L0.006,1.643 L4.979,1.643 L4.979,-0.009 L10.782,-0.009 L10.782,1.643 L15.755,1.643 L15.755,20.635 L7.466,20.635 ZM4.150,19.809 L6.637,19.809 L6.637,16.506 L4.150,16.506 L4.150,19.809 ZM9.953,0.817 L5.807,0.817 L5.807,1.643 L9.953,1.643 L9.953,0.817 ZM14.927,2.468 L0.834,2.468 L0.834,19.809 L3.322,19.809 L3.322,15.680 L7.466,15.680 L7.466,19.809 L14.927,19.809 L14.927,2.468 ZM1.663,14.855 L1.663,6.597 L9.123,6.597 L9.123,6.615 L9.127,6.615 L9.127,9.087 L9.123,9.087 L9.123,14.855 L1.663,14.855 ZM8.295,7.423 L2.491,7.423 L2.491,8.249 L8.295,8.249 L8.295,7.423 ZM8.295,9.087 L2.491,9.087 L2.491,14.029 L8.295,14.029 L8.295,9.087 ZM7.333,10.943 L4.990,13.278 L4.696,12.986 L7.041,10.651 L7.333,10.943 ZM7.992,12.352 L6.820,13.520 L6.526,13.228 L7.699,12.060 L7.992,12.352 ZM14.097,5.771 L9.953,5.771 L9.953,3.294 L14.097,3.294 L14.097,5.771 ZM13.269,4.120 L10.782,4.120 L10.782,4.946 L13.269,4.946 L13.269,4.120 ZM14.097,9.900 L9.953,9.900 L9.953,6.597 L14.097,6.597 L14.097,9.900 ZM13.269,7.423 L10.782,7.423 L10.782,9.074 L13.269,9.074 L13.269,7.423 ZM14.097,14.855 L9.953,14.855 L9.953,10.726 L14.097,10.726 L14.097,14.855 ZM13.269,11.552 L10.782,11.552 L10.782,14.029 L13.269,14.029 L13.269,11.552 ZM6.223,3.294 L9.123,3.294 L9.123,5.771 L6.223,5.771 L6.223,3.294 ZM7.052,4.946 L8.295,4.946 L8.295,4.120 L7.052,4.120 L7.052,4.946 ZM1.663,3.294 L4.979,3.294 L4.979,5.771 L1.663,5.771 L1.663,3.294 ZM2.491,4.946 L4.150,4.946 L4.150,4.120 L2.491,4.120 L2.491,4.946 ZM5.393,17.745 L6.223,17.745 L6.223,18.571 L5.393,18.571 L5.393,17.745 Z" class="cls-1"/>
</svg>
