<svg xmlns="http://www.w3.org/2000/svg" xmlns:xlink="http://www.w3.org/1999/xlink" preserveAspectRatio="xMidYMid" width="22" height="21" viewBox="0 0 22 21">
  <defs>
    <style>
      .cls-1 {
        fill: #fff;
        fill-rule: evenodd;
      }
    </style>
  </defs>
  <path d="M21.344,6.492 L21.344,6.500 L20.544,6.500 L20.544,20.851 L1.676,20.851 L1.676,6.500 L0.875,6.500 L0.875,6.492 L0.856,6.492 L0.856,5.672 L0.875,5.672 L0.875,0.344 L21.344,0.344 L21.344,5.672 L21.364,5.672 L21.364,5.979 L21.364,6.492 L21.344,6.492 ZM9.058,20.031 L13.161,20.031 L13.161,15.518 L9.058,15.518 L9.058,20.031 ZM8.649,14.697 L13.571,14.697 L13.571,13.877 L8.649,13.877 L8.649,14.697 ZM2.497,20.031 L8.239,20.031 L8.239,15.518 L7.827,15.518 L7.827,13.056 L14.392,13.056 L14.392,15.518 L13.981,15.518 L13.981,20.031 L19.724,20.031 L19.724,6.500 L13.156,6.500 L9.063,6.500 L2.497,6.500 L2.497,20.031 ZM20.544,1.159 L1.676,1.159 L1.676,5.672 L9.058,5.672 L9.058,6.492 L9.063,6.492 L9.063,5.687 L13.156,5.687 L13.156,6.492 L13.161,6.492 L13.161,5.672 L20.544,5.672 L20.544,1.159 ZM11.110,2.800 C12.238,2.800 13.161,3.753 13.161,4.851 L13.161,5.672 L12.340,5.672 L12.340,4.851 C12.340,3.950 12.013,3.620 11.110,3.620 C10.207,3.620 9.879,3.950 9.879,4.851 L9.879,5.672 L9.058,5.672 L9.058,4.851 C9.058,3.753 9.982,2.800 11.110,2.800 ZM15.212,11.826 L7.008,11.826 L7.008,7.313 L15.212,7.313 L15.212,11.826 ZM14.392,8.133 L7.827,8.133 L7.827,11.005 L14.392,11.005 L14.392,8.133 ZM13.005,8.989 L11.555,10.439 L11.266,10.149 L12.715,8.699 L13.005,8.989 ZM13.946,9.689 L13.075,10.560 L12.786,10.270 L13.655,9.399 L13.946,9.689 ZM3.318,7.313 L6.188,7.313 L6.188,11.826 L3.318,11.826 L3.318,7.313 ZM4.137,11.005 L5.367,11.005 L5.367,8.133 L4.137,8.133 L4.137,11.005 ZM18.902,11.826 L16.031,11.826 L16.031,7.313 L18.902,7.313 L18.902,11.826 ZM18.082,8.133 L16.852,8.133 L16.852,11.005 L18.082,11.005 L18.082,8.133 ZM11.500,17.156 L12.344,17.156 L12.344,18.000 L11.500,18.000 L11.500,17.156 Z" class="cls-1"/>
</svg>
