<svg xmlns="http://www.w3.org/2000/svg" xmlns:xlink="http://www.w3.org/1999/xlink" preserveAspectRatio="xMidYMid" width="20.5" height="20.5" viewBox="0 0 20.5 20.5">
  <defs>
    <style>
      .cls-1 {
        fill: #929292;
        fill-rule: evenodd;
      }
    </style>
  </defs>
  <path d="M19.696,4.912 L19.696,20.507 L16.004,20.507 L16.004,20.509 L11.914,20.509 L11.914,20.507 L8.217,20.507 L8.217,20.509 L0.015,20.509 L0.015,13.123 L0.008,13.123 L0.008,11.892 L0.829,11.892 L0.829,12.722 L8.210,12.722 L8.210,11.890 L0.015,11.890 L0.015,11.081 L8.210,11.081 L8.210,4.912 L7.386,4.912 L7.386,-0.010 L20.511,-0.010 L20.511,4.912 L19.696,4.912 ZM12.723,19.700 L15.194,19.700 L15.194,15.172 L12.723,15.172 L12.723,19.700 ZM9.026,6.159 L9.033,6.159 L9.033,19.687 L11.914,19.687 L11.914,14.362 L16.004,14.362 L16.004,19.687 L18.876,19.687 L18.876,4.918 L18.870,4.918 L18.870,4.912 L18.062,4.912 L17.228,4.912 L16.420,4.912 L16.420,4.918 L15.194,4.918 L15.194,4.912 L14.364,4.912 L13.553,4.912 L12.723,4.912 L12.723,4.918 L11.497,4.918 L11.497,4.912 L10.667,4.912 L9.858,4.912 L9.026,4.912 L9.026,6.159 ZM18.062,4.103 L18.062,3.687 C18.062,3.458 17.874,3.272 17.645,3.272 C17.416,3.272 17.228,3.458 17.228,3.687 L17.228,4.103 L18.062,4.103 ZM14.364,4.103 L14.364,3.676 C14.364,3.453 14.183,3.272 13.959,3.272 C13.736,3.272 13.553,3.453 13.553,3.676 L13.553,4.103 L14.364,4.103 ZM10.667,4.103 L10.667,3.676 C10.667,3.453 10.486,3.272 10.262,3.272 C10.039,3.272 9.858,3.453 9.858,3.676 L9.858,4.103 L10.667,4.103 ZM0.823,13.531 L0.823,19.700 L8.217,19.700 L8.217,13.531 L0.823,13.531 ZM19.701,0.822 L8.217,0.822 L8.217,4.103 L9.026,4.103 L9.026,3.698 C9.026,3.016 9.579,2.462 10.262,2.462 C10.945,2.462 11.497,3.016 11.497,3.698 L11.497,4.103 L12.723,4.103 L12.723,3.687 C12.723,3.007 13.275,2.456 13.954,2.456 C14.633,2.456 15.183,3.007 15.183,3.687 L15.183,4.103 L16.420,4.103 L16.420,3.687 C16.420,3.011 16.969,2.462 17.645,2.462 C18.321,2.462 18.870,3.011 18.870,3.687 L18.870,4.103 L19.701,4.103 L19.701,0.822 ZM4.936,14.778 L7.386,14.778 L7.386,18.453 L4.936,18.453 L4.936,14.778 ZM5.746,17.644 L6.576,17.644 L6.576,15.587 L5.746,15.587 L5.746,17.644 ZM1.655,14.778 L4.105,14.778 L4.105,18.453 L1.655,18.453 L1.655,14.778 ZM2.464,17.644 L3.295,17.644 L3.295,15.587 L2.464,15.587 L2.464,17.644 ZM13.131,9.960 L14.893,8.197 L15.186,8.491 L13.425,10.253 L13.131,9.960 ZM15.599,9.326 L14.670,10.254 L14.359,9.945 L15.288,9.017 L15.599,9.326 ZM10.667,9.025 C10.667,7.213 12.136,5.744 13.948,5.744 C15.760,5.744 17.228,7.213 17.228,9.025 L17.228,11.071 L16.420,11.071 L16.420,9.036 C16.420,7.677 15.318,6.575 13.959,6.575 C12.600,6.575 11.497,7.677 11.497,9.036 L11.497,11.071 L10.673,11.071 L10.673,11.081 L15.589,11.081 L18.062,11.081 L18.062,13.531 L10.673,13.531 L10.673,14.015 C10.673,13.992 10.667,13.970 10.667,13.947 L10.667,13.531 L9.858,13.531 L9.858,11.081 L10.667,11.081 L10.667,9.025 ZM10.673,12.712 L17.235,12.712 L17.235,11.892 L10.673,11.892 L10.673,12.712 ZM13.948,16.812 L14.779,16.812 L14.779,17.644 L13.948,17.644 L13.948,16.812 Z" class="cls-1"/>
</svg>
