<?xml version="1.0" encoding="utf-8"?>
<!-- Generator: Adobe Illustrator 17.0.0, SVG Export Plug-In . SVG Version: 6.00 Build 0)  -->
<!DOCTYPE svg PUBLIC "-//W3C//DTD SVG 1.1//EN" "http://www.w3.org/Graphics/SVG/1.1/DTD/svg11.dtd">
<svg version="1.1" id="Layer_1" xmlns="http://www.w3.org/2000/svg" xmlns:xlink="http://www.w3.org/1999/xlink" x="0px" y="0px"
	 width="24px" height="24px" viewBox="0 0 24 24" enable-background="new 0 0 24 24" xml:space="preserve">
<path d="M20.38,7.191h-1.188V1.249H4.93v5.942H3.742c-1.973,0-3.565,1.592-3.565,3.565v7.131H4.93v4.754h14.261v-4.754h4.754v-7.131
	C23.945,8.784,22.353,7.191,20.38,7.191z M7.307,3.626h9.507v3.565H7.307V3.626z M16.815,17.887v2.377H7.307V15.51h9.507V17.887z
	 M19.192,15.51v-2.377H4.93v2.377H2.554v-4.754c0-0.654,0.535-1.188,1.188-1.188H20.38c0.654,0,1.188,0.535,1.188,1.188v4.754
	H19.192z"/>
<circle cx="19.192" cy="11.351" r="1.188"/>
</svg>
