<svg xmlns="http://www.w3.org/2000/svg" xmlns:xlink="http://www.w3.org/1999/xlink" preserveAspectRatio="xMidYMid" width="18" height="18" viewBox="0 0 18 18">
  <defs>
    <style>
      .cls-1 {
        fill: #929292;
        filter: url(#color-overlay-1);
        fill-rule: evenodd;
      }
    </style>

    <filter id="color-overlay-1" filterUnits="userSpaceOnUse">
      <feFlood flood-color="#38f"/>
      <feComposite operator="in" in2="SourceGraphic"/>
      <feBlend in2="SourceGraphic" result="solidFill"/>
    </filter>
  </defs>
  <path d="M17.000,18.002 L1.000,18.002 C0.448,18.002 0.000,17.555 0.000,17.003 C0.000,16.935 0.009,15.320 0.801,13.739 C1.427,12.488 3.273,11.810 5.829,10.872 L6.261,10.712 L6.261,9.778 C5.833,9.342 5.377,8.646 5.251,7.737 C5.097,7.540 4.969,7.277 4.889,6.938 C4.737,6.298 4.824,5.687 5.104,5.228 C4.831,4.310 4.454,2.820 5.196,1.821 C5.397,1.551 5.737,1.242 6.290,1.105 C6.969,0.284 8.394,-0.002 9.657,0.032 C11.294,0.071 13.153,0.657 13.458,2.183 C13.676,3.266 13.226,4.518 12.926,5.280 C13.182,5.732 13.257,6.321 13.111,6.938 C13.031,7.277 12.903,7.540 12.749,7.737 C12.623,8.646 12.167,9.342 11.739,9.778 L11.739,10.712 L12.169,10.871 C14.725,11.809 16.572,12.488 17.199,13.739 C17.991,15.320 18.000,16.935 18.000,17.003 C18.000,17.555 17.552,18.002 17.000,18.002 ZM2.125,16.005 L15.875,16.005 C15.790,15.596 15.648,15.108 15.410,14.632 C15.138,14.088 13.194,13.375 11.479,12.745 L10.388,12.342 C9.998,12.196 9.739,11.823 9.739,11.407 L9.739,9.324 C9.739,8.990 9.906,8.678 10.185,8.493 C10.196,8.484 10.783,8.054 10.783,7.240 C10.783,6.918 10.935,6.632 11.171,6.450 C11.181,6.401 11.185,6.347 11.185,6.303 C10.935,6.117 10.783,5.822 10.783,5.503 C10.783,5.260 10.855,5.078 10.999,4.715 C11.184,4.251 11.616,3.164 11.498,2.574 C11.477,2.521 11.224,2.266 10.456,2.117 C9.271,1.886 8.126,2.137 7.858,2.356 C7.721,2.756 7.343,3.029 6.913,3.029 C6.801,3.029 6.759,3.047 6.759,3.047 C6.749,3.104 6.663,3.482 7.079,4.853 C7.169,5.147 7.217,5.308 7.217,5.503 C7.217,5.822 7.065,6.117 6.815,6.303 C6.815,6.347 6.819,6.401 6.829,6.450 C7.065,6.632 7.217,6.918 7.217,7.240 C7.217,8.054 7.804,8.484 7.829,8.502 C8.090,8.689 8.261,9.002 8.261,9.324 L8.261,11.407 C8.261,11.823 8.002,12.196 7.612,12.342 L6.520,12.746 C4.805,13.375 2.862,14.088 2.590,14.632 C2.352,15.108 2.209,15.596 2.125,16.005 ZM7.883,2.273 C7.883,2.273 7.883,2.273 7.883,2.273 C7.883,2.273 7.883,2.273 7.883,2.273 Z" class="cls-1"/>
</svg>
