<svg xmlns="http://www.w3.org/2000/svg" width="16" height="16" viewBox="0 0 16 16">
    <g fill="none" fill-rule="evenodd">
        <path fill="none" d="M-4-4h24v24H-4z"/>
        <g fill="#2196F3" fill-rule="nonzero">
            <path d="M15.556 6.222h-1.334v-3.11a.445.445 0 0 0-.13-.315L11.425.13a.445.445 0 0 0-.314-.13H2.222a.444.444 0 0 0-.444.444v5.778H.444A.444.444 0 0 0 0 6.667v6.222c0 .245.199.444.444.444h1.334v2.223c0 .245.199.444.444.444h11.556a.444.444 0 0 0 .444-.444v-2.223h1.334A.444.444 0 0 0 16 12.89V6.667a.444.444 0 0 0-.444-.445zm-4-4.705l1.149 1.15h-1.15v-1.15zM2.666.89h8v2.667h2.667v2.666H2.667V.89zM13.334 15.11H2.667v-1.778h10.666v1.778zm1.778-2.667H.89V7.111H15.11v5.333z"/>
            <path d="M3.111 11.111c0-.338.168-.644.445-.827.276.183.444.49.444.827v.445h.889v-.445a1.87 1.87 0 0 0-.557-1.333c.35-.347.557-.82.557-1.334V8H4v.444a.987.987 0 0 1-.444.827.987.987 0 0 1-.445-.827V8h-.889v.444c0 .513.207.987.557 1.334a1.87 1.87 0 0 0-.557 1.333v.445h.89v-.445zM7.556 10.667H6.222V8h-.889v3.556h2.223zM10.667 10.222a.89.89 0 0 0-.89-.889H8.89c0-.245.2-.444.444-.444h1.334V8H9.333C8.598 8 8 8.598 8 9.333c0 .49.399.89.889.89h.889c0 .244-.2.444-.445.444H8v.889h1.333c.736 0 1.334-.598 1.334-1.334zM12 11.111c0-.338.168-.644.444-.827.277.183.445.49.445.827v.445h.889v-.445a1.87 1.87 0 0 0-.557-1.333c.35-.347.557-.82.557-1.334V8h-.89v.444a.987.987 0 0 1-.444.827.987.987 0 0 1-.444-.827V8h-.889v.444c0 .513.207.987.557 1.334a1.87 1.87 0 0 0-.557 1.333v.445H12v-.445z"/>
        </g>
    </g>
</svg>
