<svg width="24" height="24" viewBox="0 0 24 24" fill="none" xmlns="http://www.w3.org/2000/svg">
<path d="M3 4.5H21C21.2652 4.5 21.5196 4.39464 21.7071 4.20711C21.8946 4.01957 22 3.76522 22 3.5C22 3.23478 21.8946 2.98043 21.7071 2.79289C21.5196 2.60536 21.2652 2.5 21 2.5H3C2.73478 2.5 2.48043 2.60536 2.29289 2.79289C2.10536 2.98043 2 3.23478 2 3.5C2 3.76522 2.10536 4.01957 2.29289 4.20711C2.48043 4.39464 2.73478 4.5 3 4.5Z" fill="black"/>
<path d="M21 11H3C2.73478 11 2.48043 11.1054 2.29289 11.2929C2.10536 11.4804 2 11.7348 2 12C2 12.2652 2.10536 12.5196 2.29289 12.7071C2.48043 12.8946 2.73478 13 3 13H21C21.2652 13 21.5196 12.8946 21.7071 12.7071C21.8946 12.5196 22 12.2652 22 12C22 11.7348 21.8946 11.4804 21.7071 11.2929C21.5196 11.1054 21.2652 11 21 11Z" fill="black"/>
<path d="M21 19.5H3C2.73478 19.5 2.48043 19.6054 2.29289 19.7929C2.10536 19.9804 2 20.2348 2 20.5C2 20.7652 2.10536 21.0196 2.29289 21.2071C2.48043 21.3946 2.73478 21.5 3 21.5H21C21.2652 21.5 21.5196 21.3946 21.7071 21.2071C21.8946 21.0196 22 20.7652 22 20.5C22 20.2348 21.8946 19.9804 21.7071 19.7929C21.5196 19.6054 21.2652 19.5 21 19.5Z" fill="black"/>
<path d="M3 4.5H21C21.2652 4.5 21.5196 4.39464 21.7071 4.20711C21.8946 4.01957 22 3.76522 22 3.5C22 3.23478 21.8946 2.98043 21.7071 2.79289C21.5196 2.60536 21.2652 2.5 21 2.5H3C2.73478 2.5 2.48043 2.60536 2.29289 2.79289C2.10536 2.98043 2 3.23478 2 3.5C2 3.76522 2.10536 4.01957 2.29289 4.20711C2.48043 4.39464 2.73478 4.5 3 4.5Z" fill="black"/>
<path d="M21 11H3C2.73478 11 2.48043 11.1054 2.29289 11.2929C2.10536 11.4804 2 11.7348 2 12C2 12.2652 2.10536 12.5196 2.29289 12.7071C2.48043 12.8946 2.73478 13 3 13H21C21.2652 13 21.5196 12.8946 21.7071 12.7071C21.8946 12.5196 22 12.2652 22 12C22 11.7348 21.8946 11.4804 21.7071 11.2929C21.5196 11.1054 21.2652 11 21 11Z" fill="black"/>
<path d="M21 19.5H3C2.73478 19.5 2.48043 19.6054 2.29289 19.7929C2.10536 19.9804 2 20.2348 2 20.5C2 20.7652 2.10536 21.0196 2.29289 21.2071C2.48043 21.3946 2.73478 21.5 3 21.5H21C21.2652 21.5 21.5196 21.3946 21.7071 21.2071C21.8946 21.0196 22 20.7652 22 20.5C22 20.2348 21.8946 19.9804 21.7071 19.7929C21.5196 19.6054 21.2652 19.5 21 19.5Z" fill="black"/>
</svg>
