<svg width="24" height="24" viewBox="0 0 24 24" fill="none" xmlns="http://www.w3.org/2000/svg">
<path d="M3 4.5H21C21.2652 4.5 21.5196 4.39464 21.7071 4.20711C21.8946 4.01957 22 3.76522 22 3.5C22 3.23478 21.8946 2.98043 21.7071 2.79289C21.5196 2.60536 21.2652 2.5 21 2.5H3C2.73478 2.5 2.48043 2.60536 2.29289 2.79289C2.10536 2.98043 2 3.23478 2 3.5C2 3.76522 2.10536 4.01957 2.29289 4.20711C2.48043 4.39464 2.73478 4.5 3 4.5Z" fill="black"/>
<path d="M18 11H6C5.73478 11 5.48043 11.1054 5.29289 11.2929C5.10536 11.4804 5 11.7348 5 12C5 12.2652 5.10536 12.5196 5.29289 12.7071C5.48043 12.8946 5.73478 13 6 13H18C18.2652 13 18.5196 12.8946 18.7071 12.7071C18.8946 12.5196 19 12.2652 19 12C19 11.7348 18.8946 11.4804 18.7071 11.2929C18.5196 11.1054 18.2652 11 18 11Z" fill="black"/>
<path d="M20 19.5H5C4.73478 19.5 4.48043 19.6054 4.29289 19.7929C4.10536 19.9804 4 20.2348 4 20.5C4 20.7652 4.10536 21.0196 4.29289 21.2071C4.48043 21.3946 4.73478 21.5 5 21.5H20C20.2652 21.5 20.5196 21.3946 20.7071 21.2071C20.8946 21.0196 21 20.7652 21 20.5C21 20.2348 20.8946 19.9804 20.7071 19.7929C20.5196 19.6054 20.2652 19.5 20 19.5Z" fill="black"/>
</svg>
