<svg width="96" height="43" viewBox="0 0 96 43" fill="none" xmlns="http://www.w3.org/2000/svg">
<path d="M1.99835 42.913C1.43835 42.913 0.886353 42.6829 0.490353 42.2421C-0.233647 41.4307 -0.145647 40.2019 0.686353 39.4881L46.6864 0.479802C47.4384 -0.159934 48.5584 -0.159934 49.3104 0.479802L59.9984 9.54142V1.95431C59.9984 0.877686 60.8984 0.00389999 61.9984 0.00389999H73.9984C75.0984 0.00389999 75.9984 0.881586 75.9984 1.95431V23.1163L95.3103 39.492C96.1423 40.2019 96.2304 41.4346 95.5064 42.2499C94.7824 43.0651 93.5144 43.1432 92.6824 42.441L72.6824 25.4802C72.2504 25.1057 71.9944 24.5752 71.9944 24.0096V3.90473H63.9944V13.8206C63.9944 14.5852 63.5384 15.2756 62.8264 15.5955C62.1184 15.9115 61.2784 15.7945 60.6824 15.2912L47.9944 4.53666L3.30635 42.4332C2.93035 42.757 2.46635 42.913 1.99835 42.913Z" fill="#EAEAEA"/>
</svg>
