<?xml version="1.0" encoding="UTF-8"?>
<svg width="84px" height="16px" viewBox="0 0 84 16" version="1.1" xmlns="http://www.w3.org/2000/svg" xmlns:xlink="http://www.w3.org/1999/xlink">
    <!-- Generator: Sketch 51.3 (57544) - http://www.bohemiancoding.com/sketch -->
    <title>date_signed</title>
    <desc>Created with Sketch.</desc>
    <defs></defs>
    <g id="Page-1" stroke="none" stroke-width="1" fill="none" fill-rule="evenodd">
        <g id="date_signed">
            <rect id="Rectangle" fill="#FEC008" fill-rule="nonzero" x="0" y="0" width="84" height="16"></rect>
            <path d="M7.164,13 C7.10799972,13 7.06400016,12.9840002 7.032,12.952 C6.99999984,12.9199998 6.984,12.8760003 6.984,12.82 L6.984,4.78 C6.984,4.72399972 6.99999984,4.68000016 7.032,4.648 C7.06400016,4.61599984 7.10799972,4.6 7.164,4.6 L10.008,4.6 C10.8400042,4.6 11.5039975,4.81799782 12,5.254 C12.4960025,5.69000218 12.744,6.27199636 12.744,7 L12.744,10.6 C12.744,11.3280036 12.4960025,11.9099978 12,12.346 C11.5039975,12.7820022 10.8400042,13 10.008,13 L7.164,13 Z M8.136,11.944 C8.136,11.9840002 8.1559998,12.004 8.196,12.004 L10.056,12.004 C10.5200023,12.004 10.8899986,11.8620014 11.166,11.578 C11.4420014,11.2939986 11.584,10.9120024 11.592,10.432 L11.592,7.168 C11.592,6.6879976 11.4540014,6.30600142 11.178,6.022 C10.9019986,5.73799858 10.5280024,5.596 10.056,5.596 L8.196,5.596 C8.1559998,5.596 8.136,5.6159998 8.136,5.656 L8.136,11.944 Z M17.44,6.796 C17.9280024,6.796 18.3539982,6.88199914 18.718,7.054 C19.0820018,7.22600086 19.361999,7.46599846 19.558,7.774 C19.754001,8.08200154 19.852,8.43199804 19.852,8.824 L19.852,12.82 C19.852,12.8760003 19.8360002,12.9199998 19.804,12.952 C19.7719998,12.9840002 19.7280003,13 19.672,13 L18.88,13 C18.8239997,13 18.7800002,12.9840002 18.748,12.952 C18.7159998,12.9199998 18.7,12.8760003 18.7,12.82 L18.7,12.484 C18.7,12.4599999 18.6920001,12.444 18.676,12.436 C18.6599999,12.428 18.6440001,12.4319999 18.628,12.448 C18.4039989,12.656001 18.1380015,12.8159994 17.83,12.928 C17.5219985,13.0400006 17.1880018,13.096 16.828,13.096 C16.2439971,13.096 15.7640019,12.9460015 15.388,12.646 C15.0119981,12.3459985 14.824,11.892003 14.824,11.284 C14.824,10.6599969 15.0419978,10.1700018 15.478,9.814 C15.9140022,9.45799822 16.5239961,9.28 17.308,9.28 L18.64,9.28 C18.6800002,9.28 18.7,9.2600002 18.7,9.22 L18.7,8.908 C18.7,8.55599824 18.598001,8.28200098 18.394,8.086 C18.189999,7.88999902 17.8800021,7.792 17.464,7.792 C17.1359984,7.792 16.870001,7.8519994 16.666,7.972 C16.461999,8.0920006 16.3280003,8.25999892 16.264,8.476 C16.2319998,8.58000052 16.1640005,8.62800004 16.06,8.62 L15.196,8.512 C15.1399997,8.50399996 15.0960002,8.48600014 15.064,8.458 C15.0319998,8.42999986 15.02,8.3960002 15.028,8.356 C15.1000004,7.89999772 15.3579978,7.52600146 15.802,7.234 C16.2460022,6.94199854 16.7919968,6.796 17.44,6.796 Z M17.116,12.124 C17.5400021,12.124 17.9099984,12.0120011 18.226,11.788 C18.5420016,11.5639989 18.7,11.2800017 18.7,10.936 L18.7,10.24 C18.7,10.1999998 18.6800002,10.18 18.64,10.18 L17.524,10.18 C17.0519976,10.18 16.6760014,10.2719991 16.396,10.456 C16.1159986,10.6400009 15.976,10.8959984 15.976,11.224 C15.976,11.5200015 16.0819989,11.7439992 16.294,11.896 C16.5060011,12.0480008 16.7799983,12.124 17.116,12.124 Z M25.328,7.66 C25.328,7.71600028 25.3120002,7.75999984 25.28,7.792 C25.2479998,7.82400016 25.2040003,7.84 25.148,7.84 L23.924,7.84 C23.8839998,7.84 23.864,7.8599998 23.864,7.9 L23.864,11.032 C23.864,11.3760017 23.9379993,11.6199993 24.086,11.764 C24.2340007,11.9080007 24.4719984,11.98 24.8,11.98 L25.088,11.98 C25.1440003,11.98 25.1879998,11.9959998 25.22,12.028 C25.2520002,12.0600002 25.268,12.1039997 25.268,12.16 L25.268,12.784 C25.268,12.8960006 25.2080006,12.9599999 25.088,12.976 L24.596,12.988 C23.9799969,12.988 23.5200015,12.8800011 23.216,12.664 C22.9119985,12.4479989 22.76,12.044003 22.76,11.452 L22.76,7.9 C22.76,7.8599998 22.7400002,7.84 22.7,7.84 L22.04,7.84 C21.9839997,7.84 21.9400002,7.82400016 21.908,7.792 C21.8759998,7.75999984 21.86,7.71600028 21.86,7.66 L21.86,7.072 C21.86,7.01599972 21.8759998,6.97200016 21.908,6.94 C21.9400002,6.90799984 21.9839997,6.892 22.04,6.892 L22.7,6.892 C22.7400002,6.892 22.76,6.8720002 22.76,6.832 L22.76,5.488 C22.76,5.43199972 22.7759998,5.38800016 22.808,5.356 C22.8400002,5.32399984 22.8839997,5.308 22.94,5.308 L23.684,5.308 C23.7400003,5.308 23.7839998,5.32399984 23.816,5.356 C23.8480002,5.38800016 23.864,5.43199972 23.864,5.488 L23.864,6.832 C23.864,6.8720002 23.8839998,6.892 23.924,6.892 L25.148,6.892 C25.2040003,6.892 25.2479998,6.90799984 25.28,6.94 C25.3120002,6.97200016 25.328,7.01599972 25.328,7.072 L25.328,7.66 Z M30.168,12.112 C30.8160032,12.104 31.2799986,11.8520025 31.56,11.356 C31.6000002,11.2839996 31.6439998,11.248 31.692,11.248 C31.7320002,11.248 31.7679998,11.2599999 31.8,11.284 L32.292,11.584 C32.3560003,11.6240002 32.388,11.6759997 32.388,11.74 L32.364,11.836 C32.1479989,12.228002 31.842002,12.5359989 31.446,12.76 C31.049998,12.9840011 30.5880026,13.096 30.06,13.096 C29.4919972,13.096 29.012002,12.9700013 28.62,12.718 C28.227998,12.4659987 27.932001,12.1040024 27.732,11.632 C27.531999,11.1439976 27.432,10.5720033 27.432,9.916 C27.432,9.33199708 27.4759996,8.88800152 27.564,8.584 C27.7080007,8.03199724 27.9959978,7.5960016 28.428,7.276 C28.8600022,6.9559984 29.3839969,6.796 30,6.796 C30.7600038,6.796 31.339998,6.99399802 31.74,7.39 C32.140002,7.78600198 32.3999994,8.35999624 32.52,9.112 C32.5600002,9.40800148 32.5879999,9.76799788 32.604,10.192 C32.604,10.3120006 32.5440006,10.372 32.424,10.372 L28.632,10.372 C28.5919998,10.372 28.572,10.3919998 28.572,10.432 C28.5880001,10.7360015 28.6159998,10.9519994 28.656,11.08 C28.7440004,11.4000016 28.9199987,11.6519991 29.184,11.836 C29.4480013,12.0200009 29.775998,12.112 30.168,12.112 Z M30,7.792 C29.6479982,7.792 29.3620011,7.87599916 29.142,8.044 C28.9219989,8.21200084 28.7720004,8.44399852 28.692,8.74 C28.6359997,8.91600088 28.6000001,9.13999864 28.584,9.412 C28.584,9.4520002 28.6039998,9.472 28.644,9.472 L31.368,9.472 C31.4080002,9.472 31.428,9.4520002 31.428,9.412 C31.4119999,9.14799868 31.3880002,8.95200064 31.356,8.824 C31.2759996,8.51199844 31.1180012,8.26200094 30.882,8.074 C30.6459988,7.88599906 30.3520018,7.792 30,7.792 Z M41.192,13.096 C40.591997,13.096 40.0680022,13.000001 39.62,12.808 C39.1719978,12.615999 38.8260012,12.3440018 38.582,11.992 C38.3379988,11.6399982 38.216,11.2280024 38.216,10.756 L38.216,10.468 C38.216,10.4119997 38.2319998,10.3680002 38.264,10.336 C38.2960002,10.3039998 38.3399997,10.288 38.396,10.288 L39.164,10.288 C39.2200003,10.288 39.2639998,10.3039998 39.296,10.336 C39.3280002,10.3680002 39.344,10.4119997 39.344,10.468 L39.344,10.696 C39.344,11.104002 39.5199982,11.4399987 39.872,11.704 C40.2240018,11.9680013 40.6919971,12.1 41.276,12.1 C41.8280028,12.1 42.2439986,11.9840012 42.524,11.752 C42.8040014,11.5199988 42.944,11.2160019 42.944,10.84 C42.944,10.5919988 42.8720007,10.3800009 42.728,10.204 C42.5839993,10.0279991 42.3740014,9.86600074 42.098,9.718 C41.8219986,9.56999926 41.4200026,9.39200104 40.892,9.184 C40.3079971,8.95999888 39.8460017,8.75600092 39.506,8.572 C39.1659983,8.38799908 38.8840011,8.1460015 38.66,7.846 C38.4359989,7.5459985 38.324,7.16800228 38.324,6.712 C38.324,6.02399656 38.5699975,5.48400196 39.062,5.092 C39.5540025,4.69999804 40.2199958,4.504 41.06,4.504 C41.652003,4.504 42.1719978,4.603999 42.62,4.804 C43.0680022,5.004001 43.4139988,5.2839982 43.658,5.644 C43.9020012,6.0040018 44.024,6.41999764 44.024,6.892 L44.024,7.072 C44.024,7.12800028 44.0080002,7.17199984 43.976,7.204 C43.9439998,7.23600016 43.9000003,7.252 43.844,7.252 L43.064,7.252 C43.0079997,7.252 42.9640002,7.23800014 42.932,7.21 C42.8999998,7.18199986 42.884,7.14400024 42.884,7.096 L42.884,6.952 C42.884,6.53599792 42.7180017,6.19000138 42.386,5.914 C42.0539983,5.63799862 41.5960029,5.5 41.012,5.5 C40.5159975,5.5 40.1320014,5.60199898 39.86,5.806 C39.5879986,6.01000102 39.452,6.30399808 39.452,6.688 C39.452,6.95200132 39.5199993,7.16799916 39.656,7.336 C39.7920007,7.50400084 39.9939987,7.65399934 40.262,7.786 C40.5300013,7.91800066 40.9399972,8.08799896 41.492,8.296 C42.0600028,8.52000112 42.5199982,8.72599906 42.872,8.914 C43.2240018,9.10200094 43.5159988,9.34999846 43.748,9.658 C43.9800012,9.96600154 44.096,10.3479977 44.096,10.804 C44.096,11.2600023 43.9800012,11.6599983 43.748,12.004 C43.5159988,12.3480017 43.1800022,12.615999 42.74,12.808 C42.2999978,13.000001 41.784003,13.096 41.192,13.096 Z M47.184,5.98 C46.9519988,5.98 46.7620007,5.9100007 46.614,5.77 C46.4659993,5.6299993 46.392,5.44800112 46.392,5.224 C46.392,4.99999888 46.4659993,4.8180007 46.614,4.678 C46.7620007,4.5379993 46.9519988,4.468 47.184,4.468 C47.4160012,4.468 47.6039993,4.5379993 47.748,4.678 C47.8920007,4.8180007 47.964,4.99999888 47.964,5.224 C47.964,5.44800112 47.8920007,5.6299993 47.748,5.77 C47.6039993,5.9100007 47.4160012,5.98 47.184,5.98 Z M46.788,13 C46.7319997,13 46.6880002,12.9840002 46.656,12.952 C46.6239998,12.9199998 46.608,12.8760003 46.608,12.82 L46.608,7.072 C46.608,7.01599972 46.6239998,6.97200016 46.656,6.94 C46.6880002,6.90799984 46.7319997,6.892 46.788,6.892 L47.58,6.892 C47.6360003,6.892 47.6799998,6.90799984 47.712,6.94 C47.7440002,6.97200016 47.76,7.01599972 47.76,7.072 L47.76,12.82 C47.76,12.8760003 47.7440002,12.9199998 47.712,12.952 C47.6799998,12.9840002 47.6360003,13 47.58,13 L46.788,13 Z M54.28,7.072 C54.28,7.01599972 54.2959998,6.97200016 54.328,6.94 C54.3600002,6.90799984 54.4039997,6.892 54.46,6.892 L55.252,6.892 C55.3080003,6.892 55.3519998,6.90799984 55.384,6.94 C55.4160002,6.97200016 55.432,7.01599972 55.432,7.072 L55.432,12.688 C55.432,13.6480048 55.1580027,14.3379979 54.61,14.758 C54.0619973,15.1780021 53.3320046,15.388 52.42,15.388 C52.2919994,15.388 52.1080012,15.3800001 51.868,15.364 C51.7559994,15.364 51.7,15.3000006 51.7,15.172 L51.724,14.464 C51.724,14.4079997 51.7439998,14.3640002 51.784,14.332 C51.8240002,14.2999998 51.8719997,14.288 51.928,14.296 C52.0400006,14.304 52.195999,14.308 52.396,14.308 C53.0600033,14.308 53.5399985,14.1820013 53.836,13.93 C54.1320015,13.6779987 54.28,13.252003 54.28,12.652 L54.28,12.448 C54.28,12.4239999 54.2720001,12.41 54.256,12.406 C54.2399999,12.402 54.2240001,12.4079999 54.208,12.424 C53.8639983,12.8080019 53.3760032,13 52.744,13 C52.2239974,13 51.7540021,12.8640014 51.334,12.592 C50.9139979,12.3199986 50.6240008,11.9200026 50.464,11.392 C50.3599995,11.0399982 50.308,10.5520031 50.308,9.928 C50.308,9.26399668 50.3679994,8.7520018 50.488,8.392 C50.6400008,7.9119976 50.9099981,7.52600146 51.298,7.234 C51.6860019,6.94199854 52.1439974,6.796 52.672,6.796 C53.3280033,6.796 53.8399982,6.99199804 54.208,7.384 C54.2240001,7.40800012 54.2399999,7.41600004 54.256,7.408 C54.2720001,7.39999996 54.28,7.38400012 54.28,7.36 L54.28,7.072 Z M54.208,11.044 C54.2320001,10.9159994 54.2499999,10.7800007 54.262,10.636 C54.2740001,10.4919993 54.28,10.2520017 54.28,9.916 C54.28,9.57999832 54.2740001,9.3420007 54.262,9.202 C54.2499999,9.0619993 54.2280002,8.92800064 54.196,8.8 C54.1319997,8.50399852 53.9880011,8.26200094 53.764,8.074 C53.5399989,7.88599906 53.2600017,7.792 52.924,7.792 C52.5879983,7.792 52.3080011,7.88599906 52.084,8.074 C51.8599989,8.26200094 51.7000005,8.50399852 51.604,8.8 C51.5159996,9.0400012 51.472,9.41199748 51.472,9.916 C51.472,10.4680028 51.5119996,10.843999 51.592,11.044 C51.6720004,11.3400015 51.8299988,11.5819991 52.066,11.77 C52.3020012,11.9580009 52.5879983,12.052 52.924,12.052 C53.2760018,12.052 53.5619989,11.9580009 53.782,11.77 C54.0020011,11.5819991 54.1439997,11.3400015 54.208,11.044 Z M60.764,6.808 C61.4200033,6.808 61.9399981,6.9979981 62.324,7.378 C62.7080019,7.7580019 62.9,8.27199676 62.9,8.92 L62.9,12.82 C62.9,12.8760003 62.8840002,12.9199998 62.852,12.952 C62.8199998,12.9840002 62.7760003,13 62.72,13 L61.928,13 C61.8719997,13 61.8280002,12.9840002 61.796,12.952 C61.7639998,12.9199998 61.748,12.8760003 61.748,12.82 L61.748,9.148 C61.748,8.747998 61.6320012,8.42400124 61.4,8.176 C61.1679988,7.92799876 60.8600019,7.804 60.476,7.804 C60.1319983,7.804 59.8420012,7.90599898 59.606,8.11 C59.3699988,8.31400102 59.2320002,8.58799828 59.192,8.932 L59.192,12.82 C59.192,12.8760003 59.1760002,12.9199998 59.144,12.952 C59.1119998,12.9840002 59.0680003,13 59.012,13 L58.22,13 C58.1639997,13 58.1200002,12.9840002 58.088,12.952 C58.0559998,12.9199998 58.04,12.8760003 58.04,12.82 L58.04,7.072 C58.04,7.01599972 58.0559998,6.97200016 58.088,6.94 C58.1200002,6.90799984 58.1639997,6.892 58.22,6.892 L59.012,6.892 C59.0680003,6.892 59.1119998,6.90799984 59.144,6.94 C59.1760002,6.97200016 59.192,7.01599972 59.192,7.072 L59.192,7.408 C59.192,7.43200012 59.1999999,7.44799996 59.216,7.456 C59.2320001,7.46400004 59.244,7.46000008 59.252,7.444 C59.5880017,7.01999788 60.0919966,6.808 60.764,6.808 Z M68.112,12.112 C68.7600032,12.104 69.2239986,11.8520025 69.504,11.356 C69.5440002,11.2839996 69.5879998,11.248 69.636,11.248 C69.6760002,11.248 69.7119998,11.2599999 69.744,11.284 L70.236,11.584 C70.3000003,11.6240002 70.332,11.6759997 70.332,11.74 L70.308,11.836 C70.0919989,12.228002 69.786002,12.5359989 69.39,12.76 C68.993998,12.9840011 68.5320026,13.096 68.004,13.096 C67.4359972,13.096 66.956002,12.9700013 66.564,12.718 C66.171998,12.4659987 65.876001,12.1040024 65.676,11.632 C65.475999,11.1439976 65.376,10.5720033 65.376,9.916 C65.376,9.33199708 65.4199996,8.88800152 65.508,8.584 C65.6520007,8.03199724 65.9399978,7.5960016 66.372,7.276 C66.8040022,6.9559984 67.3279969,6.796 67.944,6.796 C68.7040038,6.796 69.283998,6.99399802 69.684,7.39 C70.084002,7.78600198 70.3439994,8.35999624 70.464,9.112 C70.5040002,9.40800148 70.5319999,9.76799788 70.548,10.192 C70.548,10.3120006 70.4880006,10.372 70.368,10.372 L66.576,10.372 C66.5359998,10.372 66.516,10.3919998 66.516,10.432 C66.5320001,10.7360015 66.5599998,10.9519994 66.6,11.08 C66.6880004,11.4000016 66.8639987,11.6519991 67.128,11.836 C67.3920013,12.0200009 67.719998,12.112 68.112,12.112 Z M67.944,7.792 C67.5919982,7.792 67.3060011,7.87599916 67.086,8.044 C66.8659989,8.21200084 66.7160004,8.44399852 66.636,8.74 C66.5799997,8.91600088 66.5440001,9.13999864 66.528,9.412 C66.528,9.4520002 66.5479998,9.472 66.588,9.472 L69.312,9.472 C69.3520002,9.472 69.372,9.4520002 69.372,9.412 C69.3559999,9.14799868 69.3320002,8.95200064 69.3,8.824 C69.2199996,8.51199844 69.0620012,8.26200094 68.826,8.074 C68.5899988,7.88599906 68.2960018,7.792 67.944,7.792 Z M76.72,4.78 C76.72,4.72399972 76.7359998,4.68000016 76.768,4.648 C76.8000002,4.61599984 76.8439997,4.6 76.9,4.6 L77.692,4.6 C77.7480003,4.6 77.7919998,4.61599984 77.824,4.648 C77.8560002,4.68000016 77.872,4.72399972 77.872,4.78 L77.872,12.82 C77.872,12.8760003 77.8560002,12.9199998 77.824,12.952 C77.7919998,12.9840002 77.7480003,13 77.692,13 L76.9,13 C76.8439997,13 76.8000002,12.9840002 76.768,12.952 C76.7359998,12.9199998 76.72,12.8760003 76.72,12.82 L76.72,12.508 C76.72,12.4839999 76.7120001,12.468 76.696,12.46 C76.6799999,12.452 76.6640001,12.4559999 76.648,12.472 C76.4719991,12.672001 76.2660012,12.8259995 76.03,12.934 C75.7939988,13.0420005 75.5360014,13.096 75.256,13.096 C74.6799971,13.096 74.2020019,12.9540014 73.822,12.67 C73.4419981,12.3859986 73.1640009,11.9840026 72.988,11.464 C72.8439993,11.063998 72.772,10.5520031 72.772,9.928 C72.772,9.34399708 72.8319994,8.86000192 72.952,8.476 C73.1200008,7.94799736 73.3979981,7.53600148 73.786,7.24 C74.1740019,6.94399852 74.663997,6.796 75.256,6.796 C75.5360014,6.796 75.7939988,6.84799948 76.03,6.952 C76.2660012,7.05600052 76.4719991,7.207999 76.648,7.408 C76.6640001,7.42400008 76.6799999,7.43000002 76.696,7.426 C76.7120001,7.42199998 76.72,7.40800012 76.72,7.384 L76.72,4.78 Z M76.42,11.452 C76.612001,11.0999982 76.708,10.5960033 76.708,9.94 C76.708,9.28399672 76.604001,8.77200184 76.396,8.404 C76.1639988,7.99599796 75.8240022,7.792 75.376,7.792 C74.9119977,7.792 74.5560012,7.98399808 74.308,8.368 C74.0519987,8.768002 73.924,9.29599672 73.924,9.952 C73.924,10.5680031 74.023999,11.0639981 74.224,11.44 C74.4560012,11.8800022 74.8399973,12.1 75.376,12.1 C75.8320023,12.1 76.1799988,11.8840022 76.42,11.452 Z" id="Date-Signed" fill="#000000"></path>
        </g>
    </g>
</svg>