<svg width="24" height="24" viewBox="0 0 24 24" xmlns="http://www.w3.org/2000/svg">
<path fill-rule="evenodd" clip-rule="evenodd" d="M3 3V21H21V3H3ZM1 2.88889C1 1.84568 1.84568 1 2.88889 1H21.1111C22.1543 1 23 1.84568 23 2.88889V21.1111C23 22.1543 22.1543 23 21.1111 23H2.88889C1.84568 23 1 22.1543 1 21.1111V2.88889Z"/>
<path fill-rule="evenodd" clip-rule="evenodd" d="M16.5 11.25C16.3011 11.25 16.1103 11.329 15.9697 11.4697C15.829 11.6103 15.75 11.8011 15.75 12V18C15.75 18.4142 15.4142 18.75 15 18.75C14.5858 18.75 14.25 18.4142 14.25 18V12C14.25 11.4033 14.4871 10.831 14.909 10.409C15.331 9.98705 15.9033 9.75 16.5 9.75H18C18.4142 9.75 18.75 10.0858 18.75 10.5C18.75 10.9142 18.4142 11.25 18 11.25H16.5Z"/>
<path fill-rule="evenodd" clip-rule="evenodd" d="M14.25 15C14.25 14.5858 14.5858 14.25 15 14.25H17.25C17.6642 14.25 18 14.5858 18 15C18 15.4142 17.6642 15.75 17.25 15.75H15C14.5858 15.75 14.25 15.4142 14.25 15Z"/>
<path fill-rule="evenodd" clip-rule="evenodd" d="M12 9.75C12.4142 9.75 12.75 10.0858 12.75 10.5V18C12.75 18.4142 12.4142 18.75 12 18.75C11.5858 18.75 11.25 18.4142 11.25 18V10.5C11.25 10.0858 11.5858 9.75 12 9.75Z"/>
<path fill-rule="evenodd" clip-rule="evenodd" d="M7.5 11.25C7.30109 11.25 7.11032 11.329 6.96967 11.4697C6.82902 11.6103 6.75 11.8011 6.75 12V16.5C6.75 16.6989 6.82902 16.8897 6.96967 17.0303C7.11032 17.171 7.30109 17.25 7.5 17.25C7.69891 17.25 7.88968 17.171 8.03033 17.0303C8.17098 16.8897 8.25 16.6989 8.25 16.5V15.75C7.83579 15.75 7.5 15.4142 7.5 15C7.5 14.5858 7.83579 14.25 8.25 14.25H9C9.41421 14.25 9.75 14.5858 9.75 15V16.5C9.75 17.0967 9.51295 17.669 9.09099 18.091C8.66903 18.5129 8.09674 18.75 7.5 18.75C6.90326 18.75 6.33097 18.5129 5.90901 18.091C5.48705 17.669 5.25 17.0967 5.25 16.5V12C5.25 11.4033 5.48705 10.831 5.90901 10.409C6.33097 9.98705 6.90326 9.75 7.5 9.75H9C9.41421 9.75 9.75 10.0858 9.75 10.5C9.75 10.9142 9.41421 11.25 9 11.25H7.5Z"/>
</svg>
