<svg width="24" height="24" viewBox="0 0 24 24" fill="black" xmlns="http://www.w3.org/2000/svg">
<path d="M21.6585 2H2.34146C1.72047 2 1.12491 2.24669 0.685799 2.6858C0.246689 3.12491 0 3.72047 0 4.34146V20.1463C0 20.7673 0.246689 21.3629 0.685799 21.802C1.12491 22.2411 1.72047 22.4878 2.34146 22.4878H21.6585C22.2795 22.4878 22.8751 22.2411 23.3142 21.802C23.7533 21.3629 24 20.7673 24 20.1463V4.34146C24 3.72047 23.7533 3.12491 23.3142 2.6858C22.8751 2.24669 22.2795 2 21.6585 2ZM21.0732 4.34146C21.2284 4.34146 21.3773 4.40314 21.4871 4.51291C21.5969 4.62269 21.6585 4.77158 21.6585 4.92683V5.16098C21.6585 5.25738 21.6346 5.35227 21.5891 5.43723C21.5435 5.5222 21.4777 5.59459 21.3975 5.648L12.5912 11.5122C12.4972 11.5749 12.387 11.609 12.274 11.6105C12.161 11.6119 12.05 11.5807 11.9543 11.5204L2.61424 5.62224C2.53066 5.56945 2.4618 5.49635 2.4141 5.40975C2.3664 5.32315 2.34141 5.22589 2.34146 5.12702V4.92683C2.34146 4.77158 2.40314 4.62269 2.51291 4.51291C2.62269 4.40314 2.77158 4.34146 2.92683 4.34146H21.0732ZM2.92683 20.1463C2.77158 20.1463 2.62269 20.0847 2.51291 19.9749C2.40314 19.8651 2.34146 19.7162 2.34146 19.561V9.28078C2.34224 9.17643 2.3709 9.07418 2.42448 8.98463C2.47806 8.89507 2.5546 8.82147 2.64618 8.77144C2.73776 8.72141 2.84105 8.69677 2.94536 8.70008C3.04966 8.70338 3.15119 8.73451 3.23941 8.79024L11.6687 14.1124C11.8555 14.2301 12.0718 14.2926 12.2927 14.2927C12.5238 14.2921 12.7498 14.2237 12.9424 14.096L20.7489 8.89093C20.8369 8.83238 20.9391 8.79874 21.0446 8.79358C21.1502 8.78842 21.2552 8.81194 21.3484 8.86164C21.4417 8.91134 21.5198 8.98536 21.5744 9.07585C21.629 9.16634 21.6581 9.26993 21.6585 9.37561V19.561C21.6585 19.7162 21.5969 19.8651 21.4871 19.9749C21.3773 20.0847 21.2284 20.1463 21.0732 20.1463H2.92683Z"/>
</svg>
