<svg width="24" height="24" viewBox="0 0 24 24" fill="none" xmlns="http://www.w3.org/2000/svg">
<path d="M20.5 3H4C3.46957 3 2.96086 3.21071 2.58579 3.58579C2.21071 3.96086 2 4.46957 2 5V18.5C2 19.0304 2.21071 19.5391 2.58579 19.9142C2.96086 20.2893 3.46957 20.5 4 20.5H20.5C21.0304 20.5 21.5391 20.2893 21.9142 19.9142C22.2893 19.5391 22.5 19.0304 22.5 18.5V5C22.5 4.46957 22.2893 3.96086 21.9142 3.58579C21.5391 3.21071 21.0304 3 20.5 3ZM20 5C20.1326 5 20.2598 5.05268 20.3536 5.14645C20.4473 5.24021 20.5 5.36739 20.5 5.5V5.7C20.5 5.78234 20.4796 5.8634 20.4407 5.93597C20.4018 6.00854 20.3456 6.07038 20.277 6.116L12.755 11.125C12.6747 11.1786 12.5806 11.2077 12.484 11.209C12.3875 11.2102 12.2927 11.1835 12.211 11.132L4.233 6.094C4.1616 6.04891 4.10279 5.98646 4.06205 5.9125C4.0213 5.83853 3.99996 5.75545 4 5.671V5.5C4 5.36739 4.05268 5.24021 4.14645 5.14645C4.24021 5.05268 4.36739 5 4.5 5H20ZM4.5 18.5C4.36739 18.5 4.24021 18.4473 4.14645 18.3536C4.05268 18.2598 4 18.1326 4 18V9.219C4.00067 9.12986 4.02515 9.04253 4.07091 8.96603C4.11667 8.88954 4.18205 8.82667 4.26028 8.78394C4.33851 8.74121 4.42673 8.72016 4.51583 8.72298C4.60492 8.72581 4.69164 8.7524 4.767 8.8L11.967 13.346C12.1266 13.4466 12.3114 13.5 12.5 13.5C12.6975 13.4995 12.8904 13.4411 13.055 13.332L19.723 8.886C19.7982 8.83599 19.8854 8.80725 19.9756 8.80285C20.0658 8.79845 20.1555 8.81853 20.2351 8.86098C20.3148 8.90343 20.3815 8.96666 20.4281 9.04396C20.4748 9.12125 20.4996 9.20973 20.5 9.3V18C20.5 18.1326 20.4473 18.2598 20.3536 18.3536C20.2598 18.4473 20.1326 18.5 20 18.5H4.5Z" fill="black"/>
</svg>
