<svg width="24" height="24" viewBox="0 0 24 24" fill="black" xmlns="http://www.w3.org/2000/svg">
<path d="M17.7 17.838C17.6243 17.6553 17.4961 17.4992 17.3316 17.3894C17.1671 17.2795 16.9738 17.221 16.776 17.221H13.75C13.7171 17.2211 13.6846 17.2148 13.6542 17.2022C13.6238 17.1897 13.5962 17.1713 13.5729 17.1481C13.5497 17.1248 13.5313 17.0972 13.5188 17.0668C13.5063 17.0364 13.4999 17.0039 13.5 16.971V1.5C13.5 1.10218 13.342 0.720644 13.0607 0.43934C12.7794 0.158035 12.3978 0 12 0C11.6022 0 11.2207 0.158035 10.9394 0.43934C10.6581 0.720644 10.5 1.10218 10.5 1.5V16.971C10.5 17.0373 10.4737 17.1009 10.4268 17.1478C10.3799 17.1947 10.3163 17.221 10.25 17.221H7.22202C7.02427 17.221 6.83097 17.2797 6.66656 17.3896C6.50215 17.4995 6.37401 17.6556 6.29834 17.8383C6.22267 18.021 6.20286 18.2221 6.24143 18.416C6.28 18.61 6.37521 18.7881 6.51502 18.928L11.292 23.706C11.3849 23.799 11.4952 23.8727 11.6166 23.9231C11.738 23.9734 11.8681 23.9993 11.9995 23.9993C12.1309 23.9993 12.2611 23.9734 12.3825 23.9231C12.5039 23.8727 12.6141 23.799 12.707 23.706L17.485 18.928C17.6246 18.7879 17.7195 18.6096 17.7578 18.4156C17.7961 18.2216 17.776 18.0206 17.7 17.838Z" />
</svg>
