<?xml version="1.0" encoding="UTF-8"?>
<svg width="24px" height="24px" viewBox="0 0 24 24" version="1.1" xmlns="http://www.w3.org/2000/svg" xmlns:xlink="http://www.w3.org/1999/xlink">
    <!-- Generator: Sketch 42 (36781) - http://www.bohemiancoding.com/sketch -->
    <title>Deals</title>
    <desc>Created with Sketch.</desc>
    <defs></defs>
    <g id="Deals" stroke="none" stroke-width="1" fill="none" fill-rule="evenodd">
        <g id="Web-Agent-Deals-Dashboard" transform="translate(-23.000000, -230.000000)">
            <g id="Side-Nav">
                <g id="Deals" transform="translate(23.000000, 230.000000)">
                    <g id="Group">
                        <g id="Filled_Icons" fill="#2196F3">
                            <g id="Group">
                                <path d="M17,10.026 L17,5.5 C17,5.367 16.947,5.24 16.854,5.147 L11.854,0.147 C11.76,0.053 11.632,0 11.5,0 L0.5,0 C0.224,0 0,0.224 0,0.5 L0,21.5 C0,21.776 0.224,22 0.5,22 L11.514,22 C10.568,20.744 10,19.19 10,17.5 C10,13.533 13.098,10.284 17,10.026 Z M11,1 L16,6 L11,6 L11,1 Z" id="Shape"></path>
                                <path d="M17.5,11 C13.916,11 11,13.915 11,17.5 C11,21.084 13.916,24 17.5,24 C21.084,24 24,21.084 24,17.5 C24,13.915 21.084,11 17.5,11 Z M17.5,16.928 C18.543,16.928 19.391,17.777 19.391,18.821 C19.391,19.691 18.799,20.415 18,20.636 L18,21.138 C18,21.415 17.776,21.638 17.5,21.638 C17.224,21.638 17,21.415 17,21.138 L17,20.636 C16.201,20.415 15.609,19.691 15.609,18.821 C15.609,18.545 15.833,18.321 16.109,18.321 C16.385,18.321 16.609,18.545 16.609,18.821 C16.609,19.312 17.008,19.712 17.5,19.712 C17.992,19.712 18.391,19.313 18.391,18.821 C18.391,18.329 17.992,17.928 17.5,17.928 C16.457,17.928 15.609,17.08 15.609,16.037 C15.609,15.168 16.201,14.443 17,14.223 L17,13.719 C17,13.443 17.224,13.219 17.5,13.219 C17.776,13.219 18,13.443 18,13.719 L18,14.223 C18.799,14.443 19.391,15.168 19.391,16.037 C19.391,16.314 19.167,16.537 18.891,16.537 C18.615,16.537 18.391,16.314 18.391,16.037 C18.391,15.546 17.992,15.146 17.5,15.146 C17.008,15.146 16.609,15.545 16.609,16.037 C16.609,16.529 17.009,16.928 17.5,16.928 Z" id="Shape"></path>
                            </g>
                        </g>
                        <g id="Invisible_Shape">
                            <rect id="Rectangle-path" x="0" y="0" width="24" height="24"></rect>
                        </g>
                    </g>
                </g>
            </g>
        </g>
    </g>
</svg>