<svg xmlns="http://www.w3.org/2000/svg" xmlns:xlink="http://www.w3.org/1999/xlink" preserveAspectRatio="xMidYMid" width="19" height="15" viewBox="0 0 19 15">
  <defs>
    <style>
      .cls-1 {
        fill: #929292;
        filter: url(#color-overlay-1);
        fill-rule: evenodd;
      }
    </style>

    <filter id="color-overlay-1" filterUnits="userSpaceOnUse">
      <feFlood flood-color="#fff"/>
      <feComposite operator="in" in2="SourceGraphic"/>
      <feBlend in2="SourceGraphic" result="solidFill"/>
    </filter>
  </defs>
  <path d="M18.500,14.995 L14.196,14.995 C13.919,14.995 13.696,14.773 13.696,14.498 C13.696,14.223 13.919,14.000 14.196,14.000 L18.000,14.000 L18.000,11.149 C17.713,10.962 16.842,10.651 16.190,10.417 C15.729,10.252 15.245,10.078 14.792,9.899 C14.603,9.823 14.478,9.640 14.478,9.437 L14.478,8.269 C14.478,8.046 14.627,7.850 14.843,7.790 C14.842,7.789 15.261,7.620 15.261,6.711 C15.261,6.499 15.395,6.316 15.585,6.245 C15.651,6.098 15.676,5.787 15.634,5.636 C15.419,5.580 15.261,5.386 15.261,5.154 C15.261,4.987 15.334,4.862 15.426,4.704 C15.561,4.472 15.788,4.083 15.678,3.754 C15.590,3.491 15.011,3.218 14.196,3.218 C14.195,3.218 14.195,3.218 14.195,3.218 C13.380,3.218 12.802,3.491 12.713,3.754 C12.634,3.993 12.386,4.135 12.139,4.084 C12.096,4.075 12.060,4.071 12.032,4.068 C12.046,4.199 12.113,4.421 12.233,4.732 C12.307,4.923 12.348,5.027 12.348,5.154 C12.348,5.287 12.295,5.413 12.201,5.506 C12.136,5.572 12.054,5.617 11.965,5.638 C11.924,5.788 11.952,6.098 12.020,6.244 C12.211,6.315 12.348,6.497 12.348,6.711 C12.348,7.620 12.767,7.789 12.784,7.796 C12.979,7.869 13.130,8.062 13.130,8.269 L13.130,9.048 C13.130,9.322 12.907,9.545 12.630,9.545 C12.354,9.545 12.130,9.322 12.130,9.048 L12.130,8.559 C11.827,8.340 11.434,7.892 11.360,7.012 C11.087,6.758 10.946,6.292 10.946,5.831 C10.946,5.644 10.972,5.371 11.095,5.133 C11.135,5.055 11.184,4.986 11.238,4.926 C11.066,4.465 10.873,3.811 11.244,3.377 C11.368,3.230 11.587,3.078 11.959,3.071 C12.421,2.453 13.403,2.224 14.195,2.224 C14.195,2.224 14.195,2.224 14.196,2.224 C15.129,2.224 16.326,2.542 16.626,3.440 C16.832,4.055 16.607,4.620 16.413,4.986 C16.449,5.033 16.481,5.085 16.509,5.142 C16.629,5.380 16.654,5.653 16.654,5.839 C16.654,6.288 16.524,6.760 16.248,7.016 C16.173,7.893 15.781,8.341 15.478,8.559 L15.478,9.097 C15.825,9.229 16.184,9.357 16.529,9.481 C18.287,10.110 19.000,10.390 19.000,10.994 L19.000,14.498 C19.000,14.773 18.776,14.995 18.500,14.995 ZM9.723,4.261 C9.723,4.742 9.537,5.235 9.208,5.484 C9.140,6.581 8.737,7.118 8.435,7.369 L8.435,8.322 C10.469,9.149 12.739,10.240 12.739,10.994 L12.739,14.498 C12.739,14.773 12.516,14.995 12.239,14.995 L0.500,14.995 C0.224,14.995 0.000,14.773 0.000,14.498 L0.000,10.994 C0.000,10.240 2.270,9.149 4.304,8.322 L4.304,7.369 C4.002,7.117 3.600,6.580 3.532,5.484 C3.205,5.236 3.020,4.749 3.020,4.274 C3.020,3.989 3.088,3.733 3.216,3.534 C3.266,3.458 3.323,3.391 3.386,3.334 C3.145,2.759 2.856,1.970 3.278,1.456 C3.465,1.228 3.726,1.114 4.097,1.116 C4.583,0.290 5.781,-0.015 6.760,-0.015 L6.761,-0.015 C7.889,-0.015 9.307,0.390 9.594,1.529 C9.776,2.256 9.555,2.928 9.380,3.347 C9.438,3.401 9.490,3.464 9.534,3.534 C9.658,3.729 9.723,3.981 9.723,4.261 ZM8.687,4.062 C8.411,4.062 8.243,3.872 8.243,3.597 C8.243,3.450 8.296,3.330 8.377,3.148 C8.519,2.831 8.756,2.299 8.623,1.771 C8.510,1.320 7.709,0.980 6.761,0.980 L6.760,0.980 C5.812,0.980 5.011,1.320 4.898,1.771 C4.834,2.029 4.575,2.191 4.313,2.138 C4.087,2.092 4.013,2.118 4.011,2.119 C4.028,2.183 4.127,2.526 4.363,3.079 C4.469,3.326 4.522,3.451 4.522,3.597 C4.522,3.872 4.298,4.094 4.022,4.094 C3.981,4.171 4.022,4.532 4.115,4.666 C4.347,4.708 4.522,4.911 4.522,5.154 C4.522,6.393 4.991,6.639 4.996,6.642 C5.196,6.711 5.304,6.890 5.304,7.101 L5.304,8.658 C5.304,8.861 5.180,9.044 4.990,9.120 C2.913,9.946 1.341,10.803 1.000,11.122 L1.000,14.000 L11.739,14.000 L11.739,11.122 C11.398,10.804 9.826,9.947 7.749,9.120 C7.559,9.044 7.435,8.861 7.435,8.658 L7.435,7.101 C7.435,6.890 7.569,6.702 7.769,6.632 L7.769,6.632 C7.762,6.632 8.217,6.374 8.217,5.154 C8.217,4.911 8.393,4.708 8.624,4.666 C8.717,4.532 8.760,4.165 8.687,4.062 Z" class="cls-1"/>
</svg>
