<svg xmlns="http://www.w3.org/2000/svg" xmlns:xlink="http://www.w3.org/1999/xlink" preserveAspectRatio="xMidYMid" width="20" height="18" viewBox="0 0 20 18">
  <defs>
    <style>
      .cls-1 {
        fill: #929292;
        filter: url(#color-overlay-1);
        fill-rule: evenodd;
      }
    </style>

    <filter id="color-overlay-1" filterUnits="userSpaceOnUse">
      <feFlood flood-color="#fff"/>
      <feComposite operator="in" in2="SourceGraphic"/>
      <feBlend in2="SourceGraphic" result="solidFill"/>
    </filter>
  </defs>
  <path d="M19.874,9.796 C19.770,9.914 19.628,9.973 19.485,9.973 C19.358,9.973 19.231,9.927 19.130,9.831 L18.000,8.770 L18.000,17.532 C18.000,17.799 17.776,18.015 17.499,18.015 L9.520,18.015 C9.519,18.015 9.518,18.016 9.516,18.016 L2.510,18.016 C2.235,18.016 2.012,17.787 2.012,17.505 L2.012,8.756 L0.868,9.831 C0.654,10.034 0.321,10.019 0.124,9.796 C-0.073,9.576 -0.057,9.232 0.158,9.031 L9.644,0.119 C9.845,-0.070 10.153,-0.070 10.354,0.119 L19.840,9.031 C20.055,9.232 20.071,9.576 19.874,9.796 ZM9.999,1.254 L3.007,7.822 L3.007,16.995 L9.516,16.995 C9.595,16.995 9.666,17.017 9.732,17.050 L16.999,17.050 L16.999,8.476 C16.999,8.299 17.103,8.150 17.251,8.067 L9.999,1.254 ZM10.016,10.500 C11.117,10.500 12.014,11.313 12.014,12.312 C12.014,13.137 11.398,13.827 10.564,14.045 L10.564,14.501 C10.564,14.776 10.319,14.999 10.016,14.999 C9.712,14.999 9.467,14.776 9.467,14.501 L9.467,14.045 C8.633,13.827 8.017,13.137 8.017,12.312 C8.017,12.037 8.262,11.815 8.566,11.815 C8.869,11.815 9.115,12.037 9.115,12.312 C9.115,12.762 9.519,13.128 10.016,13.128 C10.512,13.128 10.917,12.762 10.917,12.312 C10.917,11.862 10.512,11.495 10.016,11.495 C8.914,11.495 8.017,10.683 8.017,9.684 C8.017,8.859 8.633,8.169 9.467,7.951 L9.467,7.494 C9.467,7.219 9.712,6.997 10.016,6.997 C10.319,6.997 10.564,7.219 10.564,7.494 L10.564,7.951 C11.398,8.169 12.014,8.859 12.014,9.684 C12.014,9.959 11.769,10.181 11.465,10.181 C11.162,10.181 10.917,9.959 10.917,9.684 C10.917,9.234 10.512,8.868 10.016,8.868 C9.519,8.868 9.115,9.234 9.115,9.684 C9.115,10.134 9.519,10.500 10.016,10.500 Z" class="cls-1"/>
</svg>
