<svg xmlns="http://www.w3.org/2000/svg" width="24" height="24" viewBox="0 0 24 24">
    <path fill="noe" fill-rule="nonzero" d="M1.923 13.807c-.598-.353-.95-.98-.921-1.642.028-.663.433-1.261 1.06-1.568l19.383-9.493a1.175 1.175 0 0 1 1.194.136l.008.006c.283.25.409.622.33.985l-4.687 18.35a1.893 1.893 0 0 1-1.175 1.282 2.088 2.088 0 0 1-1.796-.147l-3.47-2.049-1.933 1.815c-.436.408-1.09.53-1.659.31-.569-.222-.94-.742-.94-1.32v-3.48l-5.394-3.185zm1.508-1.62a.074.074 0 0 0-.043.064.073.073 0 0 0 .037.066l4.702 2.777c.034.02.078.014.104-.014l8.81-9.392a.071.071 0 0 0 .002-.094.083.083 0 0 0-.096-.022L3.43 12.188zm16.39-6.205a.073.073 0 0 0-.04-.084.083.083 0 0 0-.096.018l-9.602 10.233a.069.069 0 0 0-.019.059c.003.022.017.04.036.052l6.085 3.592a.085.085 0 0 0 .073.006.077.077 0 0 0 .048-.051l3.516-13.825zM9.157 19.75V17.74l1.31.776-1.31 1.233zm.832-1.183l-.53-.314v.813l.53-.499z"/>
</svg>
