<svg xmlns="http://www.w3.org/2000/svg" width="24" height="24" viewBox="0 0 24 24">
    <path fill="#0945eb" fill-rule="nonzero" d="M1.923 13.807c-.598-.353-.95-.98-.921-1.642.028-.663.433-1.261 1.06-1.568l19.383-9.493a1.175 1.175 0 0 1 1.194.136l.008.006c.283.25.409.622.33.985l-4.687 18.35a1.893 1.893 0 0 1-1.175 1.282 2.088 2.088 0 0 1-1.796-.147l-3.47-2.049-1.933 1.815c-.436.408-1.09.53-1.659.31-.569-.222-.94-.742-.94-1.32v-3.48l-5.394-3.185zm16.13-7.833L8.964 13.73a1 1 0 0 0 .085 1.587l1.131.772a1 1 0 0 0 1.37-.235l6.94-9.473a.3.3 0 0 0-.437-.406z"/>
</svg>
