<svg width="24" height="24" viewBox="0 0 24 24" fill="none" xmlns="http://www.w3.org/2000/svg">
<path fill-rule="evenodd" clip-rule="evenodd" d="M13.6 20.75C14.0142 20.75 14.35 20.4142 14.35 20C14.35 19.5858 14.0142 19.25 13.6 19.25H8.66667C7.2432 19.25 5.86951 18.6543 4.85027 17.58C3.82977 16.5043 3.25 15.0374 3.25 13.5C3.25 11.9626 3.82977 10.4957 4.85027 9.42C5.86951 8.34567 7.2432 7.75 8.66667 7.75H19.4393L16.7197 10.4697C16.4268 10.7626 16.4268 11.2374 16.7197 11.5303C17.0126 11.8232 17.4874 11.8232 17.7803 11.5303L21.7803 7.53033C22.0732 7.23744 22.0732 6.76256 21.7803 6.46967L17.7803 2.46967C17.4874 2.17678 17.0126 2.17678 16.7197 2.46967C16.4268 2.76256 16.4268 3.23744 16.7197 3.53033L19.4393 6.25H8.66667C6.81913 6.25 5.05579 7.02397 3.76208 8.38761C2.46964 9.74991 1.75 11.5895 1.75 13.5C1.75 15.4105 2.46964 17.2501 3.76208 18.6124C5.05579 19.976 6.81913 20.75 8.66667 20.75H13.6Z" fill="black"/>
</svg>
